<svg xmlns="http://www.w3.org/2000/svg" xmlns:xlink="http://www.w3.org/1999/xlink" viewBox="0 0 680 178"><path fill="#EEE" d="M281.6 160.1c0 1.7 1.3 3 3 3h11.1c1.7 0 3-1.3 3-3v-20.3c0-1.7-1.3-3-3-3h-11.1c-1.7 0-3 1.3-3 3v20.3z"/><path fill="#DDD" d="M280.1 178.1c-6 0-10.9-4.9-10.9-10.9v-60.5h1.5v60.5c0 5.2 4.2 9.4 9.4 9.4s9.4-4.2 9.4-9.4v-7.6h1.5v7.6c0 6.1-4.9 10.9-10.9 10.9z"/><circle fill="#DDD" cx="290.2" cy="155.5" r="4.4"/><circle fill="#FFF" cx="290.2" cy="144.4" r="4.4"/><path fill="#DDD" d="M290.2 161.8c-1.1 0-2-.9-2-2v-4.3c0-1.1.9-2 2-2s2 .9 2 2v4.3c0 1.1-.9 2-2 2z"/><path fill="#AAA" d="M288.6 145c-.3 0-.5-.2-.5-.5v-1.8c0-.3.2-.5.5-.5s.5.2.5.5v1.8c.1.2-.2.5-.5.5zM291.7 145c-.3 0-.5-.2-.5-.5v-1.8c0-.3.2-.5.5-.5s.5.2.5.5v1.8c.1.2-.2.5-.5.5zM289.3 146.8c0-.5.4-.9.9-.9s.9.4.9.9"/><path fill="#A7E2F9" d="M444.2 16.6l37.1 37.1-23.1 48.9-209.6.1z" opacity=".3"/><path fill="#5FB2DE" d="M.1 104.9c0 1.2 1 2.1 2.1 2.1h675.6c1.2 0 2.1-1 2.1-2.1 0-1.2-1-2.1-2.1-2.1H2.2c-1.2-.1-2.1.9-2.1 2.1z"/><path fill="#DDD" d="M526.3 144.6c-.4 0-.8-.3-.8-.8v-8.4c0-.4.3-.8.8-.8s.8.3.8.8v8.4c-.1.4-.4.8-.8.8z"/><path fill="#89CDEF" d="M536 117.7c-2.3 0-4.2-1.9-4.2-4.2V103c0-.4.3-.8.8-.8s.8.3.8.8v10.5c0 1.5 1.2 2.7 2.7 2.7s2.7-1.2 2.7-2.7v-10.8c0-.4.3-.8.8-.8s.8.3.8.8v10.8c-.2 2.3-2.1 4.2-4.4 4.2zM526.3 137.1c-.4 0-.8-.3-.8-.8v-33.6c0-.4.3-.8.8-.8s.8.3.8.8v33.6c-.1.5-.4.8-.8.8z"/><path fill="#89CDEF" d="M527.8 139.9v-7.8c0-.8-.7-1.5-1.5-1.5s-1.5.7-1.5 1.5v7.8h3zM552.3 130.3c-4.2 0-7.7-3.4-7.7-7.7v-19.9c0-.4.3-.8.8-.8s.8.3.8.8v19.9c0 3.4 2.8 6.2 6.2 6.2s6.2-2.8 6.2-6.2v-42c0-2.1 1.7-3.8 3.8-3.8.4 0 .8.3.8.8s-.3.8-.8.8c-1.3 0-2.3 1-2.3 2.3v42c-.1 4.2-3.6 7.6-7.8 7.6z"/><g><path fill="#A7E2F9" d="M163.1 61.8h-6.3v4h5.9c.6 0 1.1.5 1.1 1.1v14.6c0 .6-.5 1.1-1.1 1.1h-5.8v4h6.3c2.5 0 4.6-2.1 4.6-4.6V66.4c-.1-2.5-2.2-4.6-4.7-4.6z"/><path fill="#A7E2F9" d="M122.1 90.8c0 6.6 5.3 11.9 11.9 11.9h13.2c6.6 0 11.9-5.3 11.9-11.9V61.1c0-6.6-5.3-11.9-11.9-11.9H134c-6.6 0-11.9 5.3-11.9 11.9v29.7z"/><path fill="#89CDEF" d="M162.928 17.676l3.197 1.424-33.96 76.277-3.196-1.424z"/><path fill="#1586CA" d="M156.6 31.9l6.4-5.7 3.2-7.1-.4-.1-5.7 5.1zM149.6 47.6l6.4-5.7 3.5-7.9-6.4 5.8zM142.6 63.3l6.4-5.7 3.5-7.9-6.4 5.8zM135.7 79l6.3-5.7 3.5-7.9-6.3 5.8zM138.5 81.1l-6.3 5.8L129 94l.4.1 5.7-5.1z"/><g><path fill="#A7E2F9" d="M125.7 46.4h29.7v6h-29.7z"/><path fill="#89CDEF" d="M155.5 49.8h-29.4c-.4 0-.7-.3-.7-.7 0-.4.3-.7.7-.7h29.4c.4 0 .7.3.7.7-.1.4-.4.7-.7.7zM155.5 47.1h-29.4c-.4 0-.7-.3-.7-.7s.3-.7.7-.7h29.4c.4 0 .7.3.7.7s-.4.7-.7.7zM155.5 52.4h-29.4c-.4 0-.7-.3-.7-.7 0-.4.3-.7.7-.7h29.4c.4 0 .7.3.7.7-.1.5-.4.7-.7.7z"/></g><g><path fill="#5FB2DE" d="M156.4 63.8h-31.7v27.1c0 5.1 4.1 9.2 9.2 9.2h13.2c5.1 0 9.2-4.1 9.2-9.2V63.8z"/><circle fill="#89CDEF" cx="130.2" cy="92.1" r="1.1"/><circle fill="#89CDEF" cx="134.8" cy="87.7" r="1.1"/><circle fill="#89CDEF" cx="140.2" cy="95.3" r="1.1"/><circle fill="#89CDEF" cx="140.2" cy="86" r="1.1"/><circle fill="#89CDEF" cx="139.1" cy="91.3" r=".8"/><circle fill="#89CDEF" cx="134.1" cy="95.3" r=".8"/><circle fill="#89CDEF" cx="137.9" cy="79.8" r=".8"/><circle fill="#89CDEF" cx="132.1" cy="72.1" r=".8"/><circle fill="#89CDEF" cx="144.8" cy="88" r=".8"/><circle fill="#89CDEF" cx="133.3" cy="79" r=".8"/><circle fill="#89CDEF" cx="134.3" cy="91.7" r=".4"/><circle fill="#89CDEF" cx="132.9" cy="82.6" r=".4"/><circle fill="#89CDEF" cx="141.3" cy="80.1" r=".4"/><circle fill="#89CDEF" cx="129.1" cy="69.6" r=".4"/><circle fill="#89CDEF" cx="130.2" cy="76" r=".4"/><circle fill="#89CDEF" cx="127.2" cy="72.9" r=".4"/><circle fill="#89CDEF" cx="135.9" cy="75.3" r=".4"/><circle fill="#89CDEF" cx="145.9" cy="95.3" r=".4"/><circle fill="#89CDEF" cx="149.2" cy="74" r=".4"/><circle fill="#89CDEF" cx="150.5" cy="80.3" r=".4"/><circle fill="#89CDEF" cx="148.9" cy="88" r=".4"/><circle fill="#89CDEF" cx="152.6" cy="88.3" r=".4"/><circle fill="#89CDEF" cx="150.2" cy="93.9" r=".4"/><circle fill="#89CDEF" cx="130.8" cy="95.6" r=".4"/><circle fill="#89CDEF" cx="143.7" cy="91.7" r=".4"/><circle fill="#89CDEF" cx="145.6" cy="83.4" r=".4"/><circle fill="#89CDEF" cx="136.2" cy="84.5" r=".4"/><circle fill="#89CDEF" cx="130.5" cy="87.1" r=".4"/><circle fill="#89CDEF" cx="142.4" cy="76.3" r=".4"/><circle fill="#89CDEF" cx="128" cy="79.8" r=".4"/><circle fill="#89CDEF" cx="128" cy="88.8" r=".8"/><circle fill="#89CDEF" cx="129.1" cy="83.4" r="1.1"/></g><g opacity=".5"><path fill="#A7E2F9" d="M141.7 52.4h10.1v11.3h-10.1z"/></g></g><g><path fill="#EEEDED" d="M202.1 85.4l1.5-.5 4.8-5-6.8-1-1.5.6z"/><path fill="#1586CA" d="M206.2 79.6l.7 1.9 1.5-1.6z"/><path fill="#DDD" d="M150.936 102.601l-1.974-5.877 2.843-.955 1.975 5.877z"/><path fill="#89CDEF" d="M151 102.5c-1.6.5-3.4-.3-4-2-.5-1.6.3-3.4 2-4"/><path fill="#1586CA" d="M202 83.8c-.3-.8.2-1.7 1-2-.8.2-1.7-.2-2-1-.2-.7 0-1.4.6-1.8l-49.8 16.7 2 5.9 49.8-16.7c-.7 0-1.4-.4-1.6-1.1z"/><g><path fill="#5FB2DE" d="M207.1 90.7v10.8c0 .7-.6 1.3-1.3 1.3h-16c-.7 0-1.3-.6-1.3-1.3V90.7c0-.7.6-1.3 1.3-1.3h16c.7 0 1.3.6 1.3 1.3z"/><path fill="#A7E2F9" d="M211.5 90.7l2.5 10.8c0 .7-.6 1.3-1.3 1.3h-18.6c-.7 0-1.3-.6-1.3-1.3V90.7c0-.7.6-1.3 1.3-1.3h16c.8 0 1.2.5 1.4 1.3z"/><path fill="#89CDEF" d="M211.4 102.7h-20.3V89.4h17.2z"/></g></g><g><path fill="#1586CA" d="M600.5 99l-.7-2.9c8.4-2 15.2-7.6 18.7-15.5 6.1-13.8-.1-30-13.9-36.1-6.7-3-14.1-3.2-20.9-.5-6.8 2.6-12.2 7.7-15.2 14.4-3.7 8.2-3 17.7 1.7 25.4l-2.6 1.6c-5.2-8.5-5.9-19.1-1.9-28.2 3.3-7.4 9.3-13.1 16.9-16 7.6-2.9 15.8-2.7 23.2.6 15.3 6.8 22.2 24.8 15.4 40.1-3.9 8.6-11.4 14.9-20.7 17.1z"/><path fill="#89CDEF" d="M572.3 91.8c-7.2-1.5-11.9-8.7-10.3-15.9 1.5-7.2 8.7-11.9 15.9-10.3"/><path fill="#1586CA" d="M568.6 91c-.2 1.1.5 2.1 1.5 2.4l5.6 1.2c1.1.2 2.1-.5 2.4-1.5l5.6-26.2c.2-1.1-.5-2.1-1.5-2.4l-5.6-1.2c-1.1-.2-2.1.5-2.4 1.5L568.6 91z"/><path fill="#89CDEF" d="M591 100.2c6 4.4 14.4 3 18.7-3 4.4-6 3-14.4-3-18.7"/><path fill="#1586CA" d="M594.1 102.4c-.6.9-1.9 1.1-2.8.4l-4.6-3.4c-.9-.6-1.1-1.9-.4-2.8L601.9 75c.6-.9 1.9-1.1 2.8-.4l4.6 3.4c.9.6 1.1 1.9.4 2.8l-15.6 21.6z"/><g><path fill="#5FB2DE" d="M619.9 61.4c-1.3 0-2.6-.8-3.2-2.1-2.5-5.8-7.1-10.4-12.9-13-5.8-2.6-12.3-2.9-18.3-.9-1.8.6-3.8-.4-4.4-2.2-.6-1.8.4-3.8 2.2-4.4 7.7-2.6 16-2.1 23.4 1.1 7.4 3.3 13.2 9.2 16.5 16.6.8 1.8 0 3.8-1.8 4.6-.5.2-1 .3-1.5.3z"/></g><g><path fill="#5FB2DE" d="M619.3 62.3c-1.3 0-2.6-.8-3.2-2.1v-.1c-.8-1.8.1-3.8 1.8-4.6 1.8-.8 3.8 0 4.6 1.8v.1c.8 1.8-.1 3.8-1.8 4.6-.4.2-.9.3-1.4.3z"/><path fill="#5FB2DE" d="M616.8 57.7c-1.1 0-2.2-.5-2.9-1.5l-.1-.1c-.5-.7-.7-1.6-.5-2.4-.8 0-1.6-.4-2.3-1l-.1-.1c-.6-.6-.9-1.5-.9-2.3-.8.1-1.7-.1-2.4-.6l-.1-.1c-.7-.5-1.2-1.3-1.4-2.1-.8.3-1.7.2-2.5-.1h-.1l-.2-.1c-.8-.4-1.3-1-1.6-1.7-.7.4-1.6.6-2.5.3l.8-3.4-.9 3.4 1.6-6.8h.1c1.1.3 1.9 1 2.4 2 .9-.5 2.1-.6 3.1-.1h.1c1 .5 1.7 1.4 2 2.4 1-.3 2.2-.2 3.1.5 1 .7 1.5 1.7 1.5 2.8 1.1-.2 2.2.2 3 1.1.8.8 1.1 1.9 1 3 1.1.1 2.1.6 2.7 1.6 1.1 1.6.7 3.8-.9 4.9-.6.2-1.3.4-2 .4zm-27.5-12.3c-1.7 0-3.2-1.3-3.5-3-.3-1.9 1.1-3.7 3-4h.1c1.1-.2 2.2.2 3 1 .7-.8 1.7-1.3 2.9-1.3 1.9.1 3.5 1.7 3.4 3.6-.1 1.9-1.7 3.5-3.6 3.3h-.1c-.9 0-1.7-.4-2.3-1-.5.6-1.3 1.1-2.2 1.2h-.1c-.3.2-.5.2-.6.2z"/><path fill="#5FB2DE" d="M584.2 46.6c-1.5 0-2.8-.9-3.3-2.4-.6-1.8.3-3.8 2.2-4.4 1.8-.6 3.8.3 4.5 2.2.6 1.8-.3 3.8-2.1 4.4h-.1c-.5.2-.8.2-1.2.2z"/></g></g><g><path fill="#1586CA" d="M490.2 89.8h7v8.4h-7zM491.394 1.552l4.95 4.95-5.94 5.94-4.95-4.95z"/><circle fill="#A7E2F9" cx="466.2" cy="31.7" r="12"/><path fill="#5FB2DE" d="M488.5 20.8c3.1-3.1 3.1-8.2 0-11.4s-8.2-3.1-11.4 0l-6.7 6.7 11.4 11.4 6.7-6.7z"/><path fill="#5FB2DE" d="M481.3 53.7c10.3-10.3 10.3-26.9 0-37.1-10.3-10.3-26.9-10.3-37.1 0l37.1 37.1z"/><path fill="#1586CA" d="M534.023 44.426l1.414 1.414-42.85 42.85-1.414-1.414zM537.62 47.986l1.414 1.414-42.85 42.85-1.414-1.414z"/><path fill="#1586CA" d="M514.007 65.899l3.536 3.535-1.414 1.414-3.536-3.535zM536.5 49.4c-.7 0-1.3-.3-1.8-.7-.5-.5-.7-1.1-.7-1.8s.3-1.3.7-1.8 1.1-.7 1.8-.7 1.3.3 1.8.7.7 1.1.7 1.8-.3 1.3-.7 1.8c-.5.5-1.1.7-1.8.7z"/><path fill="#5FB2DE" d="M536.5 45.4c.4 0 .8.2 1.1.4.6.6.6 1.5 0 2.1-.3.3-.7.4-1.1.4s-.8-.2-1.1-.4c-.6-.6-.6-1.5 0-2.1.4-.2.7-.4 1.1-.4m0-2c-.9 0-1.8.3-2.5 1-1.4 1.4-1.4 3.6 0 4.9.7.7 1.6 1 2.5 1s1.8-.3 2.5-1c1.4-1.4 1.4-3.6 0-4.9-.7-.6-1.6-1-2.5-1z"/><g><path fill="#1586CA" d="M493.7 92.3c-.7 0-1.3-.3-1.8-.7-1-1-1-2.6 0-3.5.5-.5 1.1-.7 1.8-.7s1.3.3 1.8.7.7 1.1.7 1.8-.3 1.3-.7 1.8-1.1.6-1.8.6z"/><path fill="#5FB2DE" d="M493.7 88.3c.4 0 .8.2 1.1.4.3.3.4.7.4 1.1s-.2.8-.4 1.1c-.3.3-.7.4-1.1.4-.4 0-.8-.2-1.1-.4-.3-.3-.4-.7-.4-1.1s.2-.8.4-1.1.7-.4 1.1-.4m0-2c-.9 0-1.8.3-2.5 1-1.4 1.4-1.4 3.6 0 4.9.7.7 1.6 1 2.5 1 .9 0 1.8-.3 2.5-1 1.4-1.4 1.4-3.6 0-4.9-.7-.7-1.6-1-2.5-1z"/></g><g><path fill="#1586CA" d="M496.2 1.696l42.85 42.85-1.415 1.415-42.85-42.85zM492.644 5.289l42.85 42.85-1.414 1.415-42.85-42.85z"/><path fill="#1586CA" d="M516.165 23.115l1.414 1.414-3.535 3.536-1.414-1.415zM493.7 6.7c-.7 0-1.3-.3-1.8-.7-.5-.5-.7-1.1-.7-1.8s.3-1.3.7-1.8 1.1-.7 1.8-.7 1.3.3 1.8.7c1 1 1 2.6 0 3.5-.5.5-1.1.8-1.8.8z"/><path fill="#5FB2DE" d="M493.7 2.7c.4 0 .8.2 1.1.4.3.3.4.7.4 1.1s-.2.8-.5 1c-.3.3-.7.4-1.1.4-.4 0-.8-.2-1.1-.4-.6-.6-.6-1.5 0-2.1.4-.3.8-.4 1.2-.4m0-2c-.9 0-1.8.3-2.5 1-1.4 1.4-1.4 3.6 0 4.9.7.7 1.6 1 2.5 1 .9 0 1.8-.3 2.5-1 1.4-1.4 1.4-3.6 0-4.9-.7-.7-1.6-1-2.5-1z"/><g><path fill="#1586CA" d="M536.5 49.5c-.7 0-1.3-.3-1.8-.7-1-1-1-2.6 0-3.5.5-.5 1.1-.7 1.8-.7s1.3.3 1.8.7.7 1.1.7 1.8-.3 1.3-.7 1.8-1.1.6-1.8.6z"/><path fill="#5FB2DE" d="M536.5 45.5c.4 0 .8.2 1.1.4.6.6.6 1.5 0 2.1-.3.3-.7.4-1.1.4-.4 0-.8-.2-1.1-.4-.3-.3-.4-.7-.4-1.1 0-.4.2-.8.4-1.1.4-.1.7-.3 1.1-.3m0-2c-.9 0-1.8.3-2.5 1-1.4 1.4-1.4 3.6 0 4.9.7.7 1.6 1 2.5 1 .9 0 1.8-.3 2.5-1 1.4-1.4 1.4-3.6 0-4.9-.7-.6-1.6-1-2.5-1z"/></g></g><g><path fill="#1586CA" d="M476.2 102.7c0-3.1 2.5-5.6 5.6-5.6h23.9c3.1 0 5.6 2.5 5.6 5.6h-35.1z"/></g></g><g><path fill="#A7E2F9" d="M623.8 100.7c0 1.1.9 2 2 2h6.6c1.1 0 2-.9 2-2v-74c0-1.1-.9-2-2-2h-6.6c-1.1 0-2 .9-2 2v74z"/><path fill="#5FB2DE" d="M623.8 30h10.6v6.3h-10.6zM623.8 91.5h10.6v6.3h-10.6z"/></g><g><path fill="#DDD" d="M634.4 100.7c0 1.1.9 2 2 2h13c1.1 0 2-.9 2-2V30.1c0-1.1-.9-2-2-2h-13c-1.1 0-2 .9-2 2v70.6z"/><path fill="#EEE" d="M637.6 36.7h10.6v4.8h-10.6zM637.6 43.4h10.6v4.8h-10.6zM637.6 50.2h10.6V55h-10.6z"/><circle fill="#EEE" cx="642.9" cy="94.3" r="3.4"/></g><g><defs><path id="a" d="M87.5 94.3c0-3.1 1.6-5.9 4.1-7.4H28.1c-1.1 0-2 .9-2 2v10.9c0 1.1.9 2 2 2h63.5c-2.5-1.7-4.1-4.4-4.1-7.5z"/></defs><use xlink:href="#a" overflow="visible" fill="#EEE"/><clipPath id="b"><use xlink:href="#a" overflow="visible"/></clipPath><g clip-path="url(#b)"><path fill="#DDD" d="M25.8 86.1h68.5v1.2H25.8zM25.4 91.2h68.5v1.2H25.4zM25.4 101.3h68.5v1.2H25.4zM25.4 98.7h68.5v1.2H25.4zM25.4 96.2h68.5v1.2H25.4zM25.4 93.7h68.5v1.2H25.4zM25.4 88.6h68.5v1.2H25.4z"/></g><g><path fill="#1586CA" d="M91.7 102.7H30.1c-2.8 0-5-2.2-5-5v-6.9c0-2.8 2.2-5 5-5h61.6c.6 0 1 .4 1 1s-.4 1-1 1H30.1c-1.7 0-3 1.3-3 3v6.9c0 1.7 1.3 3 3 3h61.6c.6 0 1 .4 1 1s-.5 1-1 1z"/></g><g><path fill="#89CDEF" d="M42.7 99l-3.4-1.7-3.4 1.7v-7.8h6.8z"/></g></g><g><defs><path id="c" d="M99.3 79.6c0-2.3 1.2-4.4 3-5.5h-64c-.8 0-1.5.7-1.5 1.5v8.1c0 .8.7 1.5 1.5 1.5h64.1c-1.9-1.3-3.1-3.3-3.1-5.6z"/></defs><use xlink:href="#c" overflow="visible" fill="#EEE"/><clipPath id="d"><use xlink:href="#c" overflow="visible"/></clipPath><g clip-path="url(#d)"><path fill="#DDD" d="M35.6 71.4h68.5v1.2H35.6zM35.2 76.4h68.5v1.2H35.2zM35.2 86.5h68.5v1.2H35.2zM35.2 84h68.5v1.2H35.2zM35.2 81.5h68.5v1.2H35.2zM35.2 79h68.5v1.2H35.2zM35.2 73.9h68.5v1.2H35.2z"/></g><g><path fill="#5FB2DE" d="M101.4 86.1H40.8c-2.8 0-5-2.2-5-5V78c0-2.8 2.2-5 5-5h60.6c.6 0 1 .4 1 1s-.4 1-1 1H40.8c-1.7 0-3 1.3-3 3v3.1c0 1.7 1.3 3 3 3h60.6c.6 0 1 .4 1 1s-.4 1-1 1z"/></g></g><g><path fill="#EEEDED" d="M263.3 97.9c-1.7 0-3.2-1.4-3.2-3.2V19.2c0-1.7 1.4-3.2 3.2-3.2h121.4c1.7 0 3.2 1.4 3.2 3.2v75.6c0 1.7-1.4 3.2-3.2 3.2H263.3z"/><path fill="#DDD" d="M384.7 16.8c1.3 0 2.4 1.1 2.4 2.4v75.6c0 1.3-1.1 2.4-2.4 2.4H263.3c-1.3 0-2.4-1.1-2.4-2.4V19.2c0-1.3 1.1-2.4 2.4-2.4h121.4m0-1.5H263.3c-2.2 0-3.9 1.8-3.9 3.9v75.6c0 2.2 1.8 3.9 3.9 3.9h121.4c2.2 0 3.9-1.8 3.9-3.9V19.2c0-2.2-1.7-3.9-3.9-3.9zM397.4 98.7c0 2.2-1.8 3.9-3.9 3.9h-139c-2.2 0-3.9-1.8-3.9-3.9h146.8z"/><path fill="#EEEDED" d="M335.8 98.7c0 1.1-.9 2-2 2h-19.7c-1.1 0-2-.9-2-2h23.7z"/><g><path fill="#1586CA" d="M263.1 19.1h121.8v75.7H263.1z"/></g></g><g><path fill="#EEEDED" d="M281.5 36.8h85v58h-85z"/><path fill="#5FB2DE" d="M299.1 68.6h49.7v8.8h-49.7z"/><path fill="#89CDEF" d="M281.5 31.3h85v8.5h-85z"/><circle fill="#5FB2DE" cx="286.1" cy="35.6" r="1.8"/><circle fill="#5FB2DE" cx="291" cy="35.6" r="1.8"/><circle fill="#5FB2DE" cx="295.9" cy="35.6" r="1.8"/><path fill="#5FB2DE" d="M304.7 33.6h38.6v3.6h-38.6zM348.9 86.5h-49.7c-.2 0-.4-.2-.4-.4s.2-.4.4-.4h49.7c.2 0 .4.2.4.4s-.2.4-.4.4zM303.7 84.1c-1.3 0-2.3-1-2.3-2.3 0-1.3 1-2.3 2.3-2.3s2.3 1 2.3 2.3c0 1.2-1 2.3-2.3 2.3zm0-3.9c-.9 0-1.6.7-1.6 1.6 0 .9.7 1.6 1.6 1.6s1.6-.7 1.6-1.6c0-.9-.7-1.6-1.6-1.6zM348.9 51.5h-49.7c-.2 0-.4-.2-.4-.4s.2-.4.4-.4h49.7c.2 0 .4.2.4.4s-.2.4-.4.4zM348.9 60.2h-49.7c-.2 0-.4-.2-.4-.4s.2-.4.4-.4h49.7c.2 0 .4.2.4.4s-.2.4-.4.4z"/><path fill="#1586CA" d="M348.9 69h-49.7c-.2 0-.4-.2-.4-.4s.2-.4.4-.4h49.7c.2 0 .4.2.4.4s-.2.4-.4.4z"/><path fill="#5FB2DE" d="M303.7 57.8c-1.3 0-2.3-1-2.3-2.3s1-2.3 2.3-2.3 2.3 1 2.3 2.3-1 2.3-2.3 2.3zm0-3.9c-.9 0-1.6.7-1.6 1.6s.7 1.6 1.6 1.6 1.6-.7 1.6-1.6-.7-1.6-1.6-1.6zM303.7 66.5c-1.3 0-2.3-1-2.3-2.3 0-1.3 1-2.3 2.3-2.3s2.3 1 2.3 2.3c0 1.3-1 2.3-2.3 2.3zm0-3.8c-.9 0-1.6.7-1.6 1.6 0 .9.7 1.6 1.6 1.6s1.6-.7 1.6-1.6c0-.9-.7-1.6-1.6-1.6z"/><path fill="#1586CA" d="M348.9 77.7h-49.7c-.2 0-.4-.2-.4-.4s.2-.4.4-.4h49.7c.2 0 .4.2.4.4s-.2.4-.4.4z"/><g fill="#1586CA"><circle cx="303.7" cy="73" r="1.9"/><path d="M303.7 75.3c-1.3 0-2.3-1-2.3-2.3 0-1.3 1-2.3 2.3-2.3s2.3 1 2.3 2.3c0 1.3-1 2.3-2.3 2.3zm0-3.9c-.9 0-1.6.7-1.6 1.6 0 .9.7 1.6 1.6 1.6s1.6-.7 1.6-1.6c0-.9-.7-1.6-1.6-1.6z"/></g><g><path fill="#1586CA" d="M345.2 77.3l-3.2-2.6c-.1-.1-.2-.1-.2 0-.1 0-.1.1-.1.2l-.3 4.1c0 .1 0 .2.1.2s.2.1.2 0l1.1-.5.5 1.1c.1.1.2.2.3.1l.9-.4c.1-.1.2-.2.1-.3l-.5-1.1 1.1-.5c.1 0 .1-.1.1-.2l-.1-.1z"/></g></g></svg>
