<svg xmlns="http://www.w3.org/2000/svg" xmlns:xlink="http://www.w3.org/1999/xlink" xmlns:fi="http://pattern.flaticon.com/" x="0" y="0" width="700" height="330" viewBox="0 0 700 330"><rect x="0px" y="0px" width="100%" height="100%" opacity="1" fill="#f7ffa0"/><defs><g transform="matrix(0.12121212482452393 0 0 0.12121212482452393 112 84)" id="L1_0"><path d="M247.5,82.27H355v20c0,52.447-37.746,96.228-87.5,105.627v164.83H355V425H247.5v30H385v-62.273   c0-55.071-32.711-104.692-83.336-126.416l-12.113-5.198v-27.227l12.113-5.198C352.289,206.965,385,157.344,385,102.272V40H247.5   V82.27z" fill="#9bfbff"/><path d="M140,425v-52.272h87.5v-164.83c-49.754-9.399-87.5-53.181-87.5-105.627v-20h107.5V40H110v62.272   c0,55.072,32.711,104.693,83.336,126.417l12.113,5.198v27.226l-12.113,5.198C142.711,288.035,110,337.656,110,392.727V455h137.5   v-30H140z" fill="#bdfdff"/><path d="M425,102.272V40h-40v62.272c0,55.072-32.711,104.693-83.336,126.416l-12.113,5.198v27.227   l12.113,5.198C352.289,288.035,385,337.656,385,392.727V455h40v-62.273c0-58.604-28.691-112.422-75.38-145.227   C396.309,214.695,425,160.876,425,102.272z" fill="#00e7f0"/><path d="M110,455v-62.273c0-55.071,32.711-104.692,83.336-126.416l12.113-5.198v-27.226l-12.113-5.198   C142.711,206.965,110,157.344,110,102.272V40H70v62.272c0,58.604,28.691,112.423,75.379,145.228   C98.691,280.305,70,334.124,70,392.727V455H110z" fill="#46f8ff"/><rect x="20px" y="0px" width="455px" height="40px" fill="#2488ff"/><rect x="20px" y="455px" width="455px" height="40px" fill="#2488ff"/><path d="M247.5,209.77c-6.833,0-13.517-0.648-20-1.873v164.83H140V425h215v-52.272h-87.5v-164.83   c49.754-9.399,87.5-53.181,87.5-105.627v-20H247.5V209.77z" fill="#003f8a"/><path d="M140,102.27c0,52.447,37.746,96.228,87.5,105.627c6.483,1.225,13.167,1.873,20,1.873V82.27H140   V102.27z" fill="#005ece"/></g><g transform="matrix(0.13793103396892548 0 0 0.13793103396892548 289 11)" id="L1_1"><path d="M343.333,42.5 343.333,97.5 303.333,97.5 303.333,42.5 217.5,42.5 217.5,142.5 435,142.5    435,42.5z" fill="#005ece"/><path d="M217.5,202.5h30v60h-30v30h30v60h-30v60H315l0-120h120v-150H217.5V202.5z M277.5,202.5h60v60h-60   V202.5z" fill="#9bc9ff"/><path d="M435,292.5l-60,60L435,292.5z" fill="#9bc9ff"/><path d="M187.5,352.5v-60h30v-30h-30v-60h30v-60H0v270h217.5v-60H187.5z M157.5,352.5h-60v-60h60V352.5z    M157.5,262.5h-60v-60h60V262.5z" fill="#bddbff"/><path d="M217.5,42.5 131.667,42.5 131.667,102.5 91.667,102.5 91.667,42.5 0,42.5 0,142.5    217.5,142.5z" fill="#2488ff"/><rect x="91px" y="22px" width="40px" height="80px" fill="#46f8ff"/><rect x="303px" y="22px" width="40px" height="75px" fill="#00e7f0"/><rect x="97px" y="292px" width="60px" height="60px" fill="#2488ff"/><rect x="187px" y="292px" width="60px" height="60px" fill="#005ece"/><rect x="187px" y="202px" width="60px" height="60px" fill="#005ece"/><rect x="277px" y="202px" width="60px" height="60px" fill="#005ece"/><rect x="97px" y="202px" width="60px" height="60px" fill="#2488ff"/><path d="M315,412.5 435,292.5 315,292.5z" fill="#2488ff"/></g><g transform="matrix(0.20616252720355988 0 0 0.20616252720355988 180.22239303588867 43.22239303588867)" id="L1_2"><path d="M118.29,220.69v40.768c0,6.2-4.044,11.676-9.971,13.5l-61.896,19.044  c-11.852,3.648-19.94,14.599-19.94,26.999v102.723c0,19.501,15.809,35.31,35.31,35.31h17.655h185.379V220.69H118.29z" fill="#d29b6e"/><path d="M167.724,326.621c-34.178,0-64.311-17.941-81.629-44.825l-39.672,12.207  c-11.852,3.647-19.94,14.598-19.94,26.998v102.723c0,19.501,15.809,35.31,35.31,35.31h17.655h185.379V229.517  C264.828,282.924,221.131,326.621,167.724,326.621z" fill="#59d8ff"/><g><path d="M264.828,229.517c0,53.407-43.697,97.103-97.103,97.103c-34.178,0-64.311-17.941-81.629-44.825   l-17.483,5.379c19.891,34.113,56.776,57.101,99.112,57.101c40.951,0,76.794-21.517,97.103-53.795V229.517z" fill="#00c3f0"/><path d="M176.552,414.897H88.276c-4.875,0-8.828-3.953-8.828-8.828v-41.996   c0-7.023-2.791-13.76-7.756-18.727l-40.238-40.238c-3.129,4.583-4.971,10.06-4.971,15.893v102.723   c0,19.501,15.809,35.31,35.31,35.31h17.655h123.586v-17.655C203.034,426.753,191.178,414.897,176.552,414.897z" fill="#00c3f0"/></g><path d="M242.759,158.897h-1.31l-3.104-61.793H98.207v61.793H92.69c-7.313,0-13.241,5.929-13.241,13.241  v17.655c0,7.313,5.929,13.241,13.241,13.241h8.369l1.434,8.963c1.079,6.742,4.564,12.866,9.81,17.238l28.344,23.62  c3.807,3.172,8.607,4.91,13.564,4.91h27.029c4.956,0,9.756-1.738,13.564-4.91l28.344-23.62c5.246-4.371,8.73-10.495,9.81-17.238  l1.434-8.963h8.367c7.313,0,13.241-5.929,13.241-13.241v-17.655C256,164.825,250.071,158.897,242.759,158.897z" fill="#f0c087"/><path d="M238.345,97.103h-88.276H98.207v61.793H92.69c-7.313,0-13.241,5.929-13.241,13.241v17.655  c0,7.313,5.929,13.241,13.241,13.241h8.369l1.434,8.962c1.079,6.743,4.564,12.866,9.81,17.238l28.344,23.62  c3.807,3.172,8.607,4.91,13.562,4.91h11.161l-12.584-37.75c-1.8-5.4-2.718-11.055-2.718-16.748v-53.198  c0-4.875,3.953-8.828,8.828-8.828l0,0c0,0,8.828,0,12.359-4.242c5.38,2.751,11.41,4.242,17.655,4.242  c6.246,0,12.274-1.491,17.655-4.242c5.38,2.751,11.41,4.242,17.655,4.242c0.888,0,1.754-0.06,2.614-0.158l13.72,0.017  L238.345,97.103z" fill="#e6af78"/><path d="M273.655,95.338c0-9.781-6.665-17.932-15.676-20.37c0.98-2.439,1.551-5.088,1.551-7.879  c0-11.701-9.485-21.186-21.186-21.186c-0.431,0-0.833,0.102-1.258,0.127c-2.883-8.276-10.67-14.251-19.928-14.251  c-2.274,0-4.43,0.424-6.47,1.111c-4.522-4.985-10.987-8.173-18.248-8.173c-1.873,0-3.679,0.248-5.432,0.642  c-5.054-4.745-11.806-7.704-19.285-7.704s-14.231,2.959-19.285,7.704c-1.753-0.394-3.561-0.642-5.432-0.642  c-6.739,0-12.834,2.713-17.293,7.087c-0.122-0.002-0.238-0.025-0.362-0.025c-9.258,0-17.045,5.976-19.928,14.251  c-0.425-0.025-0.828-0.127-1.258-0.127c-11.701,0-21.186,9.485-21.186,21.186c0,2.79,0.572,5.439,1.55,7.879  c-9.01,2.438-15.674,10.589-15.674,20.37c0,5.451,2.116,10.369,5.498,14.124c-3.382,3.754-5.498,8.673-5.498,14.124  c0,7.841,4.311,14.593,10.652,18.238c0.314,9.474,8.045,17.073,17.597,17.073h7.718c3.452,0,6.398-2.496,6.966-5.901l4.928-29.568  c0.53,0.04,1.035,0.159,1.575,0.159c7.379,0,13.862-3.78,17.655-9.502c3.794,5.721,10.276,9.502,17.655,9.502  c7.379,0,13.862-3.78,17.655-9.502c3.794,5.721,10.276,9.502,17.655,9.502s13.862-3.78,17.655-9.502  c3.794,5.721,10.276,9.502,17.655,9.502c0.538,0,1.045-0.119,1.575-0.159l4.928,29.568c0.568,3.405,3.514,5.901,6.966,5.901h9.483  c9.75,0,17.655-7.905,17.655-17.655c0-0.183-0.049-0.353-0.054-0.535c5.359-3.823,8.882-10.029,8.882-17.12  c0-5.451-2.116-10.37-5.499-14.124C271.539,105.707,273.655,100.789,273.655,95.338z" fill="#694b4b"/><path d="M162.554,108.204c-8.276-2.883-14.251-10.67-14.251-19.928c0-5.451,2.116-10.37,5.498-14.124  c-3.382-3.754-5.498-8.673-5.498-14.124c0-9.781,6.665-17.932,15.676-20.37c-0.98-2.439-1.55-5.088-1.55-7.879  c0-5.442,2.111-10.354,5.483-14.105c-0.064,0-0.122-0.019-0.186-0.019c-7.479,0-14.231,2.959-19.285,7.704  c-1.753-0.394-3.561-0.642-5.432-0.642c-6.739,0-12.834,2.713-17.293,7.087c-0.122-0.002-0.238-0.025-0.362-0.025  c-9.258,0-17.045,5.976-19.928,14.251c-0.425-0.025-0.828-0.127-1.258-0.127c-11.701,0-21.186,9.485-21.186,21.186  c0,2.79,0.572,5.439,1.55,7.879c-9.011,2.438-15.676,10.589-15.676,20.37c0,5.451,2.116,10.369,5.498,14.124  c-3.382,3.754-5.498,8.673-5.498,14.124c0,7.841,4.311,14.593,10.652,18.238c0.314,9.474,8.045,17.073,17.597,17.073h7.718  c3.452,0,6.398-2.496,6.966-5.901l4.928-29.568c0.53,0.04,1.035,0.159,1.575,0.159c7.379,0,13.862-3.78,17.655-9.502  c3.794,5.721,10.276,9.502,17.655,9.502c4.873,0,9.267-1.761,12.843-4.53c-2.419-2.519-4.015-5.82-4.015-9.594  C162.428,109.031,162.516,108.625,162.554,108.204z" fill="#5a4146"/><path d="M150.069,414.897h26.483c14.626,0,26.483,11.857,26.483,26.483v17.655h-52.966V414.897z" fill="#e6af78"/><path d="M485.517,397.241H220.69c-14.626,0-26.483-11.857-26.483-26.483V211.862  c0-14.626,11.857-26.483,26.483-26.483h264.828c14.626,0,26.483,11.857,26.483,26.483v158.897  C512,385.385,500.143,397.241,485.517,397.241z" fill="#d5dced"/><path d="M406.069,459.034l-15.613-117.092c-1.17-8.771-8.651-15.321-17.501-15.321H333.25  c-8.849,0-16.331,6.55-17.501,15.321l-15.612,117.092v17.655h105.931V459.034z" fill="#afb9d2"/><circle cx="353" cy="273" r="17" fill="#ffffff"/><path d="M503.172,494.345H8.828c-4.875,0-8.828-3.953-8.828-8.828v-17.655c0-4.875,3.953-8.828,8.828-8.828  h494.345c4.875,0,8.828,3.953,8.828,8.828v17.655C512,490.392,508.047,494.345,503.172,494.345z" fill="#f5dcb4"/></g><g transform="matrix(0.1171875 0 0 0.1171875 294.0000014591217 83)" id="L1_3"><rect x="216px" y="425px" width="34px" height="60px" fill="#5b5d6e"/><path d="M234.048,433.931c-27.609,0-55.649-5.304-82.707-16.511l6.642-16.028  c101.607,42.087,218.582-6.337,260.685-107.982c42.103-101.641-6.337-218.586-107.978-260.689l6.642-16.028  C427.808,62.456,480.459,189.57,434.696,300.052C400.141,383.474,319.195,433.931,234.048,433.931z" fill="#7f8499"/><path d="M148.113,433.943c-1.109,0-2.237-0.216-3.321-0.665c-4.422-1.834-6.523-6.908-4.693-11.335  L312.622,5.353c1.83-4.426,6.938-6.519,11.335-4.693c4.422,1.834,6.523,6.908,4.693,11.335L156.127,428.586  C154.746,431.923,151.511,433.943,148.113,433.943z" fill="#afb9d2"/><path d="M166.919,357.18l-13.533,32.679c2.605,1.218,5.233,2.404,7.916,3.515  c2.692,1.116,5.4,2.139,8.113,3.123l13.547-32.712L166.919,357.18z" fill="#959cb5"/><circle cx="234" cy="217" r="173" fill="#59d8ff"/><path d="M271.994,325.252c-88.525-36.668-130.565-138.158-93.896-226.684  c8.518-20.564,20.646-38.491,35.184-53.634c-60.008,7.4-114.447,45.881-139.236,105.729c-36.668,88.525,5.37,190.016,93.895,226.684  c67.962,28.151,143.451,9.785,191.5-40.261C330.687,340.63,300.672,337.13,271.994,325.252z" fill="#00c3f0"/><path d="M319.232,512H149.441c-4.836,0-7.982-5.09-5.82-9.415l10.244-20.488  c1.469-2.939,4.473-4.795,7.759-4.795h145.424c3.286,0,6.289,1.856,7.759,4.795l10.244,20.488  C327.214,506.911,324.068,512,319.232,512z" fill="#7f8499"/><g><path d="M338.434,147.658c-2.22,0-4.439-0.847-6.133-2.542c-3.389-3.389-3.389-8.879,0-12.267l8.675-8.675   c3.389-3.389,8.879-3.389,12.267,0s3.389,8.879,0,12.267l-8.675,8.675C342.873,146.811,340.653,147.658,338.434,147.658z" fill="#b4ff87"/><path d="M264.823,96.789l19.534,1.878l2.521-7.11L248.965,78.11c-1.969-0.698-4.11-0.759-6.116-0.172   l-22.649,6.62c-4.134,1.208-7.881-2.805-6.392-6.847l1.766-4.796c1.192-3.235-0.49-6.82-3.739-7.972l-0.937-0.332   c-5.981-2.121-12.56-1.779-18.29,0.95l-4.912,2.34c-2.983,1.422-6.553,0.155-7.974-2.828l-5.221-10.662   c-24.17,8.899-46.302,23.059-64.556,41.842l-0.362,33.539c-0.124,6.493,3.921,12.337,10.042,14.508l1.939,0.687v14.277   c0,11.964,6.162,23.083,16.308,29.423l24.813,15.508l-6.97,8.934l-5.043,14.221c-1.587,4.475-0.975,9.437,1.654,13.393   l12.525,18.85c2.628,3.956,3.241,8.918,1.654,13.393l-6.723,18.956c-2.678,7.553-3.813,15.567-3.335,23.566l1.301,21.793   c0.171,2.87,2.011,5.373,4.701,6.391l0.044,0.016c3.827,1.45,8.098-0.529,9.465-4.386l7.507-21.168l14.428-3.641   c4.185-1.056,7.85-3.585,10.322-7.122l8.714-12.469c1.997-2.56,5.409-3.555,8.47-2.469l3.544,1.257   c3.263,1.157,6.894-0.054,8.808-2.939l8.321-12.542c3.486-5.254,3.96-11.951,1.248-17.643l-1.607-3.375   c-2.047-4.298-5.719-7.607-10.206-9.199l-2.542-0.902c-2.991-1.06-5.438-3.266-6.803-6.131l-10.892-22.865   c-2.956-5.396-19.517-16.219-19.517-16.219l-38.133-23.831c-3.339-2.086-4.784-6.21-3.476-9.925l0,0   c3.285-9.335,13.604-14.267,22.931-10.958l3.501,1.242l-2.654,5.551c-2.067,4.324-0.237,9.505,4.084,11.572   c1.211,0.576,2.482,0.847,3.736,0.847c3.236,0,6.346-1.817,7.837-4.931l8.201-17.148l50.406-26.597   c1.432-0.682,3.077-0.768,4.573-0.237l8.506,3.017c2.08,0.738,4.397,0.271,6.029-1.216l2.701-2.46   c2.283-2.079,2.608-5.554,0.751-8.021l-10.462-13.901C257.623,101.369,260.426,96.366,264.823,96.789z" fill="#b4ff87"/><path d="M394.626,283.45c7.612-18.378,11.649-37.305,12.765-56.104l-10.918-3.628   c-3.34-1.184-6.955-1.354-10.391-0.487l-5.001,1.262c-6.501,1.641-13.366-0.612-17.631-5.784l-8.884-10.774   c-4.139-5.019-9.565-8.82-15.697-10.995l-13.009-4.614c-6.917-2.454-14.631-0.448-19.478,5.063l-8.857,10.073   c-2.903,3.301-5.15,7.126-6.619,11.27c-3.636,10.251-2.233,21.615,3.787,30.674l0.619,0.933   c4.138,6.227,10.184,10.944,17.23,13.444l0.422,0.15c9.343,3.314,14.231,13.574,10.917,22.917l-6.715,18.935   c-2.168,6.109-3.071,12.595-2.656,19.064l1.524,23.739c0.353,5.511,5.451,11.723,10.534,15.263   C356.026,345.373,380.306,318.022,394.626,283.45z" fill="#b4ff87"/><path d="M407.117,202.387c-2.227-25.977-10.341-50.996-23.459-73.302l-13.682,5.606   c-1.807,0.86-3.197,2.403-3.866,4.289l-4.249,11.98c-1.454,4.101-4.478,7.456-8.406,9.328c-2.3,1.095-4.822,1.641-7.368,1.592   l-12.488-1.044c-5.416-0.452-10.458,2.802-12.275,7.926l-2.916,8.224c-2.209,6.229,1.05,13.069,7.278,15.277l9.677,3.432   c4.411,1.565,9.33,0.413,12.588-2.946l11.185-11.531L407.117,202.387z" fill="#b4ff87"/></g><g><path d="M166.258,185.964l-12.64-7.9c-3.34-2.086-4.784-6.21-3.478-9.924   c2.374-6.747,8.433-11.136,15.125-11.836c0.964-19.336,5.001-38.826,12.833-57.737c5.225-12.614,11.941-24.11,19.607-34.706   c-1.743,0.388-3.458,0.918-5.096,1.698l-4.912,2.34c-2.983,1.422-6.553,0.155-7.974-2.828l-5.221-10.661   c-0.014,0.005-0.029,0.011-0.043,0.016c-24.153,8.9-46.269,23.053-64.513,41.825l-0.362,33.539   c-0.124,6.493,3.921,12.337,10.042,14.508l1.939,0.687v14.277c0,11.964,6.163,23.083,16.308,29.423l24.813,15.508l-6.97,8.934   l-5.043,14.221c-1.587,4.475-0.975,9.437,1.654,13.393l12.525,18.849c2.628,3.956,3.241,8.918,1.654,13.394l-6.723,18.956   c-2.678,7.553-3.813,15.566-3.335,23.565l1.301,21.794c0.171,2.87,2.011,5.373,4.701,6.391l0.044,0.016   c3.827,1.45,8.098-0.529,9.465-4.386l7.507-21.168l14.428-3.641c4.185-1.056,7.85-3.585,10.322-7.122l8.714-12.469   c1.879-2.408,5.003-3.363,7.916-2.572C190.482,264.323,171.241,226.474,166.258,185.964z" fill="#9bf57d"/><path d="M359.419,337.087c-14.503,1.786-29.326,1.768-44.139-0.202l0.75,11.698   c0.351,5.48,5.399,11.647,10.454,15.196c0.555-0.349,1.129-0.666,1.68-1.02c1.698-1.091,3.35-2.258,5.012-3.408   c1.982-1.376,3.968-2.744,5.895-4.205c1.249-0.943,2.454-1.947,3.679-2.924c2.275-1.823,4.543-3.655,6.731-5.597   c0.734-0.648,1.435-1.337,2.158-2c2.595-2.383,5.158-4.808,7.614-7.359C359.31,337.207,359.363,337.145,359.419,337.087z" fill="#9bf57d"/></g></g><g transform="matrix(0.1171872690320015 0 0 0.1171872690320015 14 25.000004119865025)" id="L1_4"><path d="M450.671,156.853H9.013c-4.978,0-9.013-4.036-9.013-9.013V39.678c0-4.978,4.036-9.013,9.013-9.013  h441.658c4.978,0,9.013,4.036,9.013,9.013v108.161C459.685,152.817,455.649,156.853,450.671,156.853z" fill="#e4eaf8"/><path d="M108.161,156.853H9.013c-4.978,0-9.013-4.036-9.013-9.013V39.678c0-4.978,4.036-9.013,9.013-9.013  h99.148c4.978,0,9.013,4.036,9.013,9.013v108.161C117.175,152.817,113.139,156.853,108.161,156.853z" fill="#ff5050"/><path d="M306.457,84.745H153.228c-4.982,0-9.013-4.031-9.013-9.013s4.031-9.013,9.013-9.013h153.228  c4.982,0,9.013,4.031,9.013,9.013S311.439,84.745,306.457,84.745z" fill="#707487"/><g><path d="M414.618,120.799H243.363c-4.982,0-9.013-4.031-9.013-9.013s4.031-9.013,9.013-9.013h171.255   c4.982,0,9.013,4.031,9.013,9.013S419.6,120.799,414.618,120.799z" fill="#7f8499"/><path d="M207.309,120.799h-54.081c-4.982,0-9.013-4.031-9.013-9.013s4.031-9.013,9.013-9.013h54.081   c4.982,0,9.013,4.031,9.013,9.013S212.291,120.799,207.309,120.799z" fill="#7f8499"/></g><g><path d="M58.587,111.786c-4.982,0-9.013-4.031-9.013-9.013s4.031-9.013,9.013-9.013   c7.455,0,13.52-6.065,13.52-13.52s-6.065-13.52-13.52-13.52s-13.52,6.065-13.52,13.52c0,4.982-4.031,9.013-9.013,9.013   s-9.013-4.031-9.013-9.013c0-17.394,14.154-31.547,31.547-31.547s31.547,14.154,31.547,31.547S75.981,111.786,58.587,111.786z" fill="#ffffff"/><path d="M58.675,138.826c-4.982,0-9.057-4.031-9.057-9.013c0-4.982,3.987-9.013,8.969-9.013h0.088   c4.982,0,9.013,4.031,9.013,9.013C67.689,134.795,63.657,138.826,58.675,138.826z" fill="#ffffff"/></g><path d="M450.671,319.094H9.013c-4.978,0-9.013-4.036-9.013-9.013V201.92c0-4.978,4.036-9.013,9.013-9.013  h441.658c4.978,0,9.013,4.036,9.013,9.013v108.161C459.685,315.059,455.649,319.094,450.671,319.094z" fill="#e4eaf8"/><path d="M108.161,319.094H9.013c-4.978,0-9.013-4.036-9.013-9.013V201.92c0-4.978,4.036-9.013,9.013-9.013  h99.148c4.978,0,9.013,4.036,9.013,9.013v108.161C117.175,315.059,113.139,319.094,108.161,319.094z" fill="#ffdc64"/><path d="M306.457,246.987H153.228c-4.982,0-9.013-4.031-9.013-9.013c0-4.982,4.031-9.013,9.013-9.013h153.228  c4.982,0,9.013,4.031,9.013,9.013C315.47,242.956,311.439,246.987,306.457,246.987z" fill="#707487"/><path d="M207.309,283.041h-54.081c-4.982,0-9.013-4.031-9.013-9.013c0-4.982,4.031-9.013,9.013-9.013h54.081  c4.982,0,9.013,4.031,9.013,9.013C216.322,279.009,212.291,283.041,207.309,283.041z" fill="#7f8499"/><g><path d="M58.587,274.027c-4.982,0-9.013-4.031-9.013-9.013c0-4.982,4.031-9.013,9.013-9.013   c7.455,0,13.52-6.065,13.52-13.52c0-7.455-6.065-13.52-13.52-13.52s-13.52,6.065-13.52,13.52c0,4.982-4.031,9.013-9.013,9.013   s-9.013-4.031-9.013-9.013c0-17.393,14.154-31.547,31.547-31.547s31.547,14.154,31.547,31.547S75.981,274.027,58.587,274.027z" fill="#ffffff"/><path d="M58.675,301.068c-4.982,0-9.057-4.031-9.057-9.013s3.987-9.013,8.969-9.013h0.088   c4.982,0,9.013,4.031,9.013,9.013S63.657,301.068,58.675,301.068z" fill="#ffffff"/></g><path d="M450.671,481.336H9.013C4.036,481.336,0,477.3,0,472.323V364.162c0-4.978,4.036-9.013,9.013-9.013  h441.658c4.978,0,9.013,4.036,9.013,9.013v108.161C459.685,477.3,455.649,481.336,450.671,481.336z" fill="#e4eaf8"/><path d="M108.161,481.336H9.013C4.036,481.336,0,477.3,0,472.323V364.162c0-4.978,4.036-9.013,9.013-9.013  h99.148c4.978,0,9.013,4.036,9.013,9.013v108.161C117.175,477.3,113.139,481.336,108.161,481.336z" fill="#7df5a5"/><path d="M306.457,409.229H153.228c-4.982,0-9.013-4.031-9.013-9.013s4.031-9.013,9.013-9.013h153.228  c4.982,0,9.013,4.031,9.013,9.013S311.439,409.229,306.457,409.229z" fill="#707487"/><path d="M207.309,445.282h-54.081c-4.982,0-9.013-4.031-9.013-9.013s4.031-9.013,9.013-9.013h54.081  c4.982,0,9.013,4.031,9.013,9.013S212.291,445.282,207.309,445.282z" fill="#7f8499"/><g><path d="M58.587,436.269c-4.982,0-9.013-4.031-9.013-9.013s4.031-9.013,9.013-9.013   c7.455,0,13.52-6.065,13.52-13.52s-6.065-13.52-13.52-13.52s-13.52,6.065-13.52,13.52c0,4.982-4.031,9.013-9.013,9.013   s-9.013-4.031-9.013-9.013c0-17.394,14.154-31.547,31.547-31.547s31.547,14.154,31.547,31.547S75.981,436.269,58.587,436.269z" fill="#ffffff"/><path d="M58.675,463.309c-4.982,0-9.057-4.031-9.057-9.013c0-4.982,3.987-9.013,8.969-9.013h0.088   c4.982,0,9.013,4.031,9.013,9.013C67.689,459.278,63.657,463.309,58.675,463.309z" fill="#ffffff"/></g><g><path d="M450.671,355.148h-45.067v53.47c0,12.43,10.114,22.541,22.546,22.541   c4.384,0,8.65-1.277,12.337-3.692l3.616-2.371l15.582,37.618v-98.553C459.685,359.183,455.649,355.148,450.671,355.148z" fill="#d5dced"/><path d="M444.073,280.636c-4.262-4.262-9.909-6.609-15.902-6.609c-12.443,0-22.566,10.113-22.566,22.543   v22.525h45.067c4.978,0,9.013-4.036,9.013-9.013v-13.832L444.073,280.636z" fill="#d5dced"/></g><path d="M423.631,296.57v112.048c0,3.584,3.979,5.734,6.978,3.769l21.819-14.3l27.947,67.471  c1.905,4.599,7.178,6.783,11.776,4.879l13.664-5.66c4.599-1.905,6.783-7.178,4.879-11.777l-27.947-67.471l25.638-5.189  c3.523-0.713,4.835-5.062,2.293-7.604l-79.352-79.352C428.486,290.543,423.631,292.554,423.631,296.57z" fill="#464655"/><g><path d="M396.591,283.041H243.363c-4.978,0-9.013-4.036-9.013-9.013l0,0c0-4.978,4.036-9.013,9.013-9.013   h153.228c4.978,0,9.013,4.036,9.013,9.013l0,0C405.604,279.005,401.569,283.041,396.591,283.041z" fill="#7f8499"/><path d="M396.591,445.282H243.363c-4.978,0-9.013-4.036-9.013-9.013l0,0c0-4.978,4.036-9.013,9.013-9.013   h153.228c4.978,0,9.013,4.036,9.013,9.013l0,0C405.604,441.247,401.569,445.282,396.591,445.282z" fill="#7f8499"/></g></g><g transform="matrix(0.1171875 0 0 0.1171875 106 4)" id="L1_6"><g><path d="M394.044,30.159l-17.267-10.367c-4.19-2.513-9.603-1.151-12.113,3.026   c-2.508,4.181-1.155,9.603,3.026,12.113l1.347,0.808l-11.796,19.654l15.138,9.086l11.794-19.651l0.785,0.47   c1.422,0.853,2.991,1.259,4.534,1.259c3,0,5.922-1.526,7.577-4.285C399.577,38.091,398.225,32.668,394.044,30.159z" fill="#959cb5"/><path d="M326.621,52.966c-14.603,0-26.483-11.88-26.483-26.483S312.018,0,326.621,0   c14.603,0,26.483,11.88,26.483,26.483S341.224,52.966,326.621,52.966z M326.621,17.655c-4.871,0-8.828,3.961-8.828,8.828   s3.957,8.828,8.828,8.828c4.871,0,8.828-3.961,8.828-8.828S331.491,17.655,326.621,17.655z" fill="#959cb5"/></g><path d="M61.793,441.379h388.414c14.626,0,26.483-11.857,26.483-26.483V150.069  c0-14.626-11.857-26.483-26.483-26.483H61.793c-14.626,0-26.483,11.857-26.483,26.483v264.828  C35.31,429.523,47.167,441.379,61.793,441.379z" fill="#7f8499"/><g><path d="M326.621,220.69c53.63,0,97.103-43.475,97.103-97.103H229.517   C229.517,177.215,272.992,220.69,326.621,220.69z" fill="#707487"/><path d="M252.973,362.401c-1.921-0.311-3.872-0.47-5.801-0.47c-3.671,0-7.211,0.563-10.542,1.607   c-5.057-5.159-11.617-8.768-18.967-9.964c-1.92-0.312-3.871-0.47-5.799-0.47c-3.634,0-7.182,0.544-10.554,1.596   c-5.057-5.153-11.612-8.758-18.956-9.953c-1.92-0.312-3.871-0.47-5.799-0.47h-0.003v-60.85c0-17.663-12.686-33.047-29.51-35.784   c-1.92-0.312-3.871-0.47-5.799-0.47h-0.002c-9.432,0-18.3,3.672-24.969,10.342c-6.669,6.669-10.342,15.536-10.342,24.969v158.897   h176.552v-43.194C282.483,380.522,269.796,365.139,252.973,362.401z" fill="#707487"/></g><path d="M441.379,414.897H70.621c-4.875,0-8.828-3.953-8.828-8.828V158.897c0-4.875,3.953-8.828,8.828-8.828  h370.759c4.875,0,8.828,3.953,8.828,8.828v247.172C450.207,410.944,446.254,414.897,441.379,414.897z" fill="#ffffff"/><g><path d="M233.268,150.069c11.54,40.739,48.918,70.621,93.353,70.621s81.815-29.881,93.354-70.621H233.268z" fill="#e4eaf8"/><path d="M252.973,362.401c-1.921-0.311-3.872-0.47-5.801-0.47c-3.671,0-7.211,0.563-10.542,1.607   c-5.057-5.159-11.617-8.768-18.967-9.964c-1.92-0.312-3.871-0.47-5.799-0.47c-3.634,0-7.182,0.544-10.554,1.596   c-5.057-5.153-11.612-8.758-18.956-9.953c-1.92-0.312-3.871-0.47-5.799-0.47h-0.003v-60.85c0-17.663-12.686-33.047-29.51-35.784   c-1.92-0.312-3.871-0.47-5.799-0.47h-0.002c-9.432,0-18.3,3.672-24.969,10.342c-6.669,6.669-10.342,15.536-10.342,24.969v132.414   h176.552v-16.712C282.483,380.522,269.796,365.139,252.973,362.401z" fill="#e4eaf8"/></g><circle cx="141" cy="282" r="52" fill="#ff6464"/><path d="M141.241,247.172c-19.501,0-35.31,15.809-35.31,35.31v39.399c9.375,8.408,21.725,13.567,35.31,13.567  c13.585,0,25.934-5.159,35.31-13.566v-39.4C176.552,262.982,160.743,247.172,141.241,247.172z" fill="#ff5050"/><circle cx="326" cy="123" r="79" fill="#afb9d2"/><circle cx="326" cy="123" r="61" fill="#e4eaf8"/><path d="M326.621,132.414c-2.259,0-4.518-0.862-6.241-2.586l-30.897-30.897  c-3.448-3.448-3.448-9.035,0-12.483c3.448-3.448,9.035-3.448,12.483,0l30.897,30.897c3.448,3.448,3.448,9.035,0,12.483  C331.138,131.552,328.879,132.414,326.621,132.414z" fill="#ff5050"/><g><path d="M326.621,88.276c-4.879,0-8.828-3.953-8.828-8.828v-8.828c0-4.875,3.948-8.828,8.828-8.828   c4.879,0,8.828,3.953,8.828,8.828v8.828C335.448,84.323,331.5,88.276,326.621,88.276z" fill="#707487"/><path d="M326.621,185.379c-4.879,0-8.828-3.953-8.828-8.828v-8.828c0-4.875,3.948-8.828,8.828-8.828   c4.879,0,8.828,3.953,8.828,8.828v8.828C335.448,181.427,331.5,185.379,326.621,185.379z" fill="#707487"/><path d="M379.586,132.414h-8.828c-4.879,0-8.828-3.953-8.828-8.828c0-4.875,3.948-8.828,8.828-8.828h8.828   c4.879,0,8.828,3.953,8.828,8.828C388.414,128.461,384.466,132.414,379.586,132.414z" fill="#707487"/><path d="M282.483,132.414h-8.828c-4.879,0-8.828-3.953-8.828-8.828c0-4.875,3.948-8.828,8.828-8.828h8.828   c4.879,0,8.828,3.953,8.828,8.828C291.31,128.461,287.362,132.414,282.483,132.414z" fill="#707487"/></g><circle cx="256" cy="282" r="44" fill="#fff082"/><circle cx="370" cy="282" r="44" fill="#a0ffb4"/><path d="M264.828,441.379v-43.193c0-8.794-6.009-16.946-14.69-18.358c-11.061-1.8-20.62,6.69-20.62,17.414  v-7.883c0-8.794-6.009-16.946-14.69-18.358c-11.061-1.8-20.62,6.69-20.62,17.414v-7.883c0-8.794-6.009-16.946-14.69-18.358  c-11.061-1.8-20.62,6.69-20.62,17.414v-96.159c0-8.794-6.009-16.946-14.69-18.358c-11.061-1.8-20.62,6.69-20.62,17.413v158.897  c0,39.003,31.618,70.621,70.621,70.621l0,0C233.209,512,264.828,480.382,264.828,441.379z" fill="#f0c087"/><g><path d="M141.241,441.379V282.483c0-6.521,3.563-12.179,8.821-15.236c-1.76-1.069-3.724-1.831-5.856-2.177   c-11.061-1.8-20.62,6.69-20.62,17.414v158.897c0,39.003,31.618,70.621,70.621,70.621c2.996,0,5.93-0.248,8.828-0.61   C168.207,507.037,141.241,477.386,141.241,441.379z" fill="#e6af78"/><path d="M185.379,364.38c-3.555-2.069-7.826-3.051-12.451-2.06c-8.425,1.803-14.031,9.91-14.031,18.526   v7.569c0,4.875,3.953,8.828,8.828,8.828l0,0c4.875,0,8.828-3.953,8.828-8.828v-8.828   C176.552,373.067,180.125,367.438,185.379,364.38z" fill="#e6af78"/><path d="M220.69,373.207c-3.555-2.069-7.826-3.051-12.451-2.06c-8.425,1.803-14.031,9.91-14.031,18.526   v7.569c0,4.875,3.953,8.828,8.828,8.828l0,0c4.875,0,8.828-3.953,8.828-8.828v-8.828   C211.862,381.895,215.435,376.266,220.69,373.207z" fill="#e6af78"/><path d="M256,382.035c-3.555-2.069-7.826-3.051-12.451-2.06c-8.425,1.803-14.031,9.91-14.031,18.526v7.569   c0,4.875,3.953,8.828,8.828,8.828l0,0c4.875,0,8.828-3.953,8.828-8.828v-8.828C247.172,390.722,250.745,385.094,256,382.035z" fill="#e6af78"/></g><circle cx="256" cy="282" r="26" fill="#ffdc64"/><circle cx="370" cy="282" r="26" fill="#7df5a5"/></g><g transform="matrix(0.1171875 0 0 0.1171875 56 83)" id="L1_7"><path d="M211.862,467.862c0,9.751,7.904,17.655,17.655,17.655h52.966c9.751,0,17.655-7.904,17.655-17.655  v-62.073c0-13.444,7.554-25.897,19.717-31.625c50.945-23.989,86.214-75.777,86.214-135.819c0-88.514-76.632-159.13-167.172-149.121  c-68.003,7.518-123.313,61.961-131.764,129.854c-8.46,67.962,28.575,128.382,84.755,154.965  c12.244,5.793,19.975,18.191,19.975,31.736V467.862z" fill="#fff082"/><circle cx="256" cy="238" r="123" fill="#fff8c1"/><circle cx="256" cy="238" r="97" fill="#ffffff"/><path d="M229.517,476.69v17.655c0,9.75,7.905,17.655,17.655,17.655h17.655c9.75,0,17.655-7.905,17.655-17.655  V476.69H229.517z" fill="#959cb5"/><g><path d="M485.517,247.172h-44.138c-4.879,0-8.828-3.953-8.828-8.828c0-4.875,3.948-8.828,8.828-8.828h44.138   c4.879,0,8.828,3.953,8.828,8.828C494.345,243.22,490.397,247.172,485.517,247.172z" fill="#fff082"/><path d="M79.448,247.172H26.483c-4.879,0-8.828-3.953-8.828-8.828c0-4.875,3.948-8.828,8.828-8.828h52.966   c4.879,0,8.828,3.953,8.828,8.828C88.276,243.22,84.328,247.172,79.448,247.172z" fill="#fff082"/><path d="M256,61.793c-4.879,0-8.828-3.953-8.828-8.828V8.828C247.172,3.953,251.121,0,256,0   c4.879,0,8.828,3.953,8.828,8.828v44.138C264.828,57.841,260.879,61.793,256,61.793z" fill="#fff082"/></g><g><path d="M256,300.138L256,300.138c-6.573,0-11.974-5.193-12.232-11.761l-4.733-120.695   c-0.377-9.613,7.315-17.613,16.936-17.613h0.057c9.621,0,17.313,7.999,16.936,17.613l-4.733,120.695   C267.974,294.945,262.573,300.138,256,300.138z" fill="#e1a546"/><circle cx="256" cy="331" r="13" fill="#e1a546"/></g><g><path d="M348.681,86.63c-1.5,0-3.017-0.38-4.405-1.181c-4.224-2.44-5.673-7.837-3.233-12.061l13.241-22.935   c2.44-4.228,7.844-5.677,12.061-3.233c4.224,2.44,5.673,7.837,3.233,12.061l-13.241,22.935   C354.698,85.047,351.733,86.63,348.681,86.63z" fill="#fff8c1"/><path d="M150.06,430.65c-1.5,0-3.017-0.38-4.405-1.181c-4.224-2.44-5.673-7.837-3.233-12.061l13.241-22.935   c2.44-4.224,7.837-5.677,12.061-3.233c4.224,2.44,5.673,7.837,3.233,12.061l-13.241,22.935   C156.077,429.069,153.112,430.65,150.06,430.65z" fill="#fff8c1"/><path d="M163.319,86.63c-3.052,0-6.017-1.582-7.656-4.414l-13.241-22.935   c-2.44-4.224-0.991-9.621,3.233-12.061c4.199-2.444,9.612-0.995,12.061,3.233l13.241,22.935c2.44,4.224,0.991,9.621-3.233,12.061   C166.336,86.25,164.819,86.63,163.319,86.63z" fill="#fff8c1"/><path d="M361.94,430.65c-3.052,0-6.017-1.582-7.656-4.414l-13.241-22.935   c-2.44-4.224-0.991-9.621,3.233-12.061c4.207-2.444,9.612-0.991,12.061,3.233l13.241,22.935c2.44,4.224,0.991,9.621-3.233,12.061   C364.957,430.272,363.439,430.65,361.94,430.65z" fill="#fff8c1"/><path d="M439.466,353.103c-1.5,0-3.017-0.38-4.405-1.181l-22.931-13.241   c-4.224-2.44-5.673-7.84-3.233-12.061c2.44-4.233,7.837-5.668,12.061-3.233l22.931,13.241c4.224,2.44,5.673,7.84,3.233,12.061   C445.483,351.521,442.517,353.103,439.466,353.103z" fill="#fff8c1"/><path d="M95.448,154.483c-1.5,0-3.017-0.38-4.405-1.181l-22.931-13.241c-4.224-2.44-5.673-7.84-3.233-12.061   c2.44-4.228,7.844-5.677,12.061-3.233l22.931,13.241c4.224,2.44,5.673,7.84,3.233,12.061   C101.465,152.9,98.5,154.483,95.448,154.483z" fill="#fff8c1"/><path d="M416.552,154.483c-3.052,0-6.017-1.582-7.656-4.414c-2.44-4.22-0.991-9.621,3.233-12.061   l22.931-13.241c4.207-2.444,9.612-0.995,12.061,3.233c2.44,4.22,0.991,9.621-3.233,12.061l-22.931,13.241   C419.569,154.103,418.051,154.483,416.552,154.483z" fill="#fff8c1"/><path d="M72.534,353.103c-3.052,0-6.017-1.582-7.656-4.414c-2.44-4.22-0.991-9.621,3.233-12.061   l22.931-13.241c4.207-2.435,9.621-1,12.061,3.233c2.44,4.22,0.991,9.621-3.233,12.061l-22.931,13.241   C75.552,352.724,74.035,353.103,72.534,353.103z" fill="#fff8c1"/></g><path d="M282.483,485.517h-52.966c-9.751,0-17.655-7.904-17.655-17.655v-44.138h88.276v44.138  C300.138,477.613,292.234,485.517,282.483,485.517z" fill="#c7cfe2"/><path d="M300.138,441.379h-88.276c-4.875,0-8.828-3.953-8.828-8.828l0,0c0-4.875,3.953-8.828,8.828-8.828  h88.276c4.875,0,8.828,3.953,8.828,8.828l0,0C308.966,437.427,305.013,441.379,300.138,441.379z" fill="#afb9d2"/></g><g transform="matrix(0.1171875 0 0 0.1171875 67 166)" id="L1_8"><path d="M503.172,176.552c4.879,0,8.828-3.948,8.828-8.828s-3.948-8.828-8.828-8.828H397.241v-26.483h105.931  c4.879,0,8.828-3.948,8.828-8.828c0-4.879-3.948-8.828-8.828-8.828H397.241V8.828c0-4.879-3.948-8.828-8.828-8.828  s-8.828,3.948-8.828,8.828v105.931h-26.483V8.828c0-4.879-3.948-8.828-8.828-8.828c-4.879,0-8.828,3.948-8.828,8.828v105.931  h-26.483V8.828c0-4.879-3.948-8.828-8.828-8.828c-4.879,0-8.828,3.948-8.828,8.828v105.931h-26.483V8.828  C264.828,3.948,260.879,0,256,0c-4.879,0-8.828,3.948-8.828,8.828v105.931H220.69V8.828c0-4.879-3.948-8.828-8.828-8.828  c-4.879,0-8.828,3.948-8.828,8.828v105.931h-26.483V8.828c0-4.879-3.948-8.828-8.828-8.828s-8.828,3.948-8.828,8.828v105.931  h-26.483V8.828c0-4.879-3.948-8.828-8.828-8.828c-4.879,0-8.828,3.948-8.828,8.828v105.931H8.828c-4.879,0-8.828,3.948-8.828,8.828  c0,4.879,3.948,8.828,8.828,8.828h105.931v26.483H8.828c-4.879,0-8.828,3.948-8.828,8.828s3.948,8.828,8.828,8.828h105.931v26.483  H8.828c-4.879,0-8.828,3.948-8.828,8.828c0,4.879,3.948,8.828,8.828,8.828h105.931v26.483H8.828C3.948,247.172,0,251.121,0,256  c0,4.879,3.948,8.828,8.828,8.828h105.931v26.483H8.828c-4.879,0-8.828,3.948-8.828,8.828c0,4.879,3.948,8.828,8.828,8.828h105.931  v26.483H8.828c-4.879,0-8.828,3.948-8.828,8.828c0,4.879,3.948,8.828,8.828,8.828h105.931v26.483H8.828  c-4.879,0-8.828,3.948-8.828,8.828s3.948,8.828,8.828,8.828h105.931v105.931c0,4.879,3.948,8.828,8.828,8.828  c4.879,0,8.828-3.948,8.828-8.828V397.241h26.483v105.931c0,4.879,3.948,8.828,8.828,8.828s8.828-3.948,8.828-8.828V397.241h26.483  v105.931c0,4.879,3.948,8.828,8.828,8.828c4.879,0,8.828-3.948,8.828-8.828V397.241h26.483v105.931c0,4.879,3.948,8.828,8.828,8.828  c4.879,0,8.828-3.948,8.828-8.828V397.241h26.483v105.931c0,4.879,3.948,8.828,8.828,8.828c4.879,0,8.828-3.948,8.828-8.828V397.241  h26.483v105.931c0,4.879,3.948,8.828,8.828,8.828c4.879,0,8.828-3.948,8.828-8.828V397.241h26.483v105.931  c0,4.879,3.948,8.828,8.828,8.828s8.828-3.948,8.828-8.828V397.241h105.931c4.879,0,8.828-3.948,8.828-8.828  s-3.948-8.828-8.828-8.828H397.241v-26.483h105.931c4.879,0,8.828-3.948,8.828-8.828c0-4.879-3.948-8.828-8.828-8.828H397.241  v-26.483h105.931c4.879,0,8.828-3.948,8.828-8.828c0-4.879-3.948-8.828-8.828-8.828H397.241v-26.483h105.931  c4.879,0,8.828-3.948,8.828-8.828c0-4.879-3.948-8.828-8.828-8.828H397.241V220.69h105.931c4.879,0,8.828-3.948,8.828-8.828  c0-4.879-3.948-8.828-8.828-8.828H397.241v-26.483H503.172z" fill="#c7cfe2"/><path d="M459.034,132.414v-17.655h-61.793V52.966h-17.655v61.793h-26.483V52.966h-17.655v61.793h-26.483  V52.966H291.31v61.793h-26.483V52.966h-17.655v61.793H220.69V52.966h-17.655v61.793h-26.483V52.966h-17.655v61.793h-26.483V52.966  h-17.655v61.793H52.966v17.655h61.793v26.483H52.966v17.655h61.793v26.483H52.966v17.655h61.793v26.483H52.966v17.655h61.793v26.483  H52.966v17.655h61.793v26.483H52.966v17.655h61.793v26.483H52.966v17.655h61.793v61.793h17.655v-61.793h26.483v61.793h17.655  v-61.793h26.483v61.793h17.655v-61.793h26.483v61.793h17.655v-61.793h26.483v61.793h17.655v-61.793h26.483v61.793h17.655v-61.793  h26.483v61.793h17.655v-61.793h61.793v-17.655h-61.793v-26.483h61.793v-17.655h-61.793v-26.483h61.793V291.31h-61.793v-26.483  h61.793v-17.655h-61.793V220.69h61.793v-17.655h-61.793v-26.483h61.793v-17.655h-61.793v-26.483H459.034z" fill="#afb9d2"/><path d="M406.069,441.379H105.931c-19.501,0-35.31-15.809-35.31-35.31V105.931  c0-19.501,15.809-35.31,35.31-35.31h300.138c19.501,0,35.31,15.809,35.31,35.31v300.138  C441.379,425.57,425.57,441.379,406.069,441.379z" fill="#5b5d6e"/><path d="M397.241,406.069H114.759c-4.875,0-8.828-3.953-8.828-8.828V114.759c0-4.875,3.953-8.828,8.828-8.828  h282.483c4.875,0,8.828,3.953,8.828,8.828v282.483C406.069,402.116,402.116,406.069,397.241,406.069z" fill="#707487"/><path d="M194.168,245.939v52.966c0,4.875,3.953,8.828,8.828,8.828h105.931c4.875,0,8.828-3.953,8.828-8.828  v-52.966L194.168,245.939L194.168,245.939z" fill="#afb9d2"/><g><path d="M353.065,238.327l-17.655,0.018l0.086,61.802c0.009,4.871,3.957,8.819,8.828,8.819h0.009   c4.879-0.009,8.828-3.966,8.819-8.836L353.065,238.327z" fill="#959cb5"/><path d="M194.168,274.215l48.146,12.839c4.45,1.186,9.042,1.789,13.647,1.789s9.197-0.601,13.647-1.789   l48.146-12.839v-28.276H194.168V274.215z" fill="#959cb5"/></g><path d="M246.863,204.226l-112.263,29.937c-3.019,0.806-3.019,5.09,0,5.895l112.263,29.937  c5.961,1.59,12.235,1.59,18.196,0l112.263-29.937c3.019-0.806,3.019-5.09,0-5.895l-112.263-29.937  C259.098,202.637,252.824,202.637,246.863,204.226z" fill="#c7cfe2"/><circle cx="344" cy="326" r="8" fill="#afb9d2"/></g><g transform="matrix(0.1171875 0 0 0.1171875 0 128)" id="L1_9"><path d="M220.69,203.034L356.664,7.573C359.964,2.828,365.378,0,371.156,0h52.948  c3.565,0,5.66,4.008,3.624,6.934l-136.417,196.1H220.69z" fill="#ff5050"/><path d="M220.69,203.034 291.311,203.034 302.064,187.576 266.754,136.818z" fill="#c84146"/><path d="M266.761,203.034 407.998,0 386.481,0 245.245,203.034z" fill="#ffc850"/><g><path d="M279.031,154.466 245.245,203.034 266.761,203.034 289.789,169.931z" fill="#e1a546"/><path d="M300.138,238.345h-88.276c-14.603,0-26.483-11.88-26.483-26.483   c0-14.603,11.88-26.483,26.483-26.483h88.276c14.603,0,26.483,11.88,26.483,26.483   C326.621,226.465,314.742,238.345,300.138,238.345z M211.863,203.034c-4.871,0-8.828,3.957-8.828,8.828   c0,4.871,3.957,8.828,8.828,8.828h88.276c4.871,0,8.828-3.957,8.828-8.828c0-4.871-3.957-8.828-8.828-8.828H211.863z" fill="#e1a546"/></g><circle cx="256" cy="370" r="141" fill="#ffc850"/><circle cx="256" cy="370" r="123" fill="#ffdc64"/><path d="M291.311,203.034L155.337,7.573C152.037,2.828,146.623,0,140.845,0H87.896  c-3.565,0-5.66,4.008-3.624,6.934l136.418,196.1H291.311z" fill="#ff5050"/><path d="M252.121,465.725c-7.724,0-15.439-1.086-22.966-3.31c-46.414-13.681-72.025-65.965-57.112-116.543  c7.181-24.345,22.595-44.724,43.414-57.379c21.069-12.81,45.138-16.207,67.794-9.526c34.595,10.207,60.69,46.241,60.69,83.828  c0,25.526-9.56,45.095-26.225,53.664c-12.138,6.25-26.474,5.638-36.526-1.551c-3.569-2.543-6.327-5.707-8.19-9.302  c-3.104,2.716-6.517,5.129-10.182,7.138c-10.991,6.017-22.517,7.345-31.672,3.595c-8.94-3.663-15.914-11.242-19.121-20.776  c-4.19-12.448-1.922-27.086,6.406-41.224c14.207-24.12,35.569-35.009,61.689-31.699c4.879,0.638,9.198,3.181,12.163,7.155  c2.948,3.957,4.19,9,3.405,13.854l-7.758,48.491c-0.509,3.5,0.664,6.37,3.518,8.405c3.88,2.767,11.009,3.923,18.189,0.215  c10.578-5.44,16.647-19.285,16.647-37.965c0-25.922-17.965-58.026-48.034-66.897c-17.775-5.224-36.828-2.517-53.63,7.681  c-17.052,10.37-29.707,27.164-35.647,47.293c-12.163,41.233,8.104,83.681,45.173,94.612c19.518,5.741,40.871,1.768,58.535-10.931  c3.957-2.836,9.483-1.949,12.319,2.008c2.845,3.957,1.949,9.474-2.008,12.319C287.587,459.966,269.846,465.725,252.121,465.725z   M269.656,340.12c-15.362,0-26.862,7.647-36.018,23.181c-5.681,9.646-7.414,19.104-4.879,26.63  c1.594,4.742,4.828,8.328,9.095,10.078c4.12,1.689,10.276,0.655,16.474-2.75c9.707-5.319,17.086-14.931,18.828-24.491l5.103-31.923  C275.259,340.362,272.397,340.12,269.656,340.12z" fill="#e1a546"/><path d="M104.001,0 245.242,203.034 266.759,203.034 125.518,0z" fill="#ffc850"/></g><g transform="matrix(0.16350199282169342 0 0 0.16350199282169342 129.14348983764648 180.14348983764648)" id="L1_10"><path d="M450.207,88.276H61.793c-14.626,0-26.483,11.857-26.483,26.483v282.483H476.69V114.759  C476.69,100.132,464.833,88.276,450.207,88.276z" fill="#959cb5"/><path d="M441.379,361.931H70.621c-4.875,0-8.828-3.953-8.828-8.828V123.586c0-4.875,3.953-8.828,8.828-8.828  h370.759c4.875,0,8.828,3.953,8.828,8.828v229.517C450.207,357.978,446.254,361.931,441.379,361.931z" fill="#ffffff"/><rect x="158px" y="264px" width="52px" height="35px" fill="#d29b6e"/><path d="M145.899,214.794l2.975,35.708c0.742,8.896,6.067,16.762,14.051,20.755l11.012,5.506  c7.201,3.601,15.678,3.601,22.879,0l11.012-5.506c7.985-3.992,13.311-11.859,14.051-20.755l2.975-35.708  c1.719-20.586-14.527-38.242-35.185-38.242h-8.583C160.43,176.552,144.184,194.208,145.899,214.794z" fill="#f0c087"/><path d="M252.756,304.941l-34.857-11.619c-3.605-1.202-6.036-4.575-6.036-8.374l-26.484,24.018  l-26.483-24.018c0,3.799-2.432,7.172-6.036,8.374l-34.857,11.619c-7.21,2.403-12.072,9.15-12.072,16.749v40.241h158.897V321.69  C264.828,314.091,259.965,307.345,252.756,304.941z" fill="#00c3ff"/><path d="M503.172,423.724H8.828c-4.875,0-8.828-3.953-8.828-8.828v-17.655c0-4.875,3.953-8.828,8.828-8.828  h494.345c4.875,0,8.828,3.953,8.828,8.828v17.655C512,419.772,508.047,423.724,503.172,423.724z" fill="#707487"/><path d="M219.207,286.414c-2.707-4.061-8.181-5.155-12.242-2.449l-21.586,14.388l-21.587-14.388  c-4.077-2.707-9.543-1.612-12.242,2.449c-2.707,4.061-1.612,9.535,2.449,12.242l22.552,15.033v48.242h17.655v-48.242l22.552-15.034  C220.819,295.948,221.913,290.474,219.207,286.414z" fill="#00aaf0"/><g><path d="M317.793,238.345h-8.828c-3.345,0-6.397-1.888-7.896-4.879l-15.215-30.431h-12.199   c-4.879,0-8.828-3.948-8.828-8.828s3.948-8.828,8.828-8.828h17.655c3.345,0,6.397,1.888,7.896,4.879l14.189,28.388l32.215-63.733   c1.5-2.969,4.552-4.845,7.88-4.845h61.406c4.879,0,8.828,3.953,8.828,8.828c0,4.879-3.948,8.828-8.828,8.828h-55.975l-33.25,65.775   C324.172,236.474,321.121,238.345,317.793,238.345z" fill="#ff5050"/><path d="M399.724,207.448l13.241-16.552c3.043-3.81,2.422-9.362-1.379-12.414   c-3.819-3.043-9.354-2.406-12.414,1.379l-10.759,13.449l-10.759-13.449c-3.052-3.801-8.595-4.431-12.414-1.379   c-3.801,3.052-4.423,8.604-1.379,12.414l13.241,16.552L363.862,224c-3.043,3.81-2.422,9.362,1.379,12.414   c1.63,1.302,3.577,1.931,5.508,1.931c2.595,0,5.155-1.138,6.905-3.31l10.759-13.449l10.759,13.449c1.75,2.182,4.31,3.31,6.905,3.31   c1.931,0,3.88-0.629,5.508-1.931c3.801-3.052,4.423-8.604,1.379-12.414L399.724,207.448z" fill="#ff5050"/></g><path d="M308.966,282.483h-8.828c-4.879,0-8.828-3.948-8.828-8.828c0-4.879,3.948-8.828,8.828-8.828h8.828  c4.879,0,8.828,3.948,8.828,8.828C317.793,278.535,313.845,282.483,308.966,282.483z" fill="#7f8499"/><g><path d="M414.897,282.483h-70.621c-4.879,0-8.828-3.948-8.828-8.828c0-4.879,3.948-8.828,8.828-8.828h70.621   c4.879,0,8.828,3.948,8.828,8.828C423.724,278.535,419.776,282.483,414.897,282.483z" fill="#959cb5"/><path d="M397.241,317.793h-52.966c-4.879,0-8.828-3.948-8.828-8.828s3.948-8.828,8.828-8.828h52.966   c4.879,0,8.828,3.948,8.828,8.828S402.121,317.793,397.241,317.793z" fill="#959cb5"/></g><path d="M308.966,317.793h-8.828c-4.879,0-8.828-3.948-8.828-8.828s3.948-8.828,8.828-8.828h8.828  c4.879,0,8.828,3.948,8.828,8.828S313.845,317.793,308.966,317.793z" fill="#7f8499"/><path d="M282.483,406.069h-52.966c-9.751,0-17.655-7.904-17.655-17.655l0,0h88.276l0,0  C300.138,398.165,292.234,406.069,282.483,406.069z" fill="#5b5d6e"/><path d="M192.401,276.762l-6.103-5.506c-4.426-3.992-7.378-11.859-7.788-20.755l-1.65-35.708  c-0.883-19.112,6.849-35.507,17.116-37.784c-1.429-0.175-2.826-0.458-4.306-0.458h-8.583c-20.658,0-36.904,17.655-35.188,38.242  l2.975,35.708c0.742,8.896,6.067,16.762,14.051,20.755l11.012,5.506c6.378,3.189,13.71,3.386,20.318,0.926  C193.515,277.405,192.792,277.116,192.401,276.762z" fill="#e6af78"/><g><path d="M110.46,310.155c-2.767,3.149-4.529,7.139-4.529,11.535v40.241h26.483v-26.483   c0-5.557-2.616-10.79-7.062-14.124L110.46,310.155z" fill="#00aaf0"/><path d="M260.299,310.155c2.767,3.149,4.529,7.14,4.529,11.535v40.241h-26.483v-26.483   c0-5.557,2.616-10.79,7.062-14.124L260.299,310.155z" fill="#00aaf0"/></g></g><g transform="matrix(0.1171875 0 0 0.1171875 197 -4)" id="L1_11"><path d="M494.345,326.621H17.655C7.904,326.621,0,318.717,0,308.966V203.034  c0-9.751,7.904-17.655,17.655-17.655h476.69c9.751,0,17.655,7.904,17.655,17.655v105.931  C512,318.717,504.096,326.621,494.345,326.621z" fill="#e4eaf8"/><path d="M494.345,326.621H388.414c-9.751,0-17.655-7.904-17.655-17.655V203.034  c0-9.751,7.904-17.655,17.655-17.655h105.931c9.751,0,17.655,7.904,17.655,17.655v105.931  C512,318.717,504.096,326.621,494.345,326.621z" fill="#00c3ff"/><path d="M482.931,285.069l-20.072-20.072c3.101-5.252,5.003-11.296,5.003-17.825  c0-19.47-15.837-35.31-35.31-35.31s-35.31,15.84-35.31,35.31s15.837,35.31,35.31,35.31c6.529,0,12.574-1.901,17.825-5.003  l20.072,20.072c1.725,1.725,3.982,2.586,6.241,2.586c2.259,0,4.517-0.862,6.241-2.586  C486.379,294.103,486.379,288.518,482.931,285.069z M414.897,247.172c0-9.737,7.923-17.655,17.655-17.655  s17.655,7.918,17.655,17.655s-7.923,17.655-17.655,17.655S414.897,256.909,414.897,247.172z" fill="#ffffff"/><path d="M35.31,300.138c-4.879,0-8.828-3.953-8.828-8.828V220.69c0-4.875,3.948-8.828,8.828-8.828  s8.828,3.953,8.828,8.828v70.621C44.138,296.185,40.19,300.138,35.31,300.138z" fill="#5b5d6e"/></g><g transform="matrix(0.1171875 0 0 0.1171875 250 154)" id="L1_12"><path d="M467.478,389.565H44.522C19.933,389.565,0,369.632,0,345.043V44.522C0,19.933,19.933,0,44.522,0  h422.957C492.066,0,512,19.933,512,44.522v300.522C512,369.632,492.066,389.565,467.478,389.565z" fill="#cea656"/><path d="M445.217,345.043H66.783c-12.295,0-22.261-9.966-22.261-22.261v-256  c0-12.295,9.966-22.261,22.261-22.261h378.435c12.295,0,22.261,9.966,22.261,22.261v256  C467.478,335.077,457.512,345.043,445.217,345.043z" fill="#697900"/><path d="M289.391,434.087V512H89.043v-77.913c0-55.325,44.849-100.174,100.174-100.174l0,0  C244.542,333.913,289.391,378.762,289.391,434.087z" fill="#ff5200"/><path d="M289.391,434.087V512H89.043v-55.652h44.522c43.03,0,77.913-34.883,77.913-77.913l0,0  c0-15.699-3.615-30.553-10.052-43.779C250.991,340.678,289.391,382.896,289.391,434.087z" fill="#cc0000"/><path d="M228.174,321.357v18.121c0,21.515-17.441,38.957-38.957,38.957l0,0  c-21.515,0-38.957-17.441-38.957-38.957v-18.121c-16.846-12.123-27.826-31.886-27.826-54.226c0-36.883,29.9-66.783,66.783-66.783  S256,230.248,256,267.13C256,289.47,245.02,309.234,228.174,321.357z" fill="#ce7f49"/><path d="M207.663,267.13c-9.169,25.935-33.892,44.522-62.967,44.522c-1.837,0-3.651-0.095-5.451-0.24  c-10.453-11.787-16.81-27.287-16.81-44.281c0-36.883,29.9-66.783,66.783-66.783c0.952,0,1.897,0.027,2.837,0.071  C227.62,201.907,256,231.199,256,267.13H207.663z" fill="#ffc02c"/><path d="M89.043,244.87c0-24.588,19.933-44.522,44.522-44.522h53.426v22.261  c0,24.588-19.934,44.522-44.522,44.522H89.043V244.87z" fill="#ffe52c"/><path d="M456.348,434.087V512H256v-77.913c0-55.325,44.849-100.174,100.174-100.174l0,0  C411.499,333.913,456.348,378.762,456.348,434.087z" fill="#28749e"/><path d="M358.957,100.174c0,4.61-3.738,8.348-8.348,8.348H161.391c-4.61,0-8.348-3.738-8.348-8.348  c0-4.61,3.738-8.348,8.348-8.348h189.217C355.219,91.826,358.957,95.564,358.957,100.174z M312.209,136.348h-77.913  c-4.61,0-8.348,3.738-8.348,8.348c0,4.61,3.738,8.348,8.348,8.348h77.913c4.61,0,8.348-3.738,8.348-8.348  C320.557,140.085,316.819,136.348,312.209,136.348z M200.904,136.348h-1.113c-4.61,0-8.348,3.738-8.348,8.348  c0,4.61,3.738,8.348,8.348,8.348h1.113c4.61,0,8.348-3.738,8.348-8.348C209.252,140.085,205.515,136.348,200.904,136.348z" fill="#e7ede2"/><path d="M456.348,434.087V512H256v-55.652h44.522c43.03,0,77.913-34.883,77.913-77.913l0,0  c0-15.699-3.615-30.553-10.052-43.779C417.948,340.678,456.348,382.896,456.348,434.087z" fill="#2c4d67"/><path d="M395.13,321.357v18.121c0,21.515-17.441,38.957-38.957,38.957l0,0  c-21.515,0-38.957-17.441-38.957-38.957v-18.121c-16.846-12.123-27.826-31.886-27.826-54.226c0-36.883,29.9-66.783,66.783-66.783  s66.783,29.9,66.783,66.783C422.957,289.47,411.976,309.234,395.13,321.357z" fill="#ce7f49"/><path d="M422.957,267.13H289.391c0-36.883,29.9-66.783,66.783-66.783S422.957,230.248,422.957,267.13z" fill="#602812"/><path d="M356.174,200.348c1.837,0,3.651,0.095,5.451,0.24c10.453,11.787,16.81,27.288,16.81,44.281  c0,36.883-29.9,66.783-66.783,66.783c-1.837,0-3.651-0.095-5.451-0.24c-10.453-11.787-16.81-27.288-16.81-44.281  C289.391,230.248,319.291,200.348,356.174,200.348z" fill="#823e20"/><path d="M495.304,503.652c0,4.61-3.738,8.348-8.348,8.348H41.739c-4.61,0-8.348-3.738-8.348-8.348  s3.738-8.348,8.348-8.348h445.217C491.567,495.304,495.304,499.042,495.304,503.652z M9.461,495.304H8.348  c-4.61,0-8.348,3.738-8.348,8.348S3.738,512,8.348,512h1.113c4.61,0,8.348-3.738,8.348-8.348S14.071,495.304,9.461,495.304z" fill="#183244"/></g><g transform="matrix(1.034482717514038 0 0 1.034482717514038 -2 200)" id="L1_13"><rect x="25px" y="47px" width="24px" height="11px" fill="#c8d2d6"/><path d="M41.677,58h-16V47h9.426c3.631,0,6.574,2.943,6.574,6.574V58z" fill="#e7eced"/><circle cx="35" cy="52" r="2" fill="#7383bf"/><path d="M33.581,10.702c1.233-0.542,2.096-1.77,2.096-3.202c0-1.933-1.567-3.5-3.5-3.5  c-1.433,0-2.661,0.863-3.202,2.096L33.581,10.702z" fill="#fbce9d"/><path d="M38.581,15.702c1.233-0.542,2.096-1.77,2.096-3.202c0-1.933-1.567-3.5-3.5-3.5  c-1.433,0-2.661,0.863-3.202,2.096L38.581,15.702z" fill="#fbce9d"/><path d="M43.581,20.702c1.233-0.542,2.096-1.77,2.096-3.202c0-1.933-1.567-3.5-3.5-3.5  c-1.433,0-2.661,0.863-3.202,2.096L43.581,20.702z" fill="#fbce9d"/><path d="M48.581,25.702c1.233-0.542,2.096-1.77,2.096-3.202c0-1.933-1.567-3.5-3.5-3.5  c-1.433,0-2.661,0.863-3.202,2.096L48.581,25.702z" fill="#fbce9d"/><path d="M28.177,33h-10c-1.925,0-3.5-1.575-3.5-3.5v0c0-1.925,1.575-3.5,3.5-3.5h10  c1.925,0,3.5,1.575,3.5,3.5v0C31.677,31.425,30.102,33,28.177,33z" fill="#fbce9d"/><path d="M48.813,31.563l-11.12,11.12c-0.896,0.896-2.349,0.896-3.244,0L24.767,33h-6.589   c-0.578,0.283-2.155-0.738-1.55-0.219l10.812,10.77c0.074,0.074,0.16,0.127,0.238,0.194V47h20v-4.51c1.819-1.369,3-3.538,3-5.99   C50.677,34.607,49.97,32.883,48.813,31.563z" fill="#f7b563"/><path d="M25.769,2.889L10.212,18.446l7.592,7.592C17.929,26.025,18.05,26,18.177,26h10  c1.925,0,3.5,1.575,3.5,3.5s-1.575,3.5-3.5,3.5h-3.411l6.355,6.355l15.556-15.557L25.769,2.889z" fill="#424a60"/><g><path d="M25.769,2.889l-2.217-2.217c-0.896-0.896-2.349-0.896-3.244,0L7.995,12.984   c-0.896,0.896-0.896,2.349,0,3.245l2.217,2.217L25.769,2.889z" fill="#e7eced"/><path d="M50.005,27.126l-3.328-3.328L31.121,39.355l3.327,3.327c0.896,0.896,2.349,0.896,3.244,0   l12.312-12.312C50.901,29.475,50.901,28.022,50.005,27.126z" fill="#e7eced"/></g><circle cx="41" cy="33" r="2" fill="#ffffff"/><path d="M15.677,11c-0.256,0-0.512-0.098-0.707-0.293c-0.391-0.391-0.391-1.023,0-1.414l2-2  c0.391-0.391,1.023-0.391,1.414,0s0.391,1.023,0,1.414l-2,2C16.189,10.902,15.933,11,15.677,11z" fill="#424a60"/></g><g transform="matrix(0.1171875 0 0 0.1171875 207.9999984836578 190)" id="L1_14"><g><path d="M246.105,123.586H140.174c-4.875,0-8.828-3.953-8.828-8.828V8.828c0-4.875,3.953-8.828,8.828-8.828   h105.931c4.875,0,8.828,3.953,8.828,8.828v105.931C254.933,119.634,250.981,123.586,246.105,123.586z" fill="#e4eaf8"/><path d="M246.105,317.793H140.174c-4.875,0-8.828-3.953-8.828-8.828V203.034   c0-4.875,3.953-8.828,8.828-8.828h105.931c4.875,0,8.828,3.953,8.828,8.828v105.931   C254.933,313.841,250.981,317.793,246.105,317.793z" fill="#e4eaf8"/><path d="M246.105,512H140.174c-4.875,0-8.828-3.953-8.828-8.828V397.241c0-4.875,3.953-8.828,8.828-8.828   h105.931c4.875,0,8.828,3.953,8.828,8.828v105.931C254.933,508.047,250.981,512,246.105,512z" fill="#e4eaf8"/></g><path d="M237.277,171.381v174.21c0,7.019,7.796,11.231,13.666,7.383l23.893-15.659  c4.629-3.034,10.877-1.109,12.994,4.006l43.215,104.331c1.866,4.504,7.03,6.643,11.533,4.778l32.622-13.513  c4.504-1.866,6.643-7.03,4.778-11.534l-43.192-104.275c-2.125-5.132,0.96-10.929,6.404-12.03l28.033-5.675  c6.901-1.397,9.47-9.916,4.491-14.894l-123.369-123.37C246.786,159.577,237.277,163.516,237.277,171.381z" fill="#5b5d6e"/><g><path d="M184.312,101.517c-3.388,0-6.776-1.293-9.362-3.88l-26.483-26.483   c-5.173-5.169-5.173-13.556,0-18.724c5.173-5.173,13.551-5.173,18.724,0l17.121,17.121l34.776-34.776   c5.173-5.173,13.551-5.173,18.724,0c5.173,5.169,5.173,13.556,0,18.724l-44.138,44.138   C191.088,100.224,187.701,101.517,184.312,101.517z" fill="#464655"/><path d="M296.068,300.138h-12.993c-6.145,0-11.482-4.227-12.889-10.209l-29.527-125.492   c-2.004,1.549-3.381,3.958-3.381,6.943v174.21c0,7.019,7.796,11.231,13.666,7.383l23.893-15.659   c4.629-3.034,10.877-1.109,12.994,4.006l43.215,104.331c1.866,4.504,7.03,6.643,11.534,4.778l23.164-9.595l-53.347-129.753   C309.675,304.459,303.226,300.138,296.068,300.138z" fill="#464655"/></g></g><g transform="matrix(0.1172168031334877 0 0 0.1172168031334877 280.0000024897124 225)" id="L1_15"><path d="M436.452,358.027l-75.047-14.023c-0.484-0.086-0.977-0.133-1.469-0.133h-208    c-0.492,0-0.984,0.047-1.469,0.133l-75.726,14.187c-38.609,10.813-58.805,48.844-58.805,80.828v43.836    c0,16,14.352,29.016,32,29.016h416c17.648,0,32-13.016,32-29.016v-43.836C495.936,407.035,475.741,369.004,436.452,358.027z" fill="#996459"/><path d="M294.712,511.871l-14.885-89.312c-0.641-3.859-3.977-6.688-7.891-6.688h-32    c-3.914,0-7.25,2.828-7.891,6.688l-14.885,89.312L294.712,511.871L294.712,511.871z" fill="#4bb9ec"/><path d="M239.936,415.871c-2.044,0-3.903,0.799-5.331,2.086l53.346,53.351l-4.525-27.151l-28.283-28.286    H239.936z" fill="#009bca"/><path d="M287.882,376.019c-0.008-4.414-3.586-7.984-8-7.984h-40c-3.031,0-5.797,1.711-7.156,4.422l-8,16    c-0.563,1.117-0.852,2.352-0.844,3.609l0.055,15.812c0,13.227,10.766,23.992,24,23.992h16c13.234,0,24-10.766,24-24.016    L287.882,376.019z" fill="#3482ac"/><path d="M259.78,345.051l-71.945-40.164c-3.492-1.961-7.883-1.008-10.281,2.164l-30.195,40    c-2.063,2.734-2.164,6.477-0.242,9.305l48.773,71.992c2.688,3.961,6.961,6.492,11.719,6.945c0.516,0.047,1.031,0.07,1.539,0.07    c4.219,0,8.266-1.656,11.289-4.672c0.203-0.203,0.398-0.422,0.578-0.648l33.148-41.156c0.359-0.438,0.672-0.922,0.922-1.43    l7.945-15.836c0.563-1.109,0.852-2.344,0.852-3.586v-16C263.882,349.137,262.311,346.465,259.78,345.051z" fill="#b4b6bc"/><path d="M251.983,345.051l71.945-40.164c3.492-1.961,7.883-1.008,10.281,2.164l30.195,40    c2.063,2.734,2.164,6.477,0.242,9.305l-48.773,71.992c-2.688,3.961-6.961,6.492-11.719,6.945c-0.516,0.047-1.031,0.07-1.539,0.07    c-4.219,0-8.266-1.656-11.289-4.672c-0.203-0.203-0.398-0.422-0.578-0.648l-33.147-41.156c-0.359-0.438-0.672-0.922-0.922-1.43    l-7.945-15.836c-0.563-1.109-0.852-2.344-0.852-3.586v-16C247.882,349.137,249.452,346.465,251.983,345.051z" fill="#b4b6bc"/><path d="M367.882,152.035l-15.781-16c0,0-54.219-14.667-168.219,0l-48,16c0,11,0,17.55,0,56    c0,79.529,53.726,144,120,144s120-64.471,120-144c0-12.906,0-37.5,0-56C373.811,154.349,367.882,152.035,367.882,152.035z" fill="#ffdcad"/><circle cx="207" cy="208" r="32" fill="#aeefff"/><path d="M207.936,176.035c-8.78,0-16.726,3.547-22.507,9.273l45.234,45.234    c5.727-5.782,9.273-13.727,9.273-22.507C239.936,190.362,225.61,176.035,207.936,176.035z" fill="#ffffff"/><circle cx="303" cy="208" r="32" fill="#aeefff"/><path d="M303.936,176.035c-8.78,0-16.726,3.547-22.507,9.273l45.234,45.234    c5.727-5.782,9.273-13.727,9.273-22.507C335.936,190.362,321.61,176.035,303.936,176.035z" fill="#ffffff"/><path d="M272.101,216.035c-4.422,0-8-3.578-8-8c0-4.414-3.586-8-8-8s-8,3.586-8,8c0,4.422-3.578,8-8,8     s-8-3.578-8-8c0-13.234,10.766-24,24-24c13.234,0,24,10.766,24,24C280.101,212.457,276.522,216.035,272.101,216.035z" fill="#5c546a"/><path d="M176.101,208.035h-40.219c-4.422,0-8-3.578-8-8s3.578-8,8-8h40.219c4.422,0,8,3.578,8,8     S180.522,208.035,176.101,208.035z" fill="#5c546a"/><path d="M375.882,208.035h-39.781c-4.422,0-8-3.578-8-8s3.578-8,8-8h39.781c4.422,0,8,3.578,8,8     S380.304,208.035,375.882,208.035z" fill="#5c546a"/><path d="M208.101,248.035c-22.055,0-40-17.945-40-40s17.945-40,40-40s40,17.945,40,40     S230.155,248.035,208.101,248.035z M208.101,184.035c-13.234,0-24,10.766-24,24s10.766,24,24,24s24-10.766,24-24     C232.101,194.801,221.335,184.035,208.101,184.035z" fill="#868491"/><path d="M304.101,248.035c-22.055,0-40-17.945-40-40s17.945-40,40-40s40,17.945,40,40     S326.155,248.035,304.101,248.035z M304.101,184.035c-13.234,0-24,10.766-24,24s10.766,24,24,24s24-10.766,24-24     C328.1,194.801,317.335,184.035,304.101,184.035z" fill="#868491"/><path d="M221.827,282.629c-4.336,0-8.594-1.406-12.102-5.711c-2.781-3.43-2.266-8.469,1.164-11.258     c3.438-2.781,8.469-2.266,11.258,1.164c0.828,0.125,5.125-1.367,7.914-2.32c8.367-2.852,19.828-6.766,30.516,0.852     c3.602,2.563,4.438,7.555,1.875,11.156c-2.563,3.586-7.555,4.43-11.156,1.875c-3.727-2.664-8.562-1.297-16.078,1.266     C231.233,281.012,226.491,282.629,221.827,282.629z" fill="#ffffff"/><path d="M290.046,282.629c-4.656,0-9.406-1.617-13.391-2.977c-7.523-2.555-12.359-3.93-16.078-1.266     c-3.594,2.57-8.594,1.719-11.156-1.875c-2.563-3.602-1.727-8.594,1.875-11.156c10.672-7.602,22.148-3.703,30.516-0.852     c2.789,0.953,6.992,2.461,8.328,2.102c2.781-3.422,7.609-3.836,11.047-1.055c3.43,2.781,3.742,7.93,0.961,11.359     C298.647,281.223,294.382,282.629,290.046,282.629z" fill="#ffffff"/><path d="M287.874,303.371c-0.266-4.219-3.758-7.5-7.984-7.5h-47.906c-4.227,0-7.719,3.281-7.984,7.5    c-0.148,2.391-3.359,59,25.82,93.656c1.516,1.805,3.758,2.844,6.117,2.844s4.602-1.039,6.117-2.844    C291.233,362.371,288.022,305.762,287.874,303.371z" fill="#ffffff"/><path d="M415.936,207.871c-4.422,0-8-3.578-8-8v-95.383c0-4.422,3.578-8,8-8s8,3.578,8,8v95.383     C423.936,204.293,420.358,207.871,415.936,207.871z" fill="#5c546a"/><path d="M441.936,60.324L279.21,4.535c-17.617-6.047-37.047-6.047-54.68,0L61.804,60.324    c-8.508,2.922-14,10.609-14,19.602s5.492,16.68,14,19.602l79.57,27.281c0.836,0.281,1.711,0.43,2.594,0.43c0.031,0,0.07,0,0.102,0    l223.969-2.797c0.844-0.008,1.688-0.156,2.492-0.43l71.406-24.484c8.508-2.922,14-10.609,14-19.602S450.444,63.246,441.936,60.324    z" fill="#5c546a"/><g><path d="M228.498,141.195c8.483-0.616,17.577-0.996,27.439-0.996c9.862,0,18.956,0.379,27.439,0.996     c32.577,1.882,71.284,7.267,92.561,18.84v-64c0-27.484-62.203-40-120-40s-120,12.516-120,40v64     C157.214,148.461,195.92,143.077,228.498,141.195z" fill="#5d647f"/><path d="M255.936,100.363c-34.716,0-92.229,4.566-120,19.672v20.328c0-6.969,42.055-24,120-24     s120,17.031,120,24v-20.328C348.166,104.93,290.653,100.363,255.936,100.363z" fill="#5c546a"/><path d="M255.936,56.035c-0.018,0-0.037,0.001-0.055,0.001V140.2c0.019,0,0.036-0.001,0.055-0.001     c9.862,0,18.956,0.379,27.439,0.996c32.577,1.882,71.284,7.267,92.561,18.84v-64C375.936,68.551,313.733,56.035,255.936,56.035z" fill="#68748d"/><path d="M255.882,100.364v16c0.019,0,0.036-0.001,0.055-0.001c77.945,0,120,17.031,120,24v-20.328     c-27.771-15.105-85.284-19.672-120-19.672C255.919,100.363,255.899,100.364,255.882,100.364z" fill="#5d647f"/></g><path d="M423.882,256.035h-16c-4.418,0-8-3.582-8-8v-32c0-8.837,7.163-16,16-16l0,0c8.837,0,16,7.163,16,16    v32C431.882,252.453,428.3,256.035,423.882,256.035z" fill="#ffe671"/><path d="M399.882,216.035v32c0,4.418,3.582,8,8,8h8v-56C407.045,200.035,399.882,207.198,399.882,216.035z" fill="#ffcd00"/><path d="M95.938,458.382c0-16.974-6.743-33.252-18.745-45.255L41.667,377.6    c-16.948,16.802-25.73,40.394-25.73,61.419v43.836c0,16,14.352,29.016,32,29.016h48.002v-53.489H95.938z" fill="#b4b6bc"/><path d="M470.136,377.676l-35.451,35.452c-12.003,12.002-18.746,28.281-18.746,45.255v53.489h47.998    c17.648,0,32-13.016,32-29.016V439.02C495.936,418.045,487.194,394.516,470.136,377.676z" fill="#b4b6bc"/><path d="M229.159,439.882 225.926,459.275 278.517,511.871 294.712,511.871 293.427,504.156z" fill="#009bca"/><path d="M218.784,502.132 228.522,511.871 251.147,511.871 222.016,482.739z" fill="#009bca"/></g><g transform="matrix(0.1171875 0 0 0.1171875 82 252.0000005435943)" id="L1_16"><rect x="43px" y="393px" width="425px" height="16px" fill="#333e48"/><rect x="43px" y="393px" width="34px" height="16px" opacity="0.2"/><rect x="434px" y="393px" width="34px" height="16px" opacity="0.2"/><rect x="58px" y="170px" width="148px" height="40px" fill="#e0e0d3"/><rect x="21px" y="257px" width="43px" height="209px" fill="#333e48"/><rect x="21px" y="257px" width="43px" height="29px" opacity="0.2"/><rect x="446px" y="257px" width="43px" height="209px" fill="#333e48"/><rect x="446px" y="257px" width="43px" height="29px" opacity="0.2"/><path d="M512,224.991c0-9.143-7.48-16.623-16.623-16.623H16.623C7.48,208.368,0,215.848,0,224.991v21.13  c0,9.143,7.48,16.623,16.623,16.623h478.754c9.143,0,16.623-7.48,16.623-16.623V224.991z" fill="#d49000"/><path d="M402.288,189.198h-16.623V82.124c0-11.303-9.195-20.497-20.497-20.497  c-11.302,0-20.496,9.195-20.496,20.497h-16.623c0-20.469,16.651-37.121,37.12-37.121s37.121,16.652,37.121,37.121V189.198z" fill="#333e48"/><path d="M329.757,70.989c-1.108,3.517-1.709,7.258-1.709,11.136h16.623  c0-4.106,1.225-7.926,3.312-11.136H329.757z" opacity="0.2"/><rect x="385px" y="173px" width="16px" height="15px" opacity="0.2"/><g><path d="M459.173,208.368c0-13.465-10.916-24.381-24.381-24.381h-81.631   c-13.465,0-24.381,10.916-24.381,24.381H459.173z" fill="#0055b8"/><path d="M356.57,79.485 316.149,79.485 305.352,116.056 367.366,116.056z" fill="#0055b8"/></g></g><g transform="matrix(0.1171875 0 0 0.1171875 154 257)" id="L1_17"><path d="M411.608,501.961h-261.02c-11.093,0-20.078-8.985-20.078-20.078   c0-11.093,8.985-20.078,20.078-20.078h261.02c11.093,0,20.078,8.985,20.078,20.078   C431.686,492.976,422.701,501.961,411.608,501.961" fill="#b2b5c8"/><g><path d="M321.255,421.647c0-22.177-17.98-40.157-40.157-40.157s-40.157,17.98-40.157,40.157    c0,22.177,17.98,40.157,40.157,40.157S321.255,443.824,321.255,421.647" fill="#868ba5"/><path d="M512,230.902c0-22.177-17.98-40.157-40.157-40.157c-22.177,0-40.157,17.98-40.157,40.157    s17.98,40.157,40.157,40.157C494.02,271.059,512,253.079,512,230.902" fill="#868ba5"/></g><path d="M433.106,240.938L290.037,382.571l0,0c2.741,0.622,5.361,1.546,7.851,2.701   c0.211,0.1,0.402,0.231,0.612,0.331c2.309,1.124,4.488,2.44,6.525,3.965c0.131,0.09,0.241,0.201,0.361,0.291   c2.108,1.616,4.036,3.433,5.793,5.431c0.01,0.01,0.02,0.02,0.02,0.03c1.827,2.088,3.413,4.347,4.779,6.786   c1.827,3.263,3.303,6.746,4.166,10.491L461.346,269.5C447.502,265.735,436.71,254.842,433.106,240.938" fill="#b2b5c8"/><path d="M261.02,90.353H40.157C17.98,90.353,0,72.373,0,50.196s17.98-40.157,40.157-40.157H261.02   c22.177,0,40.157,17.98,40.157,40.157S283.196,90.353,261.02,90.353" fill="#868ba5"/><path d="M298.673,36.665c1.526,4.247,2.5,8.754,2.5,13.533c0,12.539-5.863,23.602-14.878,30.961   l146.874,139.505c3.765-14.216,15.009-25.289,29.345-28.722L298.673,36.665z" fill="#b2b5c8"/><g><path d="M150.588,200.784c-5.542,0-10.039-4.498-10.039-10.039v-50.196c0-5.542,4.498-10.039,10.039-10.039    s10.039,4.498,10.039,10.039v50.196C160.627,196.287,156.13,200.784,150.588,200.784" fill="#ecba16"/><path d="M40.152,200.789c-1.245,0-2.5-0.231-3.725-0.723c-5.15-2.058-7.65-7.901-5.592-13.051    l20.078-50.196c2.058-5.14,7.871-7.65,13.051-5.592c5.15,2.058,7.65,7.901,5.592,13.051l-20.078,50.196    C47.902,198.4,44.137,200.789,40.152,200.789" fill="#ecba16"/><path d="M250.985,200.789c-3.986,0-7.75-2.389-9.326-6.315l-20.078-50.196    c-2.058-5.15,0.442-10.993,5.592-13.051c5.17-2.038,10.993,0.452,13.051,5.592l20.078,50.196    c2.058,5.15-0.442,10.993-5.592,13.051C253.485,200.558,252.23,200.789,250.985,200.789" fill="#ecba16"/></g></g><g transform="matrix(0.11708733439445496 0 0 0.11708733439445496 8 263.00000137211714)" id="L1_18"><path d="M424,116.219h-40c-4.418,0-8,3.582-8,8v216h56v-216C432,119.801,428.418,116.219,424,116.219z" fill="#ff4f19"/><path d="M404,116.219h-20c-4.418,0-8,3.582-8,8v216h28V116.219z" fill="#e3001e"/><path d="M168.219,84.219H120c-4.418,0-8,3.582-8,8v248h64.219v-248    C176.219,87.801,172.637,84.219,168.219,84.219z" fill="#e3001e"/><path d="M168.219,84.219H144v256h32.219v-248C176.219,87.801,172.637,84.219,168.219,84.219z" fill="#ff4f19"/><path d="M80,452.219c-2.977,0-5.781-1.668-7.156-4.422l-40-80c-1.977-3.953-0.375-8.758,3.578-10.734     c3.945-1.969,8.758-0.375,10.734,3.578L72,410.332v-46.113c0-4.418,3.578-8,8-8s8,3.582,8,8v80c0,3.711-2.555,6.934-6.164,7.785     C81.227,452.149,80.609,452.219,80,452.219z" fill="#868491"/><path d="M432.219,452.219c-0.609,0-1.227-0.07-1.836-0.215c-3.609-0.852-6.164-4.074-6.164-7.785v-80     c0-4.418,3.578-8,8-8s8,3.582,8,8v46.113l24.844-49.691c1.984-3.953,6.781-5.547,10.734-3.578     c3.953,1.977,5.555,6.781,3.578,10.734l-40,80C438,450.551,435.195,452.219,432.219,452.219z" fill="#868491"/><path d="M248,84.219h-16c-4.418,0-8,3.582-8,8v248h32v-248C256,87.801,252.418,84.219,248,84.219z" fill="#5d647f"/><path d="M368,84.219h-16c-4.418,0-8,3.582-8,8v248h32v-248C376,87.801,372.418,84.219,368,84.219z" fill="#4bb9ec"/><path d="M104,108.219H88c-4.418,0-8,3.582-8,8v223.125c0,0.483,0.392,0.875,0.875,0.875H112v-224    C112,111.801,108.418,108.219,104,108.219z" fill="#ff9100"/><path d="M72,132.219H48c-4.418,0-8,3.582-8,8v200h40v-200C80,135.801,76.418,132.219,72,132.219z" fill="#00c37a"/><path d="M464,100.219h-24c-4.418,0-8,3.582-8,8v232h40v-232C472,103.801,468.418,100.219,464,100.219z" fill="#5d647f"/><path d="M336,60.219h-40c-4.418,0-8,3.582-8,8v272h56v-272C344,63.801,340.418,60.219,336,60.219z" fill="#ff9100"/><path d="M280,116.219h-16c-4.418,0-8,3.582-8,8v216h32v-216C288,119.801,284.418,116.219,280,116.219z" fill="#00c37a"/><path d="M216,100.219h-32c-4.418,0-8,3.582-8,8v232h48v-232C224,103.801,220.418,100.219,216,100.219z" fill="#4bb9ec"/><path d="M504.438,372.219H8c-4.418,0-8-3.582-8-8v-16c0-4.418,3.582-8,8-8h496.438c4.418,0,8,3.582,8,8v16    C512.438,368.637,508.856,372.219,504.438,372.219z" fill="#e6be8a"/><rect x="112px" y="108px" width="32px" height="16px" fill="#5d647f"/><rect x="144px" y="108px" width="32px" height="16px" fill="#868491"/><rect x="112px" y="300px" width="32px" height="16px" fill="#5d647f"/><rect x="144px" y="300px" width="32px" height="16px" fill="#868491"/><rect x="272px" y="140px" width="16px" height="16px" fill="#00a077"/><rect x="272px" y="292px" width="16px" height="16px" fill="#00a077"/><rect x="376px" y="140px" width="28px" height="16px" fill="#ff9100"/><rect x="376px" y="292px" width="28px" height="16px" fill="#ff9100"/><rect x="404px" y="140px" width="28px" height="16px" fill="#ffcd00"/><rect x="404px" y="292px" width="28px" height="16px" fill="#ffcd00"/><path d="M176,108.219v232h24v-240h-16C179.582,100.219,176,103.801,176,108.219z" fill="#009bca"/><path d="M80,340.219h16v-232h-8c-4.418,0-8,3.582-8,8V340.219z" fill="#ff4f19"/><path d="M40,340.219h20v-208H46.998c-3.865,0-6.998,3.133-6.998,6.998V340.219z" fill="#00a077"/><path d="M224,340.219h16v-256h-8c-4.418,0-8,3.582-8,8V340.219z" fill="#5c546a"/><path d="M256,340.219h16v-224h-8c-4.418,0-8,3.582-8,8V340.219z" fill="#00a077"/><rect x="256px" y="140px" width="16px" height="16px" fill="#5d647f"/><rect x="256px" y="292px" width="16px" height="16px" fill="#5d647f"/><path d="M288,340.219h28v-280h-20c-4.418,0-8,3.582-8,8V340.219z" fill="#ff4f19"/><path d="M360,84.219h-8c-4.418,0-8,3.582-8,8v248h16V84.219z" fill="#009bca"/><path d="M452.22,100.219H440c-4.418,0-8,3.582-8,8v232h20.22V100.219z" fill="#5c546a"/><path d="M0,356.219v8c0,4.418,3.582,8,8,8h496.438c4.418,0,8-3.582,8-8v-8H0z" fill="#c9a07c"/></g><g transform="matrix(0.1171875 0 0 0.1171875 217 261)" id="L1_19"><path d="M353.103,507.586H158.897c-9.751,0-17.655-7.904-17.655-17.655V242.759  c0-9.751,7.904-17.655,17.655-17.655h194.207c9.751,0,17.655,7.904,17.655,17.655v247.172  C370.759,499.682,362.855,507.586,353.103,507.586z" fill="#ffdc64"/><path d="M256,4.414c-126.56,0-229.517,102.962-229.517,229.517v79.448h17.655v-79.448  c0-116.819,95.043-211.862,211.862-211.862s211.862,95.043,211.862,211.862v79.448h17.655v-79.448  C485.517,107.375,382.56,4.414,256,4.414z" fill="#464655"/><path d="M289.345,291.149l19.62-13.08l19.62,13.08c2.933,1.955,6.862-0.147,6.862-3.672v-62.374  c0-4.875-3.953-8.828-8.828-8.828h-35.31c-4.875,0-8.828,3.953-8.828,8.828v62.374C282.483,291.003,286.412,293.105,289.345,291.149  z" fill="#ff5050"/><path d="M176.552,481.103c-4.879,0-8.828-3.948-8.828-8.828V260.414c0-4.879,3.948-8.828,8.828-8.828  c4.879,0,8.828,3.948,8.828,8.828v211.862C185.379,477.155,181.431,481.103,176.552,481.103z" fill="#ffc850"/><path d="M300.138,357.517h-52.966c-4.879,0-8.828-3.948-8.828-8.828c0-4.879,3.948-8.828,8.828-8.828h52.966  c4.879,0,8.828,3.948,8.828,8.828C308.966,353.569,305.017,357.517,300.138,357.517z" fill="#e1a546"/><path d="M317.793,392.828h-88.276c-4.879,0-8.828-3.948-8.828-8.828s3.948-8.828,8.828-8.828h88.276  c4.879,0,8.828,3.948,8.828,8.828S322.673,392.828,317.793,392.828z" fill="#ffc850"/><path d="M17.655,295.724C7.905,295.724,0,303.629,0,313.379V419.31c0,9.751,7.905,17.655,17.655,17.655  h26.483V295.724H17.655z" fill="#7f8499"/><path d="M70.621,454.621H52.966c-9.751,0-17.655-7.904-17.655-17.655V295.724  c0-9.751,7.904-17.655,17.655-17.655h17.655c9.751,0,17.655,7.904,17.655,17.655v141.241  C88.276,446.716,80.372,454.621,70.621,454.621z" fill="#959cb5"/><path d="M494.345,436.966c9.75,0,17.655-7.905,17.655-17.655V313.379c0-9.751-7.905-17.655-17.655-17.655  h-26.483v141.241H494.345z" fill="#7f8499"/><path d="M441.379,278.069h17.655c9.751,0,17.655,7.904,17.655,17.655v141.241  c0,9.751-7.904,17.655-17.655,17.655h-17.655c-9.751,0-17.655-7.904-17.655-17.655V295.724  C423.724,285.973,431.628,278.069,441.379,278.069z" fill="#959cb5"/><path d="M291.31,216.276c-4.875,0-8.828,3.953-8.828,8.828v62.374c0,3.526,3.929,5.628,6.862,3.672  l19.62-13.08v-61.793H291.31z" fill="#c84146"/></g></defs><g fi:class="KUsePattern"><pattern id="pattern_L1_0" width="350" height="350" patternUnits="userSpaceOnUse"><use xlink:href="#L1_0" x="-350" y="-350"/><use xlink:href="#L1_0" x="0" y="-350"/><use xlink:href="#L1_0" x="350" y="-350"/><use xlink:href="#L1_0" x="-350" y="0"/><use xlink:href="#L1_0" x="0" y="0"/><use xlink:href="#L1_0" x="350" y="0"/><use xlink:href="#L1_0" x="-350" y="350"/><use xlink:href="#L1_0" x="0" y="350"/><use xlink:href="#L1_0" x="350" y="350"/></pattern><rect x="0" y="0" width="100%" height="100%" fill="url(#pattern_L1_0)"/></g><g fi:class="KUsePattern"><pattern id="pattern_L1_1" width="350" height="350" patternUnits="userSpaceOnUse"><use xlink:href="#L1_1" x="-350" y="-350"/><use xlink:href="#L1_1" x="0" y="-350"/><use xlink:href="#L1_1" x="350" y="-350"/><use xlink:href="#L1_1" x="-350" y="0"/><use xlink:href="#L1_1" x="0" y="0"/><use xlink:href="#L1_1" x="350" y="0"/><use xlink:href="#L1_1" x="-350" y="350"/><use xlink:href="#L1_1" x="0" y="350"/><use xlink:href="#L1_1" x="350" y="350"/></pattern><rect x="0" y="0" width="100%" height="100%" fill="url(#pattern_L1_1)"/></g><g fi:class="KUsePattern"><pattern id="pattern_L1_2" width="350" height="350" patternUnits="userSpaceOnUse"><use xlink:href="#L1_2" x="-350" y="-350"/><use xlink:href="#L1_2" x="0" y="-350"/><use xlink:href="#L1_2" x="350" y="-350"/><use xlink:href="#L1_2" x="-350" y="0"/><use xlink:href="#L1_2" x="0" y="0"/><use xlink:href="#L1_2" x="350" y="0"/><use xlink:href="#L1_2" x="-350" y="350"/><use xlink:href="#L1_2" x="0" y="350"/><use xlink:href="#L1_2" x="350" y="350"/></pattern><rect x="0" y="0" width="100%" height="100%" fill="url(#pattern_L1_2)"/></g><g fi:class="KUsePattern"><pattern id="pattern_L1_3" width="350" height="350" patternUnits="userSpaceOnUse"><use xlink:href="#L1_3" x="-350" y="-350"/><use xlink:href="#L1_3" x="0" y="-350"/><use xlink:href="#L1_3" x="350" y="-350"/><use xlink:href="#L1_3" x="-350" y="0"/><use xlink:href="#L1_3" x="0" y="0"/><use xlink:href="#L1_3" x="350" y="0"/><use xlink:href="#L1_3" x="-350" y="350"/><use xlink:href="#L1_3" x="0" y="350"/><use xlink:href="#L1_3" x="350" y="350"/></pattern><rect x="0" y="0" width="100%" height="100%" fill="url(#pattern_L1_3)"/></g><g fi:class="KUsePattern"><pattern id="pattern_L1_4" width="350" height="350" patternUnits="userSpaceOnUse"><use xlink:href="#L1_4" x="-350" y="-350"/><use xlink:href="#L1_4" x="0" y="-350"/><use xlink:href="#L1_4" x="350" y="-350"/><use xlink:href="#L1_4" x="-350" y="0"/><use xlink:href="#L1_4" x="0" y="0"/><use xlink:href="#L1_4" x="350" y="0"/><use xlink:href="#L1_4" x="-350" y="350"/><use xlink:href="#L1_4" x="0" y="350"/><use xlink:href="#L1_4" x="350" y="350"/></pattern><rect x="0" y="0" width="100%" height="100%" fill="url(#pattern_L1_4)"/></g><g fi:class="KUsePattern"><pattern id="pattern_L1_6" width="350" height="350" patternUnits="userSpaceOnUse"><use xlink:href="#L1_6" x="-350" y="-350"/><use xlink:href="#L1_6" x="0" y="-350"/><use xlink:href="#L1_6" x="350" y="-350"/><use xlink:href="#L1_6" x="-350" y="0"/><use xlink:href="#L1_6" x="0" y="0"/><use xlink:href="#L1_6" x="350" y="0"/><use xlink:href="#L1_6" x="-350" y="350"/><use xlink:href="#L1_6" x="0" y="350"/><use xlink:href="#L1_6" x="350" y="350"/></pattern><rect x="0" y="0" width="100%" height="100%" fill="url(#pattern_L1_6)"/></g><g fi:class="KUsePattern"><pattern id="pattern_L1_7" width="350" height="350" patternUnits="userSpaceOnUse"><use xlink:href="#L1_7" x="-350" y="-350"/><use xlink:href="#L1_7" x="0" y="-350"/><use xlink:href="#L1_7" x="350" y="-350"/><use xlink:href="#L1_7" x="-350" y="0"/><use xlink:href="#L1_7" x="0" y="0"/><use xlink:href="#L1_7" x="350" y="0"/><use xlink:href="#L1_7" x="-350" y="350"/><use xlink:href="#L1_7" x="0" y="350"/><use xlink:href="#L1_7" x="350" y="350"/></pattern><rect x="0" y="0" width="100%" height="100%" fill="url(#pattern_L1_7)"/></g><g fi:class="KUsePattern"><pattern id="pattern_L1_8" width="350" height="350" patternUnits="userSpaceOnUse"><use xlink:href="#L1_8" x="-350" y="-350"/><use xlink:href="#L1_8" x="0" y="-350"/><use xlink:href="#L1_8" x="350" y="-350"/><use xlink:href="#L1_8" x="-350" y="0"/><use xlink:href="#L1_8" x="0" y="0"/><use xlink:href="#L1_8" x="350" y="0"/><use xlink:href="#L1_8" x="-350" y="350"/><use xlink:href="#L1_8" x="0" y="350"/><use xlink:href="#L1_8" x="350" y="350"/></pattern><rect x="0" y="0" width="100%" height="100%" fill="url(#pattern_L1_8)"/></g><g fi:class="KUsePattern"><pattern id="pattern_L1_9" width="350" height="350" patternUnits="userSpaceOnUse"><use xlink:href="#L1_9" x="-350" y="-350"/><use xlink:href="#L1_9" x="0" y="-350"/><use xlink:href="#L1_9" x="350" y="-350"/><use xlink:href="#L1_9" x="-350" y="0"/><use xlink:href="#L1_9" x="0" y="0"/><use xlink:href="#L1_9" x="350" y="0"/><use xlink:href="#L1_9" x="-350" y="350"/><use xlink:href="#L1_9" x="0" y="350"/><use xlink:href="#L1_9" x="350" y="350"/></pattern><rect x="0" y="0" width="100%" height="100%" fill="url(#pattern_L1_9)"/></g><g fi:class="KUsePattern"><pattern id="pattern_L1_10" width="350" height="350" patternUnits="userSpaceOnUse"><use xlink:href="#L1_10" x="-350" y="-350"/><use xlink:href="#L1_10" x="0" y="-350"/><use xlink:href="#L1_10" x="350" y="-350"/><use xlink:href="#L1_10" x="-350" y="0"/><use xlink:href="#L1_10" x="0" y="0"/><use xlink:href="#L1_10" x="350" y="0"/><use xlink:href="#L1_10" x="-350" y="350"/><use xlink:href="#L1_10" x="0" y="350"/><use xlink:href="#L1_10" x="350" y="350"/></pattern><rect x="0" y="0" width="100%" height="100%" fill="url(#pattern_L1_10)"/></g><g fi:class="KUsePattern"><pattern id="pattern_L1_11" width="350" height="350" patternUnits="userSpaceOnUse"><use xlink:href="#L1_11" x="-350" y="-350"/><use xlink:href="#L1_11" x="0" y="-350"/><use xlink:href="#L1_11" x="350" y="-350"/><use xlink:href="#L1_11" x="-350" y="0"/><use xlink:href="#L1_11" x="0" y="0"/><use xlink:href="#L1_11" x="350" y="0"/><use xlink:href="#L1_11" x="-350" y="350"/><use xlink:href="#L1_11" x="0" y="350"/><use xlink:href="#L1_11" x="350" y="350"/></pattern><rect x="0" y="0" width="100%" height="100%" fill="url(#pattern_L1_11)"/></g><g fi:class="KUsePattern"><pattern id="pattern_L1_12" width="350" height="350" patternUnits="userSpaceOnUse"><use xlink:href="#L1_12" x="-350" y="-350"/><use xlink:href="#L1_12" x="0" y="-350"/><use xlink:href="#L1_12" x="350" y="-350"/><use xlink:href="#L1_12" x="-350" y="0"/><use xlink:href="#L1_12" x="0" y="0"/><use xlink:href="#L1_12" x="350" y="0"/><use xlink:href="#L1_12" x="-350" y="350"/><use xlink:href="#L1_12" x="0" y="350"/><use xlink:href="#L1_12" x="350" y="350"/></pattern><rect x="0" y="0" width="100%" height="100%" fill="url(#pattern_L1_12)"/></g><g fi:class="KUsePattern"><pattern id="pattern_L1_13" width="350" height="350" patternUnits="userSpaceOnUse"><use xlink:href="#L1_13" x="-350" y="-350"/><use xlink:href="#L1_13" x="0" y="-350"/><use xlink:href="#L1_13" x="350" y="-350"/><use xlink:href="#L1_13" x="-350" y="0"/><use xlink:href="#L1_13" x="0" y="0"/><use xlink:href="#L1_13" x="350" y="0"/><use xlink:href="#L1_13" x="-350" y="350"/><use xlink:href="#L1_13" x="0" y="350"/><use xlink:href="#L1_13" x="350" y="350"/></pattern><rect x="0" y="0" width="100%" height="100%" fill="url(#pattern_L1_13)"/></g><g fi:class="KUsePattern"><pattern id="pattern_L1_14" width="350" height="350" patternUnits="userSpaceOnUse"><use xlink:href="#L1_14" x="-350" y="-350"/><use xlink:href="#L1_14" x="0" y="-350"/><use xlink:href="#L1_14" x="350" y="-350"/><use xlink:href="#L1_14" x="-350" y="0"/><use xlink:href="#L1_14" x="0" y="0"/><use xlink:href="#L1_14" x="350" y="0"/><use xlink:href="#L1_14" x="-350" y="350"/><use xlink:href="#L1_14" x="0" y="350"/><use xlink:href="#L1_14" x="350" y="350"/></pattern><rect x="0" y="0" width="100%" height="100%" fill="url(#pattern_L1_14)"/></g><g fi:class="KUsePattern"><pattern id="pattern_L1_15" width="350" height="350" patternUnits="userSpaceOnUse"><use xlink:href="#L1_15" x="-350" y="-350"/><use xlink:href="#L1_15" x="0" y="-350"/><use xlink:href="#L1_15" x="350" y="-350"/><use xlink:href="#L1_15" x="-350" y="0"/><use xlink:href="#L1_15" x="0" y="0"/><use xlink:href="#L1_15" x="350" y="0"/><use xlink:href="#L1_15" x="-350" y="350"/><use xlink:href="#L1_15" x="0" y="350"/><use xlink:href="#L1_15" x="350" y="350"/></pattern><rect x="0" y="0" width="100%" height="100%" fill="url(#pattern_L1_15)"/></g><g fi:class="KUsePattern"><pattern id="pattern_L1_16" width="350" height="350" patternUnits="userSpaceOnUse"><use xlink:href="#L1_16" x="-350" y="-350"/><use xlink:href="#L1_16" x="0" y="-350"/><use xlink:href="#L1_16" x="350" y="-350"/><use xlink:href="#L1_16" x="-350" y="0"/><use xlink:href="#L1_16" x="0" y="0"/><use xlink:href="#L1_16" x="350" y="0"/><use xlink:href="#L1_16" x="-350" y="350"/><use xlink:href="#L1_16" x="0" y="350"/><use xlink:href="#L1_16" x="350" y="350"/></pattern><rect x="0" y="0" width="100%" height="100%" fill="url(#pattern_L1_16)"/></g><g fi:class="KUsePattern"><pattern id="pattern_L1_17" width="350" height="350" patternUnits="userSpaceOnUse"><use xlink:href="#L1_17" x="-350" y="-350"/><use xlink:href="#L1_17" x="0" y="-350"/><use xlink:href="#L1_17" x="350" y="-350"/><use xlink:href="#L1_17" x="-350" y="0"/><use xlink:href="#L1_17" x="0" y="0"/><use xlink:href="#L1_17" x="350" y="0"/><use xlink:href="#L1_17" x="-350" y="350"/><use xlink:href="#L1_17" x="0" y="350"/><use xlink:href="#L1_17" x="350" y="350"/></pattern><rect x="0" y="0" width="100%" height="100%" fill="url(#pattern_L1_17)"/></g><g fi:class="KUsePattern"><pattern id="pattern_L1_18" width="350" height="350" patternUnits="userSpaceOnUse"><use xlink:href="#L1_18" x="-350" y="-350"/><use xlink:href="#L1_18" x="0" y="-350"/><use xlink:href="#L1_18" x="350" y="-350"/><use xlink:href="#L1_18" x="-350" y="0"/><use xlink:href="#L1_18" x="0" y="0"/><use xlink:href="#L1_18" x="350" y="0"/><use xlink:href="#L1_18" x="-350" y="350"/><use xlink:href="#L1_18" x="0" y="350"/><use xlink:href="#L1_18" x="350" y="350"/></pattern><rect x="0" y="0" width="100%" height="100%" fill="url(#pattern_L1_18)"/></g><g fi:class="KUsePattern"><pattern id="pattern_L1_19" width="350" height="350" patternUnits="userSpaceOnUse"><use xlink:href="#L1_19" x="-350" y="-350"/><use xlink:href="#L1_19" x="0" y="-350"/><use xlink:href="#L1_19" x="350" y="-350"/><use xlink:href="#L1_19" x="-350" y="0"/><use xlink:href="#L1_19" x="0" y="0"/><use xlink:href="#L1_19" x="350" y="0"/><use xlink:href="#L1_19" x="-350" y="350"/><use xlink:href="#L1_19" x="0" y="350"/><use xlink:href="#L1_19" x="350" y="350"/></pattern><rect x="0" y="0" width="100%" height="100%" fill="url(#pattern_L1_19)"/></g></svg>