<svg xmlns="http://www.w3.org/2000/svg" xmlns:xlink="http://www.w3.org/1999/xlink" xmlns:fi="http://pattern.flaticon.com/" x="0" y="0" width="700" height="280" viewBox="0 0 700 280"><rect x="0px" y="0px" width="100%" height="100%" opacity="1" fill="#34b9f5"/><defs><g transform="matrix(0.10825243568784557 -0.046811865032367235 0.046811865032367235 0.10825243568784557 86.30353901562552 49.271213912197545)" id="L1_0"><path d="M453.268,132.198h-256v244.622l117.464,2.981h138.536c32.438,0,58.732-26.294,58.732-58.732V190.93  C512,158.492,485.706,132.198,453.268,132.198z" fill="#ffd24d"/><g><path d="M314.732,379.802h-256C26.294,379.802,0,353.508,0,321.07V190.93   c0-32.438,26.294-58.732,58.732-58.732h138.536c32.438,0,58.732,26.294,58.732,58.732V321.07   C256,353.508,282.294,379.802,314.732,379.802z" fill="#1b4145"/><path d="M409.21,192.361l-84.431,0.013c-4.713,0.001-8.532,3.821-8.532,8.533v122.753   c0,4.714,3.82,8.533,8.533,8.533c4.714,0,8.533-3.82,8.533-8.533V270.81l64.526-0.041c4.713-0.003,8.531-3.825,8.528-8.539   c-0.003-4.712-3.822-8.528-8.533-8.528c-0.006,0-64.52,0.041-64.52,0.041V209.44l75.899-0.011c4.714-0.001,8.533-3.822,8.532-8.534   C417.743,196.18,413.922,192.36,409.21,192.361z" fill="#1b4145"/><path d="M442.747,332.192c-4.714,0-8.533-3.82-8.533-8.533v-91.733c0-4.714,3.82-8.533,8.533-8.533   s8.533,3.82,8.533,8.533v91.733C451.28,328.372,447.46,332.192,442.747,332.192z" fill="#1b4145"/><circle cx="442" cy="201" r="8" fill="#1b4145"/></g><g><path d="M187.053,332.192c-4.713,0-8.533-3.82-8.533-8.533v-91.733c0-4.714,3.821-8.533,8.533-8.533   c4.713,0,8.533,3.82,8.533,8.533v91.733C195.586,328.372,191.766,332.192,187.053,332.192z" fill="#ffd24d"/><circle cx="187" cy="201" r="8" fill="#ffd24d"/><path d="M69.086,332.192c-0.844,0-1.696-0.125-2.534-0.386c-3.568-1.11-6-4.412-6-8.149V201.24   c0-4.714,3.821-8.533,8.533-8.533c4.713,0,8.533,3.82,8.533,8.533v94.975l26.586-38.618c1.591-2.311,4.217-3.692,7.022-3.694   c2.809,0,5.434,1.377,7.028,3.684l26.728,38.7v-95.391c0-4.714,3.821-8.533,8.533-8.533c4.713,0,8.533,3.82,8.533,8.533v122.763   c0,3.734-2.428,7.036-5.994,8.146c-3.568,1.113-7.44-0.224-9.562-3.297l-35.249-51.04l-35.13,51.03   C74.493,330.853,71.84,332.192,69.086,332.192z" fill="#ffd24d"/></g></g><g transform="matrix(0.1171875 0 0 0.1171875 64.99999785423279 116)" id="L1_4"><path d="M32.175,478.426 32.175,512 479.825,512 479.825,478.426 256,444.852z" fill="#c2b8b9"/><path d="M32.175,444.852 32.175,478.426 479.825,478.426 479.825,366.514z" fill="#d6ced1"/><path d="M479.825,153.88 479.825,366.514 423.869,388.896 401.486,444.852 32.175,444.852   32.175,153.88 256,120.306z" fill="#ece7ea"/><rect x="32px" y="30px" width="447px" height="123px" fill="#f14742"/><g><path d="M315.966,367.633c-4.635,0-8.393-3.757-8.393-8.393v-99.484l-9.621,9.621   c-3.278,3.277-8.593,3.277-11.869,0c-3.278-3.279-3.278-8.593,0-11.871l23.949-23.948c2.401-2.402,6.012-3.117,9.147-1.819   c3.137,1.298,5.182,4.36,5.182,7.754V359.24C324.36,363.876,320.603,367.633,315.966,367.633z" fill="#ffffff"/><path d="M227.238,367.633c-21.835,0-39.599-17.764-39.599-39.599c0-4.637,3.758-8.393,8.393-8.393   s8.393,3.757,8.393,8.393c0,12.578,10.233,22.812,22.812,22.812c12.578,0,22.811-10.234,22.811-22.812   c0-9.121-5.415-17.349-13.798-20.96c-3.079-1.326-5.073-4.357-5.073-7.709s1.994-6.382,5.073-7.709   c8.381-3.611,13.798-11.838,13.798-20.96c0-12.578-10.233-22.812-22.811-22.812c-12.579,0-22.812,10.234-22.812,22.812   c0,4.637-3.758,8.393-8.393,8.393s-8.393-3.757-8.393-8.393c0-21.835,17.764-39.599,39.599-39.599   c21.834,0,39.598,17.764,39.598,39.599c0,11.041-4.572,21.328-12.272,28.668c7.701,7.34,12.272,17.626,12.272,28.668   C266.838,349.869,249.074,367.633,227.238,367.633z" fill="#ffffff"/></g><g><path d="M390.295,100.721c-4.635,0-8.393-3.757-8.393-8.393V8.393c0-4.637,3.758-8.393,8.393-8.393   c4.635,0,8.393,3.757,8.393,8.393v83.934C398.689,96.964,394.931,100.721,390.295,100.721z" fill="#e1dfe0"/><path d="M121.705,100.721c-4.635,0-8.393-3.757-8.393-8.393V8.393c0-4.637,3.758-8.393,8.393-8.393   c4.635,0,8.393,3.757,8.393,8.393v83.934C130.098,96.964,126.34,100.721,121.705,100.721z" fill="#e1dfe0"/></g><path d="M479.825,366.514 401.486,444.852 401.486,366.514z" fill="#ffffff"/></g><g transform="matrix(0.1171875 0 0 0.1171875 254 173)" id="L1_10"><path d="M256,0c141.385,0,256,114.615,256,256S397.385,512,256,512S0,397.385,0,256S114.615,0,256,0z" fill="#ffca4f"/><path d="M261.739,106.253c-20.656,138.295,67.516,103.485,71.873,136.858v42.175  c-4.357,33.375-92.529-1.435-71.873,136.861h87.364h87.367c20.654-138.295-67.521-103.485-71.873-136.861v-42.175  c4.352-33.372,92.526,1.437,71.873-136.858h-87.367H261.739z" fill="#20d0c2"/><path d="M364.6,261.364v-18.253c4.352-33.372,92.526,1.437,71.873-136.858h-17.815  c0,0,36.483,94.182-39.12,114.033c-20.318,5.335-18.204,19.759-18.188,41.079v0.926c-0.042,21.115-2.007,35.773,18.188,41.071  c75.603,19.851,39.12,118.785,39.12,118.785h17.815c20.654-138.295-67.521-108.236-71.873-141.611V262.29V261.364z" fill="#15bdb1"/><g><path d="M274.033,150.833c-2.597,25.291,0.698,39.146,20.055,54.296   c14.739,11.539,36.536,12.189,48.992,26.631c4.018,2.982,8.032,2.841,12.05,0c12.457-14.442,34.251-15.093,48.992-26.634   c19.358-15.15,22.65-29.005,20.053-54.296H274.033V150.833z M349.368,238.541L349.368,238.541c3.447,0,6.243,2.796,6.243,6.243   c0,3.447-2.796,6.24-6.243,6.24s-6.24-2.796-6.24-6.24C343.128,241.337,345.924,238.541,349.368,238.541z M349.368,293.003   L349.368,293.003c3.447,0,6.243,2.796,6.243,6.243c0,3.444-2.796,6.24-6.243,6.24s-6.24-2.796-6.24-6.24   C343.128,295.799,345.924,293.003,349.368,293.003z M349.368,274.849L349.368,274.849c3.447,0,6.243,2.796,6.243,6.24   c0,3.447-2.796,6.243-6.243,6.243s-6.24-2.796-6.24-6.243S345.924,274.849,349.368,274.849z M349.368,256.695L349.368,256.695   c3.447,0,6.243,2.796,6.243,6.24c0,3.447-2.796,6.243-6.243,6.243s-6.24-2.793-6.24-6.243   C343.128,259.489,345.924,256.695,349.368,256.695z M276.971,404.835L276.971,404.835h144.268   C405.33,279.875,292.67,278.524,276.971,404.835z" fill="#ffffff"/><path d="M236.501,246.458c2.445,0.75,4.787,1.726,7.006,2.906l9.333-6.479l13.729,13.729l-6.481,9.333   c1.18,2.219,2.156,4.564,2.906,7.006l11.177,2.014v19.413l-11.177,2.014c-0.75,2.445-1.726,4.787-2.909,7.009l6.481,9.33   l-13.729,13.726l-9.33-6.481c-2.222,1.183-4.564,2.159-7.009,2.909l-2.014,11.177h-19.413l-2.014-11.177   c-2.445-0.748-4.787-1.726-7.009-2.909l-9.33,6.479l-13.726-13.726l6.481-9.33c-1.18-2.222-2.159-4.564-2.906-7.011l-11.177-2.014   v-19.415l11.177-2.014c0.748-2.445,1.726-4.79,2.906-7.009l-6.481-9.33l13.726-13.729l9.33,6.481   c2.222-1.18,4.564-2.156,7.009-2.906l2.014-11.177h19.413l2.014,11.177L236.501,246.458z M224.778,263.937L224.778,263.937   c-11.452,0-20.735,9.283-20.735,20.735c0,11.452,9.283,20.735,20.735,20.735s20.735-9.283,20.735-20.735   C245.513,273.223,236.23,263.937,224.778,263.937z" fill="#ffffff"/></g><path d="M138.804,119.543c2.799,0.559,5.537,1.296,8.197,2.193l12.284-16.475l18.508,10.686l-8.134,18.891  c2.119,1.868,4.123,3.872,5.991,5.991l18.891-8.131l10.686,18.505l-16.472,12.284c0.897,2.66,1.634,5.398,2.193,8.2l20.41,2.4v21.37  l-20.41,2.4c-0.559,2.801-1.293,5.54-2.193,8.2l16.472,12.281l-10.686,18.508l-18.891-8.134c-1.868,2.122-3.872,4.123-5.991,5.991  l8.131,18.891l-18.505,10.686l-12.284-16.475c-2.66,0.897-5.396,1.634-8.197,2.193l-2.4,20.412h-21.37l-2.4-20.41  c-2.801-0.559-5.54-1.296-8.2-2.195l-12.281,16.472l-18.505-10.686l8.131-18.891c-2.122-1.868-4.123-3.869-5.991-5.994  l-18.891,8.134l-10.686-18.505l16.475-12.284c-0.897-2.66-1.634-5.396-2.193-8.197l-20.412-2.403v-21.367l20.41-2.403  c0.559-2.801,1.296-5.537,2.195-8.2L46.215,151.2l10.686-18.508l18.891,8.134c1.868-2.119,3.869-4.123,5.994-5.991l-8.134-18.891  l18.505-10.686l12.284,16.475c2.66-0.897,5.396-1.634,8.197-2.193l2.403-20.412h21.367l2.403,20.412L138.804,119.543z   M125.718,140.68L125.718,140.68c-24.349,0-44.09,19.741-44.09,44.09s19.741,44.09,44.09,44.09s44.09-19.741,44.09-44.09  S150.067,140.68,125.718,140.68z" fill="#20d0c2"/><path d="M125.718,130.707c29.858,0,54.063,24.208,54.063,54.063c0,29.86-24.208,54.063-54.063,54.063  c-29.86,0-54.063-24.202-54.063-54.063C71.655,154.912,95.858,130.707,125.718,130.707z" fill="#ffffff"/><path d="M79.01,182.978h11.2v3.586H79.008l0.003-3.588V182.978z M172.423,186.564L172.423,186.564H161.22  v-3.586h11.203V186.564z M123.921,231.478L123.921,231.478v-11.2h3.586v11.203L123.921,231.478z M127.507,138.064L127.507,138.064  v11.203h-3.586v-11.203H127.507z" fill="#0e7886"/><path d="M125.671,155.904c1.393,0,2.531,1.141,2.531,2.534v24.617h24.617c1.395,0,2.534,1.138,2.534,2.534  c0,1.395-1.141,2.534-2.534,2.534h-27.148v-2.534h-2.536V158.44c0-1.395,1.141-2.534,2.536-2.534V155.904z" fill="#ff5b61"/><path d="M212.547,94.641H485.66v11.612h-21.207v315.891h21.207v11.612H212.547v-11.612h21.207V106.253   h-21.207V94.641z M454.116,106.253L454.116,106.253H244.089v315.891h210.027V106.253z" fill="#0e7886"/></g><g transform="matrix(0.1300838440656662 0 0 0.1300838440656662 129.00000017467312 206)" id="L1_11"><path d="M170.3,193.523c-63.212-24.946-89.854-71.038-101.074-105.311  c-12.078-36.895-9.286-67.745-9.161-69.04l0.871-9.041h74.375v20H79.726c0.099,10.976,1.485,30.743,8.742,52.572  c14.479,43.552,44.482,74.578,89.174,92.216L170.3,193.523z" fill="#e5c400"/><path d="M170.3,193.523c-63.212-24.946-89.854-71.038-101.074-105.311  c-12.078-36.895-9.286-67.745-9.161-69.04l0.871-9.041h74.375v20H79.726c0.099,10.976,1.485,30.743,8.742,52.572  c14.479,43.552,44.482,74.578,89.174,92.216L170.3,193.523z" opacity="0.4" fill="#5b5b5f"/><rect x="213px" y="214px" width="33px" height="85px" fill="#e5c400"/><path d="M316.344,334.479H144.897v-7.395c0-14.8,11.998-26.798,26.798-26.798h117.851  c14.8,0,26.798,11.998,26.798,26.798L316.344,334.479L316.344,334.479z" fill="#e5c400"/><rect x="123px" y="334px" width="214px" height="105px" fill="#d8d9dd"/><rect x="148px" y="359px" width="164px" height="55px" fill="#ffffff"/><rect x="111px" y="435px" width="237px" height="25px" fill="#59595a"/><rect x="213px" y="214px" width="33px" height="22px" opacity="0.4" fill="#5b5b5f"/><path d="M401.176,19.173l-0.871-9.041h-54.179c0.072-3.485,0.11-6.874,0.11-10.132  C298.438,0,230.62,0,230.62,0s-67.818,0-115.615,0c0,77.692,19.344,224.599,115.615,224.599c29.033,0,51.06-13.373,67.68-34.167  c57.929-25.52,82.942-69.313,93.715-102.22C404.093,51.318,401.301,20.468,401.176,19.173z M373.008,81.99  c-10.267,31.362-28.544,56.266-54.516,74.405c17.133-38.413,24.48-86.494,26.832-126.264h36.21  C381.449,40.945,380.101,60.323,373.008,81.99z" fill="#e5c400"/><path d="M316.344,334.479H144.897v-7.395  c0-14.8,11.998-26.798,26.798-26.798h117.851c14.8,0,26.798,11.998,26.798,26.798L316.344,334.479L316.344,334.479z" opacity="0.4" fill="#5b5b5f"/><path d="M401.176,19.173l-0.871-9.041h-54.179  c0.072-3.485,0.11-6.874,0.11-10.132C298.438,0,230.62,0,230.62,0v461.241h118.815v-25.675h-11.423V334.479h-21.669v-7.395  c0-14.8-11.998-26.798-26.798-26.798h-41.963v-77.32c20.863-4.153,37.5-15.997,50.717-32.533  c57.929-25.52,82.942-69.313,93.715-102.22C404.093,51.318,401.301,20.468,401.176,19.173z M373.008,81.99  c-10.267,31.362-28.544,56.266-54.516,74.405c17.133-38.413,24.48-86.494,26.832-126.264h36.21  C381.449,40.945,380.101,60.323,373.008,81.99z" opacity="0.3" fill="#5b5b5f"/></g><g transform="matrix(0.1298583298921585 0 0 0.1298583298921585 3.0000008242960803 48)" id="L1_12"><path d="M226.02,407.014v-20c76.93,0,139.517-62.587,139.517-139.516c0-76.93-62.587-139.517-139.517-139.517  v-20c87.958,0,159.517,71.559,159.517,159.517C385.536,335.455,313.979,407.014,226.02,407.014z" fill="#d8d9dd"/><rect x="76px" y="345px" width="183px" height="20px" fill="#90c5ff"/><path d="M261.033,345.68h-31.606c-27.112,0-49.091,21.979-49.091,49.091l0,0h129.788l0,0  C310.124,367.659,288.145,345.68,261.033,345.68z" fill="#59595a"/><path d="M239.725,84.253 249.365,54.557 190.354,35.403 180.715,65.1 169.104,61.331 100.135,273.822   182.367,300.513 251.337,88.021z" fill="#d8d9dd"/><rect x="98px" y="277px" width="86px" height="20px" transform="matrix(-0.9512 -0.3087 0.3087 -0.9512 186.9814 603.9368)" fill="#59595a"/><rect x="111px" y="239px" width="86px" height="12px" transform="matrix(-0.9512 -0.3087 0.3087 -0.9512 226.5135 526.2424)" fill="#59595a"/><path d="M260.855,19.153 201.845,0 198.141,11.414 206.843,14.239 199.057,38.228 240.661,51.732   248.447,27.743 257.151,30.567z" fill="#59595a"/><path d="M239.725,84.253 249.365,54.557 240.661,51.732   248.768,26.755 257.471,29.579 260.535,20.142 231.029,10.565 138.699,295.032 179.813,308.377 182.367,300.512 182.367,300.513   251.337,88.021z" opacity="0.3" fill="#5b5b5f"/><rect x="180px" y="66px" width="62px" height="8px" transform="matrix(-0.9512 -0.3087 0.3087 -0.9512 390.8494 203.3206)" opacity="0.4" fill="#5b5b5f"/><rect x="76px" y="422px" width="299px" height="40px" fill="#59595a"/><rect x="92px" y="392px" width="266px" height="30px" fill="#d8d9dd"/><circle cx="226" cy="112" r="40" fill="#c8523b"/><path d="M226.02,71.639v80.988c22.364,0,40.494-18.13,40.494-40.494  C266.515,89.769,248.384,71.639,226.02,71.639z" opacity="0.4" fill="#5b5b5f"/></g><g transform="matrix(0.13043449819087982 0 0 0.13043449819087982 254.99999907651363 91)" id="L1_13"><path d="M92.122,230c0,25.529-13.223,47.971-33.193,60.848c0,0,272.328,0,297.606,0  s59.403-17.19,59.403-60.848s-34.125-60.848-59.403-60.848s-297.606,0-297.606,0C78.899,182.029,92.122,204.471,92.122,230z" fill="#edeef0"/><path d="M29.873,153.333h323.586c42.275,0,76.668,34.393,76.668,76.667c0,42.276-34.393,76.667-76.668,76.667  H29.873v-29.816h323.586c25.835,0,46.852-21.016,46.852-46.851c0-25.833-21.018-46.851-46.852-46.851H29.873V153.333z" fill="#e5c400"/><path d="M92.122,230c0,17.877-6.501,34.226-17.245,46.851H29.873  v29.816h323.586c42.275,0,76.668-34.391,76.668-76.667L92.122,230L92.122,230z" opacity="0.3" fill="#5b5b5f"/><path d="M367.878,383.333c0,25.529,13.223,47.971,33.193,60.848c0,0-272.328,0-297.606,0  s-59.403-17.19-59.403-60.848s34.125-60.848,59.403-60.848s297.606,0,297.606,0C381.102,335.363,367.878,357.804,367.878,383.333z" fill="#edeef0"/><path d="M430.128,306.667H106.541c-42.275,0-76.668,34.393-76.668,76.667  c0,42.276,34.393,76.667,76.668,76.667h323.586v-29.816H106.541c-25.835,0-46.852-21.016-46.852-46.851  c0-25.833,21.018-46.851,46.852-46.851h323.586V306.667z" fill="#c8523b"/><path d="M367.878,383.333c0,17.877,6.501,34.226,17.245,46.851h45.004  V460H106.541c-42.275,0-76.668-34.391-76.668-76.667H367.878z" opacity="0.3" fill="#5b5b5f"/><path d="M367.878,76.667c0,25.529,13.223,47.971,33.193,60.848c0,0-272.328,0-297.606,0  s-59.403-17.19-59.403-60.848s34.125-60.848,59.403-60.848s297.606,0,297.606,0C381.102,28.696,367.878,51.137,367.878,76.667z" fill="#edeef0"/><path d="M430.128,0H106.541C64.266,0,29.873,34.393,29.873,76.666c0,42.276,34.393,76.667,76.668,76.667  h323.586v-29.816H106.541c-25.835,0-46.852-21.016-46.852-46.851c0-25.833,21.018-46.851,46.852-46.851h323.586V0z" fill="#abcb57"/><path d="M367.878,76.667c0,17.877,6.501,34.226,17.245,46.851h45.004  v29.816H106.541c-42.275,0-76.668-34.391-76.668-76.667H367.878z" opacity="0.3" fill="#5b5b5f"/></g><g transform="matrix(0.14678078738039566 0.03805427880803363 -0.03805427880803363 0.14678078738039566 208.85760759570195 217.0708169071356)" id="L1_14"><path d="M153.148,218.771v43.772c0,9.661-7.841,17.502-17.502,17.502H65.64   c-9.661,0-17.502-7.841-17.502-17.502v-43.772H153.148z" fill="#e49c86"/><path d="M48.138,259.83c3.185,1.663,6.222,2.695,8.821,2.695h87.57c2.538,0,5.513-0.831,8.62-2.17v-32.833   H48.138V259.83z" fill="#cd8c78"/><path d="M255.796,147.942c0,0-13.931-19.217-55.612,0.954c-5.784,3.588-13.59,8.252-20.915,12.811V17.484   c0-9.661-7.578-17.484-17.3-17.484c-9.696,0-17.572,7.832-17.572,17.484v96.391H56.819V43.842c0-9.652-7.596-17.467-17.318-17.467   c-9.696,0-17.572,7.823-17.572,17.467v166.345c0,12.286,22.595,34.837,35.021,34.837h87.57c9.355,0,24.45-10.58,31.354-21.055   c5.128-5.557,28.292-28.974,73.612-51.823C257.747,167.255,260.565,156.422,255.796,147.942z" fill="#e7a793"/><path d="M56.889,113.7h70.007l0.123,69.683c0,9.932-7.85,17.965-17.563,17.965s-17.563-8.033-17.563-17.965   c0,9.932-7.858,17.965-17.563,17.965s-17.572-8.033-17.572-17.965C56.758,183.383,56.889,113.7,56.889,113.7z" fill="#ba8776"/><path d="M118.119,87.509c-9.67,0-17.51,8.077-17.51,18.044c0-9.976-7.841-18.044-17.51-18.044   c-9.678,0-17.51,8.077-17.51,18.044v60.171c0,9.976,7.832,18.044,17.51,18.044c9.661,0,17.519-8.068,17.519-18.044   c0,9.976,7.841,18.044,17.51,18.044c9.661,0,17.51-8.068,17.51-18.044v-60.171C135.629,95.586,127.797,87.509,118.119,87.509z" fill="#e9b09e"/><path d="M118.145,148.765c-9.661,0-17.502,7.841-17.502,17.502c0-9.661-7.841-17.502-17.502-17.502   s-17.502,7.841-17.502,17.502v8.751c0,9.661,7.841,17.502,17.502,17.502s17.502-7.841,17.502-17.502   c0,9.661,7.841,17.502,17.502,17.502s17.502-7.841,17.502-17.502v-8.751C135.647,156.605,127.814,148.765,118.145,148.765z" fill="#eac3b6"/></g><g transform="matrix(0.1767766938248731 -0.06060915235528512 0.06060915235528512 0.1767766938248731 -4.237018068970471 157.73354459050935)" id="L1_15"><path d="M140.014,0c77.331,0,140.014,62.682,140.014,140.014c0,77.323-62.682,140.014-140.014,140.014   S0,217.336,0,140.014C0,62.682,62.682,0,140.014,0z" fill="#e4e7e7"/><path d="M140.014,43.746c53.161,0,96.259,43.098,96.259,96.259c0,53.153-43.098,96.259-96.259,96.259   s-96.259-43.107-96.259-96.259C43.754,86.843,86.852,43.746,140.014,43.746z" fill="#26a6d1"/><path d="M140.014,87.5c28.992,0,52.505,23.505,52.505,52.505s-23.514,52.505-52.505,52.505   s-52.505-23.505-52.505-52.505S111.022,87.5,140.014,87.5z" fill="#324d5b"/><path d="M179.393,87.5c12.085,0,21.877,9.792,21.877,21.877s-9.792,21.877-21.877,21.877   c-12.085,0-21.877-9.792-21.877-21.877S167.308,87.5,179.393,87.5z" fill="#d4edf6"/><path d="M191.04,127.841c-3.544-14.911-13.406-27.355-26.655-34.312c-4.209,3.982-6.869,9.591-6.869,15.848   c0,12.085,9.792,21.877,21.877,21.877C183.689,131.254,187.662,129.976,191.04,127.841z" fill="#d6dbde"/><path d="M148.765,227.513c-53.161,0-96.259-43.107-96.259-96.259c0-24.354,9.118-46.528,24.03-63.479   c-20.057,17.642-32.781,43.422-32.781,72.23c0,53.153,43.098,96.259,96.259,96.259c28.808,0,54.588-12.724,72.23-32.781   C195.284,218.395,173.118,227.513,148.765,227.513z" fill="#2296bd"/></g><g transform="matrix(1.034482717514038 0 0 1.034482717514038 194 138)" id="L1_16"><path d="M40.257,58H17.743C14.571,58,12,55.429,12,52.257V5.743C12,2.571,14.571,0,17.743,0h22.514  C43.429,0,46,2.571,46,5.743v46.514C46,55.429,43.429,58,40.257,58z" fill="#38454f"/><rect x="15px" y="6px" width="28px" height="43px" fill="#546a79"/><g><path d="M18,14c0.256,0,0.512-0.098,0.707-0.293l4-4c0.391-0.391,0.391-1.023,0-1.414s-1.023-0.391-1.414,0   l-4,4c-0.391,0.391-0.391,1.023,0,1.414C17.488,13.902,17.744,14,18,14z" fill="#78909b"/><path d="M18,19c0.256,0,0.512-0.098,0.707-0.293l2-2c0.391-0.391,0.391-1.023,0-1.414s-1.023-0.391-1.414,0   l-2,2c-0.391,0.391-0.391,1.023,0,1.414C17.488,18.902,17.744,19,18,19z" fill="#78909b"/><path d="M21.29,13.29C21.109,13.479,21,13.729,21,14c0,0.26,0.109,0.52,0.29,0.71   C21.479,14.89,21.74,15,22,15s0.52-0.11,0.71-0.29C22.89,14.52,23,14.26,23,14s-0.11-0.521-0.29-0.71   C22.33,12.92,21.66,12.92,21.29,13.29z" fill="#78909b"/><path d="M23.293,12.707C23.488,12.902,23.744,13,24,13s0.512-0.098,0.707-0.293l3-3   c0.391-0.391,0.391-1.023,0-1.414s-1.023-0.391-1.414,0l-3,3C22.902,11.684,22.902,12.316,23.293,12.707z" fill="#78909b"/><path d="M26.293,13.293l-9,9c-0.391,0.391-0.391,1.023,0,1.414C17.488,23.902,17.744,24,18,24   s0.512-0.098,0.707-0.293l9-9c0.391-0.391,0.391-1.023,0-1.414S26.684,12.902,26.293,13.293z" fill="#78909b"/><path d="M28.29,11.29C28.109,11.479,28,11.74,28,12s0.109,0.52,0.29,0.71C28.479,12.89,28.74,13,29,13   s0.52-0.11,0.71-0.29C29.89,12.52,30,12.26,30,12s-0.11-0.521-0.29-0.71C29.34,10.92,28.66,10.92,28.29,11.29z" fill="#78909b"/><path d="M32.707,8.293c-0.391-0.391-1.023-0.391-1.414,0l-1,1c-0.391,0.391-0.391,1.023,0,1.414   C30.488,10.902,30.744,11,31,11s0.512-0.098,0.707-0.293l1-1C33.098,9.316,33.098,8.684,32.707,8.293z" fill="#78909b"/></g><path d="M32,4h-6c-0.553,0-1-0.447-1-1s0.447-1,1-1h6c0.553,0,1,0.447,1,1S32.553,4,32,4z" fill="#546a79"/><path d="M41,4h-1c-0.553,0-1-0.447-1-1s0.447-1,1-1h1c0.553,0,1,0.447,1,1S41.553,4,41,4z" fill="#546a79"/><path d="M37,4h-1c-0.553,0-1-0.447-1-1s0.447-1,1-1h1c0.553,0,1,0.447,1,1S37.553,4,37,4z" fill="#546a79"/><path d="M31.5,55h-5c-0.825,0-1.5-0.675-1.5-1.5l0,0c0-0.825,0.675-1.5,1.5-1.5h5c0.825,0,1.5,0.675,1.5,1.5  l0,0C33,54.325,32.325,55,31.5,55z" fill="#cbd4d8"/></g><g transform="matrix(1.0556503534317017 0 0 1.0556503534317017 66.99999933957423 206)" id="L1_17"><path d="M43.598,15.837h-6.271H36.35c-1.826,2.707-4.921,4.488-8.432,4.488s-6.606-1.781-8.432-4.488h-0.976  H13.24c-2.939,0-5.321,2.382-5.321,5.321v30.358c0,2.939,2.382,5.321,5.321,5.321h30.358c2.939,0,5.321-2.382,5.321-5.321V21.158  C48.919,18.219,46.536,15.837,43.598,15.837z" fill="#afb6bb"/><path d="M27.919,20.326c-1.044,0-2.052-0.159-3-0.451V35c0,1.657,1.343,3,3,3s3-1.343,3-3V19.874  C29.97,20.167,28.963,20.326,27.919,20.326z" fill="#e7eced"/><circle cx="15" cy="49" r="2" fill="#dd352e"/><path d="M36.919,52.837  c4.422,0,8-3.578,8-8" fill="none" stroke="#e7eced" stroke-linecap="round" stroke-width="2"/><path d="M30.919,22.199V35c0,1.657-1.343,3-3,3s-3-1.343-3-3V22.199c-5.731,1.356-10,6.493-10,12.638  c0,7.18,5.82,13,13,13s13-5.82,13-13C40.919,28.692,36.649,23.555,30.919,22.199z" fill="#546a79"/><path d="M30.919,25.496V35c0,1.657-1.343,3-3,3s-3-1.343-3-3v-9.504C21.19,26.75,18.5,30.267,18.5,34.419  c0,5.202,4.217,9.419,9.419,9.419c5.202,0,9.419-4.217,9.419-9.419C37.337,30.267,34.648,26.75,30.919,25.496z" fill="#38454f"/><circle cx="27" cy="10" r="10" fill="#dd352e"/><path d="M21.919,10.837c-0.552,0-1-0.447-1-1c0-3.309,2.691-6,6-6c0.552,0,1,0.447,1,1s-0.448,1-1,1  c-2.206,0-4,1.794-4,4C22.919,10.39,22.471,10.837,21.919,10.837z" fill="#ed7161"/></g><g transform="matrix(1.034482717514038 0 0 1.034482717514038 185 28)" id="L1_18"><rect x="0px" y="39px" width="58px" height="14px" fill="#363e4b"/><rect x="0px" y="1px" width="58px" height="38px" fill="#556080"/><path d="M56,3v34H2V3H56 M58,1H0v38h58V1L58,1z" fill="#2c4055"/><path d="M25,36c-0.021,0-0.042-0.001-0.063-0.002c-0.385-0.024-0.722-0.269-0.865-0.627l-5.13-12.825   l-4.031,8.868C14.748,31.771,14.393,32,14,32H6c-0.553,0-1-0.447-1-1s0.447-1,1-1h7.356l4.733-10.414   c0.165-0.364,0.526-0.576,0.934-0.586c0.4,0.01,0.756,0.257,0.905,0.629l5.219,13.047l3.979-7.161   c0.174-0.313,0.501-0.509,0.859-0.515c0.349-0.002,0.69,0.182,0.874,0.488l1.688,2.837l3.474-16.531C36.119,11.33,36.528,11,37,11   c0.008,0,0.017,0,0.025,0c0.482,0.013,0.887,0.367,0.962,0.844L40.854,30H52c0.553,0,1,0.447,1,1s-0.447,1-1,1H40   c-0.492,0-0.911-0.358-0.987-0.844L36.86,17.527l-2.882,13.717c-0.085,0.402-0.408,0.713-0.814,0.78   c-0.402,0.064-0.813-0.121-1.023-0.475l-2.11-3.545l-4.156,7.48C25.697,35.805,25.361,36,25,36z" fill="#2bda72"/><rect x="36px" y="42px" width="14px" height="8px" fill="#556080"/><rect x="36px" y="42px" width="5px" height="8px" fill="#f7e6a1"/><path d="M10,46c0-0.553,0.447-1,1-1h3.859c-0.446-1.722-1.997-3-3.859-3c-2.209,0-4,1.791-4,4   c0,2.209,1.791,4,4,4c1.862,0,3.412-1.278,3.859-3H11C10.447,47,10,46.553,10,46z" fill="#e4c05c"/><path d="M14.859,45H11c-0.553,0-1,0.447-1,1s0.447,1,1,1h3.859C14.942,46.679,15,46.347,15,46   S14.942,45.321,14.859,45z" fill="#f7e6a1"/><path d="M27.828,43.172c-0.524-0.524-1.16-0.856-1.828-1.028V46c0,0.553-0.447,1-1,1s-1-0.447-1-1v-3.857   c-0.669,0.173-1.305,0.505-1.828,1.028c-1.562,1.562-1.562,4.095,0,5.657c1.562,1.562,4.095,1.562,5.657,0   C29.391,47.266,29.391,44.734,27.828,43.172z" fill="#e4c05c"/><path d="M25,47c0.553,0,1-0.447,1-1v-3.857c-0.657-0.17-1.343-0.17-2,0V46C24,46.553,24.447,47,25,47z" fill="#f7e6a1"/><rect x="2px" y="53px" width="6px" height="4px" fill="#212f3f"/><rect x="50px" y="53px" width="6px" height="4px" fill="#212f3f"/><path d="M12,7.45C12.565,6.176,13.814,5,15.315,5c2.023,0,3.479,1.646,3.662,3.607   c0,0,0.099,0.487-0.119,1.363c-0.296,1.194-0.993,2.254-1.931,3.063l-4.859,4.158c-0.04,0.034-0.098,0.034-0.138,0l-4.859-4.158   c-0.939-0.809-1.635-1.87-1.931-3.063C4.924,9.094,5.022,8.607,5.022,8.607C5.206,6.646,6.662,5,8.685,5   C10.186,5,11.435,6.176,12,7.45z" fill="#ed7161"/><path d="M53,7h-4c-0.553,0-1-0.447-1-1s0.447-1,1-1h4c0.553,0,1,0.447,1,1S53.553,7,53,7z" fill="#ffffff"/><path d="M54,11h-8c-0.553,0-1-0.447-1-1s0.447-1,1-1h8c0.553,0,1,0.447,1,1S54.553,11,54,11z" fill="#ffffff"/><path d="M53,15h-4c-0.553,0-1-0.447-1-1s0.447-1,1-1h4c0.553,0,1,0.447,1,1S53.553,15,53,15z" fill="#ffffff"/></g><g transform="matrix(0.1171875 0 0 0.1171875 319 208)" id="L1_19"><path d="M233.412,376.471h-45.176V150.588c0-24.91-20.266-45.176-45.176-45.176V60.235  c49.821,0,90.353,40.532,90.353,90.353V376.471z" fill="#4b925e"/><path d="M323.765,376.471h-45.176V150.588c0-49.821,40.532-90.353,90.353-90.353v45.176  c-24.91,0-45.176,20.266-45.176,45.176V376.471z" fill="#32623f"/><circle cx="165" cy="67" r="67" fill="#91dc5a"/><circle cx="165" cy="67" r="22" fill="#3c5d76"/><circle cx="346" cy="67" r="67" fill="#64c37d"/><circle cx="346" cy="67" r="22" fill="#1e2e3b"/><path d="M384,466.824c-12.475,0-22.588-10.114-22.588-22.588V286.118  c0-58.217-47.194-105.412-105.412-105.412S150.588,227.9,150.588,286.118v158.118c0,12.475-10.114,22.588-22.588,22.588  s-37.647,0-37.647,0V512h331.294v-45.176C421.647,466.824,396.475,466.824,384,466.824z" fill="#91dc5a"/><path d="M384,466.824c-12.475,0-22.588-10.114-22.588-22.588V286.118  c0-58.217-47.194-105.412-105.412-105.412V512h165.647v-45.176C421.647,466.824,396.475,466.824,384,466.824z" fill="#64c37d"/><path d="M210.824,271.059c0,24.949,20.227,45.176,45.176,45.176l0,0c24.949,0,45.176-20.227,45.176-45.176  H210.824z" fill="#3c5d76"/><path d="M256,271.059v45.176c24.949,0,45.176-20.227,45.176-45.176H256z" fill="#1e2e3b"/></g><g transform="matrix(0.11722550541162491 0 0 0.11722550541162491 138.00000021464632 95)" id="L1_20"><path d="M321.175,346.953c0,86.268-69.936,156.203-156.203,156.203S8.768,433.22,8.768,346.953   s69.936-156.203,156.203-156.203S321.175,260.685,321.175,346.953" fill="#4482c3"/><g><path d="M164.971,190.749c-18.328,0-35.84,3.324-52.181,9.121c-1.345,6.916-4.643,12.453-8.018,17.72    c-8.773,13.685,5.988,30.937,20.61,23.856c16.401-7.94,29.757-24.706,48.406-24.602c9.52,0.052,33.887-14.996,38.548-11.932    c18.831,12.41-4.313,56.381-18.718,41.75c-13.85-13.859-22.459,6.005-15.976,12.939c7.125,7.628,4.556,22.997-5.311,26.529    c-9.928,3.549-48.892-26.346-39.32-3.688c10.526,25.149-31.527,44.57,10.926,34.434c20.011-4.79,13.364,10.431,22.797,17.703    c11.255,8.635,12.427,7.715,31.111-0.929c21.912-9.997,13.676,5.597,20.393,15.785c12.574,19.031,43.503,37.289,59.713,12.14    c3.818-5.927,0.382-50.15,25.869-23.3h16.913C316.211,256.068,248.315,190.749,164.971,190.749" fill="#a4e869"/><path d="M191.005,407.698l-26.034-8.678h-26.034l-21.009-8.739l-13.703-8.617l-34.712,8.678l-17.356,8.678    l-17.356,17.356l-6.76,5.719c26.563,48.31,77.911,81.061,136.93,81.061c15.074,0,29.601-2.248,43.39-6.239v-19.794l17.356-17.356    l8.678-26.034h-43.39V407.698z" fill="#a4e869"/></g><g><path d="M467.573,190.749c-2.265,0-4.521-0.955-6.075-2.517c-0.876-0.781-1.475-1.736-1.909-2.864    c-0.443-1.041-0.694-2.169-0.694-3.298s0.252-2.256,0.694-3.298c0.434-1.041,1.033-1.996,1.909-2.864    c1.987-1.996,4.946-2.864,7.801-2.343c0.529,0.087,1.041,0.26,1.658,0.521c0.425,0.174,0.955,0.434,1.475,0.781    c0.425,0.347,0.868,0.694,1.302,1.041c0.781,0.868,1.475,1.822,1.909,2.864c0.425,1.041,0.607,2.169,0.607,3.298    s-0.182,2.256-0.607,3.298c-0.521,1.128-1.128,2.083-1.909,2.864c-0.434,0.347-0.876,0.781-1.302,1.041    c-0.521,0.347-1.05,0.607-1.475,0.781c-0.616,0.26-1.128,0.434-1.658,0.521C468.701,190.662,468.172,190.749,467.573,190.749" fill="#8697cb"/><path d="M476.251,223.55h0.087c-1.658-4.513,0.694-9.459,5.198-11.108c4.434-1.562,9.459,0.694,11.03,5.207    h0.087c1.553,4.513-0.781,9.546-5.302,11.108c-0.946,0.347-1.9,0.521-2.951,0.521C480.842,229.278,477.544,227.108,476.251,223.55    L476.251,223.55z M487.619,262.861c-1.05-4.686,1.9-9.285,6.587-10.24c4.686-1.041,9.294,1.909,10.335,6.595    c1.041,4.686-1.909,9.285-6.595,10.327c-0.607,0.174-1.302,0.174-1.918,0.174C492.036,269.717,488.487,266.94,487.619,262.861    L487.619,262.861z M493.694,303.388h-0.087c-0.347-4.773,3.211-8.938,7.984-9.372c4.773-0.347,8.93,3.211,9.372,7.984    c0.347,4.773-3.211,8.938-7.984,9.372h-0.694C497.85,311.371,494.041,307.9,493.694,303.388L493.694,303.388z M502.632,353.459    c-4.868-0.26-8.504-4.339-8.244-9.112c0.26-4.773,4.252-8.504,9.112-8.244c4.764,0.26,8.409,4.339,8.157,9.112h0.087    c-0.26,4.599-4.174,8.244-8.765,8.244H502.632z M496.557,395.114c-4.773-0.955-7.897-5.467-6.942-10.153    c0.868-4.686,5.38-7.81,10.058-6.942c4.782,0.868,7.897,5.38,6.951,10.153c-0.781,4.165-4.434,7.029-8.504,7.029    C497.599,395.2,497.069,395.2,496.557,395.114L496.557,395.114z M484.929,435.553c-4.599-1.475-7.038-6.422-5.563-10.934    c1.475-4.599,6.43-7.029,10.943-5.554c4.591,1.475,7.029,6.422,5.554,10.934c-1.215,3.645-4.608,5.988-8.244,5.988    C486.751,435.987,485.797,435.813,484.929,435.553L484.929,435.553z M468.172,474.17c-4.339-2.083-6.161-7.203-4.07-11.628    c2.083-4.252,7.281-6.075,11.542-3.992c4.339,2.083,6.161,7.203,4.07,11.542c-1.475,3.124-4.591,4.946-7.802,4.946    C470.688,475.038,469.395,474.777,468.172,474.17L468.172,474.17z" fill="#8697cb"/><path d="M451.344,511.834c-1.128,0-2.256-0.26-3.298-0.694c-1.041-0.434-1.996-1.041-2.864-1.822    c-1.571-1.649-2.517-3.905-2.517-6.161s0.946-4.513,2.517-6.161c0.868-0.781,1.822-1.388,2.864-1.822    c3.115-1.388,7.029-0.607,9.459,1.822c1.562,1.649,2.517,3.905,2.517,6.161s-0.955,4.513-2.517,6.161    C455.857,510.879,453.601,511.834,451.344,511.834" fill="#8697cb"/><path d="M8.768,69.258c-0.607,0-1.128-0.087-1.736-0.174c-0.521-0.087-1.041-0.26-1.562-0.521    C4.95,68.39,4.429,68.13,3.9,67.782c-0.425-0.26-0.859-0.694-1.293-1.041C1.036,65.092,0.09,62.836,0.09,60.58    c0-0.521,0.087-1.128,0.174-1.736c0.087-0.521,0.26-1.041,0.521-1.562c0.174-0.521,0.434-1.041,0.781-1.562    c0.26-0.434,0.694-0.868,1.041-1.302L3.9,53.377c0.529-0.347,1.05-0.607,1.571-0.781c0.521-0.26,1.041-0.434,1.562-0.521    c2.864-0.521,5.814,0.347,7.897,2.343c0.347,0.434,0.694,0.868,1.041,1.302c0.347,0.521,0.599,1.041,0.781,1.562    c0.26,0.521,0.434,1.041,0.512,1.562c0.095,0.607,0.182,1.215,0.182,1.736c0,2.256-0.955,4.513-2.517,6.161    C13.281,68.303,11.024,69.258,8.768,69.258" fill="#8697cb"/><path d="M163.319,8.944c-0.174-4.773,3.558-8.765,8.426-8.938c4.773-0.174,8.756,3.558,8.93,8.418    c0.182,4.773-3.558,8.765-8.418,8.938h-0.26C167.311,17.362,163.501,13.717,163.319,8.944L163.319,8.944z M214.441,18.837    c-4.782-0.521-8.253-4.773-7.819-9.546c0.521-4.773,4.773-8.244,9.546-7.723c4.782,0.434,8.244,4.686,7.723,9.459    c-0.425,4.513-4.165,7.81-8.591,7.81H214.441z M120.363,14.672c-0.868-4.773,2.343-9.199,7.029-10.066    c4.773-0.781,9.199,2.343,10.075,7.029c0.859,4.773-2.352,9.285-7.038,10.066c-0.521,0.087-1.041,0.174-1.475,0.174    C124.798,21.874,121.153,18.837,120.363,14.672L120.363,14.672z M255.913,25.866c-4.591-1.041-7.454-5.814-6.335-10.414    c1.128-4.686,5.814-7.55,10.422-6.422h0.078c4.608,1.128,7.463,5.814,6.335,10.5c-0.946,3.992-4.513,6.595-8.418,6.595    C257.302,26.126,256.607,26.04,255.913,25.866L255.913,25.866z M78.622,26.213c-1.475-4.599,1.041-9.459,5.554-10.934    c4.599-1.475,9.468,1.041,10.943,5.641c1.475,4.513-1.041,9.459-5.563,10.934c-0.946,0.26-1.822,0.347-2.69,0.347    C83.23,32.201,79.75,29.858,78.622,26.213L78.622,26.213z M296.188,38.536c-4.521-1.736-6.691-6.769-4.955-11.195    c1.736-4.513,6.777-6.682,11.195-4.946c4.513,1.736,6.682,6.769,4.955,11.281c-1.31,3.384-4.608,5.467-8.079,5.467    C298.262,39.143,297.229,38.97,296.188,38.536L296.188,38.536z M38.79,43.222c-2.083-4.339-0.26-9.459,4.079-11.542    s9.554-0.174,11.542,4.079c2.083,4.339,0.26,9.546-4.079,11.628c-1.215,0.521-2.43,0.781-3.732,0.781    C43.398,48.169,40.266,46.346,38.79,43.222L38.79,43.222z" fill="#8697cb"/><path d="M338.531,57.715c-2.256,0-4.521-0.955-6.075-2.517c-1.658-1.649-2.603-3.905-2.603-6.161    c0-2.343,0.946-4.513,2.603-6.161c2.334-2.43,6.248-3.211,9.459-1.909c1.041,0.434,1.996,1.128,2.777,1.909    c1.64,1.649,2.517,3.818,2.517,6.161c0,2.256-0.876,4.513-2.517,6.161c-0.781,0.781-1.736,1.388-2.777,1.822    C340.787,57.455,339.746,57.715,338.531,57.715" fill="#8697cb"/></g><path d="M494.734,112.648c0,47.928-38.851,86.78-86.78,86.78s-86.78-38.851-86.78-86.78   s38.851-86.78,86.78-86.78S494.734,64.719,494.734,112.648" fill="#d75a4a"/><g><path d="M490.749,86.614h-30.729c-4.799,0-8.678,3.888-8.678,8.678s3.879,8.678,8.678,8.678h34.278    C493.7,97.982,492.494,92.176,490.749,86.614" fill="#e57e25"/><path d="M492.991,130.003h-59.001c-4.799,0-8.678,3.888-8.678,8.678s3.879,8.678,8.678,8.678h53.474    C489.875,141.84,491.767,136.043,492.991,130.003" fill="#e57e25"/><path d="M407.955,156.037h-75.073c3.662,6.326,8.062,12.167,13.147,17.356h61.926    c4.799,0,8.678-3.888,8.678-8.678S412.753,156.037,407.955,156.037" fill="#e57e25"/><path d="M373.243,103.97h-51.634c-0.278,2.855-0.434,5.745-0.434,8.678c0,2.933,0.156,5.823,0.434,8.678    h51.634c4.799,0,8.678-3.888,8.678-8.678S378.042,103.97,373.243,103.97" fill="#e57e25"/><path d="M425.31,60.58h-86.658c-4.027,5.354-7.489,11.143-10.205,17.356h96.863    c4.799,0,8.678-3.888,8.678-8.678S430.109,60.58,425.31,60.58" fill="#e57e25"/></g></g><g transform="matrix(0.1190185695886612 0 0 0.1190185695886612 253 13)" id="L1_21"><path d="M400.148,229.612l-69.711,69.711l-83.102,83.102c-35.446,35.446-92.554,36.234-127.212,1.575  c-34.658-34.658-33.871-91.766,1.575-127.212l72.862-72.862l79.951-79.951c12.603-12.603,33.083-12.603,45.686,0l79.951,79.951  C412.751,196.529,412.751,217.009,400.148,229.612z M504.123,328.862l-5.514,5.514l-49.231,49.231l-7.483,7.483L328.862,504.123  l-5.514-5.514l-5.514-5.514l-60.258-60.258l-5.514-5.514l77.588-77.588L154.388,174.868L76.8,252.062l-11.028-11.028L5.514,180.775  L0,175.655L164.234,11.028L175.262,0l11.028,11.028L252.062,76.8l-5.514,5.514l-52.382,52.382l-7.877,7.877l-20.086,20.086  L341.465,337.92l75.225-75.225l11.028-11.028l11.028,11.028L504.123,328.862L504.123,328.862z M76.8,230.4l43.717-43.717  l-22.055-22.055l-43.717,43.717L76.8,230.4z M43.717,197.317L87.828,153.6l-22.055-22.055l-43.717,44.111  C22.055,175.655,43.717,197.317,43.717,197.317z M76.8,120.517l22.055,22.055l43.717-43.717L120.517,76.8L76.8,120.517z   M175.262,22.055l-43.717,43.717L153.6,87.828l43.717-43.717C197.317,44.111,175.262,22.055,175.262,22.055z M186.289,120.517  L230.006,76.8l-22.055-22.055l-43.717,44.111C164.234,98.855,186.289,120.517,186.289,120.517z M175.262,131.545L153.6,109.883  L109.489,153.6l22.055,22.055L175.262,131.545z M482.068,328.862l-22.055-22.055l-43.717,43.717l22.055,22.055L482.068,328.862z   M427.323,383.606l-22.055-22.055l-43.717,44.111l22.055,22.055L427.323,383.606z M328.862,482.068l43.717-43.717l-22.055-22.055  l-43.717,43.717L328.862,482.068z M274.117,427.323l22.055,22.055l43.717-43.717l-22.055-22.055L274.117,427.323z M328.862,372.578  l22.055,22.055l43.717-44.111l-22.055-22.055L328.862,372.578z M383.606,317.834l22.055,22.055l43.717-43.717l-22.055-22.055  L383.606,317.834z" fill="#e4e7e7"/><path d="M427.323,51.2c14.178,0,25.6,11.422,25.6,25.6s-11.422,25.6-25.6,25.6s-25.6-11.422-25.6-25.6  S413.145,51.2,427.323,51.2z" fill="#e2574c"/><path d="M496.246,138.634c-32.689,32.689-88.615,29.932-124.849-5.908  c-36.234-36.234-38.991-91.766-5.908-124.455C365.489,8.271,496.246,138.634,496.246,138.634z" id="SVGCleanerId_0" fill="#e4e7e7"/><path d="M309.563,194.56c17.723,17.723,17.723,46.474,0,63.803c-17.723,17.723-46.08,17.723-63.803,0  s-17.723-46.474,0-63.803C263.483,176.837,291.84,176.837,309.563,194.56z" fill="#3e4e5c"/><path d="M301.292,202.831c12.997,12.997,12.997,34.265,0,47.262c-12.997,12.997-34.265,12.997-47.262,0  c-12.997-12.997-12.997-34.265,0-47.262C267.028,189.834,288.295,189.834,301.292,202.831z" fill="#cecdcb"/><path d="M263.089,366.671c-35.446,35.446-92.554,36.234-127.212,1.575  c-34.658-34.658-33.871-91.766,1.575-127.212l-15.754,15.754C86.252,292.234,85.465,349.342,120.123,384  s91.766,33.871,127.212-1.575L263.089,366.671z" fill="#d8dbdb"/><path d="M133.908,244.579l-12.209,12.209c-1.182,1.182-1.969,2.363-3.151,3.151l125.243,125.243  c1.182-1.182,2.363-1.969,3.151-3.151l12.209-12.209C259.151,369.822,133.908,244.579,133.908,244.579z" fill="#e2574c"/><path d="M496.246,138.634c-32.689,32.689-88.615,29.932-124.849-5.908   c-36.234-36.234-38.991-91.766-5.908-124.455C365.489,8.271,496.246,138.634,496.246,138.634z" id="SVGCleanerId_0_1_" fill="#e4e7e7"/><path d="M387.151,116.972C352.492,82.314,337.92,40.566,365.489,8.271  c-32.689,32.689-29.932,88.615,5.908,124.455c36.234,36.234,91.766,38.991,124.849,5.908  C463.557,166.203,421.809,151.237,387.151,116.972z" fill="#d8dbdb"/></g></defs><g fi:class="KUsePattern"><pattern id="pattern_L1_0" width="350" height="350" patternUnits="userSpaceOnUse"><use xlink:href="#L1_0" x="-350" y="-350"/><use xlink:href="#L1_0" x="0" y="-350"/><use xlink:href="#L1_0" x="350" y="-350"/><use xlink:href="#L1_0" x="-350" y="0"/><use xlink:href="#L1_0" x="0" y="0"/><use xlink:href="#L1_0" x="350" y="0"/><use xlink:href="#L1_0" x="-350" y="350"/><use xlink:href="#L1_0" x="0" y="350"/><use xlink:href="#L1_0" x="350" y="350"/></pattern><rect x="0" y="0" width="100%" height="100%" fill="url(#pattern_L1_0)"/></g><g fi:class="KUsePattern"><pattern id="pattern_L1_4" width="350" height="350" patternUnits="userSpaceOnUse"><use xlink:href="#L1_4" x="-350" y="-350"/><use xlink:href="#L1_4" x="0" y="-350"/><use xlink:href="#L1_4" x="350" y="-350"/><use xlink:href="#L1_4" x="-350" y="0"/><use xlink:href="#L1_4" x="0" y="0"/><use xlink:href="#L1_4" x="350" y="0"/><use xlink:href="#L1_4" x="-350" y="350"/><use xlink:href="#L1_4" x="0" y="350"/><use xlink:href="#L1_4" x="350" y="350"/></pattern><rect x="0" y="0" width="100%" height="100%" fill="url(#pattern_L1_4)"/></g><g fi:class="KUsePattern"><pattern id="pattern_L1_10" width="350" height="350" patternUnits="userSpaceOnUse"><use xlink:href="#L1_10" x="-350" y="-350"/><use xlink:href="#L1_10" x="0" y="-350"/><use xlink:href="#L1_10" x="350" y="-350"/><use xlink:href="#L1_10" x="-350" y="0"/><use xlink:href="#L1_10" x="0" y="0"/><use xlink:href="#L1_10" x="350" y="0"/><use xlink:href="#L1_10" x="-350" y="350"/><use xlink:href="#L1_10" x="0" y="350"/><use xlink:href="#L1_10" x="350" y="350"/></pattern><rect x="0" y="0" width="100%" height="100%" fill="url(#pattern_L1_10)"/></g><g fi:class="KUsePattern"><pattern id="pattern_L1_11" width="350" height="350" patternUnits="userSpaceOnUse"><use xlink:href="#L1_11" x="-350" y="-350"/><use xlink:href="#L1_11" x="0" y="-350"/><use xlink:href="#L1_11" x="350" y="-350"/><use xlink:href="#L1_11" x="-350" y="0"/><use xlink:href="#L1_11" x="0" y="0"/><use xlink:href="#L1_11" x="350" y="0"/><use xlink:href="#L1_11" x="-350" y="350"/><use xlink:href="#L1_11" x="0" y="350"/><use xlink:href="#L1_11" x="350" y="350"/></pattern><rect x="0" y="0" width="100%" height="100%" fill="url(#pattern_L1_11)"/></g><g fi:class="KUsePattern"><pattern id="pattern_L1_12" width="350" height="350" patternUnits="userSpaceOnUse"><use xlink:href="#L1_12" x="-350" y="-350"/><use xlink:href="#L1_12" x="0" y="-350"/><use xlink:href="#L1_12" x="350" y="-350"/><use xlink:href="#L1_12" x="-350" y="0"/><use xlink:href="#L1_12" x="0" y="0"/><use xlink:href="#L1_12" x="350" y="0"/><use xlink:href="#L1_12" x="-350" y="350"/><use xlink:href="#L1_12" x="0" y="350"/><use xlink:href="#L1_12" x="350" y="350"/></pattern><rect x="0" y="0" width="100%" height="100%" fill="url(#pattern_L1_12)"/></g><g fi:class="KUsePattern"><pattern id="pattern_L1_13" width="350" height="350" patternUnits="userSpaceOnUse"><use xlink:href="#L1_13" x="-350" y="-350"/><use xlink:href="#L1_13" x="0" y="-350"/><use xlink:href="#L1_13" x="350" y="-350"/><use xlink:href="#L1_13" x="-350" y="0"/><use xlink:href="#L1_13" x="0" y="0"/><use xlink:href="#L1_13" x="350" y="0"/><use xlink:href="#L1_13" x="-350" y="350"/><use xlink:href="#L1_13" x="0" y="350"/><use xlink:href="#L1_13" x="350" y="350"/></pattern><rect x="0" y="0" width="100%" height="100%" fill="url(#pattern_L1_13)"/></g><g fi:class="KUsePattern"><pattern id="pattern_L1_14" width="350" height="350" patternUnits="userSpaceOnUse"><use xlink:href="#L1_14" x="-350" y="-350"/><use xlink:href="#L1_14" x="0" y="-350"/><use xlink:href="#L1_14" x="350" y="-350"/><use xlink:href="#L1_14" x="-350" y="0"/><use xlink:href="#L1_14" x="0" y="0"/><use xlink:href="#L1_14" x="350" y="0"/><use xlink:href="#L1_14" x="-350" y="350"/><use xlink:href="#L1_14" x="0" y="350"/><use xlink:href="#L1_14" x="350" y="350"/></pattern><rect x="0" y="0" width="100%" height="100%" fill="url(#pattern_L1_14)"/></g><g fi:class="KUsePattern"><pattern id="pattern_L1_15" width="350" height="350" patternUnits="userSpaceOnUse"><use xlink:href="#L1_15" x="-350" y="-350"/><use xlink:href="#L1_15" x="0" y="-350"/><use xlink:href="#L1_15" x="350" y="-350"/><use xlink:href="#L1_15" x="-350" y="0"/><use xlink:href="#L1_15" x="0" y="0"/><use xlink:href="#L1_15" x="350" y="0"/><use xlink:href="#L1_15" x="-350" y="350"/><use xlink:href="#L1_15" x="0" y="350"/><use xlink:href="#L1_15" x="350" y="350"/></pattern><rect x="0" y="0" width="100%" height="100%" fill="url(#pattern_L1_15)"/></g><g fi:class="KUsePattern"><pattern id="pattern_L1_16" width="350" height="350" patternUnits="userSpaceOnUse"><use xlink:href="#L1_16" x="-350" y="-350"/><use xlink:href="#L1_16" x="0" y="-350"/><use xlink:href="#L1_16" x="350" y="-350"/><use xlink:href="#L1_16" x="-350" y="0"/><use xlink:href="#L1_16" x="0" y="0"/><use xlink:href="#L1_16" x="350" y="0"/><use xlink:href="#L1_16" x="-350" y="350"/><use xlink:href="#L1_16" x="0" y="350"/><use xlink:href="#L1_16" x="350" y="350"/></pattern><rect x="0" y="0" width="100%" height="100%" fill="url(#pattern_L1_16)"/></g><g fi:class="KUsePattern"><pattern id="pattern_L1_17" width="350" height="350" patternUnits="userSpaceOnUse"><use xlink:href="#L1_17" x="-350" y="-350"/><use xlink:href="#L1_17" x="0" y="-350"/><use xlink:href="#L1_17" x="350" y="-350"/><use xlink:href="#L1_17" x="-350" y="0"/><use xlink:href="#L1_17" x="0" y="0"/><use xlink:href="#L1_17" x="350" y="0"/><use xlink:href="#L1_17" x="-350" y="350"/><use xlink:href="#L1_17" x="0" y="350"/><use xlink:href="#L1_17" x="350" y="350"/></pattern><rect x="0" y="0" width="100%" height="100%" fill="url(#pattern_L1_17)"/></g><g fi:class="KUsePattern"><pattern id="pattern_L1_18" width="350" height="350" patternUnits="userSpaceOnUse"><use xlink:href="#L1_18" x="-350" y="-350"/><use xlink:href="#L1_18" x="0" y="-350"/><use xlink:href="#L1_18" x="350" y="-350"/><use xlink:href="#L1_18" x="-350" y="0"/><use xlink:href="#L1_18" x="0" y="0"/><use xlink:href="#L1_18" x="350" y="0"/><use xlink:href="#L1_18" x="-350" y="350"/><use xlink:href="#L1_18" x="0" y="350"/><use xlink:href="#L1_18" x="350" y="350"/></pattern><rect x="0" y="0" width="100%" height="100%" fill="url(#pattern_L1_18)"/></g><g fi:class="KUsePattern"><pattern id="pattern_L1_19" width="350" height="350" patternUnits="userSpaceOnUse"><use xlink:href="#L1_19" x="-350" y="-350"/><use xlink:href="#L1_19" x="0" y="-350"/><use xlink:href="#L1_19" x="350" y="-350"/><use xlink:href="#L1_19" x="-350" y="0"/><use xlink:href="#L1_19" x="0" y="0"/><use xlink:href="#L1_19" x="350" y="0"/><use xlink:href="#L1_19" x="-350" y="350"/><use xlink:href="#L1_19" x="0" y="350"/><use xlink:href="#L1_19" x="350" y="350"/></pattern><rect x="0" y="0" width="100%" height="100%" fill="url(#pattern_L1_19)"/></g><g fi:class="KUsePattern"><pattern id="pattern_L1_20" width="350" height="350" patternUnits="userSpaceOnUse"><use xlink:href="#L1_20" x="-350" y="-350"/><use xlink:href="#L1_20" x="0" y="-350"/><use xlink:href="#L1_20" x="350" y="-350"/><use xlink:href="#L1_20" x="-350" y="0"/><use xlink:href="#L1_20" x="0" y="0"/><use xlink:href="#L1_20" x="350" y="0"/><use xlink:href="#L1_20" x="-350" y="350"/><use xlink:href="#L1_20" x="0" y="350"/><use xlink:href="#L1_20" x="350" y="350"/></pattern><rect x="0" y="0" width="100%" height="100%" fill="url(#pattern_L1_20)"/></g><g fi:class="KUsePattern"><pattern id="pattern_L1_21" width="350" height="350" patternUnits="userSpaceOnUse"><use xlink:href="#L1_21" x="-350" y="-350"/><use xlink:href="#L1_21" x="0" y="-350"/><use xlink:href="#L1_21" x="350" y="-350"/><use xlink:href="#L1_21" x="-350" y="0"/><use xlink:href="#L1_21" x="0" y="0"/><use xlink:href="#L1_21" x="350" y="0"/><use xlink:href="#L1_21" x="-350" y="350"/><use xlink:href="#L1_21" x="0" y="350"/><use xlink:href="#L1_21" x="350" y="350"/></pattern><rect x="0" y="0" width="100%" height="100%" fill="url(#pattern_L1_21)"/></g></svg>