<svg xmlns="http://www.w3.org/2000/svg" xmlns:xlink="http://www.w3.org/1999/xlink" xmlns:fi="http://pattern.flaticon.com/" x="0" y="0" width="2000" height="300" viewBox="0 0 2000 300"><rect x="0px" y="0px" width="100%" height="100%" opacity="1" fill="#f5685d"/><defs><g transform="matrix(0.1190473809838295 0 0 0.1190473809838295 270 135.99999949137452)" id="L1_19"><path d="M219.95,308.001c-4.422,0-8-3.578-8-8v-208c0-4.422,3.578-8,8-8s8,3.578,8,8v208     C227.95,304.423,224.372,308.001,219.95,308.001z" fill="#868491"/><path d="M267.95,308.001c-4.422,0-8-3.578-8-8v-208c0-4.422,3.578-8,8-8s8,3.578,8,8v208     C275.95,304.423,272.372,308.001,267.95,308.001z" fill="#868491"/><path d="M315.95,308.001c-4.422,0-8-3.578-8-8v-208c0-4.422,3.578-8,8-8s8,3.578,8,8v208     C323.95,304.423,320.372,308.001,315.95,308.001z" fill="#868491"/><path d="M463.028,247.079c-2.047,0-4.094-0.781-5.656-2.344L310.294,97.657     c-3.125-3.125-3.125-8.188,0-11.313s8.188-3.125,11.313,0l147.078,147.078c3.125,3.125,3.125,8.188,0,11.313     C467.122,246.298,465.075,247.079,463.028,247.079z" fill="#868491"/><path d="M171.95,308.001c-4.422,0-8-3.578-8-8v-208c0-4.422,3.578-8,8-8s8,3.578,8,8v208     C179.95,304.423,176.372,308.001,171.95,308.001z" fill="#868491"/><path d="M123.95,308.001c-4.422,0-8-3.578-8-8v-208c0-4.422,3.578-8,8-8s8,3.578,8,8v208     C131.95,304.423,128.372,308.001,123.95,308.001z" fill="#868491"/><path d="M399.999,372.001c-4.422,0-8-3.578-8-8v-240c0-13.234-10.766-24-24-24H72     c-13.234,0-24,10.766-24,24v240c0,4.422-3.578,8-8,8s-8-3.578-8-8v-240c0-22.055,17.945-40,40-40h295.999     c22.055,0,40,17.945,40,40v240C407.999,368.423,404.421,372.001,399.999,372.001z" fill="#5c546a"/><path d="M56,388.001H24c-4.422,0-8-3.578-8-8c0-13.234,10.766-24,24-24s24,10.766,24,24     C64,384.423,60.421,388.001,56,388.001z" fill="#868491"/><path d="M40,356.001c-0.075,0-0.144,0.021-0.219,0.022v31.978H56c4.422,0,8-3.578,8-8    C64,366.766,53.234,356.001,40,356.001z" fill="#b4b6bc"/><path d="M415.78,388.001h-32c-4.422,0-8-3.578-8-8c0-13.234,10.766-24,24-24s24,10.766,24,24     C423.78,384.423,420.202,388.001,415.78,388.001z" fill="#868491"/><path d="M399.78,356.001c-0.075,0-0.144,0.021-0.219,0.022v31.978h16.219c4.422,0,8-3.578,8-8    C423.78,366.766,413.015,356.001,399.78,356.001z" fill="#b4b6bc"/><circle cx="123" cy="324" r="24" fill="#ffcd00"/><path d="M431.999,420.001H8c-4.418,0-8-3.582-8-8v-16c0-8.837,7.163-16,16-16h407.999    c8.837,0,16,7.163,16,16v16C439.999,416.419,436.418,420.001,431.999,420.001z" fill="#7e5c62"/><path d="M106.98,307.03c-0.053,0.053-0.087,0.117-0.139,0.171l33.91,33.91    c0.053-0.052,0.117-0.086,0.171-0.139c9.373-9.373,9.373-24.569,0-33.941C131.549,297.657,116.353,297.657,106.98,307.03z" fill="#ffe671"/><circle cx="171" cy="324" r="24" fill="#ffcd00"/><path d="M154.761,307.03c-0.053,0.053-0.087,0.117-0.139,0.171l33.91,33.91    c0.053-0.052,0.117-0.086,0.171-0.139c9.373-9.373,9.373-24.569,0-33.941C179.33,297.657,164.134,297.657,154.761,307.03z" fill="#ffe671"/><circle cx="219" cy="324" r="24" fill="#ffcd00"/><path d="M202.761,307.03c-0.053,0.053-0.087,0.117-0.139,0.171l33.91,33.91    c0.053-0.052,0.117-0.086,0.171-0.139c9.373-9.373,9.373-24.569,0-33.941C227.329,297.657,212.134,297.657,202.761,307.03z" fill="#ffe671"/><circle cx="267" cy="324" r="24" fill="#ffcd00"/><path d="M250.761,307.03c-0.053,0.053-0.087,0.117-0.139,0.171l33.91,33.91    c0.053-0.052,0.117-0.086,0.171-0.139c9.373-9.373,9.373-24.569,0-33.941C275.329,297.657,260.134,297.657,250.761,307.03z" fill="#ffe671"/><circle cx="315" cy="324" r="24" fill="#ffcd00"/><path d="M298.761,307.03c-0.053,0.053-0.087,0.117-0.139,0.171l33.91,33.91    c0.053-0.052,0.117-0.086,0.171-0.139c9.373-9.373,9.373-24.569,0-33.941C323.329,297.657,308.134,297.657,298.761,307.03z" fill="#ffe671"/><circle cx="479" cy="256" r="24" fill="#ffcd00"/><path d="M463.029,239.079c-0.053,0.053-0.087,0.117-0.139,0.171l33.91,33.91    c0.053-0.052,0.117-0.086,0.171-0.139c9.373-9.373,9.373-24.568,0-33.941C487.597,229.706,472.401,229.706,463.029,239.079z" fill="#ffe671"/></g><g transform="matrix(0.12559764087200165 0 0 0.12559764087200165 260 207)" id="L1_23"><path d="M408.68,239.423c0,12.3-1.3,24.3-3.78,35.86c-7.12,33.32-23.97,63.03-47.44,86.02   c-11.33,11.11-24.22,20.66-38.3,28.27c-14.34,7.77-29.91,13.54-46.35,16.95c-11.23,2.32-22.86,3.54-34.77,3.54   c-2.86,0-5.7-0.07-8.52-0.21c-32.17-1.58-61.99-12.07-87.05-29.06c-7.84-5.3-15.22-11.25-22.05-17.75   c-7.51-7.14-14.36-14.96-20.47-23.36c-20.39-28.04-32.46-62.54-32.55-99.84c0-0.79,0.01-1.57,0.01-2.36   c0.01-0.65,0.03-1.3,0.04-1.94c0.01-0.57,0.02-1.14,0.04-1.71c1.23-38.28,15.08-73.38,37.51-101.27   c4.32-5.37,8.95-10.47,13.88-15.27c21.72-21.2,49.08-36.66,79.62-43.9c8.58-2.04,17.41-3.42,26.43-4.11   c4.33-0.33,8.7-0.5,13.11-0.5c29.46,0,57.17,7.46,81.35,20.62c7.35,3.98,14.37,8.49,21.02,13.48c6.44,4.83,12.52,10.11,18.2,15.79   c2.78,2.78,5.47,5.65,8.04,8.62c12.32,14.1,22.36,30.24,29.52,47.86C404.24,194.993,408.68,216.693,408.68,239.423z" fill="#f9911e"/><path d="M399.05,182.763c-27.53,36.71-61.77,76.17-100.95,115.34c-39.53,39.54-79.36,74.05-116.36,101.71   c-0.22,0.17-0.45,0.33-0.67,0.5c-11.64-4.12-22.69-9.46-33-15.88c0.22-0.11,0.43-0.23,0.65-0.35h0.01   c0.04-0.02,0.09-0.06,0.13-0.08c37.35-20.44,84.63-57.09,131.34-103.8c46.25-46.25,82.63-93.05,103.19-130.22   c4.93,7.97,9.21,16.39,12.78,25.17C397.19,177.663,398.15,180.193,399.05,182.763z" fill="#f9a24b"/><g><path d="M318.026,113.78c-0.907,0-1.824-0.247-2.649-0.764c-5.901-3.697-12.116-6.994-18.471-9.799    c-2.526-1.115-3.671-4.067-2.556-6.593c1.114-2.525,4.066-3.67,6.593-2.555c6.794,2.998,13.436,6.522,19.742,10.473    c2.341,1.466,3.049,4.552,1.583,6.892C321.319,112.949,319.691,113.78,318.026,113.78z" fill="#ffffff"/><path d="M341.125,351.523c-1.336,0-2.668-0.532-3.652-1.584c-1.887-2.017-1.781-5.181,0.235-7.067    c29.375-27.483,46.223-66.24,46.223-106.334c0-40.324-16.17-77.856-45.532-105.684c-2.004-1.9-2.089-5.064-0.189-7.069    c1.898-2.004,5.064-2.089,7.068-0.19c31.375,29.735,48.653,69.845,48.653,112.942c0,42.851-18.002,84.27-49.391,113.636    C343.576,351.076,342.349,351.523,341.125,351.523z" fill="#ffffff"/><path d="M320.094,367.985c-1.637,0-3.241-0.803-4.199-2.278c-1.503-2.316-0.845-5.413,1.472-6.916    c2.547-1.653,5.078-3.412,7.524-5.227c2.219-1.646,5.349-1.182,6.995,1.036c1.646,2.218,1.182,5.349-1.036,6.995    c-2.613,1.939-5.317,3.817-8.038,5.583C321.971,367.724,321.026,367.985,320.094,367.985z" fill="#ffffff"/></g><path d="M358.61,118.673c-5.68-5.68-11.76-10.96-18.2-15.79   c-6.65-4.99-13.67-9.5-21.02-13.48c0.33,0.6,0.73,1.15,1.22,1.64c10.6,10.58,5.06,35.41-12.58,67.69   c-0.02,0.04-0.06,0.09-0.08,0.13c-0.2,0.37-0.41,0.74-0.62,1.12c-20.56,37.17-56.94,83.97-103.19,130.22   c-8.124,8.124-16.264,15.939-24.366,23.418c-8.203,7.572-21.434,4.944-26.09-5.202c-9.923-21.628-15.46-45.684-15.46-71.037   c0-46.04,18.24-87.83,47.88-118.52c16.33-16.91,36.12-30.46,58.23-39.5c9.22-3.765,18.846-6.738,28.788-8.857   c-11.529-2.458-23.483-3.763-35.745-3.763c-22.84,0-44.62,4.49-64.53,12.62c-22.11,9.04-41.9,22.59-58.23,39.5   c-29.64,30.69-47.88,72.48-47.88,118.52c0,49.389,20.994,93.863,54.535,125.024c-0.283,0.21-0.57,0.428-0.853,0.637   c6.83,6.5,14.21,12.45,22.05,17.75c0.354-0.293,0.709-0.592,1.063-0.886c11.436,7.548,23.829,13.764,36.965,18.404   c17.79,6.29,36.94,9.71,56.88,9.71c12.255,0,24.208-1.3,35.734-3.756c-7.222-1.54-14.276-3.531-21.127-5.954   c-19.96-7.05-38.22-17.72-53.98-31.21c-0.849-0.726-1.69-1.46-2.524-2.203c-9.143-8.139-9.154-22.411-0.238-30.799   c8.924-8.395,17.868-17.066,26.798-25.997c39.18-39.17,73.42-78.63,100.95-115.34c0.25-0.34,0.51-0.68,0.76-1.02   c17.04-22.79,31.48-44.52,42.9-64.45C364.08,124.323,361.39,121.453,358.61,118.673z" opacity="0.25"/><path d="M464.98,12.733c-22.37-22.36-89.13,5.46-169,65.17l-0.72,0.72c11.59,4.11,22.6,9.45,32.87,15.86   l0.86-0.86c32.28-17.65,57.11-23.17,67.68-12.58c10.6,10.58,5.06,35.41-12.58,67.69c-0.02,0.04-0.06,0.09-0.08,0.13   c-0.2,0.37-0.41,0.74-0.62,1.12c-20.56,37.17-56.94,83.97-103.19,130.22c-46.71,46.71-93.99,83.36-131.34,103.8   c-0.04,0.02-0.09,0.06-0.13,0.08h-0.01c-0.22,0.12-0.43,0.24-0.65,0.35c-7.89,4.29-15.33,7.86-22.22,10.62   c-21.01,8.45-36.9,9.54-44.81,1.62c-10.51-10.5-5.13-35.02,12.19-66.95c-6.43-10.29-11.8-21.32-15.94-32.93   c-59.29,79.52-86.84,145.9-64.55,168.19c17.32,17.33,61.27,4.54,117.33-29.86h0.01c16.11-9.88,33.22-21.55,50.99-34.81   c0.22-0.17,0.45-0.33,0.67-0.5c37-27.66,76.83-62.17,116.36-101.71c39.18-39.17,73.42-78.63,100.95-115.34   c0.25-0.34,0.51-0.68,0.76-1.02C459.52,101.863,487.35,35.103,464.98,12.733z" fill="#f7db9c"/><path d="M238.854,414.762c-20.228,0-40.061-3.405-58.946-10.121l3.35-9.422   c17.809,6.332,36.514,9.542,55.597,9.542c91.48,0,165.905-74.425,165.905-165.905c0-19.076-3.211-37.778-9.543-55.586l-0.289-0.813   v-0.863l5.015-0.005l4.696-1.67c6.716,18.887,10.121,38.716,10.121,58.937C414.759,335.851,335.848,414.762,238.854,414.762z" fill="#333333"/><path d="M35.111,477.716c-11.116,0-19.776-3.066-25.91-9.201C-3.293,456.022-3.062,433.04,9.888,400.21   c11.799-29.914,33.934-66.992,64.011-107.227l8.01,5.987c-29.553,39.533-51.24,75.81-62.718,104.909   c-11.032,27.971-12.069,48.415-2.919,57.565c9.151,9.15,29.595,8.114,57.565-2.919c29.099-11.478,65.375-33.165,104.908-62.718   c37.798-28.256,77.85-63.264,115.824-101.238c37.972-37.972,72.979-78.023,101.237-115.823   c29.553-39.533,51.24-75.81,62.718-104.909c11.033-27.971,12.069-48.415,2.92-57.565c-9.15-9.15-29.594-8.115-57.566,2.919   c-29.099,11.477-65.375,33.165-104.908,62.718l-5.988-8.009c40.235-30.078,77.314-52.212,107.228-64.011   c32.83-12.949,55.812-13.181,68.306-0.688c12.493,12.493,12.262,35.475-0.688,68.306c-11.799,29.914-33.934,66.992-64.011,107.227   c-28.54,38.177-63.872,78.603-102.177,116.907c-38.307,38.307-78.732,73.638-116.906,102.176   c-40.235,30.077-77.314,52.212-107.228,64.011C60.796,474.419,46.634,477.715,35.111,477.716z M96.65,407.007   c-8.18,0.001-14.609-2.257-19.148-6.797c-12.049-12.049-7.988-37.508,11.743-73.623l8.775,4.794   c-16.638,30.453-21.665,53.54-13.448,61.757c8.237,8.234,31.317,3.208,61.744-13.446l1.13-0.614   c38.08-21.034,85.105-58.296,129.22-102.41c44.444-44.444,81.945-91.857,102.905-130.101l0.111-0.204   c16.658-30.482,21.683-53.568,13.455-61.787c-8.229-8.237-31.31-3.21-61.746,13.435l-4.799-8.774   c36.104-19.743,61.561-23.801,73.616-11.732c12.053,12.041,8.008,37.478-11.702,73.561l-0.107,0.2   c-21.386,39.06-59.534,87.344-104.663,132.472c-45.138,45.138-93.422,83.282-132.473,104.652l-0.089,0.048   c-0.083,0.045-0.161,0.086-0.232,0.121l-0.02,0.01C128.494,400.826,110.182,407.006,96.65,407.007z" fill="#333333"/><path d="M35.17,454.673c-4.631,0-8.169-0.883-9.707-2.421c-0.333-0.333-8-8.563,5.82-43.603   c7.498-19.008,19.611-41.322,35.632-65.757c-12.689,30.56-12.24,52.876,1.394,66.51c4.854,4.854,13.719,10.641,28.381,10.641   c10.637,0,23.364-3.076,38.009-9.171c-42.498,27.844-78.332,43.801-99.524,43.801C35.172,454.673,35.172,454.673,35.17,454.673z    M410.816,134.801c12.681-30.548,12.224-52.863-1.422-66.495c-4.84-4.845-13.703-10.635-28.37-10.635   c-10.625,0-23.343,3.071-37.977,9.154c42.486-27.833,78.31-43.781,99.499-43.781c4.629,0,8.166,0.882,9.704,2.42   c0.334,0.333,8.002,8.563-5.818,43.603C438.937,88.069,426.827,110.376,410.816,134.801z" fill="#ddbe7f"/><path d="M149.146,387.173l-4.312-2.082c-22.685-14.126-42.123-33.569-56.216-56.227   c-6.563-10.552-12-21.841-16.161-33.551c-6.666-18.719-10.047-38.387-10.047-58.456c0-96.188,78.255-174.443,174.443-174.443   c20.077,0,39.75,3.38,58.471,10.048c11.677,4.153,22.96,9.59,33.535,16.158c22.686,14.11,42.13,33.557,56.23,56.241l-5.895,9.935   l-2.597-4.656c-13.296-21.388-31.629-39.724-53.018-53.027c-9.967-6.191-20.602-11.315-31.609-15.23   c-17.643-6.283-36.186-9.469-55.117-9.469c-90.675,0-164.443,73.769-164.443,164.443c0,18.923,3.186,37.462,9.468,55.105   c3.923,11.039,9.048,21.677,15.232,31.621c13.238,21.285,31.48,39.561,52.77,52.87l3.553,1.686L149.146,387.173z" fill="#333333"/></g><g transform="matrix(0.07339232414960861 0 0 0.07339232414960861 180.58226568251848 28.582265682518482)" id="L1_25"><path d="M296.751,412.735 204.8,412.735 220.473,379.298 234.057,347.951 267.494,347.951   281.078,379.298z" fill="#ff7058"/><path d="M355.265,412.735h-208.98c-11.494,0-20.898,9.404-20.898,20.898v67.918h249.731v-67.918  C376.163,422.139,366.759,412.735,355.265,412.735z" fill="#ffd15c"/><path d="M281.078,379.298c-8.359,4.18-16.718,8.359-25.078,11.494l-5.224,1.045l-5.225-2.09  c-8.359-3.135-16.718-7.314-25.078-11.494l13.584-31.347h32.392L281.078,379.298z" fill="#f1543f"/><g><path d="M0,57.469v42.841C0,204.8,64.784,294.661,155.69,332.278c29.257,12.539,61.649,18.808,95.086,18.808   s65.829-6.269,95.086-18.808c90.906-37.616,155.69-127.478,155.69-231.967V57.469H0z M459.755,100.31   c0,50.155-17.763,96.131-48.065,132.702c-38.661,45.975-96.131,76.278-160.914,76.278s-122.253-29.257-160.914-76.278   c-29.257-35.527-48.065-82.547-48.065-132.702v-1.045H458.71v1.045H459.755z" fill="#f8b64c"/><path d="M413.78,0H87.771c-7.314,0-12.539,6.269-12.539,12.539c0,7.314,5.224,13.584,12.539,13.584H413.78   c7.314,0,12.539-6.269,12.539-12.539C426.318,6.269,421.094,0,413.78,0z" fill="#f8b64c"/></g><path d="M413.78,26.122v112.849c0,104.49-64.784,199.576-163.004,237.192  c-98.22-38.661-163.004-132.702-163.004-238.237V26.122H413.78z" fill="#ffd15c"/><path d="M250.776,73.143 272.718,140.016 342.727,140.016 286.302,181.812 307.2,248.686   250.776,206.89 194.351,248.686 215.249,181.812 158.824,140.016 228.833,140.016z" fill="#ffffff"/><rect x="87px" y="26px" width="324px" height="15px" fill="#ffc952"/></g><g transform="matrix(0.1171875 0 0 0.1171875 141 74)" id="L1_26"><path d="M361.931,494.345H150.069c0-19.5,15.81-35.31,35.31-35.31h141.241   C346.121,459.034,361.931,474.845,361.931,494.345" fill="#e8edee"/><path d="M317.793,459.034 194.207,459.034 211.862,388.414 300.138,388.414z" fill="#b0b6bb"/><path d="M512,317.793H0V48.552c0-17.064,13.833-30.897,30.897-30.897h450.207   c17.064,0,30.897,13.833,30.897,30.897V317.793z" fill="#38454f"/><path d="M481.103,388.414H30.897C13.833,388.414,0,374.581,0,357.517v-39.724h512v39.724   C512,374.581,498.167,388.414,481.103,388.414" fill="#e8edee"/><g><path d="M432.552,282.483H300.138c-4.882,0-8.828-3.955-8.828-8.828c0-4.873,3.946-8.828,8.828-8.828    h132.414c4.882,0,8.828,3.955,8.828,8.828C441.379,278.528,437.433,282.483,432.552,282.483" fill="#ea6148"/><path d="M167.724,229.517H79.448c-4.882,0-8.828-3.955-8.828-8.828c0-4.873,3.946-8.828,8.828-8.828h88.276    c4.882,0,8.828,3.955,8.828,8.828C176.552,225.562,172.606,229.517,167.724,229.517" fill="#ea6148"/><path d="M388.414,229.517H256c-4.882,0-8.828-3.955-8.828-8.828c0-4.873,3.946-8.828,8.828-8.828h132.414    c4.882,0,8.828,3.955,8.828,8.828C397.241,225.562,393.295,229.517,388.414,229.517" fill="#ea6148"/><path d="M211.862,229.517c-1.148,0-2.295-0.265-3.354-0.706c-1.148-0.441-2.03-1.059-2.913-1.854    c-1.598-1.677-2.56-3.884-2.56-6.268s0.962-4.59,2.56-6.268c0.883-0.794,1.766-1.412,2.913-1.854    c3.169-1.324,7.15-0.618,9.622,1.854c1.589,1.677,2.56,3.972,2.56,6.268c0,2.295-0.971,4.59-2.56,6.268    C216.452,228.546,214.157,229.517,211.862,229.517" fill="#ea6148"/><path d="M256,282.483H123.586c-4.882,0-8.828-3.955-8.828-8.828c0-4.873,3.946-8.828,8.828-8.828H256    c4.882,0,8.828,3.955,8.828,8.828C264.828,278.528,260.882,282.483,256,282.483" fill="#ea6148"/><path d="M79.448,282.483c-1.148,0-2.295-0.265-3.354-0.706c-1.059-0.441-2.03-1.059-2.913-1.854    c-1.598-1.677-2.56-3.884-2.56-6.268c0-1.148,0.265-2.295,0.706-3.354c0.441-1.148,1.059-2.03,1.854-2.913    c2.119-2.03,5.12-2.913,7.936-2.383c0.627,0.088,1.148,0.265,1.686,0.53c0.521,0.177,1.059,0.441,1.501,0.794    c0.521,0.353,0.971,0.706,1.412,1.059c0.794,0.883,1.412,1.766,1.854,2.913c0.441,1.059,0.706,2.207,0.706,3.354    c0,2.383-0.971,4.59-2.56,6.268c-0.441,0.353-0.892,0.706-1.412,1.059c-0.441,0.353-0.98,0.618-1.501,0.794    c-0.538,0.265-1.059,0.441-1.686,0.53C80.596,282.394,79.978,282.483,79.448,282.483" fill="#ea6148"/><path d="M432.552,229.517c-0.538,0-1.148-0.088-1.677-0.177c-0.618-0.088-1.148-0.265-1.677-0.53    c-0.53-0.177-1.059-0.441-1.598-0.794c-0.433-0.353-0.874-0.706-1.315-1.059c-1.598-1.677-2.56-3.972-2.56-6.268    c0-2.295,0.962-4.59,2.56-6.268l1.315-1.059c0.539-0.353,1.068-0.618,1.598-0.794c0.53-0.265,1.059-0.441,1.677-0.53    c2.825-0.618,5.906,0.353,7.945,2.383c0.353,0.441,0.706,0.883,1.059,1.412c0.353,0.441,0.609,0.971,0.794,1.501    c0.265,0.53,0.441,1.059,0.521,1.677c0.097,0.53,0.185,1.148,0.185,1.677s-0.088,1.148-0.185,1.766    c-0.079,0.53-0.256,1.059-0.521,1.589c-0.185,0.53-0.441,1.059-0.794,1.589c-0.353,0.441-0.706,0.883-1.059,1.324    c-0.441,0.353-0.892,0.706-1.324,1.059c-0.53,0.353-1.068,0.618-1.589,0.794c-0.538,0.265-1.059,0.441-1.686,0.53    C433.699,229.429,433.081,229.517,432.552,229.517" fill="#ea6148"/><path d="M432.552,123.586H300.138c-4.882,0-8.828-3.955-8.828-8.828s3.946-8.828,8.828-8.828h132.414    c4.882,0,8.828,3.955,8.828,8.828S437.433,123.586,432.552,123.586" fill="#ea6148"/><path d="M432.552,176.552h-88.276c-4.882,0-8.828-3.955-8.828-8.828s3.946-8.828,8.828-8.828h88.276    c4.882,0,8.828,3.955,8.828,8.828S437.433,176.552,432.552,176.552" fill="#ea6148"/><path d="M273.655,176.552H256c-4.882,0-8.828-3.955-8.828-8.828s3.946-8.828,8.828-8.828h17.655    c4.882,0,8.828,3.955,8.828,8.828S278.537,176.552,273.655,176.552" fill="#ea6148"/><path d="M388.414,70.621H256c-4.882,0-8.828-3.955-8.828-8.828s3.946-8.828,8.828-8.828h132.414    c4.882,0,8.828,3.955,8.828,8.828S393.295,70.621,388.414,70.621" fill="#ea6148"/><path d="M432.552,70.621c-0.538,0-1.148-0.088-1.677-0.177c-0.618-0.088-1.148-0.265-1.677-0.53    c-0.53-0.177-1.059-0.441-1.598-0.794c-0.433-0.353-0.874-0.706-1.315-1.059c-1.598-1.677-2.56-3.972-2.56-6.268    c0-2.295,0.962-4.59,2.56-6.268l1.315-1.059c0.539-0.353,1.068-0.618,1.598-0.794c0.53-0.265,1.059-0.441,1.677-0.53    c2.825-0.618,5.906,0.353,7.945,2.383c0.353,0.441,0.706,0.883,1.059,1.412c0.353,0.441,0.609,0.971,0.794,1.501    c0.265,0.53,0.441,1.059,0.521,1.677c0.097,0.53,0.185,1.148,0.185,1.677s-0.088,1.148-0.185,1.766    c-0.079,0.53-0.256,1.059-0.521,1.589c-0.185,0.53-0.441,1.059-0.794,1.589c-0.353,0.441-0.706,0.883-1.059,1.324    c-0.441,0.353-0.892,0.706-1.324,1.059c-0.53,0.353-1.068,0.618-1.589,0.794c-0.538,0.265-1.059,0.441-1.686,0.53    C433.699,70.532,433.081,70.621,432.552,70.621" fill="#ea6148"/><path d="M264.828,123.586c-2.295,0-4.599-0.971-6.268-2.56c-0.794-0.883-1.412-1.854-1.854-2.913    S256,115.906,256,114.759c0-1.148,0.265-2.295,0.706-3.354s1.059-2.03,1.854-2.913c2.03-2.03,5.12-2.913,7.936-2.383    c0.627,0.088,1.148,0.265,1.686,0.53c0.521,0.177,1.059,0.441,1.501,0.794c0.521,0.353,0.971,0.706,1.324,1.059    c0.883,0.883,1.501,1.854,1.942,2.913s0.706,2.207,0.706,3.354c0,1.148-0.265,2.295-0.706,3.354s-1.059,2.03-1.942,2.913    c-0.353,0.353-0.803,0.706-1.324,1.059c-0.441,0.353-0.98,0.618-1.501,0.794c-0.538,0.265-1.059,0.441-1.686,0.53    C265.975,123.498,265.357,123.586,264.828,123.586" fill="#ea6148"/><path d="M308.966,176.552c-2.392,0-4.599-0.971-6.268-2.56c-1.598-1.677-2.56-3.972-2.56-6.268    c0-2.295,0.962-4.59,2.56-6.268c3.266-3.266,9.269-3.266,12.535,0c1.589,1.677,2.56,3.972,2.56,6.268    c0,0.618-0.088,1.148-0.185,1.766c-0.079,0.53-0.256,1.059-0.521,1.589c-0.185,0.53-0.441,1.059-0.794,1.589    c-0.353,0.441-0.706,0.883-1.059,1.324C313.556,175.581,311.349,176.552,308.966,176.552" fill="#ea6148"/></g><path d="M79.448,176.552 203.034,176.552 203.034,52.966 79.448,52.966z" fill="#ecba16"/></g><g transform="matrix(0.11721886694431305 0 0 0.11721886694431305 210.9999991557723 73)" id="L1_27"><g><path d="M117.695,474.627h220.542c98.257-40.225,112.305-139.273,113.105-232.671    c0.047-5.167-4.171-9.365-9.337-9.365H227.962H13.927c-5.167,0-9.384,4.198-9.337,9.365    C5.391,335.354,19.438,434.403,117.695,474.627L117.695,474.627z" fill="#ccd0d2"/><path d="M227.964,167.563c-2.402,0-4.813-0.931-6.628-2.783c-14.373-14.587-21.532-29.752-21.29-45.093    c0.233-14.922,7.466-29.268,21.495-42.645c10.491-9.765,15.835-19.745,15.946-29.715c0.13-10.296-5.26-20.843-16.03-31.353    c-3.677-3.603-3.742-9.495-0.149-13.163c3.593-3.696,9.495-3.742,13.163-0.168c14.541,14.215,21.821,29.324,21.634,44.907    c-0.177,15.267-7.512,29.752-21.802,43.036c-10.203,9.728-15.49,19.651-15.649,29.407c-0.158,10.147,5.204,20.824,15.937,31.735    c3.612,3.658,3.565,9.551-0.093,13.163C232.683,166.669,230.319,167.563,227.964,167.563" fill="#ccd0d2"/><path d="M330.146,167.563c-2.402,0-4.813-0.931-6.628-2.783c-14.373-14.587-21.532-29.752-21.29-45.093    c0.233-14.922,7.466-29.268,21.495-42.645c10.566-9.83,15.937-19.856,16.058-29.882c0.121-10.259-5.232-20.75-15.919-31.185    c-3.677-3.603-3.752-9.495-0.158-13.163c3.593-3.696,9.495-3.742,13.163-0.168c14.476,14.141,21.718,29.193,21.532,44.749    c-0.177,15.295-7.55,29.836-21.914,43.194c-10.203,9.728-15.49,19.651-15.649,29.407c-0.158,10.147,5.204,20.824,15.937,31.735    c3.612,3.658,3.565,9.551-0.093,13.163C334.865,166.669,332.501,167.563,330.146,167.563" fill="#ccd0d2"/><path d="M134.655,167.563c-2.402,0-4.813-0.931-6.628-2.783c-14.373-14.587-21.532-29.752-21.29-45.093    c0.233-14.922,7.466-29.268,21.495-42.645c10.566-9.83,15.937-19.856,16.058-29.882c0.121-10.259-5.232-20.75-15.919-31.185    c-3.677-3.603-3.752-9.495-0.158-13.163c3.593-3.696,9.495-3.742,13.163-0.168c14.476,14.141,21.718,29.193,21.532,44.749    c-0.177,15.295-7.55,29.836-21.914,43.194c-10.203,9.728-15.49,19.651-15.649,29.407c-0.158,10.147,5.204,20.824,15.937,31.735    c3.612,3.658,3.565,9.551-0.093,13.163C139.374,166.669,137.01,167.563,134.655,167.563" fill="#ccd0d2"/></g><path d="M172.118,456.009c-0.512,0-1.043-0.047-1.564-0.13c-73.877-12.53-113.552-55.045-128.624-137.84   c-0.912-5.055,2.43-9.905,7.494-10.817c5.101-0.977,9.905,2.43,10.826,7.485c13.638,74.91,47.56,111.635,113.422,122.815   c5.064,0.856,8.471,5.669,7.615,10.733C180.515,452.797,176.577,456.009,172.118,456.009" fill="#a1abaf"/><g><path d="M358.254,297.754c-5.139,0-9.309-4.161-9.309-9.309v-55.668c0-5.148,4.171-9.309,9.309-9.309    s9.309,4.161,9.309,9.309v55.668C367.564,293.593,363.393,297.754,358.254,297.754" fill="#cc4b4c"/><path d="M386.102,363.29 330.247,363.29 330.247,288.818 358.258,270.013 386.176,288.818z" fill="#cc4b4c"/></g><g><path d="M451.209,251.263c-1.117,59.587-8.574,120.562-40.522,166.428    c54.561-7.391,96.591-53.965,96.591-110.573v-23.943c0-17.622-14.289-31.912-31.912-31.912H451.209z" fill="#a1abaf"/><path d="M144.223,511.863H23.204c-10.287,0-18.618-8.332-18.618-18.618l0,0    c0-10.287,8.332-18.618,18.618-18.618h390.982c10.287,0,18.618,8.332,18.618,18.618l0,0c0,10.287-8.332,18.618-18.618,18.618    H302.477l-27.927-9.309h-102.4L144.223,511.863z" fill="#a1abaf"/></g></g><g transform="matrix(0.09529699704423726 -0.033634234322277023 0.033634234322277023 0.09529699704423726 278.42170346450087 91.41566889773611)" id="L1_28"><path d="M252.849,0.59C113.822,0.59,0.788,113.624,0.788,252.651S113.822,504.714,252.85,504.714  S504.911,391.68,504.911,252.651C505.305,113.624,392.271,0.59,252.849,0.59z M252.849,347.174  c-52.382,0-94.523-42.142-94.523-94.523s42.142-94.523,94.523-94.523s94.523,42.142,94.523,94.523  C347.766,305.034,305.231,347.174,252.849,347.174z" fill="#e89c25"/><path d="M276.874,488.96c-143.36,0-259.545-116.185-259.545-259.545c0-44.505,11.028-86.252,30.72-122.486  C18.511,147.888,1.181,198.3,1.181,252.651c0,139.028,113.034,252.062,252.062,252.062c54.745,0,105.157-17.329,146.117-46.868  C362.732,477.538,320.985,488.96,276.874,488.96z" fill="#cc8921"/><path d="M252.849,138.436c-63.015,0-114.215,51.2-114.215,114.215s51.2,114.215,114.215,114.215  s114.215-51.2,114.215-114.215S316.258,138.436,252.849,138.436z M252.849,347.174c-52.382,0-94.523-42.142-94.523-94.523  s42.142-94.523,94.523-94.523s94.523,42.142,94.523,94.523C347.766,305.034,305.231,347.174,252.849,347.174z" fill="#d69022"/><path d="M503.335,283.766c1.182-10.24,1.969-20.48,1.969-30.72c0-40.566-9.452-78.769-26.782-112.64  C437.169,57.697,351.705,0.984,253.243,0.984C114.215,0.984,1.182,114.017,1.182,253.046l0.394,15.36  c10.634-0.394,21.662-1.182,31.902-3.151c70.892-12.997,77.588-33.477,133.12-50.018c14.572-33.083,48.049-56.32,86.646-56.32  c52.382,0,94.523,42.142,94.523,94.523v2.363C391.089,280.221,487.975,283.372,503.335,283.766z" fill="#f8beb6"/><path d="M105.551,150.645l-30.326,8.271c-5.514,1.575-8.665,7.877-7.089,14.178  c1.575,6.302,7.483,10.24,12.997,8.665l30.326-8.271c5.514-1.575,8.665-7.877,7.089-14.178  C116.972,153.008,111.065,149.07,105.551,150.645z M434.018,190.424c0-7.089-5.12-12.603-11.815-12.603s-11.815,5.514-11.815,12.603  v29.932c0,7.089,5.12,12.603,11.815,12.603s11.815-5.514,11.815-12.603V190.424z" fill="#26a6d1"/><path d="M184.714,65.181c-5.12-3.151-11.422-1.575-14.178,3.545l-14.572,28.751  c-2.757,5.12-0.788,12.209,4.332,15.36s11.422,1.575,14.178-3.545l14.572-28.751C191.409,75.421,189.834,68.725,184.714,65.181z" fill="#53bca9"/><path d="M356.825,121.501l28.751-16.542c5.12-3.151,12.209-1.182,15.36,4.332  c3.151,5.514,1.182,12.209-3.938,15.36l-28.751,16.542c-5.12,3.151-12.209,1.182-15.36-4.332  C349.735,131.348,351.705,124.257,356.825,121.501z" fill="#e2574c"/><path d="M288.689,89.993l-26.782-16.935c-4.726-3.151-6.695-9.846-3.938-15.36  c2.757-5.514,9.058-7.089,14.178-3.938l26.782,16.935c4.726,3.151,6.695,9.846,3.938,15.36  C300.111,91.174,293.809,92.75,288.689,89.993z" fill="#ffffff"/><path d="M366.671,263.68c0.394-3.545,0.394-7.089,0.394-11.028c0-63.015-51.2-114.215-114.215-114.215  c-52.775,0-97.28,35.84-110.277,84.677c7.089-2.757,14.572-5.514,23.631-8.271c14.572-33.083,48.049-56.32,86.646-56.32  c52.382,0,94.523,42.142,94.523,94.523v2.363C353.28,258.165,359.582,261.316,366.671,263.68z M1.575,268.012l18.117-1.182  c-1.969-12.209-2.757-24.812-2.757-37.809c0-44.505,11.028-86.252,30.72-122.486c-7.089,10.24-13.785,20.874-19.298,31.902  l-0.394,1.182l-3.545,7.483l-0.788,1.575c-3.545,7.483-6.695,15.36-9.452,23.237l-1.182,3.545l-1.969,5.908  c-0.394,1.575-0.788,3.151-1.575,5.12l-1.575,5.513l-1.575,6.302c-0.394,1.575-0.788,3.151-1.182,4.332l-1.969,10.634  c-0.394,1.182-0.394,2.757-0.394,3.938c-0.394,2.757-0.788,5.12-0.788,7.877l-0.394,4.332c-0.394,2.757-0.394,5.514-0.788,7.877  c0,1.182,0,2.363-0.394,3.938L0,253.046c0,3.545,0,6.695,0.394,10.24C1.182,264.467,1.575,266.437,1.575,268.012z" fill="#daa7a0"/></g><g transform="matrix(0.1190185695886612 0 0 0.1190185695886612 -4 83.00000084266077)" id="L1_30"><path d="M486.006,355.446l18.117-10.24c-1.182-6.695-2.757-13.391-5.12-20.086h-20.874l-11.422-20.086  l10.634-18.117c-4.332-5.12-9.058-10.24-14.572-14.572l-18.117,10.24l-20.086-11.815v-20.874c-0.394,0-0.788-0.394-1.575-0.394  c-5.908-1.969-12.209-3.938-18.511-5.12l-10.634,18.117h-23.237l-10.24-18.117c-6.695,1.182-13.391,2.757-20.086,5.12v20.874  l-20.086,11.422l-18.117-10.634c-5.12,4.332-10.24,9.058-14.572,14.572l10.24,18.117l-11.815,20.086h-20.874  c-2.363,6.695-4.332,12.997-5.514,19.692l18.117,10.634v23.237l-18.117,10.24c1.182,6.695,2.757,13.391,5.12,20.086h20.874  l11.422,20.086l-10.634,18.117c4.332,5.12,9.058,10.24,14.572,14.572l18.117-10.24l20.086,11.815v20.874  c0.394,0,0.788,0.394,1.575,0.394c5.908,1.969,12.209,3.938,18.511,5.12l10.634-18.117h23.237l10.24,18.117  c6.695-1.182,13.391-2.757,20.086-5.12v-20.874l20.086-11.422l18.117,10.634c5.12-4.332,10.24-9.058,14.572-14.572l-10.24-18.117  l11.815-20.086h20.874c2.363-6.695,4.332-12.997,5.514-19.692l-18.117-10.634V355.446z M382.031,435.003  c-37.809,0-68.923-30.72-68.923-68.529s30.72-68.923,68.923-68.923c37.809,0,68.923,30.72,68.923,68.529  S419.84,435.003,382.031,435.003z" fill="#415f6f"/><path d="M274.905,240.049c0-7.483-0.394-15.36-1.575-22.843l-22.449-4.726l-8.271-24.418l15.36-17.329  c-3.545-6.695-7.877-12.997-12.603-18.905l-22.055,7.483l-19.298-16.935l4.726-22.843c-6.695-3.938-13.391-7.483-20.48-10.24  l-14.966,17.329l-25.206-5.12l-7.483-22.055c-7.483,0-15.36,0.394-22.843,1.575l-4.726,22.449l-24.418,8.271l-17.329-15.36  c-6.695,3.545-12.997,7.877-18.905,12.603l7.483,22.055l-16.935,19.298l-22.843-4.726c-3.938,6.695-7.483,13.391-10.24,20.48  l17.329,15.36l-5.12,25.206L0,233.748c0,7.483,0.394,15.36,1.575,22.843l22.843,4.726l8.271,24.418l-15.36,17.329  c3.545,6.695,7.877,12.997,12.603,18.905l22.055-7.483l19.298,16.935l-5.12,22.843c6.695,3.938,13.391,7.483,20.48,10.24  l15.36-17.329l25.206,5.12l7.483,22.055c7.483,0,15.36-0.394,22.843-1.575l4.726-22.449l24.418-8.271l17.329,15.36  c6.695-3.545,12.997-7.877,18.905-12.603l-7.483-22.055l16.935-19.298l22.843,4.726c3.938-6.695,7.483-13.391,10.24-20.48  l-17.329-15.36l5.12-25.206L274.905,240.049L274.905,240.049z M137.452,312.911c-42.142,0-76.406-34.265-76.406-76.406  s34.265-76.406,76.406-76.406s76.406,34.265,76.406,76.406S179.594,312.911,137.452,312.911z" fill="#26a6d1"/><path d="M456.862,125.046l16.542-6.695c-0.394-5.908-1.182-11.815-2.363-17.723l-17.723-2.363l-7.483-18.511  l11.028-14.178c-3.151-5.12-6.695-9.846-10.634-14.178l-16.542,6.695l-15.754-12.209l2.363-17.723l-1.182-0.788  c-5.12-2.363-10.24-4.726-15.36-6.302l-11.028,14.178l-19.692-2.757l-6.695-16.935c-5.908,0.394-11.815,0.788-17.723,1.969  l-2.363,17.723l-18.905,7.877L309.17,32.098c-5.12,3.151-9.846,6.695-14.178,10.634l6.695,16.542l-12.209,15.754l-17.723-2.363  c-2.757,5.12-5.12,10.634-7.089,16.542l14.178,11.028l-2.757,19.692l-16.542,6.695c0.394,5.908,1.182,11.815,2.363,17.723  l17.723,2.363l7.483,18.511l-11.028,14.178c3.151,5.12,6.695,9.846,10.634,14.178l16.542-6.695l15.754,12.209l-2.363,17.723  l1.182,0.788c5.12,2.363,10.24,4.726,15.36,6.302l11.028-14.178l19.692,2.757l6.695,16.542c5.908-0.394,11.815-0.788,17.723-2.363  l2.363-17.723l18.511-7.483l14.178,11.028c5.12-3.151,9.846-6.695,14.178-10.634l-6.695-16.542l12.209-15.754l17.723,2.363  c2.757-5.12,5.12-10.634,7.089-16.542l-14.178-11.028C453.711,144.345,456.862,125.046,456.862,125.046z M366.671,183.335  c-33.871,0-61.046-27.175-61.046-61.046s27.175-61.046,61.046-61.046s61.046,27.175,61.046,61.046S400.542,183.335,366.671,183.335z  " fill="#638090"/></g><g transform="matrix(0.1190185695886612 0 0 0.1190185695886612 -19 20)" id="L1_31"><path d="M63.015,0h378.092c34.658,0,63.015,28.357,63.015,63.015v378.092  c0,34.658-28.357,63.015-63.015,63.015H63.015C28.357,504.123,0,475.766,0,441.108V63.015C0,28.357,28.357,0,63.015,0z" fill="#fdf0de"/><path d="M0,366.277v74.831c0,34.658,28.357,63.015,63.015,63.015h378.092  c34.658,0,63.015-28.357,63.015-63.015v-74.831L0,366.277L0,366.277z" fill="#475f6c"/><path d="M96.098,413.538h311.926c9.452,0,17.329,7.877,17.329,17.723s-7.877,17.723-17.329,17.723H96.098  c-9.452,0-17.329-7.877-17.329-17.723S86.646,413.538,96.098,413.538z" fill="#2b414d"/><path d="M192.985,228.431h39.385v137.846h-39.385V228.431z" fill="#e49adf"/><path d="M232.369,228.431h39.385v137.846h-39.385V228.431z" fill="#e5c45a"/><path d="M271.754,228.431h39.385v137.846h-39.385V228.431z" fill="#a6d26e"/><path d="M252.062,90.585c54.351,0,98.462,44.111,98.462,98.462s-44.111,98.462-98.462,98.462  S153.6,243.397,153.6,189.046S197.711,90.585,252.062,90.585z" fill="#2b414d"/><path d="M252.062,110.277c43.323,0,78.769,35.446,78.769,78.769s-35.446,78.769-78.769,78.769  s-78.769-35.446-78.769-78.769S208.738,110.277,252.062,110.277z" fill="#475f6c"/><path d="M252.062,133.908c30.326,0,55.138,24.812,55.138,55.138s-24.812,55.138-55.138,55.138  s-55.138-24.812-55.138-55.138S221.735,133.908,252.062,133.908z" fill="#2b414d"/><path d="M252.062,161.477c15.36,0,27.569,12.209,27.569,27.569s-12.209,27.569-27.569,27.569  s-27.569-12.209-27.569-27.569S236.702,161.477,252.062,161.477z" fill="#1e2d36"/><path d="M246.154,173.292c5.514,0,9.846,4.332,9.846,9.846s-4.332,9.846-9.846,9.846  s-9.846-4.332-9.846-9.846S240.64,173.292,246.154,173.292z" fill="#566268"/><path d="M405.662,90.585h27.569c8.665,0,15.754,7.089,15.754,15.754v27.569  c0,8.665-7.089,15.754-15.754,15.754h-27.569c-8.665,0-15.754-7.089-15.754-15.754v-27.569  C389.908,97.674,396.997,90.585,405.662,90.585z" fill="#3f5e6d"/><path d="M86.646,153.6c12.997,0,23.631,10.634,23.631,23.631s-10.634,23.631-23.631,23.631  s-23.631-10.634-23.631-23.631S73.649,153.6,86.646,153.6z" fill="#e2574c"/><path d="M70.892,90.585H102.4c8.665,0,15.754,7.089,15.754,15.754v3.938c0,8.665-7.089,15.754-15.754,15.754  H70.892c-8.665,0-15.754-7.089-15.754-15.754v-3.938C55.138,97.674,62.228,90.585,70.892,90.585z" fill="#d2bb9a"/><path d="M0,322.954h504.123v43.323H0V322.954z" fill="#fdf3e5"/><path d="M441.108,0H63.015C28.357,0,0,28.357,0,63.015v31.508c0-34.658,28.357-63.015,63.015-63.015h378.092  c34.658,0,63.015,28.357,63.015,63.015V63.015C504.123,28.357,475.766,0,441.108,0z" fill="#f5e8d5"/><path d="M192.985,322.954h39.385v43.323h-39.385V322.954z" fill="#e9aee5"/><path d="M232.369,322.954h39.385v43.323h-39.385V322.954z" fill="#ead07b"/><path d="M271.754,322.954h39.385v43.323h-39.385V322.954z" fill="#b8db8b"/></g><g transform="matrix(0.11901833862066269 0 0 0.11901833862066269 87 158.00000042132956)" id="L1_32"><path d="M252.258,385.969c-25.994,0-47.262,21.268-47.262,47.262s21.268,47.262,47.262,47.262  s47.262-21.268,47.262-47.262S278.252,385.969,252.258,385.969z M378.289,354.462c-25.994,0-47.262,21.268-47.262,47.262  s21.268,47.262,47.262,47.262s47.262-21.268,47.262-47.262S404.283,354.462,378.289,354.462z M126.228,354.462  c-25.994,0-47.262,21.268-47.262,47.262s21.268,47.262,47.262,47.262s47.262-21.268,47.262-47.262S152.222,354.462,126.228,354.462z  " fill="#324d5b"/><path d="M107.323,233.945c79.951-49.231,209.526-49.231,289.477,0s79.951,129.182,0,178.018  c-79.951,49.231-209.526,49.231-289.477,0S27.372,283.175,107.323,233.945z" fill="#e2574c"/><path d="M127.015,400.148c-77.194-47.655-79.951-123.668-7.877-172.898  c-3.938,1.969-7.877,4.332-11.815,6.695c-79.951,49.231-79.951,129.182,0,178.018c79.951,49.231,209.526,49.231,289.477,0  c2.757-1.575,5.514-3.545,7.877-5.12C324.332,449.378,203.028,447.015,127.015,400.148z" fill="#cb4e44"/><path d="M73.846,146.117c98.462-58.289,257.969-58.289,356.431,0s98.462,153.206,0,211.495  s-257.969,58.289-356.431,0S-24.615,204.8,73.846,146.117z" fill="#324d5b"/><path d="M446.425,342.252c-98.462,58.289-257.969,58.289-356.431,0  C10.437,294.99-4.923,224.492,43.52,168.172c-66.56,58.289-56.32,138.24,30.326,189.834c98.462,58.289,257.969,58.289,356.431,0  c18.905-11.422,34.265-24.025,46.08-37.415C467.692,328.074,457.846,335.163,446.425,342.252z" fill="#2d4552"/><path d="M252.258,23.631c87.04,0,157.538,70.498,157.538,157.538S339.298,307.2,252.258,307.2  S94.72,268.209,94.72,181.169S165.218,23.631,252.258,23.631z" fill="#e4e7e7"/><path d="M94.72,181.169c0,86.646,70.105,125.637,156.357,126.031h1.182V23.631  C165.218,23.631,94.72,94.129,94.72,181.169z" fill="#d8dbdb"/><path d="M252.258,307.2c35.446,0,68.135-6.302,94.523-20.086V181.169c0-52.382-42.142-94.523-94.523-94.523  s-94.523,42.142-94.523,94.523v105.945C184.123,300.898,216.812,307.2,252.258,307.2z" fill="#3db39e"/><path d="M157.735,181.169v105.945c25.994,13.391,58.683,20.086,93.735,20.086h0.788V86.646  C199.877,86.646,157.735,129.182,157.735,181.169z" fill="#3aaa96"/><path d="M252.258,149.662c25.994,0,47.262,21.268,47.262,47.262s-21.268,47.262-47.262,47.262  s-47.262-21.268-47.262-47.262S226.265,149.662,252.258,149.662z" fill="#ffffff"/><path d="M252.258,149.662c-25.994,0-47.262,21.268-47.262,47.262s21.268,47.262,47.262,47.262V149.662z" fill="#f2f2f2"/><path d="M252.258,173.292c12.997,0,23.631,10.634,23.631,23.631s-10.634,23.631-23.631,23.631  s-23.631-10.634-23.631-23.631S239.262,173.292,252.258,173.292z" fill="#324d5b"/><path d="M252.258,173.292c-12.997,0-23.631,10.634-23.631,23.631s10.634,23.631,23.631,23.631V173.292z" fill="#2f4956"/></g><g transform="matrix(0.1538461595773697 0 0 0.1538461595773697 57 87)" id="L1_33"><path d="M70,390h33.394l32.002-69.565c-9.555-3.469-18.681-7.826-27.289-12.965L70,390z" id="XMLID_1294_" fill="#cdcdd0"/><path d="M276.606,390H310l-38.107-82.529c-8.608,5.139-17.734,9.496-27.289,12.965   L276.606,390z" id="XMLID_1295_" fill="#cdcdd0"/><path d="M70,170c0-66.273,53.726-120,120-120V10C101.634,10,30,81.635,30,170   c0,58.436,31.332,109.546,78.107,137.471c8.607,5.139,17.734,9.496,27.289,12.965C152.436,326.622,170.823,330,190,330v-40   C123.726,290,70,236.273,70,170z" id="XMLID_1296_" fill="#a2001d"/><path d="M263.58,75.206l8.031-8.031l3.536-24.748l4.777-4.777   C254.296,20.203,223.341,10,190,10v40C217.73,50,243.26,59.41,263.58,75.206z" id="XMLID_1297_" fill="#6c0014"/><path d="M350,170c0-33.341-10.203-64.297-27.649-89.925l-4.777,4.777l-24.748,3.536   l-8.032,8.031C300.589,116.74,310,142.27,310,170c0,66.273-53.726,120-120,120v40c19.177,0,37.564-3.378,54.604-9.565   c9.555-3.469,18.681-7.826,27.289-12.965C318.668,279.546,350,228.436,350,170z" id="XMLID_1298_" fill="#6c0014"/><path d="M270,170c0,44.182-35.817,80-80,80s-80-35.818-80-80c0-44.184,35.817-80,80-80   c16.67,0,32.145,5.104,44.96,13.826l28.62-28.62C243.26,59.41,217.73,50,190,50c-66.274,0-120,53.727-120,120   c0,66.273,53.726,120,120,120s120-53.727,120-120c0-27.73-9.411-53.26-25.207-73.58l-28.62,28.62   C264.896,137.854,270,153.33,270,170z" id="XMLID_1299_" fill="#ff5023"/><path d="M110,170c0,44.182,35.817,80,80,80s80-35.818,80-80   c0-16.67-5.104-32.146-13.827-44.96l-29.34,29.339c2.038,4.8,3.167,10.078,3.167,15.621c0,22.091-17.909,40-40,40s-40-17.909-40-40   c0-22.092,17.909-40,40-40c5.542,0,10.821,1.129,15.62,3.166l29.34-29.34C222.145,95.104,206.67,90,190,90   C145.817,90,110,125.816,110,170z" id="XMLID_1300_" fill="#ff9811"/><path d="M150,170c0,22.091,17.909,40,40,40s40-17.909,40-40   c0-5.543-1.128-10.821-3.167-15.621l-22.397,22.397c-5.858,5.858-15.356,5.858-21.214,0c-5.858-5.857-5.857-15.355,0-21.213   l22.397-22.398C200.821,131.129,195.542,130,190,130C167.909,130,150,147.908,150,170z" id="XMLID_1301_" fill="#ffda44"/><path d="M268.076,91.924l3.536-24.749l-8.031,8.031l-28.62,28.62l-29.34,29.34   l-22.397,22.398c-5.858,5.857-5.858,15.355,0,21.213c5.858,5.858,15.356,5.858,21.214,0l22.397-22.397l29.34-29.339l28.62-28.62   l8.032-8.031L268.076,91.924z" id="XMLID_1302_" fill="#ffffff"/><path d="M271.611,67.175 268.076,91.924 310.502,49.497 317.574,0 279.924,37.649    275.147,42.427z" id="XMLID_1303_" fill="#00d7df"/><path d="M268.076,91.924 292.825,88.389 317.573,84.853 322.351,80.075 360,42.427    310.502,49.497z" id="XMLID_1304_" fill="#00a1a7"/></g><g transform="matrix(1.0311226844787598 0 0 1.0311226844787598 78 12.00000053494523)" id="L1_34"><path d="M29.095,39.268h9.446c1.701,0,3.346,0.609,4.638,1.716l9.128,7.828  c0.611,0.524,1.505,0.614,2.184,0.183c9.496-6.01-2.022-29.728-4.305-34.034c-0.242-0.457-0.641-2.936-1.126-3.113l-7.676-2.791  c-0.673-0.245-1.422-0.155-2.017,0.242c0,0-2.164,1.383-2.649,1.383h-8.425h-6.549c-0.485,0-2.921-1.383-2.921-1.383  c-0.596-0.397-1.345-0.487-2.017-0.242L9.13,11.848c-0.486,0.177-0.884,2.656-1.126,3.113C5.721,19.267-5.797,42.985,3.699,48.995  c0.68,0.43,1.574,0.34,2.184-0.183l9.128-7.828c1.292-1.107,2.937-1.716,4.638-1.716H29.095z" fill="#38454f"/><circle cx="36" cy="30" r="4" fill="#546a79"/><circle cx="13" cy="20" r="4" fill="#546a79"/><circle cx="43" cy="16" r="2" fill="#ebba16"/><circle cx="39" cy="20" r="2" fill="#7383bf"/><circle cx="47" cy="20" r="2" fill="#d75a4a"/><circle cx="43" cy="24" r="2" fill="#61b872"/><path d="M31.786,11.712c0-0.192-0.019-0.38-0.054-0.561c-0.035-0.181-0.111-0.338-0.215-0.469  c-1.171,0-2.08,0-2.479,0c-0.085,0.007-0.165,0.03-0.251,0.03c-0.087,0-0.167-0.022-0.251-0.03c-0.013,0-0.242,0-0.242,0h-2.247  c-0.088,0.114-0.158,0.245-0.192,0.4c-0.087,0.398-0.094,0.827,0,1.271c0.248,1.17,1.225,2.113,2.404,2.314  C30.148,14.989,31.786,13.542,31.786,11.712z" fill="#afb6bb"/><path d="M27.286,27.921H24v-3.286c0-0.395-0.32-0.714-0.714-0.714h-2.571c-0.395,0-0.714,0.32-0.714,0.714  v3.286h-3.286c-0.395,0-0.714,0.32-0.714,0.714v2.571c0,0.395,0.32,0.714,0.714,0.714H20v3.286c0,0.395,0.32,0.714,0.714,0.714  h2.571c0.395,0,0.714-0.32,0.714-0.714v-3.286h3.286c0.395,0,0.714-0.32,0.714-0.714v-2.571C28,28.241,27.68,27.921,27.286,27.921z" fill="#546a79"/></g><g transform="matrix(0.28284268709835103 0.8013876967476474 -0.8013876967476474 0.28284268709835103 290.55584961046276 15.472587805603936)" id="L1_35"><g><path d="M1.952,56.319c-0.103,0-0.206-0.016-0.31-0.049C1.322,56.165,1,56.058,0.676,55.947    c-0.522-0.18-0.801-0.748-0.622-1.271c0.18-0.522,0.747-0.799,1.271-0.622c0.314,0.107,0.626,0.213,0.937,0.313    c0.524,0.171,0.813,0.735,0.642,1.261C2.765,56.05,2.373,56.319,1.952,56.319z" fill="#7383bf"/><path d="M17.86,58.89c-0.529,0-0.97-0.42-1-0.95c0-0.02,0-0.04,0-0.05c0-0.54,0.421-0.979,0.96-1    c0.7-0.04,1.33-0.09,1.931-0.17c0.55-0.06,1.05,0.33,1.12,0.87c0.069,0.55-0.32,1.05-0.86,1.12c-0.69,0.08-1.39,0.14-2.1,0.18    C17.9,58.89,17.88,58.89,17.86,58.89z M13.82,58.82c-0.029,0-0.05,0-0.079,0c-0.671-0.05-1.36-0.119-2.061-0.21    c-0.5-0.069-0.88-0.489-0.88-0.989c0-0.051,0-0.09,0.01-0.13c0.07-0.54,0.57-0.931,1.12-0.87l0.01,0.05l0.011-0.05    c0.64,0.09,1.3,0.149,1.939,0.199c0.55,0.04,0.96,0.53,0.92,1.08C14.77,58.42,14.34,58.82,13.82,58.82z M7.81,57.92    c-0.069,0-0.14-0.01-0.21-0.021c-0.62-0.14-1.28-0.29-1.939-0.46l-0.07-0.01c-0.26-0.07-0.47-0.24-0.61-0.47    c-0.14-0.23-0.17-0.5-0.109-0.75c0.14-0.53,0.689-0.86,1.22-0.72c0.63,0.159,1.28,0.31,1.93,0.449C8.281,56,8.51,56.16,8.65,56.38    c0.15,0.22,0.19,0.49,0.141,0.75C8.69,57.59,8.281,57.92,7.81,57.92z M23.83,57.84c-0.44,0-0.82-0.271-0.95-0.68    c-0.04-0.11-0.05-0.221-0.05-0.32c0-0.43,0.27-0.81,0.68-0.95c0.61-0.2,1.21-0.43,1.771-0.7c0.489-0.229,1.109,0,1.329,0.48    c0.24,0.5,0.021,1.09-0.479,1.33c-0.6,0.28-1.25,0.54-1.93,0.77l0,0L24.14,57.79C24.04,57.83,23.94,57.84,23.83,57.84z     M29.08,54.88c-0.29,0-0.561-0.12-0.74-0.33c-0.17-0.19-0.26-0.43-0.26-0.67c0-0.29,0.12-0.561,0.33-0.74    c0.46-0.42,0.89-0.87,1.279-1.35c0.33-0.42,0.99-0.49,1.4-0.15c0.21,0.16,0.34,0.4,0.37,0.67c0.03,0.26-0.05,0.521-0.21,0.73    c-0.431,0.529-0.9,1.029-1.41,1.5l0,0l-0.09,0.09C29.57,54.79,29.33,54.88,29.08,54.88z M32.46,49.91L32.46,49.91    c-0.12,0-0.24-0.021-0.351-0.061c-0.39-0.149-0.64-0.51-0.649-0.93c0-0.12,0.02-0.25,0.07-0.36c0.22-0.58,0.399-1.18,0.55-1.81    c0.13-0.53,0.67-0.87,1.2-0.74c0.539,0.12,0.869,0.66,0.75,1.2c-0.171,0.71-0.381,1.399-0.631,2.06    C33.25,49.65,32.88,49.91,32.46,49.91z M33.52,43.96h-0.01c-0.55,0-0.979-0.44-0.99-0.98v-0.02c0-0.05,0-0.09,0-0.13    s0-0.09,0-0.13c0-0.54-0.02-1.11-0.06-1.681c-0.021-0.27,0.06-0.529,0.229-0.729c0.181-0.2,0.42-0.33,0.69-0.351    c0.57-0.04,1.03,0.38,1.07,0.931c0.05,0.62,0.069,1.229,0.069,1.83c0,0.09,0,0.189,0,0.279C34.51,43.52,34.06,43.96,33.52,43.96z     M32.871,37.94c-0.46,0-0.86-0.319-0.971-0.75l-0.01-0.04c-0.01-0.02-0.01-0.04-0.01-0.06c-0.14-0.63-0.29-1.26-0.46-1.86    c-0.14-0.529,0.17-1.08,0.71-1.229c0.51-0.141,1.08,0.189,1.22,0.71c0.19,0.67,0.351,1.35,0.5,2.02l0.01,0.061h-0.01    c0.01,0.05,0.021,0.09,0.021,0.14c0,0.47-0.33,0.88-0.79,0.98C33.01,37.93,32.94,37.94,32.871,37.94z M31.15,32.12    c-0.42,0-0.8-0.271-0.939-0.66c-0.15-0.38-0.28-0.73-0.42-1.09c-0.11-0.271-0.21-0.53-0.311-0.79    c-0.1-0.25-0.09-0.521,0.021-0.761c0.109-0.25,0.31-0.43,0.56-0.529c0.5-0.19,1.101,0.08,1.29,0.58c0.09,0.25,0.19,0.5,0.29,0.76    c0.15,0.35,0.29,0.729,0.44,1.14c0.04,0.11,0.06,0.221,0.069,0.34c0,0.421-0.27,0.801-0.659,0.94    C31.38,32.1,31.26,32.12,31.15,32.12z M29.121,26.39L29.121,26.39c-0.44,0-0.84-0.3-0.96-0.72c-0.2-0.7-0.38-1.38-0.53-2.01    c-0.12-0.54,0.21-1.08,0.75-1.2c0.53-0.13,1.08,0.21,1.2,0.74c0.14,0.59,0.31,1.22,0.5,1.909c0.029,0.091,0.04,0.181,0.04,0.271    c0.01,0.45-0.29,0.84-0.721,0.97C29.31,26.38,29.22,26.39,29.121,26.39z M27.9,20.44c-0.51,0-0.93-0.38-0.989-0.88    c-0.08-0.71-0.13-1.41-0.16-2.1c-0.021-0.55,0.41-1.01,0.96-1.03c0.55-0.06,1.02,0.41,1.04,0.96c0.02,0.61,0.069,1.25,0.149,1.94    l0,0c0,0.029,0,0.069,0,0.1c0.011,0.521-0.369,0.95-0.88,1.01C27.98,20.44,27.94,20.44,27.9,20.44z M27.97,14.39    c-0.06,0-0.11-0.01-0.16-0.01c-0.479-0.08-0.84-0.51-0.84-0.99c0-0.05,0-0.109,0.01-0.16c0.12-0.729,0.271-1.43,0.45-2.09    c0.15-0.52,0.72-0.84,1.23-0.689c0.54,0.149,0.85,0.699,0.699,1.229c-0.17,0.58-0.3,1.19-0.39,1.8l-0.01,0.061    C28.88,14.031,28.46,14.39,27.97,14.39z M30.01,8.72c-0.19,0-0.37-0.06-0.53-0.16c-0.29-0.18-0.46-0.5-0.46-0.84    c0-0.189,0.05-0.37,0.15-0.54c0.39-0.61,0.83-1.2,1.31-1.74C30.83,5.04,31.5,5,31.9,5.35c0.41,0.37,0.44,1,0.08,1.42    c-0.41,0.46-0.79,0.96-1.12,1.48C30.68,8.54,30.36,8.72,30.01,8.72z M58.05,4.68c-0.1,0-0.21-0.01-0.31-0.05    c-0.021,0-0.04-0.01-0.07-0.021c-0.4-0.13-0.68-0.51-0.69-0.939c0-0.11,0.021-0.21,0.051-0.32c0.17-0.51,0.739-0.8,1.26-0.64    c0.029,0.01,0.06,0.02,0.08,0.03c0.25,0.079,0.449,0.25,0.569,0.489C59.06,3.47,59.09,3.74,59,3.99    C58.871,4.41,58.491,4.68,58.05,4.68z M34.35,4.55c-0.35,0-0.68-0.19-0.859-0.49C33.4,3.91,33.35,3.74,33.35,3.56    c0-0.359,0.19-0.689,0.5-0.87c0.61-0.35,1.26-0.68,1.931-0.96c0.5-0.199,1.1,0.051,1.31,0.54c0.21,0.511-0.03,1.101-0.54,1.311    c-0.59,0.239-1.16,0.529-1.69,0.84C34.71,4.51,34.531,4.55,34.35,4.55z M54.1,3.531c-0.09,0-0.17-0.011-0.25-0.021    c-0.7-0.18-1.33-0.32-1.93-0.45c-0.47-0.1-0.8-0.51-0.8-0.979c0-0.07,0.01-0.141,0.02-0.21c0.11-0.521,0.65-0.88,1.19-0.771    c0.649,0.141,1.33,0.3,2.01,0.47c0.53,0.131,0.86,0.671,0.72,1.211C54.951,3.22,54.55,3.531,54.1,3.531z M40.05,2.55    c-0.49,0-0.9-0.35-0.98-0.83c-0.01-0.06-0.02-0.12-0.02-0.18c0-0.48,0.35-0.891,0.83-0.971c0.66-0.119,1.36-0.21,2.1-0.27    c0.561-0.05,1.03,0.37,1.08,0.91c0.04,0.55-0.37,1.04-0.92,1.08c-0.649,0.06-1.3,0.14-1.92,0.25C40.161,2.55,40.1,2.55,40.05,2.55    z M48.121,2.43c-0.03,0-0.07,0-0.11-0.01c-0.66-0.07-1.32-0.13-1.96-0.17c-0.53-0.021-0.95-0.47-0.94-1c0-0.021,0-0.03,0-0.05    c0.03-0.551,0.511-0.96,1.051-0.94c0.649,0.03,1.35,0.09,2.08,0.17c0.26,0.03,0.5,0.16,0.659,0.37c0.17,0.21,0.25,0.47,0.221,0.74    C49.06,2.05,48.63,2.43,48.121,2.43z" fill="#7383bf"/><path d="M59,5c-0.107,0-0.217-0.018-0.324-0.054c-0.314-0.107-0.627-0.213-0.938-0.313    c-0.524-0.171-0.813-0.735-0.642-1.261c0.171-0.524,0.73-0.813,1.261-0.642c0.32,0.104,0.643,0.212,0.967,0.323    c0.522,0.18,0.801,0.748,0.622,1.271C59.804,4.739,59.416,5,59,5z" fill="#7383bf"/></g><path d="M5,60c-0.416,0-0.804-0.261-0.946-0.676c-4.449-12.989-3.676-23.606,2.123-29.129   c5.272-5.02,14.116-5.421,24.909-1.124c9.933,3.953,17.922,3.733,22.496-0.624c5.158-4.911,5.694-14.798,1.472-27.123   c-0.179-0.522,0.1-1.091,0.622-1.271c0.522-0.177,1.091,0.1,1.271,0.622c4.486,13.097,3.763,23.747-1.984,29.22   c-5.172,4.928-13.913,5.294-24.616,1.033C20.326,26.94,12.23,27.195,7.557,31.644c-5.209,4.961-5.796,14.813-1.61,27.032   c0.179,0.522-0.1,1.091-0.622,1.271C5.217,59.983,5.108,60,5,60z" fill="#d75a4a"/><path d="M24.816,57.473c-0.256,0-0.512-0.098-0.707-0.293L3.08,36.152c-0.391-0.391-0.391-1.023,0-1.414   s1.023-0.391,1.414,0l21.028,21.028c0.391,0.391,0.391,1.023,0,1.414C25.328,57.375,25.072,57.473,24.816,57.473z" fill="#57abc1"/><path d="M14.9,58.87c-0.256,0-0.512-0.098-0.707-0.293L1.504,45.889c-0.391-0.391-0.391-1.023,0-1.414   s1.023-0.391,1.414,0l12.688,12.688c0.391,0.391,0.391,1.023,0,1.414C15.412,58.773,15.156,58.87,14.9,58.87z" fill="#eb7937"/><path d="M58.86,15.889c-0.256,0-0.512-0.098-0.707-0.293L44.488,1.931c-0.391-0.391-0.391-1.023,0-1.414   s1.023-0.391,1.414,0l13.665,13.665c0.391,0.391,0.391,1.023,0,1.414C59.372,15.791,59.116,15.889,58.86,15.889z" fill="#ebba16"/><path d="M57.327,25.669c-0.256,0-0.512-0.098-0.707-0.293L34.879,3.637c-0.391-0.391-0.391-1.023,0-1.414   s1.023-0.391,1.414,0l21.74,21.739c0.391,0.391,0.391,1.023,0,1.414C57.838,25.572,57.582,25.669,57.327,25.669z" fill="#1081e0"/><path d="M52.133,31.79c-0.256,0-0.512-0.098-0.707-0.293L28.974,9.044c-0.391-0.391-0.391-1.023,0-1.414   c0.391-0.391,1.023-0.391,1.414,0L52.84,30.083c0.391,0.391,0.391,1.023,0,1.414C52.645,31.693,52.389,31.79,52.133,31.79z" fill="#659c35"/><path d="M42.896,33.866c-0.256,0-0.512-0.098-0.707-0.293L27.086,18.471c-0.391-0.391-0.391-1.023,0-1.414   s1.023-0.391,1.414,0l15.103,15.103c0.391,0.391,0.391,1.023,0,1.414C43.408,33.769,43.152,33.866,42.896,33.866z" fill="#fc3952"/><path d="M33.516,43.545c-0.256,0-0.512-0.098-0.707-0.293L17.4,27.843c-0.391-0.391-0.391-1.023,0-1.414   s1.023-0.391,1.414,0l15.409,15.409c0.391,0.391,0.391,1.023,0,1.414C34.028,43.448,33.772,43.545,33.516,43.545z" fill="#23a24d"/><path d="M31.136,52.48c-0.256,0-0.512-0.098-0.707-0.293l-22.16-22.16c-0.391-0.391-0.391-1.023,0-1.414   s1.023-0.391,1.414,0l22.16,22.16c0.391,0.391,0.391,1.023,0,1.414C31.648,52.382,31.392,52.48,31.136,52.48z" fill="#bf4d90"/></g><g transform="matrix(1.034482717514038 0 0 1.034482717514038 83 218)" id="L1_36"><path d="M52.232,44.235c-1.039-0.285-2.039-0.297-2.969-0.112c-0.632,0.126-1.286-0.008-1.788-0.411   l-1.411-1.132c-0.766-0.614-0.992-1.665-0.585-2.559c0.377-0.829,0.69-1.693,0.932-2.587c0.402-1.487,2.008-2.394,3.444-1.838   c1.535,0.593,3.311,0.557,4.908-0.266c2.772-1.429,3.996-4.918,2.728-7.767c-1.364-3.066-4.967-4.413-8.002-3.009   c-0.266,0.123-0.563,0.312-0.868,0.535c-1.36,0.995-3.169,0.637-4.034-0.809c-0.546-0.913-1.215-1.741-1.882-2.571   c-0.883-1.098-1.037-2.618-0.387-3.878l1.479-2.871c0.55-1.068,1.57-1.871,2.765-1.988c0.603-0.059,1.226-0.22,1.865-0.512   c1.888-0.864,3.284-2.642,3.537-4.703c0.486-3.963-2.896-7.283-6.876-6.689c-2.527,0.377-4.589,2.411-4.996,4.933   c-0.197,1.221-0.025,2.386,0.423,3.404c0.459,1.045,0.499,2.226-0.024,3.241l-1.158,2.249c-0.805,1.563-2.612,2.394-4.29,1.87   c-0.981-0.306-2.718-0.523-3.92-0.644c-0.787-0.079-1.438-0.646-1.621-1.416L28.36,9.904c-0.141-0.594,0.036-1.207,0.435-1.669   c0.945-1.093,1.431-2.589,1.119-4.212c-0.371-1.933-1.91-3.514-3.838-3.913C22.849-0.557,20.009,1.89,20.009,5   c0,2.146,1.356,3.962,3.256,4.668c0.611,0.227,1.095,0.705,1.246,1.339l0.913,3.852c0.219,0.925-0.304,1.849-1.198,2.172   c-1.281,0.462-2.491,1.072-3.608,1.813c-0.802,0.531-1.895,0.519-2.642-0.086c-0.815-0.661-0.991-1.728-0.603-2.64   c0.628-1.474,0.829-3.173,0.429-4.95c-0.683-3.039-3.181-5.446-6.243-6.021c-5.63-1.057-10.471,3.79-9.402,9.422   c0.603,3.175,3.181,5.722,6.36,6.297c1.408,0.254,2.765,0.139,3.991-0.264c0.847-0.279,1.776,0.029,2.335,0.724l0.4,0.498   c0.574,0.714,0.636,1.706,0.167,2.493c-1.177,1.973-1.964,4.202-2.258,6.587c-0.122,0.992-0.904,1.771-1.9,1.86l-1.899,0.17   c-0.65,0.058-1.266-0.211-1.732-0.667c-0.721-0.705-1.688-1.181-2.83-1.258c-1.783-0.12-3.526,0.87-4.309,2.477   c-1.295,2.657,0.195,5.671,2.899,6.372c1.949,0.505,3.916-0.356,4.926-1.979c0.363-0.584,1.017-0.926,1.702-0.987l1.631-0.146   c0.987-0.088,1.888,0.529,2.192,1.472c0.669,2.076,1.728,3.977,3.089,5.618c0.487,0.587,0.459,1.443-0.051,2.009   c-0.425,0.472-1.085,0.609-1.69,0.416c-0.687-0.219-1.434-0.307-2.209-0.233c-2.498,0.237-4.582,2.233-4.913,4.721   c-0.497,3.738,2.765,6.871,6.537,6.15c1.964-0.376,3.596-1.867,4.172-3.783c0.28-0.93,0.303-1.829,0.139-2.661   c-0.092-0.468,0.051-0.95,0.37-1.305l0.785-0.871c0.472-0.524,1.243-0.673,1.862-0.336c0.489,0.266,0.993,0.508,1.51,0.726   c1.104,0.464,1.704,1.618,1.598,2.81c-0.051,0.575-0.019,1.174,0.11,1.787c0.528,2.504,2.683,4.44,5.228,4.703   c3.6,0.372,6.638-2.443,6.638-5.967c0-0.384-0.037-0.76-0.107-1.124c-0.23-1.199,0.257-2.415,1.325-3.006   c0.984-0.545,1.909-1.185,2.761-1.909c0.525-0.446,1.222-0.7,1.891-0.531c1.365,0.345,1.95,1.682,1.526,2.836   c-0.376,1.023-0.502,2.167-0.301,3.36c0.463,2.746,2.736,4.939,5.495,5.313c4.215,0.571,7.784-2.901,7.378-7.088   C56.721,47.208,54.792,44.938,52.232,44.235z" fill="#694f87"/><circle cx="33" cy="25" r="1" fill="#bf4d90"/><circle cx="22" cy="37" r="1" fill="#bf4d90"/><circle cx="42" cy="40" r="1" fill="#bf4d90"/><circle cx="49" cy="30" r="1" fill="#bf4d90"/><circle cx="38" cy="21" r="1" fill="#bf4d90"/><circle cx="31" cy="42" r="5" fill="#bf4d90"/><circle cx="23" cy="28" r="3" fill="#bf4d90"/><circle cx="40" cy="31" r="3" fill="#bf4d90"/><circle cx="31" cy="45" r="1" fill="#ef7bc3"/><circle cx="13" cy="54" r="1" fill="#ef7bc3"/><circle cx="5" cy="33" r="1" fill="#ef7bc3"/><circle cx="4" cy="12" r="1" fill="#ef7bc3"/><circle cx="23" cy="4" r="1" fill="#ef7bc3"/><circle cx="47" cy="9" r="1" fill="#ef7bc3"/><circle cx="50" cy="54" r="1" fill="#ef7bc3"/><circle cx="54" cy="27" r="1" fill="#ef7bc3"/><circle cx="32" cy="54" r="1" fill="#ef7bc3"/><circle cx="40" cy="29" r="1" fill="#ef7bc3"/><circle cx="22" cy="29" r="1" fill="#ef7bc3"/></g><g transform="matrix(0.1304347813129425 0 0 0.1304347813129425 6.999999487304649 157)" id="L1_37"><rect x="10px" y="0px" width="346px" height="460px" fill="#edeef0"/><rect x="55px" y="40px" width="138px" height="10px" opacity="0.4" fill="#5b5b5f"/><rect x="55px" y="86px" width="255px" height="10px" opacity="0.4" fill="#5b5b5f"/><rect x="55px" y="132px" width="255px" height="10px" opacity="0.4" fill="#5b5b5f"/><rect x="55px" y="178px" width="255px" height="10px" opacity="0.4" fill="#5b5b5f"/><rect x="55px" y="225px" width="255px" height="10px" opacity="0.4" fill="#5b5b5f"/><rect x="55px" y="271px" width="255px" height="10px" opacity="0.4" fill="#5b5b5f"/><rect x="55px" y="317px" width="255px" height="10px" opacity="0.4" fill="#5b5b5f"/><rect x="55px" y="363px" width="255px" height="10px" opacity="0.4" fill="#5b5b5f"/><rect x="55px" y="409px" width="255px" height="10px" opacity="0.4" fill="#5b5b5f"/><circle cx="284" cy="279" r="75" fill="#90c5ff"/><rect x="380px" y="344px" width="33px" height="96px" transform="matrix(-0.7071 0.7071 -0.7071 -0.7071 956.0737 389.4254)" fill="#59595a"/><rect x="343px" y="350px" width="33px" height="9px" transform="matrix(-0.7071 0.7071 -0.7071 -0.7071 865.741 352.0067)" fill="#abcb57"/><rect x="418px" y="425px" width="33px" height="9px" transform="matrix(-0.7071 0.7071 -0.7071 -0.7071 1046.4071 426.8424)" fill="#abcb57"/><g><path d="M413.608,308.509 407.167,325.08 196.752,243.388     203.182,226.815z" opacity="0.2" fill="#ffffff"/><path d="M433.666,284.79 427.221,301.366 216.805,219.674     223.227,203.109z" opacity="0.2" fill="#ffffff"/></g><path d="M367.923,279.381c0-22.403-8.724-43.466-24.566-59.308c-15.842-15.841-36.904-24.566-59.307-24.565  c-22.403,0-43.466,8.724-59.307,24.565c-15.842,15.842-24.566,36.904-24.566,59.308c0,22.403,8.724,43.466,24.566,59.307  c15.842,15.842,36.904,24.566,59.307,24.566c19.462,0,37.907-6.591,52.801-18.705l13.713,13.713l12.367-12.367l-13.713-13.713  C361.332,317.288,367.923,298.843,367.923,279.381z M284.05,345.932c-17.776,0-34.489-6.922-47.058-19.492  c-12.57-12.569-19.492-29.282-19.492-47.058c0-17.776,6.923-34.489,19.492-47.058c12.57-12.57,29.282-19.492,47.058-19.493  c17.776,0,34.489,6.923,47.058,19.493c12.57,12.569,19.492,29.282,19.492,47.058s-6.923,34.489-19.492,47.058  C318.538,339.009,301.826,345.932,284.05,345.932z" fill="#59595a"/><path d="M367.923,279.381c0-22.403-8.724-43.466-24.566-59.307  c-15.842-15.842-36.904-24.566-59.307-24.566s-43.466,8.724-59.307,24.566l12.249,12.249c12.57-12.57,29.282-19.492,47.058-19.492  c17.777,0,34.489,6.923,47.058,19.492c12.57,12.57,19.492,29.282,19.492,47.058c0,17.777-6.923,34.489-19.492,47.058l11.356,11.356  l0.893,0.893l13.391,13.391l3.225,3.225l78.06,78.06l11.818-11.818l-6.45-6.45l-68.385-68.385l-6.45-6.45l-5.635,5.635l-13.71-13.71  C361.335,317.291,367.923,298.843,367.923,279.381z" opacity="0.4" fill="#5b5b5f"/></g><g transform="matrix(0.1304347813129425 0 0 0.1304347813129425 177 208)" id="L1_38"><path d="M370.898,143.68c-0.204-0.108-0.413-0.212-0.617-0.32c0.009-0.231,0.023-0.464,0.031-0.694  c1.709-48.474-13.321-84.39-42.321-101.133c-29.001-16.744-67.62-11.802-108.745,13.916c-0.196,0.122-0.39,0.251-0.586,0.375  c-0.195-0.123-0.39-0.252-0.586-0.375C176.949,29.732,138.33,24.79,109.329,41.533c-29,16.743-44.03,52.66-42.321,101.133  c0.008,0.23,0.023,0.464,0.031,0.694c-0.204,0.108-0.413,0.212-0.617,0.32C23.59,166.437,0,197.411,0,230.898  s23.59,64.461,66.424,87.218c0.204,0.108,0.413,0.212,0.617,0.32c-0.009,0.231-0.023,0.464-0.031,0.694  c-1.709,48.474,13.321,84.391,42.321,101.134c11.29,6.518,24.031,9.75,37.816,9.749c21.626-0.001,45.813-7.958,70.929-23.665  c0.196-0.122,0.39-0.251,0.586-0.375c0.195,0.123,0.39,0.252,0.586,0.375c25.118,15.708,49.3,23.665,70.928,23.665  c13.783,0,26.529-3.232,37.816-9.749c29-16.743,44.031-52.66,42.321-101.134c-0.008-0.23-0.023-0.464-0.031-0.694  c0.204-0.108,0.413-0.212,0.617-0.32c42.834-22.756,66.424-53.731,66.424-87.218S413.732,166.437,370.898,143.68z M306.005,281.326  c-9.593,16.616-20.186,32.157-31.485,46.323c-17.917,2.702-36.673,4.105-55.859,4.105s-37.942-1.403-55.859-4.105  c-11.299-14.166-21.892-29.707-31.485-46.323s-17.756-33.561-24.374-50.428c6.619-16.868,14.781-33.812,24.374-50.428  s20.187-32.157,31.485-46.323c17.917-2.702,36.672-4.105,55.859-4.105s37.942,1.404,55.859,4.105  c11.299,14.166,21.892,29.707,31.485,46.323s17.755,33.56,24.374,50.428C323.761,247.766,315.599,264.71,306.005,281.326z   M340.033,259.148c4.692,16.156,7.854,32.022,9.37,47.233c-13.931,6.292-29.253,11.488-45.59,15.502  c6.856-9.736,13.385-19.943,19.513-30.558S335.029,269.954,340.033,259.148z M218.661,381.865  c-12.415-8.918-24.575-19.59-36.22-31.731c11.859,1.07,23.964,1.62,36.22,1.62s24.361-0.55,36.22-1.62  C243.236,362.275,231.076,372.947,218.661,381.865z M133.51,321.884c-16.337-4.015-31.659-9.209-45.59-15.502  c1.516-15.211,4.678-31.078,9.37-47.233c5.003,10.806,10.579,21.564,16.707,32.178C120.125,301.94,126.654,312.148,133.51,321.884z   M113.997,170.47c-6.128,10.614-11.704,21.372-16.707,32.178c-4.692-16.156-7.854-32.023-9.37-47.233  c13.931-6.292,29.253-11.487,45.59-15.502C126.654,149.648,120.125,159.856,113.997,170.47z M218.661,79.931  c12.415,8.918,24.575,19.59,36.22,31.731c-11.86-1.07-23.964-1.62-36.22-1.62s-24.36,0.55-36.22,1.62  C194.087,99.521,206.247,88.85,218.661,79.931z M323.326,170.47c-6.128-10.614-12.657-20.822-19.513-30.558  c16.337,4.015,31.659,9.209,45.59,15.502c-1.516,15.211-4.678,31.078-9.37,47.233C335.029,191.842,329.454,181.084,323.326,170.47z   M290.073,51.786c10.331,0,19.734,2.341,27.918,7.067c20.821,12.021,32.21,38.575,32.447,75.224  c-19.76-8.177-41.788-14.386-65.229-18.444c-15.232-18.268-31.62-34.238-48.578-47.261C255.961,57.38,274.127,51.786,290.073,51.786  z M119.331,58.853c8.186-4.726,17.585-7.067,27.918-7.067c15.946,0,34.114,5.595,53.442,16.586  c-16.958,13.023-33.347,28.993-48.578,47.261c-23.44,4.058-45.469,10.267-65.229,18.444C87.122,97.428,98.51,70.874,119.331,58.853z   M20,230.898c0-24.042,17.303-47.182,48.922-65.711c2.799,21.201,8.436,43.383,16.642,65.711  c-8.206,22.329-13.843,44.51-16.642,65.711C37.303,278.08,20,254.94,20,230.898z M119.331,402.944  c-20.821-12.021-32.209-38.575-32.446-75.224c19.76,8.177,41.788,14.386,65.229,18.444c15.234,18.271,31.625,34.243,48.587,47.268  C168.842,411.55,140.15,414.965,119.331,402.944z M317.992,402.944c-20.821,12.021-49.512,8.607-81.369-9.512  c16.961-13.024,33.353-28.997,48.587-47.268c23.44-4.058,45.469-10.267,65.229-18.444  C350.201,364.368,338.813,390.923,317.992,402.944z M368.4,296.609c-2.799-21.201-8.436-43.382-16.642-65.711  c8.206-22.329,13.843-44.51,16.642-65.712c31.619,18.53,48.922,41.669,48.922,65.711S400.02,278.08,368.4,296.609z" fill="#59595a"/><circle cx="427" cy="230" r="32" fill="#abcb57"/><circle cx="115" cy="409" r="32" fill="#e5c400"/><circle cx="114" cy="50" r="32" fill="#c8523b"/><circle cx="218" cy="231" r="32" fill="#808083"/></g><g transform="matrix(0.13043251633644104 0 0 0.13043251633644104 173 143)" id="L1_39"><path d="M380.358,176.064 460.004,96.418 363.586,0 283.947,79.638z" fill="#b9bbbc"/><rect x="242px" y="119px" width="171px" height="24px" transform="matrix(-0.7071 -0.7071 0.7071 -0.7071 467.5883 456.8631)" fill="#444242"/><path d="M340.542,154.408c32.782,32.797,59.369,59.377,59.369,59.377L172.058,441.629  c-27.719,27.728-76.772,23.614-109.562-9.176l-34.939-34.954C-5.23,364.71-9.345,315.65,18.382,287.938L246.219,60.093  c0,0,26.58,26.58,59.376,59.361L340.542,154.408z" fill="#59595a"/><path d="M369.818,60.078 345.874,36.11 362.499,19.469 386.451,43.445z" fill="#59595a"/><path d="M426.59,116.827 402.653,92.897 419.279,76.272 443.216,100.209z" fill="#59595a"/><path d="M340.75,126.325 333.68,119.253 344.887,108.046 332.66,95.819 362.632,65.848   374.858,78.074 408.26,44.673 415.33,51.745 374.858,92.217 362.632,79.99 346.803,95.819 359.029,108.046z" fill="#ffffff"/><path d="M383.763,197.638l14.151-14.151l-12.49-12.49l74.579-74.58  l-48.209-48.209L45.028,414.976l17.469,17.476c32.789,32.789,81.843,36.904,109.562,9.176l227.853-227.844  C399.911,213.785,393.768,207.643,383.763,197.638z" opacity="0.3" fill="#5b5b5f"/></g><g transform="matrix(0.1171875 0 0 0.1171875 -20 224)" id="L1_41"><path d="M340.299,384l-76.127-137.023c-0.018,0.005-0.035,0.01-0.052,0.015V384H340.299z" fill="none"/><path d="M248.12,384V246.992c-0.02-0.005-0.04-0.012-0.06-0.017L171.936,384H248.12z" fill="none"/><path d="M264.12,384 264.12,400 349.188,400 340.299,384z" fill="#888693"/><path d="M171.936,384 163.048,400 248.12,400 248.12,384z" fill="#888693"/><path d="M504.166,62.273c-8.96-21.619-25.374-39.016-46.409-49.328l48.474,117.02   C513.815,107.806,513.125,83.895,504.166,62.273z" fill="#48bbee"/><path d="M133.659,217.722 386.112,111.749 364.494,59.556 103.448,169.137 112.04,165.53z" fill="#b6b8be"/><path d="M386.336,112.29L386.336,112.29l-0.224-0.541L133.659,217.722l0.105,0.253h0L154.899,269   l-8.561,3.594l85.418-35.856c-4.76-5.586-7.639-12.824-7.639-20.738c0-17.673,14.327-32,32-32   c16.707,0,30.416,12.805,31.866,29.135l119.369-50.108c-0.004-0.01-0.01-0.021-0.014-0.031L386.336,112.29z" fill="#888693"/><path d="M386.336,112.29l95.897-40.256l27.316,65.943l-3.319-8.011l-48.474-117.02l-3.317-8.008   c-0.813-1.961-2.367-3.516-4.328-4.328c-1.969-0.813-4.156-0.813-6.125,0l-66.516,27.555c-5.922,2.449-10.531,7.063-12.992,12.984   c-2.453,5.922-2.453,12.449,0,18.371l0.015,0.036l21.618,52.193L386.336,112.29z" fill="#ff4f19"/><path d="M46.109,218.865 46.112,218.871 70.604,277.992 70.604,277.993 122.349,256.56    97.853,197.433z" fill="#5c546a"/><path d="M248.06,246.975c-5.327-1.382-10.109-4.107-13.979-7.785L89.127,500.113   c-2.148,3.863-0.758,8.734,3.109,10.879c1.227,0.684,2.563,1.008,3.875,1.008c2.813,0,5.539-1.484,7-4.113L163.048,400l8.889-16   L248.06,246.975z" fill="#5c546a"/><path d="M340.299,384l8.889,16l59.939,107.887c1.461,2.629,4.188,4.113,7,4.113   c1.313,0,2.648-0.324,3.875-1.008c3.867-2.145,5.258-7.016,3.109-10.879l-144.96-260.919c-3.869,3.677-8.652,6.401-13.979,7.782   L340.299,384z" fill="#5c546a"/><path d="M264.12,246.991c-2.558,0.658-5.239,1.009-8.001,1.009c-2.762,0-5.442-0.35-7.999-1.008V384v16v104   c0,4.418,3.578,8,8,8s8-3.582,8-8V400v-16V246.991z" fill="#5c546a"/><path d="M110.423,227.774l23.341-9.798l-0.105-0.253L112.04,165.53l-8.593,3.607   c-3.945,1.637-7.023,4.711-8.656,8.656c-1.641,3.953-1.641,8.305,0,12.25l3.062,7.39l24.496,59.127l3.06,7.385L110.423,227.774z" fill="#ff4f19"/><path d="M133.765,217.976L133.765,217.976l-23.341,9.798l14.985,36.171c1.633,3.953,4.703,7.027,8.656,8.664   c1.969,0.816,4.039,1.227,6.109,1.227c2.086,0,4.172-0.414,6.164-1.242l8.561-3.594L133.765,217.976z" fill="#e5001e"/><path d="M482.233,72.034l-95.897,40.256h0l21.002,50.707c0.005,0.011,0.01,0.021,0.014,0.031   c3.835,9.211,12.778,14.781,22.197,14.781c3.055,0,6.156-0.586,9.148-1.824l66.523-27.555c1.961-0.813,3.516-2.367,4.328-4.328   s0.813-4.164,0-6.125L482.233,72.034z" fill="#e5001e"/><path d="M58.666,249.176l11.938,28.816l-24.492-59.121c-0.001-0.002-0.002-0.004-0.003-0.006   c-3.369-8.148-12.749-12.029-20.904-8.662l-14.781,6.125c-8.141,3.379-12.023,12.754-8.656,20.906l24.492,59.121l-11.936-28.813   L58.666,249.176z" fill="#ff4f19"/><path d="M58.666,249.176l-44.342,18.367l11.936,28.813c1.633,3.953,4.703,7.031,8.656,8.664   c1.977,0.82,4.047,1.227,6.125,1.227c2.07,0,4.148-0.41,6.125-1.227l14.781-6.125c3.953-1.633,7.023-4.707,8.656-8.656   c1.641-3.949,1.641-8.3,0-12.245c0,0,0-0.001,0-0.001L58.666,249.176z" fill="#e5001e"/><path d="M256.118,184c-17.673,0-32,14.327-32,32c0,7.914,2.879,15.152,7.639,20.738   c0.731,0.858,1.508,1.677,2.325,2.453c3.869,3.678,8.651,6.403,13.979,7.785c0.02,0.005,0.04,0.012,0.06,0.017   c2.556,0.658,5.237,1.008,7.999,1.008c2.763,0,5.444-0.35,8.001-1.009c0.018-0.005,0.035-0.01,0.052-0.015   c5.327-1.381,10.11-4.105,13.979-7.782c6.135-5.83,9.967-14.062,9.967-23.194c0-0.966-0.05-1.921-0.134-2.865   C286.534,196.805,272.825,184,256.118,184z M256.118,232c-8.836,0-16-7.164-16-16c0-8.837,7.164-16,16-16s16,7.163,16,16   C272.118,224.836,264.954,232,256.118,232z" fill="#b6b8be"/><circle cx="256" cy="216" r="16" fill="#5c546a"/></g></defs><g fi:class="KUsePattern"><pattern id="pattern_L1_19" width="350" height="350" patternUnits="userSpaceOnUse"><use xlink:href="#L1_19" x="-350" y="-350"/><use xlink:href="#L1_19" x="0" y="-350"/><use xlink:href="#L1_19" x="350" y="-350"/><use xlink:href="#L1_19" x="-350" y="0"/><use xlink:href="#L1_19" x="0" y="0"/><use xlink:href="#L1_19" x="350" y="0"/><use xlink:href="#L1_19" x="-350" y="350"/><use xlink:href="#L1_19" x="0" y="350"/><use xlink:href="#L1_19" x="350" y="350"/></pattern><rect x="0" y="0" width="100%" height="100%" fill="url(#pattern_L1_19)"/></g><g fi:class="KUsePattern"><pattern id="pattern_L1_23" width="350" height="350" patternUnits="userSpaceOnUse"><use xlink:href="#L1_23" x="-350" y="-350"/><use xlink:href="#L1_23" x="0" y="-350"/><use xlink:href="#L1_23" x="350" y="-350"/><use xlink:href="#L1_23" x="-350" y="0"/><use xlink:href="#L1_23" x="0" y="0"/><use xlink:href="#L1_23" x="350" y="0"/><use xlink:href="#L1_23" x="-350" y="350"/><use xlink:href="#L1_23" x="0" y="350"/><use xlink:href="#L1_23" x="350" y="350"/></pattern><rect x="0" y="0" width="100%" height="100%" fill="url(#pattern_L1_23)"/></g><g fi:class="KUsePattern"><pattern id="pattern_L1_25" width="350" height="350" patternUnits="userSpaceOnUse"><use xlink:href="#L1_25" x="-350" y="-350"/><use xlink:href="#L1_25" x="0" y="-350"/><use xlink:href="#L1_25" x="350" y="-350"/><use xlink:href="#L1_25" x="-350" y="0"/><use xlink:href="#L1_25" x="0" y="0"/><use xlink:href="#L1_25" x="350" y="0"/><use xlink:href="#L1_25" x="-350" y="350"/><use xlink:href="#L1_25" x="0" y="350"/><use xlink:href="#L1_25" x="350" y="350"/></pattern><rect x="0" y="0" width="100%" height="100%" fill="url(#pattern_L1_25)"/></g><g fi:class="KUsePattern"><pattern id="pattern_L1_26" width="350" height="350" patternUnits="userSpaceOnUse"><use xlink:href="#L1_26" x="-350" y="-350"/><use xlink:href="#L1_26" x="0" y="-350"/><use xlink:href="#L1_26" x="350" y="-350"/><use xlink:href="#L1_26" x="-350" y="0"/><use xlink:href="#L1_26" x="0" y="0"/><use xlink:href="#L1_26" x="350" y="0"/><use xlink:href="#L1_26" x="-350" y="350"/><use xlink:href="#L1_26" x="0" y="350"/><use xlink:href="#L1_26" x="350" y="350"/></pattern><rect x="0" y="0" width="100%" height="100%" fill="url(#pattern_L1_26)"/></g><g fi:class="KUsePattern"><pattern id="pattern_L1_27" width="350" height="350" patternUnits="userSpaceOnUse"><use xlink:href="#L1_27" x="-350" y="-350"/><use xlink:href="#L1_27" x="0" y="-350"/><use xlink:href="#L1_27" x="350" y="-350"/><use xlink:href="#L1_27" x="-350" y="0"/><use xlink:href="#L1_27" x="0" y="0"/><use xlink:href="#L1_27" x="350" y="0"/><use xlink:href="#L1_27" x="-350" y="350"/><use xlink:href="#L1_27" x="0" y="350"/><use xlink:href="#L1_27" x="350" y="350"/></pattern><rect x="0" y="0" width="100%" height="100%" fill="url(#pattern_L1_27)"/></g><g fi:class="KUsePattern"><pattern id="pattern_L1_28" width="350" height="350" patternUnits="userSpaceOnUse"><use xlink:href="#L1_28" x="-350" y="-350"/><use xlink:href="#L1_28" x="0" y="-350"/><use xlink:href="#L1_28" x="350" y="-350"/><use xlink:href="#L1_28" x="-350" y="0"/><use xlink:href="#L1_28" x="0" y="0"/><use xlink:href="#L1_28" x="350" y="0"/><use xlink:href="#L1_28" x="-350" y="350"/><use xlink:href="#L1_28" x="0" y="350"/><use xlink:href="#L1_28" x="350" y="350"/></pattern><rect x="0" y="0" width="100%" height="100%" fill="url(#pattern_L1_28)"/></g><g fi:class="KUsePattern"><pattern id="pattern_L1_30" width="350" height="350" patternUnits="userSpaceOnUse"><use xlink:href="#L1_30" x="-350" y="-350"/><use xlink:href="#L1_30" x="0" y="-350"/><use xlink:href="#L1_30" x="350" y="-350"/><use xlink:href="#L1_30" x="-350" y="0"/><use xlink:href="#L1_30" x="0" y="0"/><use xlink:href="#L1_30" x="350" y="0"/><use xlink:href="#L1_30" x="-350" y="350"/><use xlink:href="#L1_30" x="0" y="350"/><use xlink:href="#L1_30" x="350" y="350"/></pattern><rect x="0" y="0" width="100%" height="100%" fill="url(#pattern_L1_30)"/></g><g fi:class="KUsePattern"><pattern id="pattern_L1_31" width="350" height="350" patternUnits="userSpaceOnUse"><use xlink:href="#L1_31" x="-350" y="-350"/><use xlink:href="#L1_31" x="0" y="-350"/><use xlink:href="#L1_31" x="350" y="-350"/><use xlink:href="#L1_31" x="-350" y="0"/><use xlink:href="#L1_31" x="0" y="0"/><use xlink:href="#L1_31" x="350" y="0"/><use xlink:href="#L1_31" x="-350" y="350"/><use xlink:href="#L1_31" x="0" y="350"/><use xlink:href="#L1_31" x="350" y="350"/></pattern><rect x="0" y="0" width="100%" height="100%" fill="url(#pattern_L1_31)"/></g><g fi:class="KUsePattern"><pattern id="pattern_L1_32" width="350" height="350" patternUnits="userSpaceOnUse"><use xlink:href="#L1_32" x="-350" y="-350"/><use xlink:href="#L1_32" x="0" y="-350"/><use xlink:href="#L1_32" x="350" y="-350"/><use xlink:href="#L1_32" x="-350" y="0"/><use xlink:href="#L1_32" x="0" y="0"/><use xlink:href="#L1_32" x="350" y="0"/><use xlink:href="#L1_32" x="-350" y="350"/><use xlink:href="#L1_32" x="0" y="350"/><use xlink:href="#L1_32" x="350" y="350"/></pattern><rect x="0" y="0" width="100%" height="100%" fill="url(#pattern_L1_32)"/></g><g fi:class="KUsePattern"><pattern id="pattern_L1_33" width="350" height="350" patternUnits="userSpaceOnUse"><use xlink:href="#L1_33" x="-350" y="-350"/><use xlink:href="#L1_33" x="0" y="-350"/><use xlink:href="#L1_33" x="350" y="-350"/><use xlink:href="#L1_33" x="-350" y="0"/><use xlink:href="#L1_33" x="0" y="0"/><use xlink:href="#L1_33" x="350" y="0"/><use xlink:href="#L1_33" x="-350" y="350"/><use xlink:href="#L1_33" x="0" y="350"/><use xlink:href="#L1_33" x="350" y="350"/></pattern><rect x="0" y="0" width="100%" height="100%" fill="url(#pattern_L1_33)"/></g><g fi:class="KUsePattern"><pattern id="pattern_L1_34" width="350" height="350" patternUnits="userSpaceOnUse"><use xlink:href="#L1_34" x="-350" y="-350"/><use xlink:href="#L1_34" x="0" y="-350"/><use xlink:href="#L1_34" x="350" y="-350"/><use xlink:href="#L1_34" x="-350" y="0"/><use xlink:href="#L1_34" x="0" y="0"/><use xlink:href="#L1_34" x="350" y="0"/><use xlink:href="#L1_34" x="-350" y="350"/><use xlink:href="#L1_34" x="0" y="350"/><use xlink:href="#L1_34" x="350" y="350"/></pattern><rect x="0" y="0" width="100%" height="100%" fill="url(#pattern_L1_34)"/></g><g fi:class="KUsePattern"><pattern id="pattern_L1_35" width="350" height="350" patternUnits="userSpaceOnUse"><use xlink:href="#L1_35" x="-350" y="-350"/><use xlink:href="#L1_35" x="0" y="-350"/><use xlink:href="#L1_35" x="350" y="-350"/><use xlink:href="#L1_35" x="-350" y="0"/><use xlink:href="#L1_35" x="0" y="0"/><use xlink:href="#L1_35" x="350" y="0"/><use xlink:href="#L1_35" x="-350" y="350"/><use xlink:href="#L1_35" x="0" y="350"/><use xlink:href="#L1_35" x="350" y="350"/></pattern><rect x="0" y="0" width="100%" height="100%" fill="url(#pattern_L1_35)"/></g><g fi:class="KUsePattern"><pattern id="pattern_L1_36" width="350" height="350" patternUnits="userSpaceOnUse"><use xlink:href="#L1_36" x="-350" y="-350"/><use xlink:href="#L1_36" x="0" y="-350"/><use xlink:href="#L1_36" x="350" y="-350"/><use xlink:href="#L1_36" x="-350" y="0"/><use xlink:href="#L1_36" x="0" y="0"/><use xlink:href="#L1_36" x="350" y="0"/><use xlink:href="#L1_36" x="-350" y="350"/><use xlink:href="#L1_36" x="0" y="350"/><use xlink:href="#L1_36" x="350" y="350"/></pattern><rect x="0" y="0" width="100%" height="100%" fill="url(#pattern_L1_36)"/></g><g fi:class="KUsePattern"><pattern id="pattern_L1_37" width="350" height="350" patternUnits="userSpaceOnUse"><use xlink:href="#L1_37" x="-350" y="-350"/><use xlink:href="#L1_37" x="0" y="-350"/><use xlink:href="#L1_37" x="350" y="-350"/><use xlink:href="#L1_37" x="-350" y="0"/><use xlink:href="#L1_37" x="0" y="0"/><use xlink:href="#L1_37" x="350" y="0"/><use xlink:href="#L1_37" x="-350" y="350"/><use xlink:href="#L1_37" x="0" y="350"/><use xlink:href="#L1_37" x="350" y="350"/></pattern><rect x="0" y="0" width="100%" height="100%" fill="url(#pattern_L1_37)"/></g><g fi:class="KUsePattern"><pattern id="pattern_L1_38" width="350" height="350" patternUnits="userSpaceOnUse"><use xlink:href="#L1_38" x="-350" y="-350"/><use xlink:href="#L1_38" x="0" y="-350"/><use xlink:href="#L1_38" x="350" y="-350"/><use xlink:href="#L1_38" x="-350" y="0"/><use xlink:href="#L1_38" x="0" y="0"/><use xlink:href="#L1_38" x="350" y="0"/><use xlink:href="#L1_38" x="-350" y="350"/><use xlink:href="#L1_38" x="0" y="350"/><use xlink:href="#L1_38" x="350" y="350"/></pattern><rect x="0" y="0" width="100%" height="100%" fill="url(#pattern_L1_38)"/></g><g fi:class="KUsePattern"><pattern id="pattern_L1_39" width="350" height="350" patternUnits="userSpaceOnUse"><use xlink:href="#L1_39" x="-350" y="-350"/><use xlink:href="#L1_39" x="0" y="-350"/><use xlink:href="#L1_39" x="350" y="-350"/><use xlink:href="#L1_39" x="-350" y="0"/><use xlink:href="#L1_39" x="0" y="0"/><use xlink:href="#L1_39" x="350" y="0"/><use xlink:href="#L1_39" x="-350" y="350"/><use xlink:href="#L1_39" x="0" y="350"/><use xlink:href="#L1_39" x="350" y="350"/></pattern><rect x="0" y="0" width="100%" height="100%" fill="url(#pattern_L1_39)"/></g><g fi:class="KUsePattern"><pattern id="pattern_L1_41" width="350" height="350" patternUnits="userSpaceOnUse"><use xlink:href="#L1_41" x="-350" y="-350"/><use xlink:href="#L1_41" x="0" y="-350"/><use xlink:href="#L1_41" x="350" y="-350"/><use xlink:href="#L1_41" x="-350" y="0"/><use xlink:href="#L1_41" x="0" y="0"/><use xlink:href="#L1_41" x="350" y="0"/><use xlink:href="#L1_41" x="-350" y="350"/><use xlink:href="#L1_41" x="0" y="350"/><use xlink:href="#L1_41" x="350" y="350"/></pattern><rect x="0" y="0" width="100%" height="100%" fill="url(#pattern_L1_41)"/></g></svg>