<svg xmlns="http://www.w3.org/2000/svg" xmlns:xlink="http://www.w3.org/1999/xlink" xmlns:fi="http://pattern.flaticon.com/" x="0" y="0" width="2000" height="350" viewBox="0 0 2000 350"><rect x="0px" y="0px" width="100%" height="100%" opacity="1" fill="#74acd9"/><defs><g transform="matrix(0.1749599277973175 0 0 0.1749599277973175 77.21025848388672 16.21025848388672)" id="L1_67"><g><path d="M394.044,30.159l-17.267-10.367c-4.19-2.513-9.603-1.151-12.113,3.026   c-2.508,4.181-1.155,9.603,3.026,12.113l1.347,0.808l-11.796,19.654l15.138,9.086l11.794-19.651l0.785,0.47   c1.422,0.853,2.991,1.259,4.534,1.259c3,0,5.922-1.526,7.577-4.285C399.577,38.091,398.225,32.668,394.044,30.159z" fill="#959cb5"/><path d="M326.621,52.966c-14.603,0-26.483-11.88-26.483-26.483S312.018,0,326.621,0   c14.603,0,26.483,11.88,26.483,26.483S341.224,52.966,326.621,52.966z M326.621,17.655c-4.871,0-8.828,3.961-8.828,8.828   s3.957,8.828,8.828,8.828c4.871,0,8.828-3.961,8.828-8.828S331.491,17.655,326.621,17.655z" fill="#959cb5"/></g><path d="M61.793,441.379h388.414c14.626,0,26.483-11.857,26.483-26.483V150.069  c0-14.626-11.857-26.483-26.483-26.483H61.793c-14.626,0-26.483,11.857-26.483,26.483v264.828  C35.31,429.523,47.167,441.379,61.793,441.379z" fill="#7f8499"/><g><path d="M326.621,220.69c53.63,0,97.103-43.475,97.103-97.103H229.517   C229.517,177.215,272.992,220.69,326.621,220.69z" fill="#707487"/><path d="M252.973,362.401c-1.921-0.311-3.872-0.47-5.801-0.47c-3.671,0-7.211,0.563-10.542,1.607   c-5.057-5.159-11.617-8.768-18.967-9.964c-1.92-0.312-3.871-0.47-5.799-0.47c-3.634,0-7.182,0.544-10.554,1.596   c-5.057-5.153-11.612-8.758-18.956-9.953c-1.92-0.312-3.871-0.47-5.799-0.47h-0.003v-60.85c0-17.663-12.686-33.047-29.51-35.784   c-1.92-0.312-3.871-0.47-5.799-0.47h-0.002c-9.432,0-18.3,3.672-24.969,10.342c-6.669,6.669-10.342,15.536-10.342,24.969v158.897   h176.552v-43.194C282.483,380.522,269.796,365.139,252.973,362.401z" fill="#707487"/></g><path d="M441.379,414.897H70.621c-4.875,0-8.828-3.953-8.828-8.828V158.897c0-4.875,3.953-8.828,8.828-8.828  h370.759c4.875,0,8.828,3.953,8.828,8.828v247.172C450.207,410.944,446.254,414.897,441.379,414.897z" fill="#ffffff"/><g><path d="M233.268,150.069c11.54,40.739,48.918,70.621,93.353,70.621s81.815-29.881,93.354-70.621H233.268z" fill="#e4eaf8"/><path d="M252.973,362.401c-1.921-0.311-3.872-0.47-5.801-0.47c-3.671,0-7.211,0.563-10.542,1.607   c-5.057-5.159-11.617-8.768-18.967-9.964c-1.92-0.312-3.871-0.47-5.799-0.47c-3.634,0-7.182,0.544-10.554,1.596   c-5.057-5.153-11.612-8.758-18.956-9.953c-1.92-0.312-3.871-0.47-5.799-0.47h-0.003v-60.85c0-17.663-12.686-33.047-29.51-35.784   c-1.92-0.312-3.871-0.47-5.799-0.47h-0.002c-9.432,0-18.3,3.672-24.969,10.342c-6.669,6.669-10.342,15.536-10.342,24.969v132.414   h176.552v-16.712C282.483,380.522,269.796,365.139,252.973,362.401z" fill="#e4eaf8"/></g><circle cx="141" cy="282" r="52" fill="#ff6464"/><path d="M141.241,247.172c-19.501,0-35.31,15.809-35.31,35.31v39.399c9.375,8.408,21.725,13.567,35.31,13.567  c13.585,0,25.934-5.159,35.31-13.566v-39.4C176.552,262.982,160.743,247.172,141.241,247.172z" fill="#ff5050"/><circle cx="326" cy="123" r="79" fill="#afb9d2"/><circle cx="326" cy="123" r="61" fill="#e4eaf8"/><path d="M326.621,132.414c-2.259,0-4.518-0.862-6.241-2.586l-30.897-30.897  c-3.448-3.448-3.448-9.035,0-12.483c3.448-3.448,9.035-3.448,12.483,0l30.897,30.897c3.448,3.448,3.448,9.035,0,12.483  C331.138,131.552,328.879,132.414,326.621,132.414z" fill="#ff5050"/><g><path d="M326.621,88.276c-4.879,0-8.828-3.953-8.828-8.828v-8.828c0-4.875,3.948-8.828,8.828-8.828   c4.879,0,8.828,3.953,8.828,8.828v8.828C335.448,84.323,331.5,88.276,326.621,88.276z" fill="#707487"/><path d="M326.621,185.379c-4.879,0-8.828-3.953-8.828-8.828v-8.828c0-4.875,3.948-8.828,8.828-8.828   c4.879,0,8.828,3.953,8.828,8.828v8.828C335.448,181.427,331.5,185.379,326.621,185.379z" fill="#707487"/><path d="M379.586,132.414h-8.828c-4.879,0-8.828-3.953-8.828-8.828c0-4.875,3.948-8.828,8.828-8.828h8.828   c4.879,0,8.828,3.953,8.828,8.828C388.414,128.461,384.466,132.414,379.586,132.414z" fill="#707487"/><path d="M282.483,132.414h-8.828c-4.879,0-8.828-3.953-8.828-8.828c0-4.875,3.948-8.828,8.828-8.828h8.828   c4.879,0,8.828,3.953,8.828,8.828C291.31,128.461,287.362,132.414,282.483,132.414z" fill="#707487"/></g><circle cx="256" cy="282" r="44" fill="#fff082"/><circle cx="370" cy="282" r="44" fill="#a0ffb4"/><path d="M264.828,441.379v-43.193c0-8.794-6.009-16.946-14.69-18.358c-11.061-1.8-20.62,6.69-20.62,17.414  v-7.883c0-8.794-6.009-16.946-14.69-18.358c-11.061-1.8-20.62,6.69-20.62,17.414v-7.883c0-8.794-6.009-16.946-14.69-18.358  c-11.061-1.8-20.62,6.69-20.62,17.414v-96.159c0-8.794-6.009-16.946-14.69-18.358c-11.061-1.8-20.62,6.69-20.62,17.413v158.897  c0,39.003,31.618,70.621,70.621,70.621l0,0C233.209,512,264.828,480.382,264.828,441.379z" fill="#f0c087"/><g><path d="M141.241,441.379V282.483c0-6.521,3.563-12.179,8.821-15.236c-1.76-1.069-3.724-1.831-5.856-2.177   c-11.061-1.8-20.62,6.69-20.62,17.414v158.897c0,39.003,31.618,70.621,70.621,70.621c2.996,0,5.93-0.248,8.828-0.61   C168.207,507.037,141.241,477.386,141.241,441.379z" fill="#e6af78"/><path d="M185.379,364.38c-3.555-2.069-7.826-3.051-12.451-2.06c-8.425,1.803-14.031,9.91-14.031,18.526   v7.569c0,4.875,3.953,8.828,8.828,8.828l0,0c4.875,0,8.828-3.953,8.828-8.828v-8.828   C176.552,373.067,180.125,367.438,185.379,364.38z" fill="#e6af78"/><path d="M220.69,373.207c-3.555-2.069-7.826-3.051-12.451-2.06c-8.425,1.803-14.031,9.91-14.031,18.526   v7.569c0,4.875,3.953,8.828,8.828,8.828l0,0c4.875,0,8.828-3.953,8.828-8.828v-8.828   C211.862,381.895,215.435,376.266,220.69,373.207z" fill="#e6af78"/><path d="M256,382.035c-3.555-2.069-7.826-3.051-12.451-2.06c-8.425,1.803-14.031,9.91-14.031,18.526v7.569   c0,4.875,3.953,8.828,8.828,8.828l0,0c4.875,0,8.828-3.953,8.828-8.828v-8.828C247.172,390.722,250.745,385.094,256,382.035z" fill="#e6af78"/></g><circle cx="256" cy="282" r="26" fill="#ffdc64"/><circle cx="370" cy="282" r="26" fill="#7df5a5"/></g><g transform="matrix(0.1171872690320015 0 0 0.1171872690320015 189 117.00000137328834)" id="L1_68"><path d="M432.552,459.035H26.483C11.857,459.035,0,447.178,0,432.552V79.449  c0-14.626,11.857-26.483,26.483-26.483h406.069c14.626,0,26.483,11.857,26.483,26.483v353.103  C459.034,447.178,447.178,459.035,432.552,459.035z" fill="#e4eaf8"/><g><path d="M105.931,114.759c4.879,0,8.828-3.948,8.828-8.828c0-4.879-3.948-8.828-8.828-8.828H52.966   c-4.879,0-8.828,3.948-8.828,8.828v88.276c0,4.879,3.948,8.828,8.828,8.828h52.966c4.879,0,8.828-3.948,8.828-8.828   c0-4.879-3.948-8.828-8.828-8.828H61.793v-26.483h35.31c4.879,0,8.828-3.948,8.828-8.828c0-4.879-3.948-8.828-8.828-8.828h-35.31   v-26.483H105.931z" fill="#ff5050"/><path d="M208.552,99.035c-3.81-3.043-9.362-2.406-12.414,1.379l-28.414,35.518l-28.414-35.518   c-3.043-3.801-8.595-4.431-12.414-1.379c-3.801,3.052-4.423,8.604-1.379,12.414l30.897,38.621l-30.897,38.621   c-3.043,3.81-2.422,9.362,1.379,12.414c1.63,1.302,3.577,1.931,5.508,1.931c2.595,0,5.155-1.138,6.905-3.31l28.414-35.517   l28.414,35.517c1.75,2.182,4.31,3.31,6.905,3.31c1.931,0,3.88-0.629,5.508-1.931c3.801-3.052,4.423-8.604,1.379-12.414   l-30.897-38.621l30.897-38.621C212.974,107.638,212.353,102.087,208.552,99.035z" fill="#ff5050"/><path d="M271.629,97.104h-13.603c-10.474,0-19.577,7.457-21.638,17.741l-15.525,77.63   c-0.957,4.785,2.146,9.431,6.922,10.388c4.767,0.957,9.431-2.138,10.388-6.922l3.878-19.388h45.555l3.878,19.388   c0.836,4.199,4.526,7.095,8.647,7.095c0.569,0,1.155-0.052,1.741-0.172c4.776-0.957,7.88-5.603,6.922-10.388l-15.526-77.63   C291.207,104.561,282.103,97.104,271.629,97.104z M245.581,158.897l8.117-40.586c0.414-2.06,2.232-3.552,4.328-3.552h13.603   c2.094,0,3.914,1.492,4.328,3.552l8.117,40.586H245.581z" fill="#ff5050"/><path d="M408.561,97.466c-3.785-1.138-7.801,0.396-9.913,3.69l-32.302,50.241l-32.301-50.241   c-2.121-3.285-6.138-4.828-9.913-3.69c-3.758,1.103-6.336,4.552-6.336,8.466v88.276c0,4.879,3.948,8.828,8.828,8.828   s8.828-3.948,8.828-8.828v-58.216l23.474,36.509c3.242,5.052,11.604,5.052,14.845,0l23.474-36.509v58.216   c0,4.879,3.948,8.828,8.828,8.828c4.879,0,8.828-3.948,8.828-8.828v-88.276C414.897,102.018,412.319,98.569,408.561,97.466z" fill="#ff5050"/><circle cx="70" cy="256" r="17" fill="#ff5050"/><circle cx="70" cy="326" r="17" fill="#ff5050"/><circle cx="70" cy="397" r="17" fill="#ff5050"/></g><path d="M264.828,264.828H123.586c-4.879,0-8.828-3.948-8.828-8.828c0-4.879,3.948-8.828,8.828-8.828h141.241  c4.879,0,8.828,3.948,8.828,8.828C273.655,260.88,269.707,264.828,264.828,264.828z" fill="#707487"/><path d="M158.897,335.449h-35.31c-4.879,0-8.828-3.948-8.828-8.828c0-4.879,3.948-8.828,8.828-8.828h35.31  c4.879,0,8.828,3.948,8.828,8.828C167.724,331.501,163.776,335.449,158.897,335.449z" fill="#7f8499"/><path d="M211.862,406.069h-88.276c-4.879,0-8.828-3.948-8.828-8.828c0-4.879,3.948-8.828,8.828-8.828h88.276  c4.879,0,8.828,3.948,8.828,8.828C220.69,402.121,216.742,406.069,211.862,406.069z" fill="#707487"/><path d="M388.414,335.449H194.207c-4.879,0-8.828-3.948-8.828-8.828c0-4.879,3.948-8.828,8.828-8.828h194.207  c4.879,0,8.828,3.948,8.828,8.828C397.241,331.501,393.293,335.449,388.414,335.449z" fill="#7f8499"/><path d="M459.034,141.242L261.043,339.232l-22.635,48.505c-2.805,6.012,3.43,12.247,9.441,9.441  l48.504-22.636l162.681-162.68V141.242z" fill="#d5dced"/><path d="M353.103,317.794 282.483,317.794 264.828,335.449 335.448,335.449z" fill="#707487"/><path d="M229.565,388.981l42.868-20.004c3.73-1.74,7.126-4.119,10.036-7.029l226.946-226.946  c3.447-3.447,3.447-9.037,0-12.484l-22.827-22.828c-3.447-3.447-9.037-3.447-12.484,0L247.157,326.635  c-2.91,2.91-5.289,6.306-7.029,10.036l-20.004,42.868C217.318,385.552,223.552,391.786,229.565,388.981z" fill="#ffdc64"/><path d="M221.538,387.566c1.96,1.96,5.021,2.817,8.026,1.415l42.868-20.004  c3.73-1.741,7.126-4.119,10.036-7.03l206.707-206.707l-17.655-17.655L221.538,387.566z" fill="#ffc850"/><path d="M291.31,353.104L256,317.794l-8.843,8.843c-2.91,2.91-5.289,6.306-7.029,10.036l-20.004,42.867  c-2.805,6.012,3.43,12.246,9.441,9.441l42.867-20.004c3.73-1.74,7.126-4.119,10.036-7.03L291.31,353.104z" fill="#faebc8"/><path d="M273.655,335.449l-52.117,52.117c1.96,1.96,5.021,2.817,8.026,1.415l42.868-20.004  c3.73-1.74,7.126-4.119,10.036-7.03l8.842-8.842L273.655,335.449z" fill="#f5dcb4"/><path d="M486.589,99.689c-3.448-3.448-9.036-3.448-12.484,0l-20.241,20.241l35.31,35.31L509.415,135  c3.448-3.448,3.448-9.037,0-12.484L486.589,99.689z" fill="#faebc8"/><path d="M509.415,122.515l-11.413-11.413l-26.483,26.483l17.655,17.655L509.415,135  C512.862,131.552,512.862,125.962,509.415,122.515z" fill="#f5dcb4"/></g><g transform="matrix(0.1171875 0 0 0.1171875 319.0000005865097 17)" id="L1_69"><circle cx="211" cy="158" r="158" fill="#ff5050"/><path d="M308.586,176.754c-1.358-0.136-2.705-0.202-4.034-0.202l0,0c-12.318-0.001-23.78,5.568-31.511,15.516  c-5.664,7.287-8.213,16.538-8.213,25.768v64.341c0,4.578-3.488,8.511-8.057,8.811c-3.172,0.207-6.371,0.323-9.598,0.323  c-87.756,0-158.897-71.14-158.897-158.897c0-44.015,17.908-83.838,46.822-112.612c-53.251,29.453-87.836,88.536-81.353,155.041  c6.41,65.75,54.46,121.274,118.413,137.831c33.13,8.577,64.599,5.824,92.67-4.121v0.007c32.727-11.587,60.562-33.459,79.448-61.897  v-29.128C344.276,196.669,328.599,178.756,308.586,176.754z" fill="#c84146"/><g><path d="M211.862,218.483c-6.094,0-11.034-4.94-11.034-11.034v-5.017c0-9.987,7.423-18.431,17.267-19.638   c25.75-3.147,44.879-25.117,44.518-51.104c-0.371-26.75-23.276-49.66-50.026-50.03c-13.673-0.138-26.612,5-36.362,14.612   c-9.75,9.618-15.121,22.454-15.121,36.143c0,6.094-4.94,11.034-11.034,11.034c-6.094,0-11.034-4.94-11.034-11.034   c0-19.642,7.706-38.056,21.689-51.853c13.741-13.551,31.862-20.974,51.129-20.974c0.345,0,0.69,0,1.043,0.004   c39.034,0.543,71.241,32.75,71.785,71.789c0.509,36.565-25.906,67.591-61.784,73.031v3.038   C222.897,213.543,217.956,218.483,211.862,218.483z" fill="#ffffff"/><path d="M211.862,260.414c-7.3,0-13.241-5.941-13.241-13.241c0-7.3,5.941-13.241,13.241-13.241   c7.3,0,13.241,5.941,13.241,13.241C225.103,254.473,219.162,260.414,211.862,260.414z" fill="#ffffff"/></g><path d="M459.034,423.724v-64.949c0-11.544-8.307-22.063-19.794-23.213  c-13.209-1.322-24.344,9.016-24.344,21.955v-7.57c0-11.544-8.307-22.063-19.794-23.213c-13.209-1.322-24.344,9.016-24.344,21.955  v-7.57c0-11.544-8.307-22.063-19.794-23.213c-13.209-1.322-24.344,9.016-24.344,21.955V217.534c0-11.544-8.307-22.063-19.794-23.213  c-13.209-1.322-24.344,9.016-24.344,21.955v207.448c0,48.754,39.522,88.276,88.276,88.276l0,0  C419.512,512,459.034,472.478,459.034,423.724z" fill="#f0c087"/><g><path d="M300.138,423.724V216.276c0-9.01,5.454-16.657,13.193-20.085c-2.024-0.934-4.175-1.636-6.504-1.869   c-13.209-1.323-24.344,9.015-24.344,21.954v207.448c0,48.754,39.522,88.276,88.276,88.276c2.98,0,5.923-0.158,8.828-0.446   C334.978,507.124,300.138,469.497,300.138,423.724z" fill="#e6af78"/><path d="M335.448,353.103c4.875,0,8.828-3.953,8.828-8.828v-4.414c0-9.01,5.454-16.657,13.193-20.085   c-2.024-0.934-4.175-1.636-6.504-1.869c-13.209-1.323-24.344,9.015-24.344,21.954v4.414   C326.621,349.151,330.573,353.103,335.448,353.103L335.448,353.103z" fill="#e6af78"/><path d="M379.586,361.931c4.875,0,8.828-3.953,8.828-8.828v-4.414c0-9.01,5.454-16.657,13.193-20.085   c-2.024-0.934-4.175-1.636-6.504-1.869c-13.209-1.323-24.344,9.015-24.344,21.954v4.414   C370.759,357.978,374.711,361.931,379.586,361.931L379.586,361.931z" fill="#e6af78"/><path d="M423.724,370.759c4.875,0,8.828-3.953,8.828-8.828v-4.414c0-9.01,5.454-16.657,13.193-20.085   c-2.024-0.934-4.175-1.636-6.504-1.869c-13.209-1.323-24.344,9.015-24.344,21.954v4.414   C414.897,366.806,418.849,370.759,423.724,370.759L423.724,370.759z" fill="#e6af78"/></g></g><g transform="matrix(0.1171875 0 0 0.1171875 79.00000137329101 127)" id="L1_70"><circle cx="256" cy="308" r="203" fill="#59d8ff"/><path d="M185.379,264.828c0-29.948,6.509-58.36,18.161-83.94c1.726-3.789,5.971-5.771,10.027-4.835  l26.553,6.127c5.201,1.199,10.543,1.809,15.88,1.809c5.336,0,10.679-0.608,15.88-1.809l79.562-18.36  c10.967-2.53,20.056-8.942,26.112-17.494c-32.436-24.28-72.413-38.931-115.751-40.156c0.036-0.029,0.07-0.061,0.106-0.089  c-1.97-0.056-3.928-0.149-5.909-0.149c-116.382,0-209.892,97.92-202.639,215.868c6.287,102.246,90.272,185.015,192.591,189.959  c51.735,2.499,99.434-14.423,136.555-44.044C273.112,464.579,185.379,374.979,185.379,264.828z" fill="#00c3f0"/><path d="M364.23,200.897c18.212-3.722,36.25-8.352,54.041-13.955c-3.871-5.14-7.978-10.092-12.31-14.837  c-15.66,4.68-31.488,8.745-47.493,11.922c-10.934-28.878-25.658-52.585-42.965-69.215c-18.819-5.761-38.795-8.881-59.502-8.881  s-40.682,3.119-59.501,8.879c-17.282,16.608-31.991,40.275-42.921,69.101c-15.977-3.19-31.775-7.262-47.405-11.947  c-4.339,4.742-8.45,9.692-12.328,14.83c17.767,5.613,35.779,10.247,53.965,13.982c-9.086,29.419-14.514,63.137-15.275,99.361H53.189  c-0.126,2.93-0.223,5.867-0.223,8.828s0.097,5.898,0.223,8.828h79.347c0.761,36.217,6.186,69.931,15.27,99.346  c-18.215,3.709-36.256,8.317-54.018,13.922c3.874,5.139,7.982,10.091,12.318,14.833c15.646-4.682,31.46-8.747,47.452-11.931  c10.904,28.779,25.554,52.483,42.787,69.112C215.208,508.867,235.237,512,256,512s40.792-3.133,59.657-8.924  c17.235-16.631,31.885-40.337,42.789-69.117c15.99,3.183,31.802,7.256,47.446,11.939c4.335-4.743,8.444-9.695,12.319-14.834  c-17.762-5.601-35.8-10.22-54.015-13.928c9.082-29.415,14.507-63.127,15.268-99.345h79.347c0.126-2.93,0.223-5.867,0.223-8.828  s-0.097-5.898-0.223-8.828h-79.347C378.705,263.964,373.292,230.287,364.23,200.897z M247.173,511.241  c-30.959-4.922-58.186-35.421-75.866-80.469c25.095-4.098,50.461-6.338,75.866-6.764V511.241z M247.173,406.355  c-27.413,0.444-54.778,2.953-81.829,7.533c-8.941-28.276-14.37-61.05-15.157-96.095h96.986V406.355z M247.173,300.138h-96.986  c0.787-35.038,6.214-67.808,15.153-96.081c26.988,4.616,54.322,7.167,81.834,7.63V300.138z M247.173,193.919  c-25.401-0.439-50.761-2.692-75.848-6.805c17.681-45.024,44.898-75.503,75.848-80.424V193.919z M264.828,106.69  c30.97,4.924,58.206,35.442,75.886,80.518c-25.102,4.086-50.476,6.311-75.886,6.721V106.69z M264.828,511.241v-87.234  c25.407,0.425,50.774,2.663,75.868,6.761C323.015,475.819,295.788,506.318,264.828,511.241z M346.657,413.889  c-27.052-4.579-54.419-7.09-81.83-7.534v-88.562h96.986C361.027,352.838,355.6,385.613,346.657,413.889z M264.828,300.138v-88.439  c27.519-0.433,54.865-2.954,81.864-7.542c8.92,28.25,14.337,60.984,15.123,95.981H264.828z" fill="#e4eaf8"/><path d="M327.546,458.456c-16.83,29.598-38.632,48.956-62.718,52.785v-85.378  c-7.724-5.932-15.017-12.401-21.806-19.362c-26.022,0.62-51.992,3.041-77.678,7.391c-8.942-28.276-14.371-61.054-15.158-96.099  h42.229c-1.561-5.786-2.862-11.676-3.912-17.655h-38.316c0.787-35.04,6.214-67.811,15.154-96.085  c9.335,1.597,18.724,2.855,28.136,3.957c1.704-5.846,3.71-11.558,5.912-17.173c-9.379-1.016-18.743-2.201-28.06-3.729  c17.681-45.021,44.897-75.498,75.846-80.418v12.429c4.711-4.565,9.602-8.943,14.734-13.039c-1.969-0.055-3.927-0.148-5.908-0.148  c-20.707,0-40.682,3.119-59.501,8.879c-17.281,16.608-31.99,40.271-42.919,69.096c-15.975-3.19-31.774-7.26-47.403-11.946  c-4.339,4.742-8.451,9.692-12.329,14.83c17.768,5.612,35.778,10.246,53.963,13.981c-9.086,29.42-14.514,63.14-15.275,99.366H53.189  c-0.126,2.93-0.223,5.867-0.223,8.828c0,2.961,0.097,5.898,0.223,8.828h79.347c0.761,36.22,6.187,69.934,15.271,99.351  c-18.212,3.709-36.254,8.318-54.017,13.921c3.874,5.139,7.983,10.091,12.318,14.833c15.647-4.683,31.459-8.747,47.449-11.932  c10.932,28.851,25.649,52.535,42.942,69.154C215.318,508.881,235.293,512,256,512c20.841,0,40.868-3.313,59.787-9.154  c10.931-10.572,20.833-23.946,29.378-39.713C339.188,461.835,333.314,460.266,327.546,458.456z M247.173,511.241  c-30.959-4.922-58.185-35.42-75.865-80.468c25.095-4.1,50.461-6.342,75.865-6.769V511.241z" fill="#d5dced"/><rect x="414px" y="44px" width="17px" height="97px" fill="#464655"/><path d="M357.517,35.31H154.483l-10.276,82.216c-1.684,13.472,7.094,26.037,20.323,29.089l79.561,18.36  c7.838,1.809,15.982,1.809,23.82,0l79.561-18.36c13.229-3.053,22.007-15.617,20.323-29.089L357.517,35.31z" fill="#5b5d6e"/><path d="M357.517,35.31H154.483l-10.276,82.216c-1.684,13.473,7.094,26.036,20.323,29.089l79.561,18.36  c3.918,0.904,7.914,1.356,11.91,1.356v-52.758c0-4.255,3.036-7.905,7.22-8.68l100.665-18.642L357.517,35.31z" fill="#464655"/><path d="M256,0L48.988,38.336c-6.435,1.192-6.435,10.413,0,11.605L256,88.276L463.013,49.94  c6.435-1.192,6.435-10.413,0-11.605L256,0z" fill="#707487"/><g><circle cx="423" cy="150" r="17" fill="#5b5d6e"/><path d="M423.747,167.724L423.747,167.724c-9.751,0-17.655,7.904-17.655,17.655v35.31   c0,4.875,3.953,8.828,8.828,8.828h17.655c4.875,0,8.828-3.953,8.828-8.828v-35.31C441.403,175.628,433.498,167.724,423.747,167.724   z" fill="#5b5d6e"/></g></g><g transform="matrix(0.1171875 0 0 0.1171875 220 37.999999856948875)" id="L1_71"><path d="M503.172,358.869h-35.31c-4.875,0-8.828-3.953-8.828-8.828V67.559c0-4.875,3.953-8.828,8.828-8.828  h35.31c4.875,0,8.828,3.953,8.828,8.828v282.483C512,354.917,508.047,358.869,503.172,358.869z" fill="#ffdc64"/><path d="M361.931,58.731h-35.31c-4.875,0-8.828,3.953-8.828,8.828v282.483c0,4.875,3.953,8.828,8.828,8.828  h35.31c4.875,0,8.828-3.953,8.828-8.828V67.559C370.759,62.684,366.806,58.731,361.931,58.731z" fill="#00aaf0"/><rect x="317px" y="314px" width="52px" height="17px" fill="#00c3ff"/><path d="M361.931,358.869c3.98,0,7.215-2.684,8.318-6.303l-52.456-52.456v49.931  c0,4.875,3.953,8.828,8.828,8.828H361.931z" fill="#0096dc"/><rect x="317px" y="85px" width="52px" height="17px" fill="#00c3ff"/><path d="M332.414,314.731 317.793,314.731 317.793,332.386 350.069,332.386z" fill="#00aaf0"/><path d="M167.724,358.869h-35.31c-4.875,0-8.828-3.953-8.828-8.828V67.559c0-4.875,3.953-8.828,8.828-8.828  h35.31c4.875,0,8.828,3.953,8.828,8.828v282.483C176.552,354.917,172.599,358.869,167.724,358.869z" fill="#ff5050"/><g><rect x="123px" y="85px" width="52px" height="17px" fill="#c84146"/><rect x="123px" y="314px" width="52px" height="17px" fill="#c84146"/></g><path d="M44.138,358.869H8.828c-4.875,0-8.828-3.953-8.828-8.828V67.559c0-4.875,3.953-8.828,8.828-8.828  h35.31c4.875,0,8.828,3.953,8.828,8.828v282.483C52.966,354.917,49.013,358.869,44.138,358.869z" fill="#959cb5"/><path d="M450.207,358.869h-70.621c-4.875,0-8.828-3.953-8.828-8.828V49.904c0-4.875,3.953-8.828,8.828-8.828  h70.621c4.875,0,8.828,3.953,8.828,8.828v300.138C459.034,354.917,455.082,358.869,450.207,358.869z" fill="#785353"/><path d="M114.759,358.869H61.793c-4.875,0-8.828-3.953-8.828-8.828V32.248c0-4.875,3.953-8.828,8.828-8.828  h52.966c4.875,0,8.828,3.953,8.828,8.828v317.793C123.586,354.917,119.634,358.869,114.759,358.869z" fill="#ffdc64"/><path d="M88.276,261.766c-4.879,0-8.828-3.948-8.828-8.828V147.007c0-4.879,3.948-8.828,8.828-8.828  c4.879,0,8.828,3.948,8.828,8.828v105.931C97.103,257.818,93.155,261.766,88.276,261.766z" fill="#faebc8"/><g><path d="M414.897,261.766c-4.879,0-8.828-3.948-8.828-8.828v-52.966c0-4.879,3.948-8.828,8.828-8.828   c4.879,0,8.828,3.948,8.828,8.828v52.966C423.724,257.818,419.776,261.766,414.897,261.766z" fill="#ffdc64"/><path d="M414.897,173.49c-4.879,0-8.828-3.948-8.828-8.828v-17.655c0-4.879,3.948-8.828,8.828-8.828   c4.879,0,8.828,3.948,8.828,8.828v17.655C423.724,169.542,419.776,173.49,414.897,173.49z" fill="#ffdc64"/></g><path d="M308.966,41.076h-70.621c-4.875,0-8.828,3.953-8.828,8.828v300.138c0,4.875,3.953,8.828,8.828,8.828  h70.621c4.875,0,8.828-3.953,8.828-8.828V49.904C317.793,45.029,313.841,41.076,308.966,41.076z" fill="#7df5a5"/><path d="M293.674,275.991c-4.174-4.174-9.705-6.473-15.573-6.473c-12.186,0-22.101,9.905-22.101,22.078  v67.273h52.966c4.875,0,8.828-3.953,8.828-8.828v-49.931L293.674,275.991z" fill="#64dca0"/><g><path d="M273.655,252.938c-4.879,0-8.828-3.948-8.828-8.828v-26.483c0-4.879,3.948-8.828,8.828-8.828   c4.879,0,8.828,3.948,8.828,8.828v26.483C282.483,248.99,278.535,252.938,273.655,252.938z" fill="#ffdc64"/><path d="M273.655,191.145c-4.879,0-8.828-3.948-8.828-8.828v-70.621c0-4.879,3.948-8.828,8.828-8.828   c4.879,0,8.828,3.948,8.828,8.828v70.621C282.483,187.197,278.535,191.145,273.655,191.145z" fill="#ffdc64"/><rect x="229px" y="314px" width="88px" height="17px" fill="#ffdc64"/></g><rect x="256px" y="314px" width="61px" height="17px" fill="#ffc850"/><rect x="229px" y="67px" width="88px" height="17px" fill="#ffdc64"/><path d="M273.655,291.596v127.892c0,3.51,3.897,5.615,6.834,3.691l25.352-16.615l31.713,76.563  c1.866,4.504,7.03,6.643,11.533,4.778l17.576-7.281c4.504-1.866,6.643-7.03,4.778-11.534l-31.713-76.563l29.792-6.03  c3.451-0.698,4.735-4.958,2.246-7.447l-90.574-90.574C278.41,285.695,273.655,287.665,273.655,291.596z" fill="#464655"/><path d="M185.379,358.869h35.31c4.875,0,8.828-3.953,8.828-8.828V32.248c0-4.875-3.953-8.828-8.828-8.828  h-35.31c-4.875,0-8.828,3.953-8.828,8.828v317.793C176.552,354.917,180.504,358.869,185.379,358.869z" fill="#707487"/><g><path d="M220.69,23.421h-35.31c-4.875,0-8.828,3.953-8.828,8.828v17.655h52.966V32.248   C229.517,27.373,225.565,23.421,220.69,23.421z" fill="#5b5d6e"/><path d="M185.379,358.869h35.31c4.875,0,8.828-3.953,8.828-8.828v-17.655h-52.966v17.655   C176.552,354.917,180.504,358.869,185.379,358.869z" fill="#5b5d6e"/></g><g><rect x="52px" y="67px" width="70px" height="17px" fill="#faebc8"/><rect x="52px" y="102px" width="70px" height="17px" fill="#faebc8"/><rect x="52px" y="279px" width="70px" height="17px" fill="#faebc8"/><rect x="52px" y="314px" width="70px" height="17px" fill="#faebc8"/></g><g><rect x="0px" y="85px" width="52px" height="17px" fill="#7f8499"/><rect x="0px" y="314px" width="52px" height="17px" fill="#7f8499"/></g><g><rect x="370px" y="67px" width="88px" height="17px" fill="#ffdc64"/><rect x="370px" y="102px" width="88px" height="17px" fill="#ffdc64"/><rect x="370px" y="279px" width="88px" height="17px" fill="#ffdc64"/><rect x="370px" y="314px" width="88px" height="17px" fill="#ffdc64"/></g><g><path d="M503.172,58.731h-35.31c-4.875,0-8.828,3.953-8.828,8.828v17.655H512V67.559   C512,62.684,508.047,58.731,503.172,58.731z" fill="#ffc850"/><path d="M467.862,358.869h35.31c4.875,0,8.828-3.953,8.828-8.828v-17.655h-52.966v17.655   C459.034,354.917,462.987,358.869,467.862,358.869z" fill="#ffc850"/></g></g><g transform="matrix(0.18477652966976166 0 0 0.18477652966976166 267.697208404541 111.69724350728802)" id="L1_72"><path d="M509.457,170.89c-3.39-3.39-8.882-3.39-12.272,0c-9.831,9.834-22.907,15.25-36.814,15.25  c-13.915,0-26.992-5.415-36.822-15.25c-20.297-20.301-20.297-53.33,0-73.636c3.39-3.39,3.39-8.885,0-12.272  c-3.39-3.39-8.882-3.39-12.272,0c-27.068,27.072-27.068,71.115,0,98.178c11.037,11.042,25.154,17.841,40.407,19.735v35.749h17.356  v-35.747c15.254-1.892,29.375-8.692,40.415-19.737C512.847,179.771,512.847,174.275,509.457,170.89z" fill="#5b5d6e"/><rect x="86px" y="186px" width="52px" height="52px" fill="#afb9d2"/><g><path d="M43.543,254.377L8.831,436.614c-0.898,4.708,2.194,9.25,6.898,10.148   c0.551,0.102,1.102,0.153,1.636,0.153c4.085,0,7.72-2.894,8.517-7.055l34.712-182.237L43.543,254.377z" fill="#707487"/><path d="M459.779,254.377l-17.051,3.246L477.44,439.86c0.796,4.161,4.432,7.055,8.517,7.055   c0.534,0,1.085-0.051,1.636-0.153c4.703-0.898,7.797-5.441,6.899-10.148L459.779,254.377z" fill="#707487"/></g><g><path d="M38.274,282.034 55.944,282.034 60.593,257.623 43.543,254.377z" fill="#464655"/><path d="M459.779,254.377 442.729,257.623 447.378,282.034 465.048,282.034z" fill="#464655"/></g><path d="M494.644,264.678H8.678C3.886,264.678,0,260.792,0,256v-17.356c0-4.792,3.886-8.678,8.678-8.678  h485.966c4.792,0,8.678,3.886,8.678,8.678V256C503.322,260.792,499.436,264.678,494.644,264.678z" fill="#ebc9a0"/><path d="M208.271,186.576H17.356V82.44c0-9.586,7.77-17.356,17.356-17.356h156.203  c9.586,0,17.356,7.77,17.356,17.356V186.576z" fill="#5b5d6e"/><path d="M377.492,229.966H247.322c-2.396,0-4.339-1.943-4.339-4.339v-17.356c0-2.396,1.943-4.339,4.339-4.339  h130.169c2.396,0,4.339,1.943,4.339,4.339v17.356C381.831,228.023,379.888,229.966,377.492,229.966z" fill="#ff5050"/><path d="M360.136,203.932h-95.458c-2.396,0-4.339-1.943-4.339-4.339v-17.356c0-2.396,1.943-4.339,4.339-4.339  h95.458c2.396,0,4.339,1.943,4.339,4.339v17.356C364.475,201.989,362.532,203.932,360.136,203.932z" fill="#ffdc64"/><path d="M360.136,177.898H247.322c-2.396,0-4.339-1.943-4.339-4.339v-17.356c0-2.396,1.943-4.339,4.339-4.339  h112.814c2.396,0,4.339,1.943,4.339,4.339v17.356C364.475,175.955,362.532,177.898,360.136,177.898z" fill="#00c3ff"/><path d="M342.78,151.864h-78.102c-2.396,0-4.339-1.943-4.339-4.339v-17.356c0-2.396,1.943-4.339,4.339-4.339  h78.102c2.396,0,4.339,1.943,4.339,4.339v17.356C347.119,149.921,345.176,151.864,342.78,151.864z" fill="#7df5a5"/><circle cx="460" cy="134" r="39" fill="#00c3ff"/><path d="M208.271,186.576v-8.678H17.356v8.678c0,9.585,7.771,17.356,17.356,17.356h156.203  C200.5,203.932,208.271,196.161,208.271,186.576z" fill="#c7cfe2"/><path d="M182.237,160.542H43.39c-4.792,0-8.678-3.886-8.678-8.678V91.118c0-4.792,3.886-8.678,8.678-8.678  h138.847c4.792,0,8.678,3.886,8.678,8.678v60.746C190.915,156.657,187.03,160.542,182.237,160.542z" fill="#464655"/><path d="M481.627,151.864c-21.567,0-39.051-17.484-39.051-39.051c0-5.258,1.072-10.258,2.956-14.837  c-14.201,5.844-24.215,19.786-24.215,36.095c0,21.567,17.484,39.051,39.051,39.051c16.309,0,30.25-10.012,36.095-24.214  C491.884,150.792,486.885,151.864,481.627,151.864z" fill="#00aaf0"/></g><g transform="matrix(0.1171875 0 0 0.1171875 25 71)" id="L1_73"><path d="M317.793,0H194.207c-4.875,0-8.828,3.953-8.828,8.828v141.241h141.241V8.828  C326.621,3.953,322.668,0,317.793,0z" fill="#c7cfe2"/><g><path d="M225.103,70.621h-8.828c-4.875,0-8.828-3.953-8.828-8.828V35.31c0-4.875,3.953-8.828,8.828-8.828   h8.828c4.875,0,8.828,3.953,8.828,8.828v26.483C233.931,66.668,229.978,70.621,225.103,70.621z" fill="#959cb5"/><path d="M295.724,70.621h-8.828c-4.875,0-8.828-3.953-8.828-8.828V35.31c0-4.875,3.953-8.828,8.828-8.828   h8.828c4.875,0,8.828,3.953,8.828,8.828v26.483C304.552,66.668,300.599,70.621,295.724,70.621z" fill="#959cb5"/></g><path d="M353.103,141.241H158.897c-4.875,0-8.828,3.953-8.828,8.828v256C150.069,464.573,197.496,512,256,512  l0,0c58.504,0,105.931-47.427,105.931-105.931v-256C361.931,145.194,357.978,141.241,353.103,141.241z" fill="#00c3ff"/><g><path d="M211.862,308.966v44.138c0,4.875,3.953,8.828,8.828,8.828h70.621c4.875,0,8.828-3.953,8.828-8.828   v-44.138H211.862z" fill="#e4eaf8"/><path d="M335.362,300.125l-17.655,0.025l0.086,52.966c0.009,4.871,3.957,8.814,8.828,8.814   c0.009,0,0.009,0,0.018,0c4.871-0.009,8.819-3.966,8.81-8.841L335.362,300.125z" fill="#e4eaf8"/></g><path d="M326.621,185.379H185.379c-4.879,0-8.828-3.953-8.828-8.828s3.948-8.828,8.828-8.828h141.241  c4.879,0,8.828,3.953,8.828,8.828S331.5,185.379,326.621,185.379z" fill="#00aaf0"/><g><circle cx="326" cy="379" r="8" fill="#ffffff"/><path d="M246.165,268.761l-67.687,27.074c-3.883,1.554-3.883,7.05,0,8.602l67.687,27.074   c6.314,2.526,13.357,2.526,19.671,0l67.687-27.074c3.883-1.554,3.883-7.05,0-8.602l-67.687-27.074   C259.522,266.237,252.478,266.237,246.165,268.761z" fill="#ffffff"/></g></g><g transform="matrix(0.1171875 0 0 0.1171875 280 54)" id="L1_75"><path d="M361.931,0H150.069c-14.626,0-26.483,11.857-26.483,26.483v459.034  c0,14.626,11.857,26.483,26.483,26.483h211.862c14.626,0,26.483-11.857,26.483-26.483V26.483C388.414,11.857,376.557,0,361.931,0z   M220.69,35.31c0-4.875,3.953-8.828,8.828-8.828h52.966c4.875,0,8.828,3.953,8.828,8.828l0,0c0,4.875-3.953,8.828-8.828,8.828  h-52.966C224.642,44.138,220.69,40.185,220.69,35.31L220.69,35.31z M194.207,26.483c4.875,0,8.828,3.953,8.828,8.828  s-3.953,8.828-8.828,8.828s-8.828-3.953-8.828-8.828S189.332,26.483,194.207,26.483z M256,494.345  c-9.751,0-17.655-7.905-17.655-17.655c0-9.751,7.904-17.655,17.655-17.655c9.751,0,17.655,7.904,17.655,17.655  C273.655,486.44,265.751,494.345,256,494.345z M370.759,335.448v105.931H141.241V335.448V70.621h229.517V335.448z" fill="#707384"/><path d="M141.241,335.448h70.621c0-4.875,3.953-8.828,8.828-8.828s8.828,3.953,8.828,8.828h17.655  c0-4.875,3.953-8.828,8.828-8.828s8.828,3.953,8.828,8.828h17.655c0-4.875,3.953-8.828,8.828-8.828s8.828,3.953,8.828,8.828h70.621  V70.621H141.241V335.448z M300.138,114.759c0-4.875,3.953-8.828,8.828-8.828h35.31c4.875,0,8.828,3.953,8.828,8.828v35.31  c0,4.875-3.953,8.828-8.828,8.828h-35.31c-4.875,0-8.828-3.953-8.828-8.828V114.759z M300.138,185.379  c0-4.875,3.953-8.828,8.828-8.828h35.31c4.875,0,8.828,3.953,8.828,8.828v35.31c0,4.875-3.953,8.828-8.828,8.828h-35.31  c-4.875,0-8.828-3.953-8.828-8.828V185.379z M300.138,256c0-4.875,3.953-8.828,8.828-8.828h35.31c4.875,0,8.828,3.953,8.828,8.828  v35.31c0,4.875-3.953,8.828-8.828,8.828h-35.31c-4.875,0-8.828-3.953-8.828-8.828V256z M229.517,114.759  c0-4.875,3.953-8.828,8.828-8.828h35.31c4.875,0,8.828,3.953,8.828,8.828v35.31c0,4.875-3.953,8.828-8.828,8.828h-35.31  c-4.875,0-8.828-3.953-8.828-8.828V114.759z M229.517,185.379c0-4.875,3.953-8.828,8.828-8.828h35.31  c4.875,0,8.828,3.953,8.828,8.828v35.31c0,4.875-3.953,8.828-8.828,8.828h-35.31c-4.875,0-8.828-3.953-8.828-8.828V185.379z   M229.517,256c0-4.875,3.953-8.828,8.828-8.828h35.31c4.875,0,8.828,3.953,8.828,8.828v35.31c0,4.875-3.953,8.828-8.828,8.828  h-35.31c-4.875,0-8.828-3.953-8.828-8.828V256z M158.897,114.759c0-4.875,3.953-8.828,8.828-8.828h35.31  c4.875,0,8.828,3.953,8.828,8.828v35.31c0,4.875-3.953,8.828-8.828,8.828h-35.31c-4.875,0-8.828-3.953-8.828-8.828V114.759z   M158.897,185.379c0-4.875,3.953-8.828,8.828-8.828h35.31c4.875,0,8.828,3.953,8.828,8.828v35.31c0,4.875-3.953,8.828-8.828,8.828  h-35.31c-4.875,0-8.828-3.953-8.828-8.828V185.379z M158.897,256c0-4.875,3.953-8.828,8.828-8.828h35.31  c4.875,0,8.828,3.953,8.828,8.828v35.31c0,4.875-3.953,8.828-8.828,8.828h-35.31c-4.875,0-8.828-3.953-8.828-8.828V256z" fill="#63afdb"/><path d="M291.31,344.276c-4.875,0-8.828-3.953-8.828-8.828h-17.655c0,4.875-3.953,8.828-8.828,8.828  s-8.828-3.953-8.828-8.828h-17.655c0,4.875-3.953,8.828-8.828,8.828s-8.828-3.953-8.828-8.828h-70.621v105.931h229.517V335.448  h-70.621C300.138,340.323,296.185,344.276,291.31,344.276z M211.862,406.069c0,4.875-3.953,8.828-8.828,8.828h-35.31  c-4.875,0-8.828-3.953-8.828-8.828v-35.31c0-4.875,3.953-8.828,8.828-8.828h35.31c4.875,0,8.828,3.953,8.828,8.828V406.069z   M282.483,406.069c0,4.875-3.953,8.828-8.828,8.828h-35.31c-4.875,0-8.828-3.953-8.828-8.828v-35.31  c0-4.875,3.953-8.828,8.828-8.828h35.31c4.875,0,8.828,3.953,8.828,8.828V406.069z M308.966,361.931h35.31  c4.875,0,8.828,3.953,8.828,8.828v35.31c0,4.875-3.953,8.828-8.828,8.828h-35.31c-4.875,0-8.828-3.953-8.828-8.828v-35.31  C300.138,365.884,304.09,361.931,308.966,361.931z" fill="#468cbe"/><g><path d="M229.517,44.138h52.966c4.875,0,8.828-3.953,8.828-8.828l0,0c0-4.875-3.953-8.828-8.828-8.828   h-52.966c-4.875,0-8.828,3.953-8.828,8.828l0,0C220.69,40.185,224.642,44.138,229.517,44.138z" fill="#464655"/><circle cx="194" cy="35" r="8" fill="#464655"/><circle cx="256" cy="476" r="17" fill="#464655"/></g><path d="M273.655,361.931h-35.31c-4.875,0-8.828,3.953-8.828,8.828v35.31c0,4.875,3.953,8.828,8.828,8.828  h35.31c4.875,0,8.828-3.953,8.828-8.828v-35.31C282.483,365.884,278.53,361.931,273.655,361.931z M256,406.069  c-9.751,0-17.655-7.905-17.655-17.655c0-9.751,7.904-17.655,17.655-17.655c9.751,0,17.655,7.904,17.655,17.655  C273.655,398.164,265.751,406.069,256,406.069z" fill="#63afdb"/><path d="M300.138,406.069c0,4.875,3.953,8.828,8.828,8.828h35.31c4.875,0,8.828-3.953,8.828-8.828v-35.31  c0-4.875-3.953-8.828-8.828-8.828h-35.31c-4.875,0-8.828,3.953-8.828,8.828V406.069z" fill="#ff6469"/><path d="M203.034,361.931h-35.31c-4.875,0-8.828,3.953-8.828,8.828v35.31c0,4.875,3.953,8.828,8.828,8.828  h35.31c4.875,0,8.828-3.953,8.828-8.828v-35.31C211.862,365.884,207.91,361.931,203.034,361.931z" fill="#00dccd"/><path d="M238.345,300.138h35.31c4.875,0,8.828-3.953,8.828-8.828V256c0-4.875-3.953-8.828-8.828-8.828h-35.31  c-4.875,0-8.828,3.953-8.828,8.828v35.31C229.517,296.185,233.47,300.138,238.345,300.138z" fill="#ffdc69"/><path d="M308.966,300.138h35.31c4.875,0,8.828-3.953,8.828-8.828V256c0-4.875-3.953-8.828-8.828-8.828h-35.31  c-4.875,0-8.828,3.953-8.828,8.828v35.31C300.138,296.185,304.09,300.138,308.966,300.138z M308.966,273.655  c0-4.875,3.953-8.828,8.828-8.828h17.655c4.875,0,8.828,3.953,8.828,8.828l0,0c0,4.875-3.953,8.828-8.828,8.828h-17.655  C312.918,282.483,308.966,278.53,308.966,273.655L308.966,273.655z" fill="#ffffff"/><path d="M167.724,300.138h35.31c4.875,0,8.828-3.953,8.828-8.828V256c0-4.875-3.953-8.828-8.828-8.828h-35.31  c-4.875,0-8.828,3.953-8.828,8.828v35.31C158.897,296.185,162.849,300.138,167.724,300.138z M167.724,273.655  c0-4.875,3.953-8.828,8.828-8.828h17.655c4.875,0,8.828,3.953,8.828,8.828l0,0c0,4.875-3.953,8.828-8.828,8.828h-17.655  C171.677,282.483,167.724,278.53,167.724,273.655L167.724,273.655z" fill="#468cbe"/><path d="M238.345,229.517h35.31c4.875,0,8.828-3.953,8.828-8.828v-35.31c0-4.875-3.953-8.828-8.828-8.828  h-35.31c-4.875,0-8.828,3.953-8.828,8.828v35.31C229.517,225.565,233.47,229.517,238.345,229.517z M238.345,203.034  c0-4.875,3.953-8.828,8.828-8.828h17.655c4.875,0,8.828,3.953,8.828,8.828l0,0c0,4.875-3.953,8.828-8.828,8.828h-17.655  C242.297,211.862,238.345,207.91,238.345,203.034L238.345,203.034z" fill="#464655"/><path d="M308.966,229.517h35.31c4.875,0,8.828-3.953,8.828-8.828v-35.31c0-4.875-3.953-8.828-8.828-8.828  h-35.31c-4.875,0-8.828,3.953-8.828,8.828v35.31C300.138,225.565,304.09,229.517,308.966,229.517z" fill="#ffa055"/><path d="M167.724,229.517h35.31c4.875,0,8.828-3.953,8.828-8.828v-35.31c0-4.875-3.953-8.828-8.828-8.828  h-35.31c-4.875,0-8.828,3.953-8.828,8.828v35.31C158.897,225.565,162.849,229.517,167.724,229.517z M185.379,185.379  c9.751,0,17.655,7.904,17.655,17.655c0,9.75-7.904,17.655-17.655,17.655c-9.751,0-17.655-7.905-17.655-17.655  C167.724,193.283,175.628,185.379,185.379,185.379z" fill="#a0d778"/><path d="M238.345,158.897h35.31c4.875,0,8.828-3.953,8.828-8.828v-35.31c0-4.875-3.953-8.828-8.828-8.828  h-35.31c-4.875,0-8.828,3.953-8.828,8.828v35.31C229.517,154.944,233.47,158.897,238.345,158.897z" fill="#ff6469"/><path d="M308.966,158.897h35.31c4.875,0,8.828-3.953,8.828-8.828v-35.31c0-4.875-3.953-8.828-8.828-8.828  h-35.31c-4.875,0-8.828,3.953-8.828,8.828v35.31C300.138,154.944,304.09,158.897,308.966,158.897z M326.621,114.759  c9.751,0,17.655,7.904,17.655,17.655c0,9.75-7.904,17.655-17.655,17.655c-9.751,0-17.655-7.905-17.655-17.655  C308.966,122.663,316.87,114.759,326.621,114.759z" fill="#00dccd"/><g><path d="M167.724,158.897h35.31c4.875,0,8.828-3.953,8.828-8.828v-35.31c0-4.875-3.953-8.828-8.828-8.828   h-35.31c-4.875,0-8.828,3.953-8.828,8.828v35.31C158.897,154.944,162.849,158.897,167.724,158.897z" fill="#ffdc69"/><circle cx="185" cy="203" r="17" fill="#ffdc69"/><circle cx="256" cy="388" r="17" fill="#ffdc69"/></g><circle cx="326" cy="132" r="17" fill="#ff6469"/><path d="M247.172,211.862h17.655c4.875,0,8.828-3.953,8.828-8.828l0,0c0-4.875-3.953-8.828-8.828-8.828  h-17.655c-4.875,0-8.828,3.953-8.828,8.828l0,0C238.345,207.91,242.297,211.862,247.172,211.862z" fill="#468cbe"/><path d="M317.793,282.483h17.655c4.875,0,8.828-3.953,8.828-8.828l0,0c0-4.875-3.953-8.828-8.828-8.828  h-17.655c-4.875,0-8.828,3.953-8.828,8.828l0,0C308.966,278.53,312.918,282.483,317.793,282.483z" fill="#ff6469"/><path d="M176.552,282.483h17.655c4.875,0,8.828-3.953,8.828-8.828l0,0c0-4.875-3.953-8.828-8.828-8.828  h-17.655c-4.875,0-8.828,3.953-8.828,8.828l0,0C167.724,278.53,171.677,282.483,176.552,282.483z" fill="#ffffff"/><circle cx="220" cy="335" r="8" fill="#464655"/><g><circle cx="256" cy="335" r="8" fill="#ffffff"/><circle cx="291" cy="335" r="8" fill="#ffffff"/></g></g><g transform="matrix(0.1171875 0 0 0.1171875 162.9999989128114 33)" id="L1_76"><g><path d="M421.36,83.741c-0.759,0-1.527-0.097-2.295-0.3l-25.582-6.859c-4.705-1.254-7.503-6.1-6.241-10.805    c1.254-4.705,6.118-7.503,10.805-6.241l25.591,6.85c4.705,1.262,7.495,6.109,6.241,10.814    C428.828,81.137,425.253,83.741,421.36,83.741" fill="#434c6d"/><path d="M329.955,512H135.748c-14.627,0-26.483-11.855-26.483-26.483V282.483h247.172v203.034    C356.438,500.145,344.582,512,329.955,512" fill="#434c6d"/></g><path d="M356.438,282.483H109.265c-14.627,0-26.483-11.855-26.483-26.483   c0-14.627,11.855-26.483,26.483-26.483h247.172c14.627,0,26.483,11.855,26.483,26.483   C382.92,270.627,371.065,282.483,356.438,282.483" fill="#2c3651"/><path d="M197.541,229.517 268.162,229.517 268.162,79.448 197.541,79.448z" fill="#a31c09"/><path d="M232.852,0l-13.25,16.569c-14.283,17.841-22.06,40.024-22.06,62.879h70.621   c0-22.855-7.777-45.038-22.06-62.879L232.852,0z" fill="#6c4126"/><path d="M224.024,229.517 241.679,229.517 241.679,79.448 224.024,79.448z" fill="#ce3929"/><g><path d="M368.352,170.38 300.142,152.098 327.551,49.778 395.771,68.06z" fill="#2c3651"/><path d="M415.556,164.75l-8.527-2.286c-4.705-1.262-7.503-6.1-6.241-10.814l25.132-93.793    c1.262-4.705,6.1-7.503,10.814-6.241l8.527,2.286c4.705,1.262,7.503,6.1,6.241,10.814l-25.132,93.793    C425.108,163.214,420.261,166.012,415.556,164.75" fill="#2c3651"/></g><path d="M395.769,68.058l-68.211-18.282l6.85-25.574c1.262-4.714,6.1-7.503,10.814-6.241l51.156,13.709   c4.714,1.254,7.503,6.1,6.241,10.805L395.769,68.058z" fill="#434c6d"/><path d="M134.191,69.717L65.98,87.999l-4.573-17.055c-5.049-18.838,6.135-38.206,24.964-43.246   c18.838-5.049,38.206,6.126,43.246,24.964L134.191,69.717z" fill="#cc4b4c"/><path d="M109.265,229.517h67.743L134.194,69.72l-68.22,18.273l38.065,142.053   C105.725,229.703,107.473,229.517,109.265,229.517" fill="#e39700"/><path d="M343.367,229.517 359.821,168.095 308.665,154.386 288.53,229.517z" fill="#434c6d"/><path d="M197.541,450.207 356.438,450.207 356.438,344.276 197.541,344.276z" fill="#ece8d8"/><g><path d="M232.852,388.414 356.438,388.414 356.438,370.759 232.852,370.759z" fill="#c9b693"/><path d="M250.507,423.724 356.438,423.724 356.438,406.069 250.507,406.069z" fill="#c9b693"/></g></g><g transform="matrix(0.4726828634738922 0 0 0.4726828634738922 25.000000447179218 155)" id="L1_77"><path d="M21.528,104.172c0,4.52-3.662,8.181-8.182,8.181l0,0c-4.519,0-8.182-3.661-8.182-8.181V80.436    c0-4.52,3.662-8.183,8.182-8.183l0,0c4.519,0,8.182,3.663,8.182,8.183V104.172z" fill="#ff1a1a"/><path d="M13.346,72.254c-4.519,0-8.182,3.663-8.182,8.183v1.61c0,4.519,3.662,8.181,8.182,8.181    s8.182-3.662,8.182-8.181v-1.61C21.528,75.917,17.866,72.254,13.346,72.254z" fill="#ff7676"/><path d="M13.346,113.853c-5.339,0-9.682-4.343-9.682-9.681V80.437c0-5.339,4.343-9.683,9.682-9.683    s9.682,4.344,9.682,9.683v23.735C23.028,109.51,18.685,113.853,13.346,113.853z M13.346,73.754c-3.685,0-6.682,2.998-6.682,6.683    v23.735c0,3.684,2.997,6.681,6.682,6.681s6.682-2.997,6.682-6.681V80.437C20.028,76.752,17.031,73.754,13.346,73.754z" fill="#33363a"/><path d="M121.77,104.172c0,4.52-3.662,8.181-8.183,8.181l0,0c-4.519,0-8.181-3.661-8.181-8.181V80.436    c0-4.52,3.662-8.183,8.181-8.183l0,0c4.521,0,8.183,3.663,8.183,8.183V104.172z" fill="#ff1a1a"/><path d="M113.587,72.254c-4.519,0-8.181,3.663-8.181,8.183v1.61c0,4.519,3.662,8.181,8.181,8.181    c4.521,0,8.183-3.662,8.183-8.181v-1.61C121.77,75.917,118.108,72.254,113.587,72.254z" fill="#ff7676"/><path d="M113.587,113.853c-5.338,0-9.681-4.343-9.681-9.681V80.437c0-5.339,4.343-9.683,9.681-9.683    c5.339,0,9.683,4.344,9.683,9.683v23.735C123.27,109.51,118.926,113.853,113.587,113.853z M113.587,73.754    c-3.684,0-6.681,2.998-6.681,6.683v23.735c0,3.684,2.997,6.681,6.681,6.681c3.685,0,6.683-2.997,6.683-6.681V80.437    C120.27,76.752,117.272,73.754,113.587,73.754z" fill="#33363a"/><path d="M66.922,11.39H60.01c-24.771,0-44.926,20.156-44.926,44.928v51.838    c0,9.543,7.734,17.279,17.279,17.279h62.205c9.545,0,17.281-7.736,17.281-17.279V56.317C111.85,31.546,91.695,11.39,66.922,11.39z    " fill="#8de4ff"/><path d="M66.922,23.593H60.01c-24.771,0-44.926,20.156-44.926,44.928v39.635    c0,9.543,7.734,17.279,17.279,17.279h62.205c9.545,0,17.281-7.736,17.281-17.279V68.52C111.85,43.749,91.695,23.593,66.922,23.593    z" fill="#00aaff"/><path d="M95.631,96.541c0,8.091-6.559,14.652-14.65,14.652H45.954c-8.09,0-14.65-6.562-14.65-14.652V85.552    c0-8.09,6.561-14.648,14.65-14.648h35.027c8.092,0,14.65,6.559,14.65,14.648V96.541z" fill="#ff1a1a"/><path d="M45.954,70.903c-5.369,0-10.051,2.896-12.603,7.205c2.552,4.31,7.233,7.209,12.603,7.209h35.027    c5.369,0,10.051-2.899,12.601-7.209c-2.551-4.309-7.232-7.205-12.601-7.205H45.954z" fill="#ff7676"/><path d="M95.571,58.81c-0.828,0-1.5-0.671-1.5-1.5c0-15.61-12.7-28.31-28.312-28.31h-4.585    c-15.61,0-28.311,12.7-28.311,28.31c0,0.829-0.672,1.5-1.5,1.5s-1.5-0.671-1.5-1.5C29.864,40.045,43.91,26,61.174,26h4.585    c17.266,0,31.312,14.045,31.312,31.31C97.071,58.138,96.399,58.81,95.571,58.81z" fill="#33363a"/><path d="M95.85,68.479c-1.287,0-2.334-1.048-2.334-2.336v-2.633c0-1.287,1.047-2.334,2.334-2.334    s2.334,1.047,2.334,2.334v2.633C98.184,67.432,97.137,68.479,95.85,68.479z" fill="#33363a"/><path d="M78.495,11.35C76.623,4.808,70.602,0,63.467,0C56.333,0,50.311,4.807,48.44,11.35   C28.42,16.504,13.584,34.71,13.584,56.317v51.838c0,10.355,8.425,18.779,18.779,18.779h62.205c10.356,0,18.781-8.424,18.781-18.779   V56.317C113.35,34.711,98.515,16.505,78.495,11.35z M63.467,3c5.185,0,9.647,3.141,11.594,7.619   c-2.645-0.47-5.361-0.729-8.139-0.729H60.01c-2.777,0-5.493,0.259-8.137,0.729C53.821,6.141,58.282,3,63.467,3z M110.35,108.155   c0,8.701-7.079,15.779-15.781,15.779H32.364c-8.701,0-15.779-7.079-15.779-15.779V56.317c0-19.735,13.236-36.426,31.294-41.69   c-0.022,0.337-0.051,0.672-0.051,1.015c0,0.829,0.672,1.5,1.5,1.5s1.5-0.671,1.5-1.5c0-0.612,0.059-1.21,0.143-1.799   c2.918-0.62,5.941-0.953,9.041-0.953h6.912c3.101,0,6.124,0.333,9.042,0.954c0.084,0.589,0.143,1.186,0.143,1.798   c0,0.829,0.672,1.5,1.5,1.5s1.5-0.671,1.5-1.5c0-0.342-0.03-0.677-0.051-1.014c18.057,5.265,31.294,21.955,31.294,41.69V108.155z" fill="#33363a"/><g><path d="M80.981,69.403H45.954c-8.905,0-16.15,7.244-16.15,16.148v10.989    c0,8.906,7.245,16.152,16.15,16.152h35.027c8.905,0,16.15-7.246,16.15-16.152V85.552C97.131,76.647,89.886,69.403,80.981,69.403z     M80.981,109.693H45.954c-4.805,0-9.004-2.599-11.299-6.457h1.98c0.828,0,1.5-0.671,1.5-1.5s-0.672-1.5-1.5-1.5h-3.294    c-0.344-1.174-0.538-2.412-0.538-3.695V85.552c0-7.25,5.899-13.148,13.15-13.148h35.027c7.251,0,13.15,5.898,13.15,13.148v10.989    c0,1.284-0.193,2.522-0.538,3.695h-3.294c-0.828,0-1.5,0.671-1.5,1.5s0.672,1.5,1.5,1.5h1.98    C89.985,107.095,85.786,109.693,80.981,109.693z" fill="#33363a"/><path d="M51.967,100.236h-7.666c-0.828,0-1.5,0.671-1.5,1.5s0.672,1.5,1.5,1.5h7.666    c0.828,0,1.5-0.671,1.5-1.5S52.795,100.236,51.967,100.236z" fill="#33363a"/><path d="M67.3,100.236h-7.666c-0.828,0-1.5,0.671-1.5,1.5s0.672,1.5,1.5,1.5H67.3    c0.828,0,1.5-0.671,1.5-1.5S68.128,100.236,67.3,100.236z" fill="#33363a"/><path d="M82.632,100.236h-7.666c-0.828,0-1.5,0.671-1.5,1.5s0.672,1.5,1.5,1.5h7.666    c0.828,0,1.5-0.671,1.5-1.5S83.46,100.236,82.632,100.236z" fill="#33363a"/></g></g><g transform="matrix(0.1171875 0 0 0.1171875 127.99999999999997 186)" id="L1_78"><path d="M486.509,420.091L305.863,239.445c-3.119-3.117-8.173-3.117-11.291,0l-78.28,78.28  c-1.497,1.498-2.338,3.528-2.338,5.646c0,2.117,0.841,4.147,2.338,5.646l180.646,180.645c1.525,1.524,3.566,2.338,5.647,2.338  c0.921,0,1.85-0.159,2.745-0.488c2.919-1.069,4.951-3.735,5.21-6.833l5.461-65.526l65.527-5.462c3.098-0.258,5.764-2.29,6.833-5.208  C489.429,425.564,488.706,422.29,486.509,420.091z" fill="#ff8c29"/><path d="M256.697,277.32l-40.405,40.405c-1.497,1.498-2.338,3.528-2.338,5.646  c0,2.117,0.841,4.147,2.338,5.646l180.646,180.645c1.525,1.524,3.566,2.338,5.647,2.338c0.921,0,1.85-0.159,2.745-0.488  c2.919-1.069,4.951-3.735,5.21-6.833l5.461-65.526l2.337-0.195L256.697,277.32z" fill="#fd6a33"/><path d="M295.709,317.725l-78.28-78.28c-3.119-3.116-8.173-3.118-11.291,0L25.491,420.091  c-2.198,2.198-2.92,5.474-1.85,8.392c1.069,2.919,3.735,4.951,6.833,5.208l65.528,5.462l5.461,65.526  c0.258,3.098,2.29,5.764,5.209,6.833c0.896,0.329,1.824,0.488,2.745,0.488c2.081,0,4.123-0.814,5.647-2.338l180.645-180.645  c1.497-1.498,2.338-3.528,2.338-5.646C298.046,321.254,297.205,319.224,295.709,317.725z" fill="#ff8c29"/><path d="M257.431,279.449L96.133,440.748l5.328,63.932c0.258,3.098,2.29,5.764,5.209,6.833  c0.896,0.329,1.824,0.488,2.745,0.488c2.081,0,4.123-0.814,5.647-2.338l180.646-180.645c1.497-1.498,2.338-3.528,2.338-5.646  c0-2.117-0.841-4.148-2.338-5.646L257.431,279.449z" fill="#fd6a33"/><path d="M448.478,158.035l-50.466-42.346l-11.44-64.879c-0.673-3.815-3.987-6.597-7.862-6.597h-65.88  L262.365,1.868c-2.969-2.491-7.296-2.491-10.265,0l-50.465,42.346h-65.879c-3.875,0-7.189,2.781-7.862,6.597l-11.441,64.878  l-50.465,42.346c-2.968,2.491-3.719,6.752-1.782,10.107l32.938,57.053l-11.439,64.877c-0.674,3.816,1.49,7.563,5.131,8.889  l61.906,22.532l32.939,57.053c1.937,3.354,5.999,4.837,9.645,3.511l61.905-22.532l61.905,22.532  c0.897,0.327,1.819,0.482,2.728,0.482c2.786,0,5.455-1.464,6.916-3.993l32.939-57.053l61.906-22.532  c3.64-1.325,5.805-5.073,5.131-8.889l-11.439-64.877l32.939-57.053C452.198,164.787,451.445,160.525,448.478,158.035z" fill="#4acfd9"/><path d="M256,68.52c-70.141,0-127.204,57.063-127.204,127.204S185.859,322.927,256,322.927  s127.204-57.063,127.204-127.204S326.141,68.52,256,68.52z" fill="#fd6a33"/><path d="M347.88,170.301c-1.069-3.29-4.134-5.517-7.593-5.517h-58.921l-18.208-56.038  c-1.069-3.29-4.134-5.517-7.593-5.517s-6.524,2.227-7.593,5.517l-18.208,56.038h-58.922c-3.458,0-6.524,2.227-7.593,5.517  c-1.069,3.289,0.102,6.893,2.901,8.926l47.669,34.633l-18.208,56.039c-1.069,3.289,0.102,6.893,2.901,8.926  c1.399,1.017,3.045,1.525,4.692,1.525c1.647,0,3.293-0.508,4.692-1.525l47.669-34.632l47.668,34.632  c2.798,2.033,6.587,2.033,9.384,0c2.798-2.032,3.969-5.636,2.901-8.926l-18.208-56.039l47.669-34.633  C347.778,177.194,348.948,173.59,347.88,170.301z" fill="#ffffff"/><path d="M252.101,1.868l-50.465,42.346h-65.879c-3.875,0-7.189,2.781-7.862,6.597l-11.441,64.878  l-50.465,42.346c-2.968,2.491-3.719,6.752-1.782,10.107l32.938,57.053l-11.439,64.877c-0.674,3.816,1.49,7.563,5.131,8.889  l61.906,22.532l32.939,57.053c1.937,3.354,5.999,4.837,9.645,3.511l60.672-22.083V0.105C254.602,0.324,253.249,0.905,252.101,1.868z  " fill="#0295aa"/><path d="M128.796,195.723c0,70.141,57.063,127.204,127.204,127.204V68.52  C185.86,68.52,128.796,125.584,128.796,195.723z" fill="#f0353d"/><path d="M255.565,103.231c-3.458,0-6.524,2.227-7.593,5.517l-18.208,56.038h-58.922  c-3.458,0-6.524,2.227-7.593,5.517c-1.069,3.289,0.102,6.893,2.901,8.926l47.669,34.633l-18.208,56.039  c-1.069,3.289,0.102,6.893,2.901,8.926c1.399,1.017,3.045,1.525,4.692,1.525c1.647,0,3.293-0.508,4.692-1.525l47.669-34.632  L256,244.51V103.265C255.854,103.258,255.712,103.231,255.565,103.231z" fill="#ffd1a9"/></g><g transform="matrix(1 0 0 1 201 186)" id="L1_79"><path d="M41.857,22.096C43.82,20.786,45,18.582,45,16.222V5H15v11.222c0,2.36,1.18,4.564,3.143,5.874  l9.319,6.843C27.8,29.187,28,29.581,28,30l0,0c0,0.419-0.2,0.813-0.537,1.061l-9.319,6.843C16.18,39.214,15,41.418,15,43.778V55h30  V43.778c0-2.36-1.18-4.564-3.143-5.874l-9.319-6.843C32.2,30.813,32,30.419,32,30l0,0c0-0.419,0.2-0.813,0.537-1.061L41.857,22.096z  " fill="#e6e6e6"/><rect x="10px" y="55px" width="40px" height="4px" fill="#9e6c53"/><rect x="10px" y="1px" width="40px" height="4px" fill="#9e6c53"/><g><path d="M54,58h-4H6c-0.552,0-1,0.447-1,1s0.448,1,1,1h44h4c0.552,0,1-0.447,1-1S54.552,58,54,58z" fill="#8a5336"/><path d="M6,2h44h4c0.552,0,1-0.447,1-1s-0.448-1-1-1h-4H6C5.448,0,5,0.447,5,1S5.448,2,6,2z" fill="#8a5336"/></g><path d="M40.192,19.6C41.324,18.845,42,17.582,42,16.223v0c0-1.306-0.889-2.445-2.156-2.762L24.791,9.698  C21.342,8.835,18,11.444,18,15v1.223c0,1.359,0.676,2.622,1.808,3.377L29,26.346v15.877c0,3.63-3.764,6.036-7.058,4.511l0,0  c-1.774-0.821-3.922,0.394-3.941,2.349c0,0.014,0,0.027,0,0.041V55h24V43.777c0-0.014,0-0.027,0-0.041  c-0.019-1.931-1.889-3.322-3.791-2.991l-2.049,0.357C33.466,41.571,31,39.497,31,36.763V26.346L40.192,19.6z" fill="#ebba16"/></g><g transform="matrix(1.1019873256351345 -0.6181880268974378 0.6181880268974378 1.1019873256351345 273.83508917541366 219.45361868167018)" id="L1_80"><path d="M24,29.5h8c0-2-1.346-3.146-3-3.146c-0.552,0-1-0.521-1-1.073c0-1.654-1.346-3.037-3-3.037   c-0.29,0-0.574,0.025-0.847,0.105c-0.006,0.168-0.039,0.325-0.128,0.472c-0.143,0.237-0.378,0.4-0.649,0.458   C21.999,23.57,21,24.948,21,26.356C21,28.01,22.346,29.5,24,29.5z" fill="#66cedb"/><path d="M29.916,24.438C32.237,24.869,34,26.5,34,29.5h11c0.552,0,1,0.448,1,1c0,1.654,1.346,3,3,3h1v-3.292   c0-0.552,0.448-1,1-1c1.654,0,3-1.346,3-3c0-1.408-0.999-2.642-2.376-2.933c-0.271-0.058-0.506-0.225-0.649-0.462   s-0.181-0.524-0.105-0.79C50.958,21.709,51,21.45,51,21.208c0-1.654-1.346-3-3-3c-0.226,0-0.468,0.036-0.759,0.113   c-0.308,0.08-0.634,0.012-0.881-0.187c-0.247-0.198-0.386-0.503-0.373-0.819c0.001-0.034,0.011-0.135,0.016-0.168   C46,15.553,44.654,14.208,43,14.208c-0.602,0-1.182,0.178-1.679,0.514c-0.257,0.174-0.58,0.221-0.875,0.121   c-0.295-0.097-0.527-0.326-0.63-0.619c-0.422-1.206-1.554-2.016-2.817-2.016s-2.395,0.81-2.817,2.016   c-0.103,0.293-0.335,0.522-0.63,0.619c-0.293,0.1-0.618,0.053-0.875-0.121c-0.497-0.336-1.077-0.514-1.679-0.514   c-1.654,0-3,1.346-3,3c0,0.552-0.448,1-1,1c-1.33,0-2.448,0.876-2.84,2.077c0.276-0.047,0.556-0.004,0.84-0.004   C27.444,20.281,29.484,22.117,29.916,24.438z" fill="#ee8b26"/><path d="M5,37.208c0.552,0,1,0.448,1,1V41.5h1c1.654,0,3-1.346,3-3c0-0.552,0.448-1,1-1h21   c1.654,0,3-1.492,3-3.146c0-1.408-0.999-2.568-2.376-2.859c-0.056-0.013-0.101,0.005-0.153,0.005H24c-2.757,0-5-2.389-5-5.146   c0-1.864,1.057-3.606,2.639-4.462c-0.512-0.978-1.523-1.647-2.639-1.647c-1.263,0-2.395,0.792-2.817,1.997   c-0.103,0.293-0.335,0.513-0.63,0.61c-0.293,0.098-0.617,0.048-0.875-0.126C14.182,22.39,13.602,22.21,13,22.21   c-1.654,0-3,1.345-3,2.999c0.004-0.009,0.011,0.046,0.014,0.106c0.013,0.317-0.126,0.621-0.373,0.819   c-0.248,0.199-0.574,0.269-0.881,0.187c-0.291-0.077-0.533-0.113-0.759-0.113c-1.654,0-3,1.346-3,3   c0,0.243,0.041,0.502,0.131,0.815c0.076,0.267,0.038,0.553-0.105,0.79s-0.378,0.405-0.649,0.462C2.999,31.566,2,32.799,2,34.208   C2,35.862,3.346,37.208,5,37.208z" fill="#f8cf26"/><g><path d="M52.98,21.619C52.994,21.48,53,21.344,53,21.208c0-2.79-2.294-5.043-5.1-4.999c-0.464-2.28-2.485-4.001-4.9-4.001    c-0.618,0-1.223,0.113-1.79,0.331c-0.902-1.428-2.482-2.331-4.21-2.331s-3.308,0.903-4.21,2.331    c-0.256-0.098-0.521-0.168-0.79-0.223V8.208C32,5.451,29.757,3.5,27,3.5H8c-2.757,0-5,1.951-5,4.708v11.586L1.707,18.5    l-1.414,1.414l3,3C3.488,23.11,3.744,23.208,4,23.208s0.512-0.098,0.707-0.293l3-3L6.293,18.5L5,19.793V8.208    C5,6.553,6.346,5.5,8,5.5h19c1.654,0,3,1.053,3,2.708v4.109c-1.983,0.405-3.545,1.98-3.916,3.975    c-1.745,0.325-3.174,1.559-3.776,3.191c-0.894-0.799-2.06-1.275-3.308-1.275c-1.728,0-3.308,0.903-4.21,2.331    c-0.567-0.218-1.172-0.331-1.79-0.331c-2.415,0-4.436,1.721-4.9,4.001C5.319,24.158,3,26.417,3,29.208    c0,0.136,0.006,0.272,0.02,0.411C1.224,30.397,0,32.195,0,34.208c0,2.415,1.721,4.435,4,4.899v3.101C4,42.76,4.448,43.5,5,43.5h2    c2.415,0,4.435-2,4.899-4H16v7.708c0,2.756,2.243,5.292,5,5.292h17c2.757,0,5-2.536,5-5.292V36.622l1.293,1.293l1.414-1.415l-3-3    c-0.391-0.391-1.023-0.391-1.414,0l-3,3l1.414,1.414L41,36.622v10.586c0,1.654-1.346,3.292-3,3.292H21c-1.654,0-3-1.638-3-3.292    V39.5h14c2.757,0,5-2.243,5-5c0-1.114-0.385-3-1.024-3h8.125c0.464,2,2.485,4,4.899,4h2c0.552,0,1-0.74,1-1.292v-3.101    c2.279-0.464,4-2.485,4-4.899C56,24.195,54.776,22.397,52.98,21.619z M24,29.5c-1.654,0-3-1.492-3-3.146    c0-1.408,0.999-2.715,2.376-3.006c0.271-0.058,0.506-0.262,0.649-0.499c0.089-0.147,0.122-0.331,0.128-0.5    c0.273-0.08,0.557-0.133,0.847-0.133c1.654,0,3,1.341,3,2.995c0,0.552,0.448,1.144,1,1.144c1.654,0,3,1.144,3,3.144L24,29.5    L24,29.5L24,29.5z M32.624,31.421C34.001,31.712,35,33.019,35,34.427c0,1.654-1.346,3.073-3,3.073H11c-0.552,0-1,0.448-1,1    c0,1.654-1.346,3-3,3H6v-3.292c0-0.552-0.448-1-1-1c-1.654,0-3-1.346-3-3c0-1.408,0.999-2.642,2.376-2.933    c0.271-0.058,0.506-0.225,0.649-0.462s0.181-0.523,0.105-0.79C5.041,29.709,5,29.45,5,29.208c0-1.654,1.346-3,3-3    c0.226,0,0.468,0.036,0.759,0.113c0.307,0.082,0.633,0.012,0.881-0.187c0.247-0.198,0.386-0.503,0.373-0.819    c-0.002-0.059-0.009-0.116-0.014-0.106c0-1.654,1.346-3,3-3c0.602,0,1.182,0.178,1.679,0.514c0.258,0.174,0.581,0.219,0.875,0.121    c0.295-0.097,0.527-0.326,0.63-0.619c0.422-1.206,1.554-2.016,2.817-2.016c1.115,0,2.127,0.633,2.639,1.611    C20.057,22.675,19,24.49,19,26.354c0,2.757,2.243,5.146,5,5.146h8.471C32.523,31.5,32.568,31.409,32.624,31.421z M51,29.208    c-0.552,0-1,0.448-1,1V33.5h-1c-1.654,0-3-1.346-3-3c0-0.552-0.448-1-1-1H34c0-3-1.763-4.631-4.084-5.062    c-0.432-2.321-2.472-4.157-4.916-4.157c-0.284,0-0.564-0.007-0.84,0.04c0.392-1.201,1.509-2.095,2.84-2.095    c0.552,0,1-0.457,1-1.009c0-1.654,1.346-3.005,3-3.005c0.602,0,1.182,0.175,1.679,0.511c0.257,0.174,0.581,0.22,0.875,0.12    c0.295-0.097,0.527-0.327,0.63-0.62c0.422-1.205,1.554-2.016,2.817-2.016s2.395,0.81,2.817,2.015    c0.102,0.293,0.335,0.522,0.63,0.619c0.294,0.1,0.618,0.053,0.875-0.121c0.497-0.336,1.077-0.514,1.679-0.514    c1.654,0,3,1.346,3.002,2.938c-0.005,0.034-0.015,0.134-0.016,0.168c-0.013,0.317,0.126,0.621,0.373,0.819    c0.247,0.199,0.573,0.267,0.881,0.187c0.292-0.077,0.533-0.113,0.759-0.113c1.654,0,3,1.346,3,3c0,0.243-0.042,0.502-0.131,0.815    c-0.076,0.267-0.038,0.553,0.105,0.79s0.378,0.405,0.649,0.462C53.001,23.566,54,24.799,54,26.208    C54,27.862,52.654,29.208,51,29.208z"/><rect x="42px" y="4px" width="2px" height="2px"/><rect x="46px" y="4px" width="2px" height="2px"/><rect x="50px" y="4px" width="2px" height="2px"/><rect x="4px" y="50px" width="2px" height="2px"/><rect x="8px" y="50px" width="2px" height="2px"/><rect x="12px" y="50px" width="2px" height="2px"/></g></g><g transform="matrix(1.4285714626312256 0 0 1.4285714626312256 56 216)" id="L1_81"><circle cx="21" cy="21" r="21" fill="#fbd971"/><path d="M18.387,34.993c-1.981,0-3.953-0.38-5.771-1.138c-0.51-0.212-0.751-0.798-0.538-1.308   c0.212-0.509,0.795-0.752,1.308-0.538c3.052,1.271,6.606,1.313,9.753,0.116c3.217-1.224,5.682-3.561,6.939-6.578   c0.211-0.509,0.796-0.751,1.308-0.538c0.51,0.212,0.75,0.798,0.538,1.308c-1.47,3.529-4.338,6.257-8.073,7.678   C22.1,34.661,20.239,34.993,18.387,34.993z" fill="#f0c419"/><g><path d="M15,21H9c-2.2,0-4-1.8-4-4v-4c0-2.2,1.8-4,4-4h6c2.2,0,4,1.8,4,4v4C19,19.2,17.2,21,15,21z" fill="#d0e8f9"/><path d="M15,22H9c-2.757,0-5-2.243-5-5v-4c0-2.757,2.243-5,5-5h6c2.757,0,5,2.243,5,5v4    C20,19.757,17.757,22,15,22z M9,10c-1.654,0-3,1.346-3,3v4c0,1.654,1.346,3,3,3h6c1.654,0,3-1.346,3-3v-4c0-1.654-1.346-3-3-3H9z" fill="#556080"/></g><rect x="19px" y="14px" width="4px" height="2px" fill="#556080"/><circle cx="12" cy="15" r="3" fill="#556080"/><g><path d="M33,21h-6c-2.2,0-4-1.8-4-4v-4c0-2.2,1.8-4,4-4h6c2.2,0,4,1.8,4,4v4C37,19.2,35.2,21,33,21z" fill="#d0e8f9"/><path d="M33,22h-6c-2.757,0-5-2.243-5-5v-4c0-2.757,2.243-5,5-5h6c2.757,0,5,2.243,5,5v4    C38,19.757,35.757,22,33,22z M27,10c-1.654,0-3,1.346-3,3v4c0,1.654,1.346,3,3,3h6c1.654,0,3-1.346,3-3v-4c0-1.654-1.346-3-3-3H27    z" fill="#556080"/></g><circle cx="30" cy="15" r="3" fill="#556080"/><path d="M4.324,16.737l1.352-1.475l-3.607-3.306c-0.305,0.638-0.578,1.292-0.819,1.963L4.324,16.737z" fill="#556080"/><path d="M39.833,11.753l-3.54,3.54l1.414,1.414l2.975-2.975C40.431,13.055,40.149,12.395,39.833,11.753z" fill="#556080"/></g><g transform="matrix(0.21426504850387573 0 0 0.21426504850387573 134 261)" id="L1_82"><path d="M52.505,35.003h35.003c4.839,0,8.751,3.929,8.751,8.768v175c0,4.839-3.912,8.751-8.751,8.751H52.505   c-4.839,0-8.751-3.912-8.751-8.751V43.763C43.754,38.933,47.666,35.003,52.505,35.003z" fill="#3f95d4"/><path d="M61.256,218.771V43.763c0-4.83,3.912-8.76,8.751-8.76H52.505c-4.839,0-8.751,3.929-8.751,8.76   v175.008c0,4.839,3.912,8.751,8.751,8.751h17.502C65.168,227.522,61.256,223.602,61.256,218.771z" fill="#367fb4"/><path d="M0,227.522h280.027v52.505H0V227.522z" fill="#d99666"/><path d="M43.754,166.266h52.505v35.021H43.754V166.266z" fill="#f7cb8b"/><path d="M105.01,0h52.505c4.839,0,8.751,3.929,8.751,8.768v210.003c0,4.839-3.912,8.751-8.751,8.751H105.01   c-4.839,0-8.751-3.912-8.751-8.751V8.76C96.259,3.929,100.171,0,105.01,0z" fill="#349886"/><path d="M122.512,192.528h17.502V70.007h-17.502C122.512,70.007,122.512,192.528,122.512,192.528z    M122.512,35.003v17.502h17.502V35.003H122.512z" fill="#9accc3"/><path d="M175.017,52.505h52.505c4.839,0,8.751,3.929,8.751,8.751v157.515c0,4.839-3.912,8.751-8.751,8.751   h-52.505c-4.839,0-8.751-3.912-8.751-8.751V61.256C166.266,56.434,170.178,52.505,175.017,52.505z" fill="#e2574c"/><rect x="43px" y="166px" width="17px" height="35px" fill="#d2ad77"/><path d="M113.761,218.771V8.76c0-4.83,3.912-8.76,8.751-8.76H105.01c-4.839,0-8.751,3.929-8.751,8.76   v210.012c0,4.839,3.912,8.751,8.751,8.751h17.502C117.673,227.522,113.761,223.602,113.761,218.771z" fill="#2c8172"/><path d="M183.768,218.771V61.256c0-4.822,3.912-8.751,8.751-8.751h-17.502c-4.839,0-8.751,3.929-8.751,8.751   v157.515c0,4.839,3.912,8.751,8.751,8.751h17.502C187.68,227.522,183.768,223.602,183.768,218.771z" fill="#c04a40"/><path d="M166.266,140.014h70.007V105.01h-70.007V140.014z M166.266,87.509v8.768h70.007v-8.768H166.266z" fill="#f7cb8b"/><g><rect x="166px" y="87px" width="17px" height="8px" fill="#d2ad77"/><rect x="166px" y="105px" width="17px" height="35px" fill="#d2ad77"/></g></g><g transform="matrix(0.1171875 0 0 0.1171875 206.00000094413758 262)" id="L1_83"><path d="M317.89,256c0,30.72-24.747,54.613-54.613,54.613c-30.72,0-54.613-24.747-54.613-54.613  s24.747-54.613,54.613-54.613C293.144,201.387,317.89,225.28,317.89,256" fill="#cc66a1"/><path d="M262.424,17.067c-40.107,0-82.773,96.427-82.773,238.933s42.667,238.933,82.773,238.933  c9.387,0,17.92-5.12,27.307-14.507c-5.12-5.973-8.533-14.507-8.533-23.04c0-21.333,18.773-38.4,40.107-35.84  C336.664,376.32,345.197,317.44,345.197,256C346.05,113.493,302.53,17.067,262.424,17.067 M262.424,512  c-56.32,0-99.84-112.64-99.84-256S206.957,0,262.424,0c56.32,0,100.693,112.64,100.693,256c0,67.413-10.24,130.56-28.16,179.2  l-2.56,7.68l-7.68-2.56c-2.56-0.853-4.267-0.853-6.827-0.853c-10.24,0-18.773,8.533-18.773,18.773c0,5.973,2.56,11.947,7.68,15.36  l6.827,5.12l-5.12,6.827C294.85,502.613,279.49,512,262.424,512" fill="#d1d4d1"/><path d="M364.824,112.64c-46.08,12.8-98.987,39.253-149.333,75.093  C131.864,246.613,70.424,317.44,62.744,365.227c-1.707,11.093,0,20.48,4.267,27.307c29.013,39.253,131.413,10.24,243.2-68.267  c87.893-61.44,147.627-128,154.453-173.227c1.707-12.8,0-23.04-6.827-31.573c-5.973-7.68-15.36-12.8-27.307-14.507  c-2.56,7.68-6.827,15.36-13.653,19.627c-7.68,5.12-17.067,7.68-27.307,5.973c-9.387-1.707-17.92-6.827-23.04-14.507  C366.53,115.2,365.677,113.493,364.824,112.64 M111.384,426.667c-28.16,0-47.787-8.533-58.88-23.893  c-6.827-10.24-9.387-23.893-6.827-40.107c8.533-52.053,72.533-128,159.573-188.587c55.467-38.4,112.64-67.413,162.133-79.36  l8.533-1.707l2.56,8.533c0.853,2.56,1.707,4.267,2.56,5.973c2.56,4.267,7.68,6.827,11.947,7.68c5.12,0.853,10.24,0,14.507-3.413  c5.12-3.413,7.68-9.387,7.68-15.36v-8.533l8.533,0.853c22.187,0.853,38.4,8.533,47.787,22.187l0,0  c9.387,11.947,12.8,27.307,9.387,44.373c-7.68,50.347-68.267,119.467-162.133,185.173  C229.997,401.067,159.17,426.667,111.384,426.667" fill="#bcbcbc"/><path d="M93.464,209.067c28.16,38.4,70.827,79.36,122.027,115.2c93.867,65.707,186.027,92.16,225.28,83.627  c9.387-1.707,15.36-5.973,18.773-11.093c25.6-45.227-32.427-127.147-149.333-209.067C200.984,111.787,94.317,81.067,67.01,119.467  c-5.12,7.68-6.827,17.92-3.413,30.72c8.533-0.853,16.213,1.707,23.893,5.973c7.68,5.12,12.8,13.653,14.507,23.04  s-0.853,18.773-5.973,27.307C95.17,207.36,94.317,208.213,93.464,209.067 M423.704,426.667c-54.613,0-141.653-34.133-217.6-87.893  c-55.467-38.4-101.547-83.627-130.56-125.44l-5.12-6.827l6.827-5.12c1.707-1.707,3.413-2.56,4.267-4.267  c2.56-4.267,4.267-9.387,3.413-14.507c-0.853-5.12-3.413-9.387-7.68-11.947c-5.12-3.413-11.093-4.267-17.067-2.56l-8.533,2.56  l-2.56-8.533c-6.827-22.187-5.12-40.107,4.267-52.907c38.4-52.907,163.84-7.68,267.093,64.853  c128,89.6,185.173,176.64,152.747,231.253c-5.973,9.387-15.36,16.213-29.867,18.773C437.357,425.813,430.53,426.667,423.704,426.667  " fill="#aaaaaa"/><path d="M426.264,74.24c-11.093-16.213-34.133-20.48-50.347-8.533c-16.213,11.093-20.48,34.133-8.533,50.347  c5.12,7.68,13.653,12.8,23.04,14.507c1.707,0,4.267,0.853,5.973,0.853c7.68,0,14.507-2.56,20.48-6.827  c7.68-5.12,12.8-13.653,14.507-23.04C433.944,92.16,431.384,82.773,426.264,74.24" fill="#3b97d3"/><path d="M86.637,156.16c-16.213-11.093-38.4-7.68-50.347,8.533c-11.093,16.213-7.68,38.4,8.533,50.347  c5.973,4.267,13.653,6.827,20.48,6.827c1.707,0,4.267,0,5.973-0.853c9.387-1.707,17.92-6.827,23.04-14.507  C107.117,189.44,102.85,167.253,86.637,156.16" fill="#3eec93"/><path d="M317.89,421.547c-19.627,0-35.84,16.213-35.84,35.84c0,19.627,16.213,35.84,35.84,35.84  c19.627,0,35.84-16.213,35.84-35.84C353.73,437.76,337.517,421.547,317.89,421.547" fill="#f29c1f"/></g><g transform="matrix(0.1171875 0 0 0.1171875 -2 257)" id="L1_84"><g><path d="M314.88,203.093c-2.56,0-4.267-0.853-5.973-2.56c-3.413-3.413-3.413-8.533,0-11.947l85.333-85.333   c3.413-3.413,8.533-3.413,11.947,0s3.413,8.533,0,11.947l-85.333,85.333C319.147,202.24,317.44,203.093,314.88,203.093" fill="#d1d4d1"/><path d="M139.093,381.44c-2.56,0-4.267-0.853-5.973-2.56c-3.413-3.413-3.413-8.533,0-11.947l56.32-56.32   c3.413-3.413,8.533-3.413,11.947,0c3.413,3.413,3.413,8.533,0,11.947l-56.32,56.32C144.213,380.587,141.653,381.44,139.093,381.44" fill="#d1d4d1"/><path d="M386.56,395.093c-2.56,0-4.267-0.853-5.973-2.56l-70.827-70.827c-3.413-3.413-3.413-8.533,0-11.947   s8.533-3.413,11.947,0l70.827,70.827c3.413,3.413,3.413,8.533,0,11.947C391.68,394.24,389.12,395.093,386.56,395.093" fill="#d1d4d1"/><path d="M195.413,203.947c-2.56,0-4.267-0.853-5.973-2.56l-98.987-99.84c-3.413-3.413-3.413-8.533,0-11.947   s8.533-3.413,11.947,0l98.987,100.693c3.413,3.413,3.413,8.533,0,11.947C199.68,203.947,197.973,203.947,195.413,203.947" fill="#d1d4d1"/></g><path d="M256,162.133c-52.053,0-93.867,41.813-93.867,93.867s41.813,93.867,93.867,93.867  s93.867-41.813,93.867-93.867S308.053,162.133,256,162.133" fill="#d25627"/><path d="M443.733,0c-37.547,0-68.267,30.72-68.267,68.267s30.72,68.267,68.267,68.267S512,105.813,512,68.267  S481.28,0,443.733,0" fill="#3b97d3"/><path d="M59.733,0C26.453,0,0,26.453,0,59.733s26.453,59.733,59.733,59.733s59.733-26.453,59.733-59.733  S93.013,0,59.733,0" fill="#f29c1f"/><path d="M435.2,358.4c-42.667,0-76.8,34.133-76.8,76.8s34.133,76.8,76.8,76.8s76.8-34.133,76.8-76.8  S477.867,358.4,435.2,358.4" fill="#cc66a1"/><path d="M85.333,341.333C38.4,341.333,0,379.733,0,426.667S38.4,512,85.333,512s85.333-38.4,85.333-85.333  S132.267,341.333,85.333,341.333" fill="#71c285"/><path d="M204.8,264.533c-5.12,0-8.533-3.413-8.533-8.533c0-33.28,26.453-59.733,59.733-59.733  c5.12,0,8.533,3.413,8.533,8.533c0,5.12-3.413,8.533-8.533,8.533c-23.893,0-42.667,18.773-42.667,42.667  C213.333,261.12,209.92,264.533,204.8,264.533" fill="#a54123"/><path d="M418.133,76.8c-5.12,0-8.533-3.413-8.533-8.533c0-18.773,15.36-34.133,34.133-34.133  c5.12,0,8.533,3.413,8.533,8.533s-3.413,8.533-8.533,8.533c-9.387,0-17.067,7.68-17.067,17.067  C426.667,73.387,423.253,76.8,418.133,76.8" fill="#2d769e"/><path d="M42.667,68.267c-5.12,0-8.533-3.413-8.533-8.533c0-14.507,11.093-25.6,25.6-25.6  c5.12,0,8.533,3.413,8.533,8.533S64.853,51.2,59.733,51.2S51.2,54.613,51.2,59.733S47.787,68.267,42.667,68.267" fill="#db8b28"/><path d="M401.067,443.733c-5.12,0-8.533-3.413-8.533-8.533c0-23.893,18.773-42.667,42.667-42.667  c5.12,0,8.533,3.413,8.533,8.533s-3.413,8.533-8.533,8.533c-14.507,0-25.6,11.093-25.6,25.6  C409.6,440.32,406.187,443.733,401.067,443.733" fill="#ad508a"/><path d="M42.667,435.2c-5.12,0-8.533-3.413-8.533-8.533c0-28.16,23.04-51.2,51.2-51.2  c5.12,0,8.533,3.413,8.533,8.533c0,5.12-3.413,8.533-8.533,8.533c-18.773,0-34.133,15.36-34.133,34.133  C51.2,431.787,47.787,435.2,42.667,435.2" fill="#599967"/></g><g transform="matrix(1.034482717514038 0 0 1.034482717514038 276 279)" id="L1_85"><path d="M52.232,44.235c-1.039-0.285-2.039-0.297-2.969-0.112c-0.632,0.126-1.286-0.008-1.788-0.411   l-1.411-1.132c-0.766-0.614-0.992-1.665-0.585-2.559c0.377-0.829,0.69-1.693,0.932-2.587c0.402-1.487,2.008-2.394,3.444-1.838   c1.535,0.593,3.311,0.557,4.908-0.266c2.772-1.429,3.996-4.918,2.728-7.767c-1.364-3.066-4.967-4.413-8.002-3.009   c-0.266,0.123-0.563,0.312-0.868,0.535c-1.36,0.995-3.169,0.637-4.034-0.809c-0.546-0.913-1.215-1.741-1.882-2.571   c-0.883-1.098-1.037-2.618-0.387-3.878l1.479-2.871c0.55-1.068,1.57-1.871,2.765-1.988c0.603-0.059,1.226-0.22,1.865-0.512   c1.888-0.864,3.284-2.642,3.537-4.703c0.486-3.963-2.896-7.283-6.876-6.689c-2.527,0.377-4.589,2.411-4.996,4.933   c-0.197,1.221-0.025,2.386,0.423,3.404c0.459,1.045,0.499,2.226-0.024,3.241l-1.158,2.249c-0.805,1.563-2.612,2.394-4.29,1.87   c-0.981-0.306-2.718-0.523-3.92-0.644c-0.787-0.079-1.438-0.646-1.621-1.416L28.36,9.904c-0.141-0.594,0.036-1.207,0.435-1.669   c0.945-1.093,1.431-2.589,1.119-4.212c-0.371-1.933-1.91-3.514-3.838-3.913C22.849-0.557,20.009,1.89,20.009,5   c0,2.146,1.356,3.962,3.256,4.668c0.611,0.227,1.095,0.705,1.246,1.339l0.913,3.852c0.219,0.925-0.304,1.849-1.198,2.172   c-1.281,0.462-2.491,1.072-3.608,1.813c-0.802,0.531-1.895,0.519-2.642-0.086c-0.815-0.661-0.991-1.728-0.603-2.64   c0.628-1.474,0.829-3.173,0.429-4.95c-0.683-3.039-3.181-5.446-6.243-6.021c-5.63-1.057-10.471,3.79-9.402,9.422   c0.603,3.175,3.181,5.722,6.36,6.297c1.408,0.254,2.765,0.139,3.991-0.264c0.847-0.279,1.776,0.029,2.335,0.724l0.4,0.498   c0.574,0.714,0.636,1.706,0.167,2.493c-1.177,1.973-1.964,4.202-2.258,6.587c-0.122,0.992-0.904,1.771-1.9,1.86l-1.899,0.17   c-0.65,0.058-1.266-0.211-1.732-0.667c-0.721-0.705-1.688-1.181-2.83-1.258c-1.783-0.12-3.526,0.87-4.309,2.477   c-1.295,2.657,0.195,5.671,2.899,6.372c1.949,0.505,3.916-0.356,4.926-1.979c0.363-0.584,1.017-0.926,1.702-0.987l1.631-0.146   c0.987-0.088,1.888,0.529,2.192,1.472c0.669,2.076,1.728,3.977,3.089,5.618c0.487,0.587,0.459,1.443-0.051,2.009   c-0.425,0.472-1.085,0.609-1.69,0.416c-0.687-0.219-1.434-0.307-2.209-0.233c-2.498,0.237-4.582,2.233-4.913,4.721   c-0.497,3.738,2.765,6.871,6.537,6.15c1.964-0.376,3.596-1.867,4.172-3.783c0.28-0.93,0.303-1.829,0.139-2.661   c-0.092-0.468,0.051-0.95,0.37-1.305l0.785-0.871c0.472-0.524,1.243-0.673,1.862-0.336c0.489,0.266,0.993,0.508,1.51,0.726   c1.104,0.464,1.704,1.618,1.598,2.81c-0.051,0.575-0.019,1.174,0.11,1.787c0.528,2.504,2.683,4.44,5.228,4.703   c3.6,0.372,6.638-2.443,6.638-5.967c0-0.384-0.037-0.76-0.107-1.124c-0.23-1.199,0.257-2.415,1.325-3.006   c0.984-0.545,1.909-1.185,2.761-1.909c0.525-0.446,1.222-0.7,1.891-0.531c1.365,0.345,1.95,1.682,1.526,2.836   c-0.376,1.023-0.502,2.167-0.301,3.36c0.463,2.746,2.736,4.939,5.495,5.313c4.215,0.571,7.784-2.901,7.378-7.088   C56.721,47.208,54.792,44.938,52.232,44.235z" fill="#694f87"/><circle cx="33" cy="25" r="1" fill="#bf4d90"/><circle cx="22" cy="37" r="1" fill="#bf4d90"/><circle cx="42" cy="40" r="1" fill="#bf4d90"/><circle cx="49" cy="30" r="1" fill="#bf4d90"/><circle cx="38" cy="21" r="1" fill="#bf4d90"/><circle cx="31" cy="42" r="5" fill="#bf4d90"/><circle cx="23" cy="28" r="3" fill="#bf4d90"/><circle cx="40" cy="31" r="3" fill="#bf4d90"/><circle cx="31" cy="45" r="1" fill="#ef7bc3"/><circle cx="13" cy="54" r="1" fill="#ef7bc3"/><circle cx="5" cy="33" r="1" fill="#ef7bc3"/><circle cx="4" cy="12" r="1" fill="#ef7bc3"/><circle cx="23" cy="4" r="1" fill="#ef7bc3"/><circle cx="47" cy="9" r="1" fill="#ef7bc3"/><circle cx="50" cy="54" r="1" fill="#ef7bc3"/><circle cx="54" cy="27" r="1" fill="#ef7bc3"/><circle cx="32" cy="54" r="1" fill="#ef7bc3"/><circle cx="40" cy="29" r="1" fill="#ef7bc3"/><circle cx="22" cy="29" r="1" fill="#ef7bc3"/></g><g transform="matrix(0.10775870829820633 0 0 0.10775870829820633 60.41377067565918 287.4137706756592)" id="L1_86"><circle cx="256" cy="256" r="247" fill="#f56e92"/><circle cx="256" cy="256" r="215" fill="#fccfdb"/><circle cx="256" cy="115" r="21" fill="#ff9e46"/><g><path d="M171.501,391.434c-4.524,0-9.086-1.403-12.994-4.313c-12.79-9.523-24.104-20.837-33.629-33.628   c-7.187-9.651-5.188-23.3,4.463-30.486c9.65-7.188,23.299-5.189,30.487,4.463c6.996,9.395,15.307,17.705,24.7,24.7   c9.652,7.187,11.65,20.835,4.464,30.487C184.718,388.401,178.151,391.434,171.501,391.434z" fill="#ff7226"/><path d="M415.538,261.461c2.263,3.918,3.328,8.57,2.763,13.41c-1.853,15.838-5.994,31.293-12.309,45.936   c-4.765,11.049-17.584,16.143-28.634,11.377c-11.049-4.763-16.143-17.583-11.378-28.634c4.638-10.756,7.68-22.109,9.041-33.741   c1.398-11.951,12.218-20.507,24.171-19.11C406.304,251.531,412.213,255.703,415.538,261.461z" fill="#ff7226"/><path d="M340.499,120.566c4.524,0,9.086,1.403,12.994,4.313c12.79,9.523,24.104,20.837,33.629,33.628   c7.186,9.651,5.188,23.3-4.463,30.486c-9.65,7.188-23.299,5.189-30.487-4.463c-6.996-9.395-15.307-17.705-24.7-24.7   c-9.652-7.187-11.65-20.835-4.464-30.487C327.282,123.599,333.849,120.566,340.499,120.566z" fill="#ff7226"/></g><circle cx="256" cy="256" r="68" fill="#f23e6d"/><g><path d="M437.019,74.981C388.667,26.628,324.38,0,256,0C193.89,0,133.983,22.533,87.315,63.448   c-3.393,2.974-3.732,8.138-0.757,11.53c2.975,3.392,8.136,3.733,11.53,0.757C141.774,37.434,197.855,16.34,256,16.34   c132.149,0,239.66,107.51,239.66,239.66S388.149,495.66,256,495.66S16.34,388.149,16.34,256   c0-58.146,21.093-114.227,59.395-157.914c2.974-3.392,2.635-8.556-0.757-11.53c-3.393-2.974-8.555-2.636-11.53,0.757   C22.533,133.982,0,193.889,0,256c0,68.38,26.628,132.667,74.981,181.019S187.62,512,256,512s132.667-26.628,181.019-74.981   S512,324.38,512,256S485.372,123.333,437.019,74.981z" fill="#3e0412"/><path d="M333.029,321.475c-3.19-3.19-8.363-3.191-11.554,0.001c-3.803,3.803-7.921,7.246-12.287,10.315   l-8.228-14.252c18.955-13.887,31.295-36.294,31.295-61.539c0-42.047-34.208-76.255-76.255-76.255   c-28.893,0-54.085,16.153-67.019,39.903l-15.223-6.251c4.327-8.329,9.938-16.044,16.766-22.871c3.191-3.192,3.191-8.364,0-11.555   c-3.191-3.19-8.364-3.19-11.554,0c-20.576,20.575-31.907,47.931-31.907,77.029c0,4.513,3.658,8.17,8.17,8.17s8.17-3.657,8.17-8.17   c0-9.461,1.421-18.702,4.141-27.491l15.231,6.254c-1.96,6.746-3.032,13.868-3.032,21.237c0,42.047,34.208,76.255,76.255,76.255   c10.966,0,21.387-2.344,30.819-6.53l8.225,14.247c-4.844,2.258-9.883,4.105-15.066,5.49c-4.36,1.166-6.949,5.644-5.784,10.004   c0.976,3.654,4.279,6.062,7.888,6.062c0.698,0,1.409-0.09,2.114-0.279c9.193-2.457,18.007-6.122,26.214-10.862   c0.021-0.012,0.042-0.019,0.062-0.031c0.041-0.024,0.079-0.053,0.12-0.077c8.155-4.731,15.709-10.522,22.436-17.251   C336.221,329.838,336.221,324.665,333.029,321.475z M196.085,256c0-33.037,26.878-59.915,59.915-59.915   s59.915,26.878,59.915,59.915S289.037,315.915,256,315.915S196.085,289.037,196.085,256z" fill="#3e0412"/><path d="M318.643,364.516c-18.951,10.965-40.611,16.761-62.643,16.761c-4.512,0-8.17,3.657-8.17,8.17   c0,4.513,3.658,8.17,8.17,8.17c24.901,0,49.392-6.556,70.826-18.958c3.906-2.259,5.241-7.257,2.979-11.163   C327.547,363.59,322.546,362.254,318.643,364.516z" fill="#3e0412"/><path d="M185.174,133.341c-43.666,25.266-70.791,72.265-70.791,122.659c0,4.513,3.658,8.17,8.17,8.17   c4.512,0,8.17-3.657,8.17-8.17c0-44.581,24-86.162,62.634-108.516c3.905-2.259,5.24-7.257,2.98-11.163   C194.077,132.414,189.076,131.082,185.174,133.341z" fill="#3e0412"/><path d="M132.753,132.752c-21.67,21.671-37.283,48.686-45.153,78.13c-1.166,4.36,1.424,8.837,5.783,10.004   c0.707,0.188,1.416,0.279,2.114,0.279c3.609,0,6.912-2.411,7.888-6.062c7.129-26.672,21.28-51.152,40.921-70.793   c3.191-3.192,3.191-8.364,0-11.555C141.117,129.563,135.944,129.563,132.753,132.752z" fill="#3e0412"/><path d="M413.92,402.333c3.421,2.939,8.579,2.551,11.521-0.873c34.744-40.434,53.878-92.094,53.878-145.46   c0-123.138-100.181-223.319-223.319-223.319C132.861,32.681,32.681,132.862,32.681,256S132.861,479.319,256,479.319   c53.367,0,105.026-19.134,145.46-53.878c3.423-2.94,3.813-8.099,0.873-11.521c-2.94-3.422-8.099-3.811-11.521-0.873   c-37.473,32.198-85.35,49.931-134.812,49.931c-114.128,0-206.979-92.85-206.979-206.979S141.872,49.021,256,49.021   c114.129,0,206.979,92.85,206.979,206.979c0,49.461-17.733,97.339-49.931,134.812C410.108,394.235,410.498,399.393,413.92,402.333z   " fill="#3e0412"/><circle cx="222" cy="419" r="8" fill="#3e0412"/><circle cx="204" cy="98" r="8" fill="#3e0412"/><path d="M256.009,145.851c13.527,0,25.418-9.133,28.921-22.21c4.276-15.956-5.228-32.415-21.183-36.69   c-2.541-0.681-5.155-1.026-7.768-1.026c-13.526,0-25.418,9.133-28.923,22.21c-4.275,15.956,5.229,32.415,21.184,36.69   C250.782,145.505,253.396,145.851,256.009,145.851z M242.842,112.363c1.593-5.946,6.996-10.098,13.139-10.098   c1.185,0,2.376,0.158,3.539,0.47c7.252,1.943,11.571,9.424,9.629,16.678c-1.594,5.946-6.996,10.098-13.139,10.098   c-1.185,0-2.376-0.158-3.539-0.47C245.217,127.098,240.898,119.616,242.842,112.363z" fill="#3e0412"/><path d="M146.422,387.969c0.243,0.233,0.498,0.459,0.776,0.664c0.029,0.022,0.061,0.036,0.09,0.057   c2.077,1.704,4.181,3.377,6.34,4.985c5.21,3.88,11.391,5.929,17.873,5.929c9.431,0,18.42-4.512,24.047-12.068   c9.864-13.25,7.11-32.054-6.139-41.919c-8.757-6.52-16.505-14.268-23.027-23.027c-5.628-7.557-14.616-12.067-24.045-12.067   c-6.483,0-12.664,2.051-17.873,5.93c-13.25,9.865-16.002,28.67-6.137,41.919C126.491,369.338,135.929,379.249,146.422,387.969z    M134.222,329.559c2.368-1.764,5.174-2.696,8.114-2.696c4.356,0,8.343,2,10.939,5.486l-1.978,1.473   c-3.619,2.695-4.368,7.814-1.674,11.433c1.604,2.154,4.065,3.291,6.559,3.291c1.696,0,3.408-0.526,4.873-1.617l2.83-2.107   c4.865,5.044,10.125,9.703,15.764,13.902c6.022,4.484,7.274,13.032,2.791,19.054c-2.596,3.486-6.583,5.486-10.939,5.486   c-2.94,0-5.746-0.931-8.115-2.695l1.757-2.361c2.694-3.619,1.945-8.738-1.675-11.432c-3.62-2.697-8.738-1.946-11.433,1.674   l-1.239,1.663c-7.096-6.544-13.582-13.731-19.367-21.5C126.949,342.592,128.2,334.045,134.222,329.559z" fill="#3e0412"/><path d="M374.124,339.687c3.777,1.629,7.765,2.455,11.852,2.455c11.975,0,22.777-7.105,27.519-18.1   c1.065-2.471,2.05-4.972,2.998-7.485c0.015-0.034,0.036-0.063,0.051-0.097c0.136-0.317,0.244-0.638,0.339-0.961   c4.727-12.796,7.945-26.099,9.534-39.682c0.753-6.453-0.562-12.829-3.802-18.442c-4.715-8.167-13.116-13.695-22.475-14.79   c-1.161-0.136-2.34-0.205-3.504-0.205c-15.184,0-27.965,11.384-29.729,26.48c-1.268,10.843-4.105,21.427-8.427,31.455   c-3.169,7.348-3.287,15.491-0.332,22.927C361.102,330.679,366.775,336.519,374.124,339.687z M396.635,258.721   c0.532,0,1.073,0.03,1.608,0.094c4.317,0.505,8.043,2.959,10.22,6.732c1.471,2.545,2.065,5.441,1.723,8.374   c-1.126,9.62-3.149,19.089-6.022,28.303l-1.904-0.821c-4.141-1.788-8.95,0.123-10.737,4.267c-1.788,4.143,0.123,8.95,4.267,10.737   l2.702,1.166c-2.157,5-7.069,8.23-12.516,8.23c-1.849,0-3.66-0.377-5.381-1.119c-3.339-1.44-5.919-4.095-7.262-7.474   c-1.342-3.381-1.29-7.082,0.151-10.422c2.784-6.458,5.01-13.121,6.701-19.921l3.502,0.41c0.322,0.037,0.643,0.057,0.96,0.057   c4.087,0,7.618-3.063,8.104-7.222c0.524-4.482-2.684-8.541-7.166-9.064l-2.448-0.286   C383.938,263.896,389.742,258.721,396.635,258.721z" fill="#3e0412"/><path d="M369.664,201.476c6.483,0,12.664-2.051,17.873-5.93c6.418-4.779,10.591-11.772,11.75-19.688   c1.159-7.916-0.834-15.813-5.612-22.231c-8.166-10.967-17.604-20.877-28.097-29.596c-0.243-0.233-0.498-0.458-0.775-0.665   c-0.037-0.028-0.077-0.05-0.115-0.077c-2.07-1.696-4.165-3.363-6.315-4.964c-5.21-3.879-11.39-5.929-17.873-5.929   c-9.431,0-18.419,4.512-24.046,12.068c-9.865,13.249-7.111,32.054,6.139,41.919c8.757,6.52,16.504,14.268,23.027,23.027   C351.246,196.966,360.236,201.476,369.664,201.476z M332.35,153.276c-6.022-4.484-7.275-13.032-2.791-19.054   c2.596-3.486,6.583-5.486,10.939-5.486c2.94,0,5.745,0.931,8.114,2.696c0.001,0-1.756,2.361-1.756,2.361   c-2.695,3.619-1.945,8.738,1.674,11.432c1.465,1.092,3.176,1.617,4.873,1.617c2.494,0,4.957-1.137,6.559-3.291l1.239-1.663   c7.096,6.544,13.582,13.731,19.367,21.5c2.172,2.917,3.077,6.506,2.551,10.104c-0.526,3.598-2.424,6.777-5.342,8.95   c-2.368,1.764-5.173,2.696-8.112,2.696c-4.355,0-8.343-2-10.939-5.486l1.977-1.473c3.619-2.695,4.368-7.814,1.673-11.433   c-2.696-3.618-7.812-4.368-11.433-1.673l-2.829,2.107C343.249,162.134,337.99,157.476,332.35,153.276z" fill="#3e0412"/></g></g></defs><g fi:class="KUsePattern"><pattern id="pattern_L1_67" width="350" height="350" patternUnits="userSpaceOnUse"><use xlink:href="#L1_67" x="-350" y="-350"/><use xlink:href="#L1_67" x="0" y="-350"/><use xlink:href="#L1_67" x="350" y="-350"/><use xlink:href="#L1_67" x="-350" y="0"/><use xlink:href="#L1_67" x="0" y="0"/><use xlink:href="#L1_67" x="350" y="0"/><use xlink:href="#L1_67" x="-350" y="350"/><use xlink:href="#L1_67" x="0" y="350"/><use xlink:href="#L1_67" x="350" y="350"/></pattern><rect x="0" y="0" width="100%" height="100%" fill="url(#pattern_L1_67)"/></g><g fi:class="KUsePattern"><pattern id="pattern_L1_68" width="350" height="350" patternUnits="userSpaceOnUse"><use xlink:href="#L1_68" x="-350" y="-350"/><use xlink:href="#L1_68" x="0" y="-350"/><use xlink:href="#L1_68" x="350" y="-350"/><use xlink:href="#L1_68" x="-350" y="0"/><use xlink:href="#L1_68" x="0" y="0"/><use xlink:href="#L1_68" x="350" y="0"/><use xlink:href="#L1_68" x="-350" y="350"/><use xlink:href="#L1_68" x="0" y="350"/><use xlink:href="#L1_68" x="350" y="350"/></pattern><rect x="0" y="0" width="100%" height="100%" fill="url(#pattern_L1_68)"/></g><g fi:class="KUsePattern"><pattern id="pattern_L1_69" width="350" height="350" patternUnits="userSpaceOnUse"><use xlink:href="#L1_69" x="-350" y="-350"/><use xlink:href="#L1_69" x="0" y="-350"/><use xlink:href="#L1_69" x="350" y="-350"/><use xlink:href="#L1_69" x="-350" y="0"/><use xlink:href="#L1_69" x="0" y="0"/><use xlink:href="#L1_69" x="350" y="0"/><use xlink:href="#L1_69" x="-350" y="350"/><use xlink:href="#L1_69" x="0" y="350"/><use xlink:href="#L1_69" x="350" y="350"/></pattern><rect x="0" y="0" width="100%" height="100%" fill="url(#pattern_L1_69)"/></g><g fi:class="KUsePattern"><pattern id="pattern_L1_70" width="350" height="350" patternUnits="userSpaceOnUse"><use xlink:href="#L1_70" x="-350" y="-350"/><use xlink:href="#L1_70" x="0" y="-350"/><use xlink:href="#L1_70" x="350" y="-350"/><use xlink:href="#L1_70" x="-350" y="0"/><use xlink:href="#L1_70" x="0" y="0"/><use xlink:href="#L1_70" x="350" y="0"/><use xlink:href="#L1_70" x="-350" y="350"/><use xlink:href="#L1_70" x="0" y="350"/><use xlink:href="#L1_70" x="350" y="350"/></pattern><rect x="0" y="0" width="100%" height="100%" fill="url(#pattern_L1_70)"/></g><g fi:class="KUsePattern"><pattern id="pattern_L1_71" width="350" height="350" patternUnits="userSpaceOnUse"><use xlink:href="#L1_71" x="-350" y="-350"/><use xlink:href="#L1_71" x="0" y="-350"/><use xlink:href="#L1_71" x="350" y="-350"/><use xlink:href="#L1_71" x="-350" y="0"/><use xlink:href="#L1_71" x="0" y="0"/><use xlink:href="#L1_71" x="350" y="0"/><use xlink:href="#L1_71" x="-350" y="350"/><use xlink:href="#L1_71" x="0" y="350"/><use xlink:href="#L1_71" x="350" y="350"/></pattern><rect x="0" y="0" width="100%" height="100%" fill="url(#pattern_L1_71)"/></g><g fi:class="KUsePattern"><pattern id="pattern_L1_72" width="350" height="350" patternUnits="userSpaceOnUse"><use xlink:href="#L1_72" x="-350" y="-350"/><use xlink:href="#L1_72" x="0" y="-350"/><use xlink:href="#L1_72" x="350" y="-350"/><use xlink:href="#L1_72" x="-350" y="0"/><use xlink:href="#L1_72" x="0" y="0"/><use xlink:href="#L1_72" x="350" y="0"/><use xlink:href="#L1_72" x="-350" y="350"/><use xlink:href="#L1_72" x="0" y="350"/><use xlink:href="#L1_72" x="350" y="350"/></pattern><rect x="0" y="0" width="100%" height="100%" fill="url(#pattern_L1_72)"/></g><g fi:class="KUsePattern"><pattern id="pattern_L1_73" width="350" height="350" patternUnits="userSpaceOnUse"><use xlink:href="#L1_73" x="-350" y="-350"/><use xlink:href="#L1_73" x="0" y="-350"/><use xlink:href="#L1_73" x="350" y="-350"/><use xlink:href="#L1_73" x="-350" y="0"/><use xlink:href="#L1_73" x="0" y="0"/><use xlink:href="#L1_73" x="350" y="0"/><use xlink:href="#L1_73" x="-350" y="350"/><use xlink:href="#L1_73" x="0" y="350"/><use xlink:href="#L1_73" x="350" y="350"/></pattern><rect x="0" y="0" width="100%" height="100%" fill="url(#pattern_L1_73)"/></g><g fi:class="KUsePattern"><pattern id="pattern_L1_75" width="350" height="350" patternUnits="userSpaceOnUse"><use xlink:href="#L1_75" x="-350" y="-350"/><use xlink:href="#L1_75" x="0" y="-350"/><use xlink:href="#L1_75" x="350" y="-350"/><use xlink:href="#L1_75" x="-350" y="0"/><use xlink:href="#L1_75" x="0" y="0"/><use xlink:href="#L1_75" x="350" y="0"/><use xlink:href="#L1_75" x="-350" y="350"/><use xlink:href="#L1_75" x="0" y="350"/><use xlink:href="#L1_75" x="350" y="350"/></pattern><rect x="0" y="0" width="100%" height="100%" fill="url(#pattern_L1_75)"/></g><g fi:class="KUsePattern"><pattern id="pattern_L1_76" width="350" height="350" patternUnits="userSpaceOnUse"><use xlink:href="#L1_76" x="-350" y="-350"/><use xlink:href="#L1_76" x="0" y="-350"/><use xlink:href="#L1_76" x="350" y="-350"/><use xlink:href="#L1_76" x="-350" y="0"/><use xlink:href="#L1_76" x="0" y="0"/><use xlink:href="#L1_76" x="350" y="0"/><use xlink:href="#L1_76" x="-350" y="350"/><use xlink:href="#L1_76" x="0" y="350"/><use xlink:href="#L1_76" x="350" y="350"/></pattern><rect x="0" y="0" width="100%" height="100%" fill="url(#pattern_L1_76)"/></g><g fi:class="KUsePattern"><pattern id="pattern_L1_77" width="350" height="350" patternUnits="userSpaceOnUse"><use xlink:href="#L1_77" x="-350" y="-350"/><use xlink:href="#L1_77" x="0" y="-350"/><use xlink:href="#L1_77" x="350" y="-350"/><use xlink:href="#L1_77" x="-350" y="0"/><use xlink:href="#L1_77" x="0" y="0"/><use xlink:href="#L1_77" x="350" y="0"/><use xlink:href="#L1_77" x="-350" y="350"/><use xlink:href="#L1_77" x="0" y="350"/><use xlink:href="#L1_77" x="350" y="350"/></pattern><rect x="0" y="0" width="100%" height="100%" fill="url(#pattern_L1_77)"/></g><g fi:class="KUsePattern"><pattern id="pattern_L1_78" width="350" height="350" patternUnits="userSpaceOnUse"><use xlink:href="#L1_78" x="-350" y="-350"/><use xlink:href="#L1_78" x="0" y="-350"/><use xlink:href="#L1_78" x="350" y="-350"/><use xlink:href="#L1_78" x="-350" y="0"/><use xlink:href="#L1_78" x="0" y="0"/><use xlink:href="#L1_78" x="350" y="0"/><use xlink:href="#L1_78" x="-350" y="350"/><use xlink:href="#L1_78" x="0" y="350"/><use xlink:href="#L1_78" x="350" y="350"/></pattern><rect x="0" y="0" width="100%" height="100%" fill="url(#pattern_L1_78)"/></g><g fi:class="KUsePattern"><pattern id="pattern_L1_79" width="350" height="350" patternUnits="userSpaceOnUse"><use xlink:href="#L1_79" x="-350" y="-350"/><use xlink:href="#L1_79" x="0" y="-350"/><use xlink:href="#L1_79" x="350" y="-350"/><use xlink:href="#L1_79" x="-350" y="0"/><use xlink:href="#L1_79" x="0" y="0"/><use xlink:href="#L1_79" x="350" y="0"/><use xlink:href="#L1_79" x="-350" y="350"/><use xlink:href="#L1_79" x="0" y="350"/><use xlink:href="#L1_79" x="350" y="350"/></pattern><rect x="0" y="0" width="100%" height="100%" fill="url(#pattern_L1_79)"/></g><g fi:class="KUsePattern"><pattern id="pattern_L1_80" width="350" height="350" patternUnits="userSpaceOnUse"><use xlink:href="#L1_80" x="-350" y="-350"/><use xlink:href="#L1_80" x="0" y="-350"/><use xlink:href="#L1_80" x="350" y="-350"/><use xlink:href="#L1_80" x="-350" y="0"/><use xlink:href="#L1_80" x="0" y="0"/><use xlink:href="#L1_80" x="350" y="0"/><use xlink:href="#L1_80" x="-350" y="350"/><use xlink:href="#L1_80" x="0" y="350"/><use xlink:href="#L1_80" x="350" y="350"/></pattern><rect x="0" y="0" width="100%" height="100%" fill="url(#pattern_L1_80)"/></g><g fi:class="KUsePattern"><pattern id="pattern_L1_81" width="350" height="350" patternUnits="userSpaceOnUse"><use xlink:href="#L1_81" x="-350" y="-350"/><use xlink:href="#L1_81" x="0" y="-350"/><use xlink:href="#L1_81" x="350" y="-350"/><use xlink:href="#L1_81" x="-350" y="0"/><use xlink:href="#L1_81" x="0" y="0"/><use xlink:href="#L1_81" x="350" y="0"/><use xlink:href="#L1_81" x="-350" y="350"/><use xlink:href="#L1_81" x="0" y="350"/><use xlink:href="#L1_81" x="350" y="350"/></pattern><rect x="0" y="0" width="100%" height="100%" fill="url(#pattern_L1_81)"/></g><g fi:class="KUsePattern"><pattern id="pattern_L1_82" width="350" height="350" patternUnits="userSpaceOnUse"><use xlink:href="#L1_82" x="-350" y="-350"/><use xlink:href="#L1_82" x="0" y="-350"/><use xlink:href="#L1_82" x="350" y="-350"/><use xlink:href="#L1_82" x="-350" y="0"/><use xlink:href="#L1_82" x="0" y="0"/><use xlink:href="#L1_82" x="350" y="0"/><use xlink:href="#L1_82" x="-350" y="350"/><use xlink:href="#L1_82" x="0" y="350"/><use xlink:href="#L1_82" x="350" y="350"/></pattern><rect x="0" y="0" width="100%" height="100%" fill="url(#pattern_L1_82)"/></g><g fi:class="KUsePattern"><pattern id="pattern_L1_83" width="350" height="350" patternUnits="userSpaceOnUse"><use xlink:href="#L1_83" x="-350" y="-350"/><use xlink:href="#L1_83" x="0" y="-350"/><use xlink:href="#L1_83" x="350" y="-350"/><use xlink:href="#L1_83" x="-350" y="0"/><use xlink:href="#L1_83" x="0" y="0"/><use xlink:href="#L1_83" x="350" y="0"/><use xlink:href="#L1_83" x="-350" y="350"/><use xlink:href="#L1_83" x="0" y="350"/><use xlink:href="#L1_83" x="350" y="350"/></pattern><rect x="0" y="0" width="100%" height="100%" fill="url(#pattern_L1_83)"/></g><g fi:class="KUsePattern"><pattern id="pattern_L1_84" width="350" height="350" patternUnits="userSpaceOnUse"><use xlink:href="#L1_84" x="-350" y="-350"/><use xlink:href="#L1_84" x="0" y="-350"/><use xlink:href="#L1_84" x="350" y="-350"/><use xlink:href="#L1_84" x="-350" y="0"/><use xlink:href="#L1_84" x="0" y="0"/><use xlink:href="#L1_84" x="350" y="0"/><use xlink:href="#L1_84" x="-350" y="350"/><use xlink:href="#L1_84" x="0" y="350"/><use xlink:href="#L1_84" x="350" y="350"/></pattern><rect x="0" y="0" width="100%" height="100%" fill="url(#pattern_L1_84)"/></g><g fi:class="KUsePattern"><pattern id="pattern_L1_85" width="350" height="350" patternUnits="userSpaceOnUse"><use xlink:href="#L1_85" x="-350" y="-350"/><use xlink:href="#L1_85" x="0" y="-350"/><use xlink:href="#L1_85" x="350" y="-350"/><use xlink:href="#L1_85" x="-350" y="0"/><use xlink:href="#L1_85" x="0" y="0"/><use xlink:href="#L1_85" x="350" y="0"/><use xlink:href="#L1_85" x="-350" y="350"/><use xlink:href="#L1_85" x="0" y="350"/><use xlink:href="#L1_85" x="350" y="350"/></pattern><rect x="0" y="0" width="100%" height="100%" fill="url(#pattern_L1_85)"/></g><g fi:class="KUsePattern"><pattern id="pattern_L1_86" width="350" height="350" patternUnits="userSpaceOnUse"><use xlink:href="#L1_86" x="-350" y="-350"/><use xlink:href="#L1_86" x="0" y="-350"/><use xlink:href="#L1_86" x="350" y="-350"/><use xlink:href="#L1_86" x="-350" y="0"/><use xlink:href="#L1_86" x="0" y="0"/><use xlink:href="#L1_86" x="350" y="0"/><use xlink:href="#L1_86" x="-350" y="350"/><use xlink:href="#L1_86" x="0" y="350"/><use xlink:href="#L1_86" x="350" y="350"/></pattern><rect x="0" y="0" width="100%" height="100%" fill="url(#pattern_L1_86)"/></g></svg>