<svg xmlns="http://www.w3.org/2000/svg" xmlns:xlink="http://www.w3.org/1999/xlink" xmlns:fi="http://pattern.flaticon.com/" x="0" y="0" width="2000" height="1000" viewBox="0 0 2000 1000"><rect x="0px" y="0px" width="100%" height="100%" opacity="1" fill="#009688"/><defs><g transform="matrix(0.1171875 0 0 0.1171875 171 228)" id="L1_9"><path d="M256.001,512C397,512,512,397,512,256.001C512,115,397,0,256.001,0C115,0,0,115,0,256.001  C0,397,115,512,256.001,512z" fill="#0e7886"/><path d="M206.736,138.326c-20.268-14.343-85.019-56.99-105.617-36.397  c-14.523,14.523,0.999,55.584,36.397,105.617c-60.405,10.348-100.419,28.399-100.419,48.937c0,28.323,75.581,44.683,100.419,48.94  c-35.397,50.036-50.92,91.094-36.397,105.62c14.526,14.523,55.584-1.002,105.617-36.397c10.35,60.402,28.399,100.416,48.942,100.416  c28.543,0,44.654-75.359,48.94-100.416c50.036,35.395,91.094,50.92,105.617,36.397c14.526-14.526-0.999-55.584-36.397-105.62  c60.408-10.348,100.419-28.397,100.419-48.94c0-20.541-40.011-38.589-100.419-48.937c21.794-30.81,36.053-58.209,40.405-78.113  c6.266-36.551-27.623-32.336-37.433-29.991c-19.261,5.632-44.334,19.174-72.193,38.883c-10.348-60.405-28.399-100.419-48.94-100.419  C235.135,37.907,217.087,77.921,206.736,138.326z M62.052,256.487L62.052,256.487c0-16.682,32.229-31.437,81.625-40.412  c9.624,13.047,20.507,26.618,32.483,40.412c-11.977,13.8-22.859,27.368-32.483,40.415  C123.113,293.159,62.052,278.352,62.052,256.487z M255.676,450.111L255.676,450.111c-16.685,0-31.442-32.231-40.415-81.625  c13.047-9.624,26.618-20.507,40.415-32.486c13.797,11.979,27.368,22.859,40.415,32.486  C292.364,389.013,277.444,450.111,255.676,450.111z M396.937,135.137L396.937,135.137v0.01l-0.066,0.763l-0.003,0.024l-0.073,0.769  l-0.005,0.034l-0.092,0.769l-0.008,0.047l-0.102,0.766l-0.01,0.063l-0.118,0.766l-0.01,0.073l-0.131,0.763l-0.016,0.092  l-0.142,0.761l-0.018,0.102l-0.155,0.758l-0.024,0.118l-0.165,0.755l-0.031,0.136l-0.173,0.753l-0.034,0.147l-0.186,0.748  l-0.042,0.17l-0.194,0.742l-0.05,0.184l-0.199,0.734l-0.058,0.202l-0.21,0.732l-0.063,0.218l-0.031,0.1l-0.26,0.863l-0.22,0.721  l-0.081,0.254l-0.231,0.713l-0.089,0.27l-0.239,0.706l-0.097,0.289l-0.241,0.698l-0.108,0.31l-0.247,0.687l-0.118,0.325  l-0.252,0.685l-0.129,0.349l-0.396,1.036l0,0l-0.257,0.664l-0.152,0.386l-0.262,0.653l-0.163,0.407l-0.265,0.645l-0.176,0.428  l-0.265,0.632l-0.189,0.449l-0.268,0.622l-0.205,0.47l-0.265,0.611l-0.215,0.49l-0.27,0.598l-0.233,0.514l-0.268,0.585l-0.244,0.535  l-0.268,0.574l-0.262,0.556l-0.265,0.561l-0.278,0.58l-0.265,0.548l-0.291,0.601l-0.265,0.54l-0.307,0.622l-0.029,0.055  l-0.559,1.115l-0.257,0.511l-0.338,0.669l-0.257,0.493l-0.357,0.695l-0.252,0.48l-0.375,0.716l-0.247,0.464l-0.396,0.742  l-0.241,0.449l-0.414,0.766l-0.569,1.039l-0.1,0.186l-0.231,0.414l-0.454,0.818l-0.226,0.399l-0.47,0.842l-0.218,0.383l-0.491,0.863  l-0.212,0.367l-0.511,0.889l-0.202,0.351l-0.532,0.915l-0.199,0.333l-0.553,0.942l-0.189,0.315l-0.574,0.965l-0.178,0.299  l-0.595,0.989l-0.171,0.278l-0.619,1.02l-0.163,0.262l-0.643,1.041l-0.15,0.244l-0.669,1.07l-0.139,0.22l-0.69,1.096l-0.129,0.205  l-0.711,1.123l-0.121,0.184l-0.734,1.149l-0.108,0.163l-0.761,1.175l-0.094,0.144l-0.787,1.204l-0.081,0.126l-0.813,1.228  l-0.071,0.105l-0.837,1.254l-0.058,0.087l-0.863,1.283l-0.042,0.063l-0.887,1.311l-0.029,0.042l-0.915,1.34l-0.016,0.021  l-0.942,1.364c-16.029-2.424-33.317-4.323-51.547-5.613c-1.291-18.23-3.192-35.521-5.613-51.55  c28.118-19.47,52.499-31.408,68.916-33.312c23.951,0.346,23.951,7.683,21.731,19.735L396.937,135.137z M205.065,148.713  L205.065,148.713c-2.424,16.029-4.328,33.32-5.616,51.55c-18.227,1.291-35.518,3.19-51.544,5.613  c-28.58-41.278-40.937-74.503-29.139-86.302c16.373-16.373,70.278,18.049,86.302,29.139H205.065z M255.676,198.314L255.676,198.314  c-3.664,0-7.308,0.024-10.925,0.073c3.656-3.347,7.3-6.607,10.925-9.789l0.003-0.003c3.622,3.179,7.268,6.447,10.922,9.792  C262.984,198.34,259.34,198.314,255.676,198.314z M296.81,215.353L296.81,215.353c-2.589-2.594-5.186-5.152-7.777-7.675  c4.95,0.22,9.834,0.488,14.649,0.803c0.315,4.813,0.582,9.7,0.803,14.649C301.959,220.536,299.404,217.942,296.81,215.353z   M206.867,289.841L206.867,289.841c2.526,2.594,5.083,5.188,7.675,7.78c2.592,2.592,5.186,5.149,7.777,7.675  c-4.95-0.22-9.834-0.488-14.649-0.803c-0.315-4.816-0.58-9.7-0.8-14.649L206.867,289.841z M187.785,256.487L187.785,256.487  c3.179-3.625,6.447-7.268,9.792-10.925c-0.047,3.617-0.071,7.26-0.071,10.925c0,3.664,0.024,7.308,0.071,10.927  c-3.344-3.656-6.61-7.3-9.792-10.925V256.487z M244.751,314.583L244.751,314.583c3.62,0.047,7.263,0.071,10.925,0.071  c3.664,0,7.308-0.024,10.925-0.071l-0.171,0.157l-0.173,0.157l-0.171,0.155l-0.17,0.157l-0.171,0.157l-0.171,0.157l-0.173,0.157  l-0.17,0.155l-0.173,0.157l-0.171,0.152v0.003l-0.173,0.152l-0.17,0.157l-0.173,0.155l-0.171,0.157l-0.173,0.152l-0.17,0.157  l-0.171,0.155h-0.003l-0.171,0.152v0.003l-0.171,0.152l-0.173,0.155l-0.171,0.152l-0.171,0.155h-0.003l-0.171,0.155l-0.17,0.152  l-0.171,0.155l0,0l-0.171,0.152l-0.171,0.155l-0.17,0.155l0,0l-0.171,0.152l0,0l-0.171,0.152l-0.171,0.152l0,0l-0.168,0.152  l-0.003,0.003l-0.171,0.152l-0.171,0.152v0.003l-0.171,0.152h-0.003l-0.165,0.152l-0.003,0.003l-0.168,0.15v0.003l-0.171,0.15  l-0.171,0.152h-0.003l-0.165,0.152h-0.003l-0.168,0.15v0.003l-0.171,0.15v0.003l-0.171,0.15v0.003l-0.171,0.15l0,0l-0.17,0.15v0.003  l-0.168,0.15l-0.003,0.003l-0.165,0.15h-0.003l-0.165,0.15l-0.003,0.003l-0.168,0.15h-0.003l-0.168,0.15l-0.171,0.15l-0.003,0.003  l-0.168,0.147l-0.003,0.003l-0.168,0.147v0.003l-0.168,0.15l0,0l-0.168,0.15h-0.003l-0.168,0.147l-0.003,0.003l-0.165,0.15h-0.003  l-0.165,0.15h-0.003l-0.168,0.147h-0.003l-0.168,0.15l0,0l-0.168,0.15l0,0l-0.171,0.15l0,0l-0.168,0.147l-0.003,0.003l-0.165,0.147  l-0.003,0.003c-3.622-3.182-7.266-6.447-10.922-9.794L244.751,314.583z M323.567,256.484L323.567,256.484  c-3.182,3.628-6.445,7.271-9.792,10.927c0.047-3.62,0.071-7.263,0.071-10.927c0-3.664-0.024-7.305-0.071-10.925  c3.344,3.654,6.61,7.297,9.792,10.922V256.484z M214.542,215.353L214.542,215.353c-2.589,2.589-5.149,5.183-7.675,7.777  c0.22-4.95,0.485-9.836,0.8-14.649c4.816-0.315,9.7-0.582,14.649-0.803c-2.592,2.523-5.186,5.083-7.777,7.675H214.542z   M304.485,289.841L304.485,289.841c-0.22,4.952-0.488,9.836-0.803,14.649c-4.816,0.315-9.7,0.582-14.649,0.803  c2.592-2.523,5.188-5.083,7.777-7.675c2.594-2.591,5.149-5.186,7.675-7.78V289.841z M249.014,182.825L249.014,182.825  c-5.739,5.102-11.507,10.384-17.286,15.835c-7.942,0.233-15.762,0.577-23.426,1.028c1.254-15.966,3.016-31.054,5.222-44.966  C224.921,163.003,236.838,172.425,249.014,182.825z M153.912,214.332L153.912,214.332c13.915-2.201,29.002-3.969,44.966-5.22  c-0.451,7.664-0.795,15.481-1.026,23.426c-5.453,5.776-10.736,11.546-15.835,17.286  C171.612,237.646,162.195,225.732,153.912,214.332z M182.017,263.152L182.017,263.152c5.099,5.739,10.384,11.507,15.835,17.286  c0.231,7.942,0.577,15.762,1.026,23.426c-15.964-1.254-31.051-3.016-44.966-5.222C162.193,287.241,171.612,275.328,182.017,263.152z   M231.728,314.313L231.728,314.313c5.778,5.451,11.549,10.736,17.286,15.835c-12.176,10.403-24.092,19.822-35.489,28.105  c-2.206-13.915-3.971-29.005-5.222-44.966C215.967,313.736,223.786,314.08,231.728,314.313z M262.341,330.148L262.341,330.148  c5.736-5.099,11.507-10.382,17.286-15.835c7.942-0.233,15.762-0.577,23.426-1.026c-1.251,15.961-3.016,31.051-5.22,44.966  C286.433,349.973,274.52,340.553,262.341,330.148z M357.44,298.641L357.44,298.641c-13.912,2.206-29,3.969-44.966,5.222  c0.451-7.664,0.797-15.484,1.028-23.426c5.451-5.778,10.733-11.549,15.835-17.286C339.74,275.328,349.159,287.241,357.44,298.641z   M329.338,249.827L329.338,249.827c-5.099-5.742-10.384-11.51-15.835-17.286c-0.231-7.945-0.577-15.762-1.028-23.426  c15.966,1.251,31.054,3.016,44.966,5.22C349.159,225.735,339.74,237.651,329.338,249.827z M279.624,198.663L279.624,198.663  c-5.778-5.451-11.546-10.733-17.286-15.835c12.176-10.4,24.092-19.825,35.492-28.103c2.203,13.912,3.969,29,5.22,44.966  C295.386,199.24,287.566,198.896,279.624,198.663z M290.709,221.457L290.709,221.457c4.876,4.876,9.624,9.755,14.238,14.626  c0.178,6.707,0.27,13.511,0.27,20.404c0,6.893-0.092,13.7-0.27,20.407c-4.614,4.868-9.364,9.75-14.238,14.626  c-4.876,4.874-9.758,9.624-14.626,14.24c-6.707,0.178-13.511,0.27-20.404,0.27s-13.7-0.094-20.407-0.27  c-4.868-4.619-9.75-9.367-14.626-14.24c-4.874-4.874-9.621-9.758-14.238-14.626c-0.178-6.707-0.27-13.514-0.27-20.407  c0-6.893,0.092-13.697,0.27-20.404c4.614-4.871,9.364-9.75,14.238-14.626s9.758-9.621,14.626-14.24  c6.707-0.178,13.514-0.27,20.407-0.27s13.697,0.092,20.404,0.27C280.951,211.833,285.833,216.58,290.709,221.457z M205.065,364.26  L205.065,364.26c-41.281,28.583-74.509,40.937-86.302,29.139c-11.798-11.796,0.559-45.024,29.139-86.302  c16.029,2.424,33.317,4.325,51.544,5.616c1.291,18.225,3.192,35.518,5.616,51.544L205.065,364.26z M306.289,364.26L306.289,364.26  c2.421-16.026,4.323-33.32,5.613-51.544c18.23-1.291,35.518-3.192,51.547-5.616c28.583,41.278,40.937,74.506,29.141,86.302  c-11.798,11.798-45.024-0.559-86.302-29.139V364.26z M367.675,296.902L367.675,296.902c-9.621-13.044-20.509-26.615-32.486-40.415  c11.977-13.797,22.862-27.368,32.486-40.412c49.396,8.976,81.625,23.733,81.625,40.412  C449.3,273.169,417.069,287.926,367.675,296.902z M255.676,176.973L255.676,176.973c-13.8-11.982-27.368-22.862-40.415-32.486  c8.976-49.394,23.733-81.625,40.415-81.625s31.439,32.231,40.415,81.625C283.044,154.109,269.473,164.997,255.676,176.973z" fill="#ffffff"/><path d="M151.31,94.315c9.886,0,17.905,8.016,17.905,17.902s-8.018,17.902-17.905,17.902  c-9.886,0-17.905-8.013-17.905-17.902C133.405,102.331,141.424,94.315,151.31,94.315z" fill="#ec4b53"/><path d="M149.954,94.315c9.139,0,16.548,7.407,16.548,16.548c0,9.139-7.41,16.546-16.548,16.546  s-16.548-7.407-16.548-16.546C133.405,101.722,140.815,94.315,149.954,94.315z" fill="#ff5b61"/><path d="M405.438,109.83c9.886,0,17.905,8.016,17.905,17.905s-8.016,17.902-17.905,17.902  c-9.886,0-17.905-8.013-17.905-17.902C387.534,117.848,395.552,109.83,405.438,109.83z" fill="#15bdb1"/><path d="M404.08,109.83c9.138,0,16.548,7.407,16.548,16.548c0,9.138-7.41,16.546-16.548,16.546  c-9.136,0-16.548-7.407-16.548-16.546C387.531,117.237,394.941,109.83,404.08,109.83z" fill="#20d0c2"/><path d="M106.205,275.128c9.886,0,17.905,8.016,17.905,17.905c0,9.889-8.016,17.902-17.905,17.902  c-9.886,0-17.905-8.013-17.905-17.902C88.3,283.147,96.319,275.128,106.205,275.128z" fill="#15bdb1"/><path d="M104.846,275.128c9.139,0,16.548,7.407,16.548,16.548c0,9.139-7.41,16.548-16.548,16.548  S88.3,300.818,88.3,291.677C88.3,282.535,95.708,275.128,104.846,275.128z" fill="#20d0c2"/><path d="M291.637,392.977c9.886,0,17.907,8.013,17.907,17.902s-8.018,17.902-17.907,17.902  c-9.886,0-17.902-8.013-17.902-17.902C273.735,400.992,281.751,392.977,291.637,392.977z" fill="#ec4b53"/><path d="M290.281,392.977c9.138,0,16.548,7.407,16.548,16.548c0,9.139-7.407,16.546-16.548,16.546  c-9.139,0-16.548-7.407-16.548-16.546C273.733,400.384,281.143,392.977,290.281,392.977z" fill="#ff5b61"/><path d="M255.676,229.026c15.169,0,27.463,12.294,27.463,27.46s-12.297,27.46-27.463,27.46  c-15.164,0-27.46-12.291-27.46-27.46C228.216,241.32,240.513,229.026,255.676,229.026z" fill="#f5a209"/><path d="M253.599,229.026c14.017,0,25.38,11.363,25.38,25.38c0,14.017-11.365,25.377-25.38,25.377  c-14.015,0-25.38-11.363-25.38-25.377C228.219,240.389,239.584,229.026,253.599,229.026z" fill="#fbb429"/></g><g transform="matrix(0.1171875 0 0 0.1171875 71 79)" id="L1_10"><path d="M256.001,512C397,512,512,397,512,256.001C512,115,397,0,256.001,0C115.001,0,0,115,0,256.001  C0,397,115.001,512,256.001,512z" fill="#ffca4f"/><path d="M332.072,405.334c2.178,1.046,62.688,29.466,92.55-20.076c30.411-50.454,8.04-48.533,7.556-52.658  c-0.484-4.126,44.283-51.016-10.32-86.264c0,0-66.348-151.363-237.066-77.41c0,0-52.53-7.604-78.102,49.764  c0,0-63.588,23.501-37.324,98.835c26.264,75.335,89.161,41.472,89.161,41.472c8.632,46.948,63.142,58.439,102.292,38.011  c0,0,13.133,14.514,29.029,8.984c0.556-2.184,4.899-0.56,2.031-7.964c4.014-5.92,13.124-9.074,29.432-1.569  c0.857,0.707,2.376,1.911,2.142,1.767L332.072,405.334z" fill="#ec4b53"/><path d="M111.748,220.444c-0.743,1.236-41.797,11.536-44.691,52.127  c-4.451,62.447,39.519,106.629,92.403,79.662c11.038,44.381,71.251,61.105,103.962,34.931c0,0,8.574,21.39,28.456,10.863l0.97,1.061  c4.779-0.066,17.416,7.799,28.462-2.63c0.765,0.632,2.056,1.657,2.16,1.768c1.562,0.17,3.779-0.513,4.899,0.13  c67.539,38.768,111.379-27.961,103.971-54.664c-1.037-3.734-2.837-4.397-5.967-6.271c0,0-1.198-4.729,3.315-10.058  c19.163-22.626,28.986-57.792-10.952-77.353c-40.45-89.576-139.145-128.285-236.795-76.244  C124.647,170.364,112.393,219.37,111.748,220.444L111.748,220.444z" fill="#ff5b61"/><path d="M215.512,187.339c-1.946,0.528-3.956-0.62-4.485-2.566c-0.529-1.946,0.619-3.956,2.565-4.484  c0.086-0.024,28.613-8.032,35.212,15.214c4.088-2.24,10.318-4.258,17.499-1.842c-0.912-7.925,1.376-18.881,18.898-23.385  c1.954-0.499,3.943,0.682,4.442,2.637c0.499,1.954-0.682,3.943-2.637,4.442c-20.056,5.157-11.606,22.059-11.582,22.105l-0.012,0.007  c0.595,1.226,0.475,2.739-0.433,3.877c-1.255,1.575-3.555,1.832-5.128,0.573c-9.045-7.235-16.922-2.742-19.823-0.547  c-0.107,13.605-18.467,16.67-18.521,16.678v-0.001c-1.089,0.18-2.244-0.13-3.108-0.944c-21.064-19.822-44.368,5.361-44.437,5.43  l-0.002-0.002c-1.141,1.216-3.012,1.526-4.512,0.648c-20.869-12.232-2.876-48.682,1.332-56.552c2.547,0.086,4.013,0.298,4.013,0.298  c1.135-0.493,2.248-0.937,3.375-1.409c0.42,1.009,0.386,2.193-0.194,3.213c-0.058,0.105-19.903,34.587-7.008,46.53  c7.129-6.457,29.47-23.377,50.987-4.799c3.534-0.913,11.459-3.707,10.684-10.282l-0.015-0.169  C240.261,180.397,215.582,187.319,215.512,187.339L215.512,187.339z M434.875,335.061L434.875,335.061  c-1.428-0.942-2.591-1.556-2.698-2.462c-0.085-0.717,1.194-2.722,3.08-5.729c-2.367-11.287-11.447-10.946-16.391-9.853  c-1.988-4.505-5.251-14.659-1.288-26.712c0.058-0.143,0.107-0.288,0.148-0.435c5.133-14.596,28.919-8.666,28.987-8.648  c0.562,0.135,1.125,0.131,1.651,0.015c-0.44-2.504-1.129-5.033-2.101-7.57c-6.444-1.16-25.516-3.329-33.479,9.621  c-3.105-1.835-7.703-3.518-12.664-1.778c-4.806-18.883-22.441-11.95-22.496-11.929c-1.891,0.701-2.854,2.808-2.149,4.699  c0.702,1.891,2.809,2.853,4.699,2.15c0.031-0.012,10.315-4.068,13.096,8.091c-6.403,1.778-19.297,7.062-21.137,21.024  c-0.263,2.001,1.148,3.837,3.151,4.098c2.001,0.259,3.836-1.152,4.098-3.152c1.641-12.458,16.845-15.267,18.454-15.53  c0.787-0.092,1.488-0.427,2.034-0.923c3.828-3.297,7.918-1.39,10.11,0.135c-2.763,10.083-1.383,18.984,0.456,25.008  c-17.81-4.213-28.209,8.159-29.594,9.939c-0.144,0.171-0.277,0.356-0.391,0.555c-10.236,17.915-30.981,10.972-37.517,8.211  c-0.638-29.342-33.897-23.295-33.995-23.278c-1.992,0.348-3.329,2.248-2.981,4.241c0.349,1.993,2.248,3.328,4.241,2.98  c0.072-0.011,23.779-4.315,25.349,15.081c-28.37,3.652-33.388,29.063-33.403,29.137c-0.403,1.979,0.875,3.911,2.851,4.313  c1.979,0.404,3.91-0.872,4.313-2.851c0.013-0.061,4.247-21.529,29.254-23.56c5.519,2.548,33.921,14.105,48.134-10.444  c1.153-1.473,11.047-13.205,28.592-4.876c0.931,0.486,2.053,0.561,3.066,0.148l0.004,0.007c0.027-0.009,10.011-4.188,10.163,7.855  c0.025,2.017,1.68,3.634,3.698,3.609C433.275,336.241,434.218,335.783,434.875,335.061L434.875,335.061z M423.168,247.21  L423.168,247.21c-0.196,0.153-0.414,0.29-0.648,0.404c-8.298,4.076-12.709,13.665-12.721,13.692  c-0.87,1.829-3.058,2.606-4.887,1.734c-1.826-0.87-2.603-3.058-1.733-4.885c0.014-0.034,5.427-11.819,16.082-17.079  c1.746,3.313,2.597,5.257,2.597,5.257C422.308,246.623,422.733,246.918,423.168,247.21L423.168,247.21z M109.104,213.616  L109.104,213.616c-0.829,1.633-1.635,3.322-2.414,5.071c0,0-1.261,0.468-3.356,1.479c0.08,0.179,0.177,0.357,0.288,0.528  c1.108,1.694,3.378,2.168,5.073,1.062c0.682-0.448,1.732-0.908,3.053-1.312c3.612-1.105,8.852-1.699,14.147-0.576  c5.117,1.083,10.268,3.829,13.914,9.403c0.684,1.047,1.315,2.188,1.89,3.43c-6.818,1.509-18.549,6.2-20.286,20.686  c-0.237,2.01,1.199,3.832,3.209,4.069c2.01,0.236,3.833-1.201,4.069-3.21c1.536-12.805,14.735-14.655,17.601-14.908  c12.715,4.013,13.545,15.459,13.55,15.49c0.173,2.01,1.945,3.499,3.954,3.325c2.01-0.174,3.497-1.945,3.325-3.955  c-0.005-0.047-1.153-15.647-17.522-21.458c-1.014-2.85-2.252-5.332-3.655-7.481c-4.874-7.452-11.729-11.117-18.529-12.556  c-6.623-1.405-13.222-0.647-17.785,0.748L109.104,213.616L109.104,213.616z M82.819,343.856L82.819,343.856  c1.866,2.497,3.792,4.746,5.77,6.758c0.792-0.648,1.308-1.624,1.34-2.728c0.315-10.825,2.692-19.426,7.606-25.282  c3.588-4.281,8.656-7.17,15.402-8.475c0.512,9.098,3.711,15.114,8.036,18.563c0.07,0.063,0.143,0.123,0.219,0.183  c2.583,1.985,5.53,3.061,8.548,3.345c2.941,0.273,5.939-0.216,8.719-1.361c5.744-2.368,10.62-7.558,12.145-14.569  c0.428-1.977-0.83-3.929-2.809-4.355c-1.976-0.428-3.928,0.831-4.355,2.808c-0.98,4.512-4.096,7.843-7.761,9.353  c-1.708,0.705-3.526,1.01-5.278,0.845c-1.674-0.156-3.306-0.753-4.737-1.853c-0.059-0.047-0.123-0.091-0.183-0.134  c-2.854-2.295-4.957-6.65-5.267-13.591l0.048-0.002c8.692-0.245,11.52-2.381,11.402-6.452c-0.065-2.282-1.424-4.274-3.138-6.783  c-3.56-5.212-9.351-13.688,0.63-25.716c1.291-1.559,1.074-3.869-0.487-5.157c-1.558-1.292-3.869-1.074-5.158,0.487  c-13.497,16.266-5.778,27.563-1.029,34.515c1.046,1.529,1.874,2.742,1.877,2.854c0.021,0.783-1.097-1.146-4.299-1.054  c-12.793,0.365-21.986,4.516-28.14,11.851C86.519,324.343,83.626,333.123,82.819,343.856L82.819,343.856z M155.212,360.545  L155.212,360.545c2.121-0.907,3.315-1.55,3.315-1.55c0.225,1.216,0.487,2.406,0.772,3.576l0.16-0.038  c1.954-0.514,3.121-2.517,2.607-4.471c-1.791-6.764-0.748-20.472,6.361-33.026c4.893-8.636,12.688-16.636,24.458-21.266  c1.11-0.348,1.938-1.181,2.324-2.196c0.995-2.088,9.132-18.314,20.674-15.601c2.801,1.079,23.885,8.654,32.07-4.082  c8.337,0.896,33.385,1.359,37.27-24.736c10.54-1.345,44.623-8.287,47.348-41.948c7.487,0.913,22.572,0.497,31.805-15.083  c1.028-1.741,0.45-3.987-1.29-5.014c-1.741-1.028-3.987-0.45-5.017,1.291c-7.901,13.336-21.407,12.219-26.208,11.328  c-9.896-25.951-32.826-12.324-32.894-12.284c-1.748,1.004-2.35,3.237-1.347,4.985c1.004,1.749,3.239,2.352,4.987,1.347  c0.045-0.027,16.07-9.561,22.797,9.641c-0.384,30.649-30.867,37.135-40.682,38.431c-8.862-32.326-35.587-14.911-35.665-14.862  c-1.709,1.076-2.222,3.335-1.147,5.043c1.076,1.709,3.336,2.222,5.045,1.147c0.054-0.035,19.419-12.662,25.259,12.874  c-2.389,25.191-29.692,20.62-31.514,20.286c-1.681-0.363-3.438,0.504-4.137,2.145c-4.286,10.087-22.214,3.381-24.102,2.644  c-0.202-0.092-0.414-0.167-0.637-0.222c-0.936-0.233-1.849-0.39-2.745-0.481c-5.514-21.083,6.946-20.974,6.982-20.974  c2.018-0.024,3.635-1.681,3.612-3.699c-0.025-2.017-1.68-3.632-3.697-3.608c-0.065,0-21.401-0.094-14.239,29.056  c-9.825,3.131-16.303,13.849-18.473,17.945c-13.418,3.16-15.751-5.841-15.758-5.867l-0.009,0.002  c-0.423-1.594-1.894-2.75-3.616-2.711c-9.18,0.248-9.187-9.653-9.187-9.679c-0.031-2.017-1.693-3.627-3.71-3.596  c-2.018,0.032-3.628,1.694-3.598,3.711c0,0.045,0.002,15.502,14.112,16.791c1.353,2.64,4.198,6.569,9.648,8.399  c-6.587,4.915-11.508,10.926-15.08,17.232c-8.129,14.352-9.214,30.43-7.078,38.498C155.045,360.143,155.122,360.35,155.212,360.545  L155.212,360.545z M257.536,398.625L257.536,398.625c-0.671-1.365-0.44-3.059,0.69-4.196c2.415-2.415,4.575-10.73,4.054-19.597  c-0.191-3.26-0.774-6.543-1.875-9.556c-1.055-2.89-2.592-5.537-4.724-7.668l-0.006-0.007l-0.008,0.007  c-3.669-3.671-9.262-5.931-17.466-5.498c-0.148,0.017-0.298,0.028-0.453,0.028c-0.199,0-0.395-0.018-0.586-0.048  c-1.667-0.184-16.283-1.488-15.323,10.052c0.166,2.017-1.336,3.79-3.354,3.955c-2.017,0.165-3.787-1.334-3.952-3.352  c-1.325-15.897,12.433-18.053,19.547-18.116v-13.008c-22.137,1.125-15.264-24.849-15.246-24.928  c0.499-1.955,2.487-3.134,4.442-2.637c1.955,0.499,3.135,2.487,2.637,4.442c-0.013,0.051-4.82,18.243,11.205,15.399  c0.644-0.112,1.28-0.048,1.855,0.157c2.419,0.679,26.914,6.984,36.593-13.84c-9.031-6.585-19.409,0.098-19.451,0.125  c-1.71,1.075-3.969,0.562-5.045-1.147c-1.074-1.708-0.561-3.967,1.147-5.043c0.085-0.054,29.71-19.118,40.423,21.743  c0.506,1.953-0.668,3.949-2.623,4.456c-1.954,0.506-3.95-0.668-4.456-2.623c-1.297-4.944-2.923-8.755-4.745-11.671  c-10.293,18.413-30.307,17.513-39.402,15.997v12.704c8.68,0.251,14.982,3.21,19.438,7.665l-0.009,0.007  c2.947,2.948,5.037,6.513,6.439,10.355c1.357,3.72,2.071,7.702,2.303,11.62c0.632,10.764-2.577,21.473-6.094,25.103  c-1.713-1.436-2.673-2.498-2.673-2.498C259.737,397.572,258.639,398.107,257.536,398.625L257.536,398.625z M298.131,292.193  L298.131,292.193c-1.526,1.321-3.837,1.155-5.159-0.374c-1.32-1.528-1.154-3.837,0.374-5.158c0.048-0.041,10.605-9.37,22.796-8.29  c-1.064-5.88-0.35-11.996,1.978-17.468c2.785-6.544,7.875-12.191,14.984-15.44c1.22-0.558,2.504-1.046,3.85-1.455  c8.909-2.711,14.615-0.297,18.207,3.205c1.983-7.419,6.444-16.703,16.474-21.827c19.122-9.766,32.799,7.941,32.84,7.992  c1.242,1.59,0.958,3.889-0.632,5.13c-1.59,1.241-3.886,0.958-5.129-0.632c-0.028-0.037-10.039-12.99-23.753-5.983  c-10.823,5.526-13.331,17.643-13.909,23.333c9.933,3.464,6.435,22.196,6.424,22.255c-0.348,1.994-2.248,3.329-4.24,2.98  c-1.994-0.348-3.329-2.245-2.981-4.241c0.005-0.041,2.631-14.421-2.913-14.23c-1.798,0.057-3.332-1.197-3.692-2.897l-0.006,0.004  c-0.007-0.034-2.357-11.811-14.572-8.096c-1.016,0.31-1.997,0.682-2.932,1.11c-5.347,2.445-9.181,6.708-11.287,11.658  c-2.117,4.976-2.493,10.629-0.912,15.823c0.123,0.41,0.26,0.818,0.414,1.225c4.943,2.625,9.837,7.564,14.126,16.047  c0.91,1.803,0.185,4.004-1.62,4.913c-1.803,0.911-4.003,0.185-4.913-1.62C318.717,273.993,298.189,292.142,298.131,292.193z   M353.997,377.83L353.997,377.83c-0.982,1.763-3.207,2.398-4.973,1.418c-1.763-0.982-2.398-3.207-1.418-4.973  c0.041-0.072,13.526-24.868,32.517-14.217c3.767-4.005,12.1-10.929,24.287-10.365c19.051,0.885,16.748,16.659,16.742,16.703  c-0.261,2.001-2.097,3.414-4.098,3.151c-1.999-0.261-3.411-2.096-3.151-4.097c0.004-0.022,1.179-7.94-9.808-8.449  c-9.253-0.429-15.577,4.778-18.463,7.828c12.163,15.939-5.72,32.357-5.775,32.406c-1.471,1.384-3.787,1.313-5.171-0.157  c-1.385-1.473-1.315-3.79,0.158-5.174c0.04-0.038,14.17-13.03,3.593-24.248C364.813,357.975,354.027,377.773,353.997,377.83  L353.997,377.83z" fill="#ec4b53"/><path d="M291.879,398.028c2.381,5.26-1.475,5.779-2.031,7.964c3.577,3.378,19.085,11.726,30.394,21.405  c13.718,11.743,11.624,16.422,20.748,16.965c4.638,0.275,14.371-1.767,13.578-8.336c-1.423-11.764-22.561-30.722-22.561-30.722  s0.021,0.009,0.065,0.031l-8.619-7.108C313.229,405.461,302.617,403.28,291.879,398.028z" fill="#f5a209"/><path d="M291.879,398.028c6.116,6.67,37.436,32.482,43.792,39.725c6.354,7.243,17.998,0.137,14.977-8.048  c-3.022-8.188-27.195-31.478-27.195-31.478c0.235,0.144-1.285-1.06-2.142-1.767C307.626,404.183,298.596,398.255,291.879,398.028  L291.879,398.028z" fill="#fbb429"/><path d="M109.075,39.924c-39.915,0-72.273,32.357-72.273,72.272c0,39.916,32.358,72.275,72.273,72.275  c11.583,0,22.531-2.728,32.233-7.573l36.742,21.159l-22.495-30.518c15.772-13.256,25.795-33.128,25.795-55.342  C181.349,72.281,148.992,39.924,109.075,39.924L109.075,39.924z" fill="#20d0c2"/><path d="M75.831,90.594c0-4.202,1.361-8.472,4.064-12.808c2.703-4.313,6.653-7.902,11.831-10.741  c5.201-2.838,11.239-4.245,18.166-4.245c6.425,0,12.104,1.179,17.031,3.564c4.906,2.361,8.697,5.586,11.377,9.674  c2.679,4.064,4.02,8.513,4.02,13.282c0,3.771-0.771,7.085-2.295,9.923c-1.519,2.84-3.337,5.291-5.447,7.335  c-2.092,2.068-5.859,5.54-11.311,10.423c-1.519,1.361-2.724,2.566-3.632,3.613c-0.91,1.042-1.589,1.997-2.023,2.86  c-0.451,0.863-0.792,1.726-1.042,2.587c-0.229,0.864-0.614,2.386-1.089,4.564c-0.842,4.61-3.476,6.905-7.927,6.905  c-2.294,0-4.247-0.748-5.812-2.247c-1.591-1.524-2.362-3.748-2.362-6.722c0-3.725,0.568-6.949,1.724-9.674  c1.161-2.727,2.681-5.11,4.589-7.176c1.908-2.066,4.497-4.518,7.72-7.357c2.838-2.474,4.906-4.361,6.154-5.609  c1.273-1.271,2.339-2.681,3.2-4.223c0.864-1.545,1.295-3.249,1.295-5.065c0-3.542-1.317-6.54-3.95-8.969  c-2.658-2.431-6.041-3.656-10.22-3.656c-4.881,0-8.469,1.226-10.786,3.7c-2.294,2.455-4.247,6.088-5.836,10.879  c-1.522,4.996-4.381,7.492-8.584,7.492c-2.498,0-4.586-0.862-6.29-2.632C76.694,94.523,75.831,92.636,75.831,90.594z   M108.281,163.486L108.281,163.486c-2.702,0-5.063-0.888-7.085-2.635c-2.019-1.748-3.021-4.201-3.021-7.358  c0-2.792,0.977-5.132,2.929-7.04c1.953-1.907,4.339-2.861,7.177-2.861c2.794,0,5.153,0.954,7.063,2.861  c1.905,1.907,2.86,4.247,2.86,7.04c0,3.113-0.998,5.564-2.996,7.335C113.207,162.598,110.915,163.486,108.281,163.486z" fill="#ffffff"/><path d="M402.924,39.924c39.917,0,72.275,32.357,72.275,72.272c0,39.916-32.358,72.275-72.275,72.275  c-11.583,0-22.528-2.728-32.23-7.573l-36.743,21.159l22.494-30.518c-15.771-13.256-25.793-33.128-25.793-55.342  C330.652,72.281,363.009,39.924,402.924,39.924L402.924,39.924z" fill="#20d0c2"/><g><path d="M394.005,119.26l-2.229-33.244c-0.402-6.474-0.615-11.144-0.615-13.966   c0-3.842,0.996-6.829,3.01-8.986c2.016-2.158,4.648-3.226,7.92-3.226c3.983,0,6.64,1.376,7.967,4.127   c1.352,2.751,2.016,6.734,2.016,11.904c0,3.058-0.165,6.165-0.475,9.317l-2.988,34.217c-0.33,4.077-1.02,7.208-2.086,9.389   c-1.043,2.158-2.796,3.249-5.263,3.249c-2.488,0-4.22-1.044-5.192-3.154C395.121,126.776,394.409,123.575,394.005,119.26   L394.005,119.26z M401.689,164.976L401.689,164.976c-2.823,0-5.289-0.925-7.375-2.751c-2.11-1.826-3.153-4.386-3.153-7.683   c0-2.868,0.996-5.312,3.01-7.327c2.016-2.014,4.459-3.01,7.375-3.01c2.916,0,5.382,0.996,7.444,3.01   c2.064,2.016,3.084,4.459,3.084,7.327c0,3.25-1.044,5.809-3.106,7.66C406.88,164.051,404.462,164.976,401.689,164.976   L401.689,164.976z" fill="#ffffff"/><path d="M255.892,133.803c-0.285,0.295-0.684,0.479-1.126,0.479h-0.041h-1.539   c-0.47,0-0.891-0.207-1.178-0.535c-0.4-0.079-0.777-0.242-1.115-0.469c-0.219-0.15-0.421-0.329-0.596-0.529   c-0.525-0.159-0.989-0.456-1.359-0.853c-0.494-0.53-0.815-1.244-0.862-2.026h-0.086c-0.866,0-1.655-0.374-2.218-0.98   c-0.534-0.575-0.868-1.364-0.868-2.221c0-0.344,0.057-0.68,0.163-1.001c-0.443-0.53-0.705-1.18-0.705-1.885   c0-0.599,0.186-1.151,0.51-1.627c-0.324-0.474-0.51-1.029-0.51-1.628s0.184-1.154,0.509-1.627c-0.325-0.475-0.509-1.03-0.509-1.628   c0-0.907,0.397-0.765,0.268-0.81l-0.005-0.004l-0.001,0.004c-0.869-0.311-1.69-0.605-1.69-3.119v-10.583   c-4.283-2.347-7.894-5.807-10.447-9.998c-2.64-4.333-4.166-9.443-4.166-14.906c0-7.79,3.095-14.851,8.1-19.967   c5.01-5.119,11.934-8.287,19.579-8.287c7.644,0,14.568,3.167,19.579,8.287c5.005,5.116,8.103,12.175,8.103,19.967   c0,5.178-1.369,10.037-3.756,14.214l-0.055,0.088c-2.316,4.02-5.581,7.404-9.476,9.828v11.356c0,3.996-1.597,3.846-3.145,3.7   l-0.006-0.001v0.001c-0.199-0.018,0.392,0.039,0.392,0.229c0,0.598-0.181,1.153-0.506,1.628c0.324,0.473,0.506,1.028,0.506,1.627   c0,0.595-0.184,1.151-0.507,1.626c0.323,0.474,0.507,1.03,0.507,1.629c0,0.705-0.262,1.353-0.701,1.884   c0.104,0.318,0.159,0.656,0.159,1.002c0,0.855-0.332,1.639-0.865,2.215l-0.005,0.002l0.005,0.005   c-0.563,0.602-1.347,0.978-2.22,0.978h-0.085c-0.046,0.777-0.367,1.488-0.859,2.018l-0.005,0.005l0.005,0.002   c-0.368,0.396-0.831,0.692-1.351,0.852c-0.179,0.206-0.382,0.387-0.607,0.538l-0.145,0.089c-0.308,0.185-0.647,0.316-1.003,0.382   c-0.286,0.325-0.705,0.527-1.171,0.527h-0.04h-1.541c-0.442,0-0.84-0.184-1.126-0.479H255.892L255.892,133.803z M253.143,130.679   L253.143,130.679h0.042c0.286,0,0.556,0.078,0.791,0.215c0.231-0.137,0.5-0.215,0.79-0.215h2.402h0.039   c0.29,0,0.561,0.078,0.791,0.215c0.233-0.137,0.502-0.215,0.79-0.215h0.583c0.243-0.546,0.787-0.926,1.42-0.931   c0.007-0.017,0.013-0.042,0.013-0.072c0-0.028-0.006-0.054-0.013-0.071l-0.009-0.013c-0.407-0.281-0.676-0.754-0.676-1.285   c0-0.863,0.701-1.563,1.564-1.563h2.286c0.007-0.02,0.012-0.046,0.012-0.075l-0.005-0.051l-0.012-0.022l-0.007-0.015l0.002-0.001   c-0.281-0.185-0.503-0.462-0.619-0.805c-0.272-0.817,0.166-1.701,0.983-1.972l0.047-0.019c-0.097-0.038-0.217-0.061-0.354-0.065   h-0.021v-1.542c-0.111-0.327-0.107-0.677,0-0.997v-0.586h0.02c0.131-0.002,0.245-0.027,0.343-0.064   c-0.097-0.04-0.212-0.063-0.343-0.064h-0.02v-1.525c-0.119-0.336-0.116-0.701,0-1.034v-0.569h0.021   c0.181-0.001,0.337-0.044,0.446-0.109l0.048-0.04l0.001,0.002l0.004,0.009l0.005,0.007v-0.006l-0.008-0.011l0.008,0.011   c0.02-3.542,1.502-3.402,3.027-3.258c0.107,0.011-0.266-0.035-0.266-0.599V101.11h0.002c0.001-0.54,0.279-1.061,0.778-1.351   c3.772-2.177,6.927-5.347,9.119-9.154l0.046-0.085c2.122-3.715,3.339-8.043,3.339-12.662c0-6.95-2.751-13.237-7.196-17.78   c-4.444-4.539-10.579-7.348-17.358-7.348c-6.778,0-12.914,2.809-17.356,7.348c-4.447,4.543-7.199,10.83-7.199,17.78   c0,4.882,1.356,9.434,3.704,13.281c2.402,3.942,5.841,7.153,9.919,9.231c0.582,0.229,0.99,0.793,0.99,1.455v11.521   c0,0.312-0.584,0.106-0.386,0.176v0.001c0.871,0.311,1.796,0.651,1.815,3.66l0.009,0.007c0.114,0.088,0.29,0.146,0.499,0.148h0.02   v1.545c0.109,0.325,0.107,0.671,0,0.991v0.592h-0.02c-0.133,0.001-0.25,0.024-0.349,0.063c0.099,0.038,0.218,0.06,0.349,0.065h0.02   v1.545c0.109,0.323,0.107,0.671,0,0.99v0.589h-0.02c-0.134,0.004-0.251,0.028-0.35,0.067l0.009,0.004   c0.334,0.104,0.633,0.317,0.839,0.628c0.474,0.718,0.278,1.687-0.441,2.163l-0.007,0.015l-0.006-0.004v0.004   c-0.006,0.009-0.008,0.037-0.008,0.073c0,0.029,0.005,0.057,0.012,0.075h2.283v0.004c0.493,0,0.978,0.236,1.282,0.673   c0.487,0.708,0.31,1.677-0.396,2.165l-0.002,0.006l-0.002,0.013l-0.004-0.001c-0.006,0.015-0.008,0.039-0.008,0.072   c0,0.034,0.006,0.059,0.014,0.079c0.593,0.002,1.156,0.348,1.413,0.922l0.002,0.002L253.143,130.679L253.143,130.679z    M247.488,117.274L247.488,117.274c0,0.055,0.004-0.081,0.008-0.079l-0.008,0.013V117.274z M264.504,123.864L264.504,123.864   l-0.002-0.001l-0.001,0.002L264.504,123.864L264.504,123.864z M263.945,126.767L263.945,126.767l0.002-0.001l-0.005-0.002   L263.945,126.767L263.945,126.767z M260.782,129.77L260.782,129.77l0.001-0.001h-0.005L260.782,129.77z" fill="#ffffff"/><path d="M248.059,77.858l4.508,33.11H256h3.433l4.688-33.773l1.768-0.227l-4.855,34.981l-0.104,0.743h-0.748   H256h-4.183h-0.747l-0.104-0.743l-4.611-33.853L248.059,77.858L248.059,77.858z" fill="#ffffff"/><path d="M258.477,72.895l-0.552,3.779l14.185-2.119l-19.229,8.024l0.708-5.197l-12.616,2.393L258.477,72.895   L258.477,72.895z" fill="#ffffff"/><path d="M224.036,122.148l11.812-16.222c0.449-0.615,1.319-0.752,1.937-0.303l0.002,0.002   c0.615,0.448,0.754,1.318,0.304,1.937l-11.816,16.218c-0.448,0.619-1.318,0.756-1.934,0.305l-0.001-0.001   C223.722,123.635,223.584,122.765,224.036,122.148L224.036,122.148z M292.449,103.776L292.449,103.776l-8.219-5.757   c-0.626-0.436-1.588-0.342-1.931,0.341l-0.001,0.005c-0.341,0.68-0.284,1.492,0.342,1.927l8.216,5.757   c0.625,0.437,1.594,0.344,1.931-0.34l0.005-0.002C293.128,105.023,293.076,104.213,292.449,103.776z M287.965,122.148   L287.965,122.148c0.449,0.618,0.312,1.488-0.305,1.937l-0.001,0.001c-0.618,0.45-1.488,0.314-1.937-0.305l-11.813-16.218   c-0.45-0.619-0.314-1.489,0.305-1.937v-0.002c0.619-0.449,1.489-0.312,1.937,0.303L287.965,122.148L287.965,122.148z    M290.594,49.307L290.594,49.307l-7.609,6.54c-0.58,0.497-0.724,1.457-0.15,1.958h0.005c0.576,0.499,1.376,0.644,1.953,0.147   l7.608-6.541c0.578-0.495,0.727-1.456,0.148-1.954l-0.001-0.005C291.97,48.958,291.173,48.809,290.594,49.307L290.594,49.307z    M300.866,76.488L300.866,76.488l-10.024,0.436c-0.761,0.033-1.47,0.697-1.324,1.446l0.001,0.002   c0.144,0.748,0.682,1.358,1.443,1.324l10.023-0.437c0.761-0.033,1.473-0.695,1.326-1.444l0.002-0.006   C302.164,77.061,301.631,76.453,300.866,76.488L300.866,76.488z M284.606,31.123L284.606,31.123   c0.388-0.659,1.24-0.882,1.898-0.493c0.658,0.386,0.882,1.236,0.497,1.897l-10.156,17.309c-0.386,0.656-1.235,0.882-1.897,0.496   l0.001-0.005c-0.661-0.384-0.883-1.235-0.495-1.894L284.606,31.123L284.606,31.123z M307.289,58.19L307.289,58.19   c0.708-0.284,1.517,0.065,1.799,0.777c0.283,0.708-0.063,1.518-0.771,1.801l-18.639,7.438c-0.706,0.284-1.517-0.064-1.799-0.771   l0.001-0.005c-0.285-0.708,0.06-1.518,0.77-1.799L307.289,58.19L307.289,58.19z M308.589,93.482L308.589,93.482l-19.282-5.56   c-0.731-0.212-1.504,0.213-1.713,0.948l-0.004,0.002c-0.21,0.733,0.217,1.504,0.948,1.715l19.282,5.561   c0.734,0.211,1.503-0.215,1.716-0.949l-0.001-0.002C309.749,94.465,309.323,93.693,308.589,93.482z M265.957,34.345L265.957,34.345   l-1.992,9.832c-0.152,0.751,0.322,1.596,1.083,1.637l0.001-0.001c0.761,0.039,1.482-0.335,1.635-1.083l1.991-9.831   c0.151-0.748-0.321-1.601-1.083-1.636l-0.005-0.002C266.827,33.225,266.107,33.595,265.957,34.345L265.957,34.345z M254.534,23.429   L254.534,23.429l0.158,20.066c0.005,0.761,0.633,1.379,1.399,1.372l0.001,0.002c0.764-0.007,1.378-0.637,1.373-1.398l-0.157-20.068   c-0.006-0.763-0.637-1.377-1.399-1.372C255.145,22.033,254.528,22.66,254.534,23.429L254.534,23.429z M246.043,34.345   L246.043,34.345l1.99,9.832c0.155,0.751-0.321,1.596-1.081,1.637l-0.004-0.001c-0.761,0.039-1.482-0.335-1.633-1.083l-1.992-9.831   c-0.152-0.748,0.322-1.601,1.083-1.636l0.005-0.002C245.173,33.225,245.893,33.595,246.043,34.345L246.043,34.345z M227.394,31.123   L227.394,31.123l10.151,17.31c0.387,0.659,0.164,1.51-0.497,1.894l0.002,0.005c-0.66,0.386-1.511,0.16-1.895-0.496l-10.156-17.309   c-0.386-0.66-0.161-1.511,0.497-1.897C226.154,30.241,227.006,30.464,227.394,31.123L227.394,31.123z M221.406,49.307   L221.406,49.307c-0.579-0.499-1.376-0.349-1.954,0.145l-0.001,0.005c-0.581,0.499-0.432,1.459,0.146,1.954l7.61,6.541   c0.578,0.496,1.378,0.351,1.953-0.147h0.002c0.576-0.501,0.433-1.46-0.15-1.958L221.406,49.307L221.406,49.307z M204.711,58.19   L204.711,58.19l18.64,7.442c0.707,0.281,1.056,1.09,0.77,1.799l0.001,0.005c-0.284,0.707-1.093,1.055-1.799,0.771l-18.64-7.438   c-0.711-0.283-1.055-1.093-0.771-1.801C203.193,58.255,204.002,57.906,204.711,58.19L204.711,58.19z M211.133,76.488   L211.133,76.488l10.023,0.436c0.764,0.033,1.47,0.697,1.326,1.446l-0.001,0.002c-0.144,0.748-0.684,1.358-1.445,1.324   l-10.023-0.437c-0.761-0.033-1.472-0.695-1.325-1.444l-0.002-0.006C209.835,77.061,210.369,76.453,211.133,76.488L211.133,76.488z    M203.41,93.482L203.41,93.482l19.281-5.56c0.733-0.212,1.506,0.213,1.716,0.948v0.002c0.212,0.733-0.215,1.504-0.948,1.715   l-19.282,5.561c-0.733,0.211-1.501-0.215-1.714-0.949l0.001-0.002C202.251,94.465,202.677,93.693,203.41,93.482z M219.552,103.776   L219.552,103.776c-0.627,0.437-0.682,1.247-0.342,1.931l0.002,0.002c0.34,0.684,1.307,0.777,1.93,0.34l8.219-5.757   c0.622-0.435,0.679-1.247,0.341-1.927l-0.004-0.005c-0.342-0.682-1.305-0.777-1.93-0.341L219.552,103.776z" fill="#ffffff"/></g></g><g transform="matrix(0.11718681454658508 0 0 0.11718681454658508 100 6.000005493131994)" id="L1_11"><path d="M256.004,512.001c140.999,0,255.999-115,255.999-256.001c0-140.999-115-255.999-255.999-255.999  C115.002,0.001,0.003,115.001,0.003,256C0.003,397.001,115.002,512.001,256.004,512.001z" fill="#5dddd3"/><path d="M137.214,168.972L1.595,227.451C0.553,236.826,0,246.347,0,256  c0,112.991,73.202,208.874,174.767,242.834l78.055-213.588L137.211,168.974L137.214,168.972z" fill="#82ede4"/><path d="M280.626,489.11h174.308c13.553,0,22.264,19.785,8.714,19.785H271.912  c-13.548,0-4.837-19.785,8.716-19.785H280.626z" fill="#0e7886"/><path d="M452.461,316.426L443.33,489.11h-20.606l18.172-164.905c4.577-1.348,8.582-4.1,11.567-7.78H452.461z   M377.207,489.11L377.207,489.11h20.522l26.411-166.452c-3.824-1.944-7.066-4.936-9.38-8.617l-37.553,175.072V489.11z" fill="#ff5b61"/><path d="M211.628,152.578l41.378-41.142c10.214-10.154,26.875-10.106,37.029,0.105l21.094,21.215  c10.154,10.214,10.106,26.875-0.108,37.031l-41.375,41.142L211.628,152.578z" fill="#0e7886"/><path d="M171.643,250.353c-15.339-15.426-14.993-40.641,0.771-56.318  c10.67-10.607,25.663-14.13,38.999-10.518l13.089-13.013c1.561-1.553,4.076-1.574,5.597-0.045l20.36,20.475  c1.521,1.532,1.485,4.045-0.076,5.597l-12.323,12.252c4.556,13.881,1.159,29.926-10.093,41.118  c-15.769,15.675-40.984,15.877-56.323,0.449V250.353z" fill="#ffffff"/><g><path d="M137.214,168.972c86.776-86.283,202.387,29.991,115.611,116.275L137.214,168.972z" fill="#0e7886"/><path d="M434.462,324.709c12.96,0,23.531-10.571,23.531-23.528c0-12.96-10.571-23.531-23.531-23.531   s-23.528,10.571-23.528,23.531C410.934,314.141,421.504,324.709,434.462,324.709z" fill="#0e7886"/></g><path d="M434.462,312.358c6.159,0,11.179-5.023,11.179-11.179c0-6.159-5.02-11.177-11.179-11.177  c-6.156,0-11.179,5.02-11.179,11.177S428.303,312.358,434.462,312.358z" fill="#ffffff"/><path d="M309.159,482.826l43.303-6.287v12.572h-43.303v-6.287V482.826z" fill="#fbb429"/><path d="M326.89,172.835L438.669,278.03c-1.364-0.244-2.772-0.375-4.207-0.375  c-3.3,0-6.439,0.679-9.288,1.904L324.314,179.417l-7.62,6.817l97.137,103.632c-1.847,3.36-2.896,7.213-2.896,11.318  c0,0.601,0.024,1.199,0.066,1.789L309.82,188.426l-1.933-2.188l2.174-1.944l12.858-11.504l2.009-1.799l1.959,1.847L326.89,172.835z" fill="#ff5b61"/><path d="M277.297,164.271l24.622-24.48l33.178,33.372c6.733,6.77,6.699,17.818-0.071,24.549l-0.003,0.003  c-6.767,6.731-17.815,6.702-24.549-0.071l-33.178-33.37V164.271z" fill="#0e7886"/><path d="M323.882,193.937c4.732,0,8.59-3.858,8.59-8.59c0-4.729-3.858-8.588-8.59-8.588  c-4.732,0-8.59,3.858-8.59,8.588C315.291,190.079,319.147,193.937,323.882,193.937z" fill="#ffffff"/><path d="M31.025,408.595h179.578v6.056c-8.501,10.838-7.098,22.891,0,31.922v6.056H31.025  c-28.053,0-28.056-44.037,0-44.037V408.595z" fill="#20d0c2"/><path d="M210.603,446.576c-7.247-10.641-7.796-21.28,0-31.922H31.025c-8.443,0-15.373,7.195-15.373,15.961  c0,8.769,6.927,15.961,15.373,15.961H210.603z" fill="#ffffff"/><g><path d="M208.882,417.222c0.519-0.855,1.091-1.713,1.721-2.571H31.025c-17.173,0-21.991,24.617-4.669,31.159   c-11.827-5.76-7.413-25.385,5.002-28.591h177.524V417.222z" fill="#ecf0f1"/><path d="M207.109,420.262H19.358c0.349-0.42,0.713-0.824,1.102-1.204h187.255   C207.502,419.46,207.295,419.861,207.109,420.262z M17.789,422.534L17.789,422.534c-0.22,0.391-0.43,0.792-0.622,1.207h188.598   c0.121-0.404,0.257-0.803,0.399-1.207H17.789z M16.312,426.009L16.312,426.009c-0.115,0.396-0.218,0.797-0.304,1.207h188.979   c0.058-0.401,0.129-0.803,0.207-1.207H16.315H16.312z M15.693,429.487L15.693,429.487c-0.024,0.372-0.039,0.748-0.039,1.125v0.081   h189.089c0-0.401,0.008-0.803,0.024-1.207H15.691H15.693z M15.822,432.965L15.822,432.965c0.058,0.407,0.134,0.811,0.22,1.204   h188.987c-0.063-0.399-0.115-0.8-0.157-1.204H15.822z M16.724,436.443L16.724,436.443c0.157,0.409,0.33,0.811,0.517,1.204h188.596   c-0.123-0.399-0.239-0.8-0.341-1.204H16.724z M18.566,439.922L18.566,439.922c0.291,0.417,0.598,0.818,0.926,1.204h187.712   c-0.191-0.399-0.37-0.803-0.538-1.204H18.566z M21.86,443.397L21.86,443.397c0.572,0.443,1.172,0.847,1.799,1.204h185.522   c-0.265-0.396-0.514-0.797-0.758-1.204H21.86z" fill="#ecf0f1"/></g><path d="M226.002,452.633H17.697v7.738c9.862,13.849,8.234,29.249,0,40.79v7.738h208.305  c32.543,0,32.546-56.263,0-56.263V452.633z" fill="#ff5b61"/><path d="M17.697,501.158c8.409-13.595,9.044-27.193,0-40.79h208.307c9.794,0,17.831,9.194,17.831,20.394  c0,11.203-8.039,20.394-17.831,20.394H17.697V501.158z" fill="#ffffff"/><g><path d="M19.693,463.654c-0.603-1.096-1.267-2.19-1.996-3.284h208.307c19.922,0,25.509,31.452,5.414,39.812   c13.721-7.357,8.598-32.433-5.802-36.525H19.693V463.654z" fill="#ecf0f1"/><path d="M21.752,467.536h217.787c-0.401-0.538-0.826-1.049-1.277-1.54H21.047   C21.296,466.508,21.532,467.022,21.752,467.536z M241.357,470.44L241.357,470.44c0.26,0.501,0.501,1.012,0.724,1.54H23.311   c-0.142-0.511-0.294-1.026-0.464-1.54h218.508H241.357z M243.073,474.883L243.073,474.883c0.134,0.506,0.249,1.02,0.349,1.54   H24.213c-0.068-0.512-0.147-1.026-0.241-1.54H243.07H243.073z M243.791,479.327L243.791,479.327   c0.029,0.477,0.047,0.955,0.047,1.437v0.102H24.499c0.003-0.511-0.008-1.026-0.029-1.54h219.324H243.791z M243.642,483.77   L243.642,483.77c-0.068,0.519-0.155,1.033-0.257,1.54H24.166c0.071-0.511,0.134-1.026,0.184-1.54h219.29H243.642z M242.595,488.213   L242.595,488.213c-0.184,0.525-0.383,1.036-0.603,1.54H23.227c0.142-0.511,0.278-1.026,0.396-1.54h218.97H242.595z M240.46,492.654   L240.46,492.654c-0.336,0.535-0.695,1.049-1.075,1.54H21.645c0.22-0.509,0.428-1.023,0.622-1.54H240.46z M236.638,497.1   L236.638,497.1c-0.664,0.567-1.361,1.081-2.088,1.537H19.35c0.304-0.506,0.598-1.02,0.881-1.537h216.405H236.638z" fill="#ecf0f1"/></g><path d="M194.356,364.484H55.697v6.056c6.565,10.836,5.482,22.891,0,31.922v6.056h138.659  c21.663,0,21.663-44.037,0-44.037V364.484z" fill="#fbb429"/><path d="M55.697,402.463c5.595-10.641,6.02-21.28,0-31.922h138.659c6.521,0,11.869,7.195,11.869,15.961  c0,8.769-5.348,15.961-11.869,15.961H55.697z" fill="#ffffff"/><g><path d="M57.026,373.111c-0.401-0.858-0.845-1.715-1.327-2.571h138.659c13.262,0,16.981,24.614,3.607,31.159   c9.133-5.757,5.723-25.383-3.864-28.588H57.029H57.026z" fill="#ecf0f1"/><path d="M58.398,376.151h144.967c-0.268-0.422-0.553-0.826-0.85-1.207H57.929   C58.091,375.346,58.249,375.747,58.398,376.151z M204.578,378.423L204.578,378.423c0.171,0.393,0.333,0.795,0.48,1.207H59.434   c-0.094-0.404-0.197-0.803-0.307-1.207H204.58H204.578z M205.719,381.901L205.719,381.901c0.089,0.396,0.168,0.797,0.233,1.204   H60.038c-0.047-0.401-0.1-0.803-0.163-1.204h145.841H205.719z M206.196,385.379L206.196,385.379   c0.021,0.372,0.029,0.748,0.029,1.125v0.079H60.224c0-0.401-0.005-0.803-0.021-1.204H206.196z M206.096,388.857L206.096,388.857   c-0.045,0.407-0.102,0.808-0.171,1.204H60.004c0.05-0.399,0.092-0.8,0.121-1.204H206.096z M205.399,392.335L205.399,392.335   c-0.121,0.409-0.257,0.813-0.401,1.204H59.377c0.097-0.399,0.184-0.8,0.265-1.204H205.399z M203.977,395.813L203.977,395.813   c-0.226,0.417-0.464,0.818-0.716,1.207H58.322c0.144-0.399,0.283-0.8,0.414-1.207H203.977z M201.433,399.289L201.433,399.289   c-0.441,0.446-0.905,0.847-1.39,1.207H56.796c0.205-0.396,0.399-0.8,0.588-1.207H201.433z" fill="#ecf0f1"/></g></g><g transform="matrix(0.13036875426769257 0 0 0.13036875426769257 227 72.99999851998359)" id="L1_12"><path d="M309.125,441.463 151.34,441.463 171.063,352.014 289.402,352.014z" fill="#d8d9dd"/><rect x="131px" y="431px" width="197px" height="18px" fill="#d8d9dd"/><path d="M439.677,75.537c0.012,0,0.226,0.139,0.226,0.151v255.997H20.562V75.688  c0-0.012,0.149-0.151,0.161-0.151H439.677L439.677,75.537z M460.233,203.61V75.652c0-10.847-9.672-20.444-20.52-20.444l0,0H20.687  c-10.847,0-20.454,9.597-20.454,20.444V203.61v0.003v127.959c0,10.848,9.607,20.444,20.454,20.444h419.026l0,0  c10.848,0,20.52-9.597,20.52-20.444V203.613V203.61z" fill="#59595a"/><path d="M439.677,75.537c0.012,0,0.226,0.139,0.226,0.151v255.997H20.562V75.688  c0-0.012,0.149-0.151,0.161-0.151H439.677L439.677,75.537z" fill="#90c5ff"/><rect x="131px" y="431px" width="197px" height="18px" opacity="0.4" fill="#5b5b5f"/><g><path d="M180.309,362.12 152.963,374.159 0,27.043     27.335,14.99z" opacity="0.2" fill="#ffffff"/><path d="M232.33,357.771 204.974,369.809 52.01,22.692     79.325,10.639z" opacity="0.2" fill="#ffffff"/></g></g><g transform="matrix(0.08341694623231888 0 0 0.08341694623231888 150.82675429061055 86.82675429061055)" id="L1_13"><rect x="219px" y="35px" width="20px" height="98px" fill="#59595a"/><rect x="229px" y="35px" width="10px" height="98px" opacity="0.4" fill="#5b5b5f"/><path d="M229.723,445.832c0,0-43.643,49.011-135.483-38.964C4.248,320.664-17.508,100.134,131.757,95.16  c78.082-2.602,97.966,38.964,97.966,38.964s19.884-41.566,97.966-38.964c149.265,4.974,127.509,225.504,37.517,311.709  C273.366,494.843,229.723,445.832,229.723,445.832z" fill="#c8523b"/><path d="M319.087,70.51c-26.068,26.068-70.468,23.934-70.468,23.934s-2.134-44.399,23.934-70.468  s70.468-23.934,70.468-23.934S345.155,44.442,319.087,70.51z" fill="#abcb57"/><path d="M343.021,0.042l-94.402,94.402  c0,0,44.399,2.134,70.468-23.935S343.021,0.042,343.021,0.042z" opacity="0.3" fill="#5b5b5f"/><path d="M327.689,95.16c-78.082-2.602-97.966,38.964-97.966,38.964  v311.709c0,0,43.643,49.011,135.483-38.964C455.198,320.664,476.954,100.134,327.689,95.16z" opacity="0.3" fill="#5b5b5f"/></g><g transform="matrix(0.1304347813129425 0 0 0.1304347813129425 -14 8)" id="L1_14"><rect x="71px" y="0px" width="316px" height="460px" fill="#59595a"/><rect x="110px" y="38px" width="239px" height="84px" fill="#90c5ff"/><rect x="237px" y="254px" width="49px" height="31px" fill="#ffffff"/><rect x="300px" y="254px" width="49px" height="31px" fill="#ffffff"/><rect x="110px" y="254px" width="49px" height="31px" fill="#ffffff"/><rect x="173px" y="254px" width="49px" height="31px" fill="#ffffff"/><rect x="237px" y="325px" width="49px" height="31px" fill="#ffffff"/><rect x="300px" y="325px" width="49px" height="31px" fill="#ffffff"/><rect x="110px" y="325px" width="49px" height="31px" fill="#ffffff"/><rect x="173px" y="325px" width="49px" height="31px" fill="#ffffff"/><rect x="237px" y="397px" width="49px" height="31px" fill="#abcb57"/><rect x="300px" y="397px" width="49px" height="31px" fill="#c8523b"/><rect x="110px" y="397px" width="49px" height="31px" opacity="0.4" fill="#211915"/><rect x="173px" y="397px" width="49px" height="31px" opacity="0.4" fill="#211915"/><rect x="237px" y="183px" width="49px" height="31px" fill="#ffffff"/><rect x="300px" y="183px" width="49px" height="31px" fill="#ffffff"/><rect x="110px" y="183px" width="112px" height="31px" fill="#e5c400"/><rect x="110px" y="80px" width="239px" height="42px" opacity="0.3" fill="#5b5b5f"/></g><g transform="matrix(0.12867005169391632 0 0 0.12867005169391632 11.999997493195679 152)" id="L1_15"><circle cx="308" cy="160" r="138" fill="#90c5ff"/><rect x="69px" y="280px" width="61px" height="178px" transform="matrix(-0.7071 -0.7071 0.7071 -0.7071 -90.9987 701.6116)" fill="#59595a"/><rect x="137px" y="292px" width="61px" height="16px" transform="matrix(-0.7071 -0.7071 0.7071 -0.7071 75.4308 632.6729)" fill="#abcb57"/><rect x="0px" y="430px" width="61px" height="16px" transform="matrix(-0.7071 -0.7071 0.7071 -0.7071 -257.4281 770.5503)" fill="#abcb57"/><g><path d="M254.961,399.535 224.429,387.668 374.939,0     405.473,11.847z" opacity="0.2" fill="#ffffff"/><path d="M298.66,436.49 268.121,424.616 418.631,36.946     449.15,48.777z" opacity="0.2" fill="#ffffff"/></g><path d="M417.893,51.569c-29.186-29.187-67.992-45.26-109.268-45.26s-80.081,16.073-109.268,45.26  c-29.186,29.186-45.26,67.992-45.26,109.268c0,35.857,12.136,69.846,34.456,97.288l-25.259,25.259l22.785,22.785l25.259-25.259  c27.442,22.319,61.43,34.456,97.287,34.456c41.276,0,80.081-16.073,109.268-45.26c29.187-29.187,45.26-67.993,45.26-109.269  S447.08,80.755,417.893,51.569z M395.325,247.537c-23.158,23.158-53.949,35.912-86.7,35.913c-32.751,0-63.542-12.754-86.7-35.913  c-23.158-23.158-35.912-53.949-35.913-86.7c0-32.751,12.754-63.542,35.913-86.7c23.158-23.158,53.949-35.912,86.7-35.913  c32.751,0,63.542,12.754,86.7,35.913s35.912,53.949,35.913,86.7C431.238,193.588,418.484,224.379,395.325,247.537z" fill="#59595a"/><path d="M308.625,315.365c41.276,0,80.081-16.073,109.268-45.26  s45.26-67.992,45.26-109.268c0.001-41.276-16.073-80.082-45.26-109.268l-22.568,22.568c23.158,23.158,35.912,53.949,35.913,86.7  c-0.001,32.751-12.754,63.542-35.913,86.7c-23.158,23.158-53.949,35.912-86.7,35.913c-32.751,0-63.542-12.754-86.7-35.913  l-20.923,20.923l-1.645,1.645l-24.671,24.671l-5.942,5.942L24.927,444.535l21.774,21.774l11.883-11.883l125.993-125.993  l11.883-11.883l-10.382-10.382l25.259-25.259C238.78,303.228,272.768,315.365,308.625,315.365z" opacity="0.3" fill="#5b5b5f"/></g><g transform="matrix(0.1284601241350174 0 0 0.1284601241350174 232.0000017406095 7)" id="L1_16"><path d="M240.688,443.831 219.84,368.545 204.786,368.545 183.938,443.831 134.859,443.831   134.859,467.071 289.766,467.071 289.766,443.831z" fill="#808083"/><path d="M289.767,443.831 240.688,443.831 219.84,368.545   212.313,368.545 212.313,467.071 289.767,467.071z" opacity="0.3" fill="#5b5b5f"/><circle cx="212" cy="166" r="159" fill="#5f95dd"/><path d="M258.318,50.313c-1.102,1.427-2.241,2.935-2.522,4.716c-0.459,2.907,1.452,5.602,3.26,7.924  c2.744,3.525,5.812,7.269,10.147,8.35c8.079,2.014,15.309-6.074,23.609-6.74c6.665-0.535,12.851,3.795,19.533,4.037  c7.581,0.275,11.497-6.948,13.03-14.377C313.199,41.932,299.033,31.62,283.4,23.802C277.307,31.689,264.41,42.428,258.318,50.313z" fill="#abcb57"/><path d="M364.161,118.446c-2.941,8.971-11.209,6.597-21.931,7.422c-13.767,1.059-22.133-5.711-34.849-8.238  c-11.801-2.346-22.172,5.782-27.686,15.567c-4.094,7.264-10.509,23.341-5.121,30.762c2.575,3.546,6.439,5.894,10.198,8.147  c5.412,3.244,10.851,6.501,16.702,8.862c6.727,2.714,14.446,4.571,18.725,10.428c3.524,4.823,3.809,11.274,3.197,17.216  c-1.662,16.131-15.71,30.448-2.884,45.104c4.819,5.507,11.378,8.553,18.696,8.56c20.239-26.696,32.256-59.969,32.256-96.054  C371.462,149.575,368.902,133.528,364.161,118.446z" fill="#abcb57"/><path d="M219.729,39.468c5.778,2.633,13.046,0.152,17.038-4.786c3.992-4.938,7.682-18.263,6.748-24.545  c-10.091-2.006-20.523-3.067-31.203-3.067c-2.834,0-5.649,0.077-8.447,0.223c1.907,5.841,5.3,10.909,6.324,16.976  C211.226,30.414,214.059,36.884,219.729,39.468z" fill="#abcb57"/><path d="M86.971,122.562c7.74,8.149,16.255,15.561,25.393,22.103c2.508,1.796,5.217,3.723,6.213,6.643  c2.898,8.488-2.078,17.652,2.993,27.327c4.794,9.148,15.382,14.854,18.119,24.812c2.135,7.767-1.147,16.198,0.708,24.038  c2.249,9.508,11.43,15.926,14.746,25.117c2.11,5.847,1.659,12.313,3.2,18.335s6.395,12.162,12.585,11.596  c7.479-0.683,10.551-9.903,11.135-17.391c0.585-7.487,1.352-16.517,8.056-19.902c3.566-1.8,8.224-1.521,11.014-4.379  c4.637-4.749-0.027-12.528,0.132-19.164c0.17-7.073,5.988-12.545,11.368-17.14c6.779-5.79,13.558-11.581,20.336-17.371  c4.708-3.981,5.911-11.11,3.979-16.965c-1.931-5.855-6.491-10.528-11.621-13.947c-5.517-3.678-12.622-6.15-18.743-3.6  c-4.659,1.941-8.263,6.59-13.302,6.881c-4.647,0.268-8.656-3.421-10.885-7.508c-2.228-4.087-3.28-8.736-5.538-12.806  c-6.485-11.685-16.98-10.973-28.298-12.723c-11.426-1.767-23.047-7.102-31.562-14.909c-1.364-1.251-2.717-2.642-3.258-4.412  c-3.027-9.904,14.515-14.286,20.581-14.086c4.974,0.163,10.049,1.614,14.84,0.271c4.523-1.267,7.983-4.799,11.827-7.498  c10.879-7.639,26.778,2.777,28.882-17.886c0.824-8.093-2.308-16.007-5.381-23.54c-4.455-10.922-8.463-21.281-11.388-32.514  C127.837,23.413,90.31,54.281,69.872,95.181c5.441,5.856,3.847,3.12,6.129,10.79C77.91,112.387,82.361,117.709,86.971,122.562z" fill="#abcb57"/><path d="M366.765,25.911l11.769-11.77L364.391,0l-37.343,37.343l14.143,14.142l11.412-11.412  c31.267,34.688,48.376,79.102,48.376,126.149c0,50.395-19.625,97.772-55.26,133.407c-71.189,71.189-185.581,73.48-259.555,6.883  l11.413-11.413l-14.143-14.143L46.092,318.3l14.143,14.143l11.774-11.774c39.671,36.081,89.979,54.125,140.305,54.121  c53.428-0.005,106.874-20.345,147.549-61.019c39.412-39.412,61.117-91.813,61.117-147.549  C420.979,113.83,401.798,64.39,366.765,25.911z" fill="#59595a"/><path d="M324.849,53.685L99.777,278.757  c62.152,62.152,162.92,62.152,225.072,0S387.001,115.837,324.849,53.685z" opacity="0.3" fill="#5b5b5f"/></g><g transform="matrix(0.1171875 0 0 0.1171875 81 240.0000035762787)" id="L1_18"><g><path d="M97.523,431.684c20.609,7.637,334.509-303.678,334.509-303.678s13.662-36.863-15.889-47.816    c-22.986-8.518-163.046-60.428-163.046-60.428c-26.822-9.939-43.324,3.229-48.531,17.283    c-5.209,14.053-126.82,342.176-133.328,359.74C64.728,414.35,76.915,424.047,97.523,431.684z" fill="#c6cbcb"/><path d="M302.801,476.69c-5.592,15.088-22.357,22.787-37.447,17.195L96.216,431.199    c-15.09-5.592-22.789-22.359-17.195-37.447L208.25,45.068c5.592-15.09,22.359-22.789,37.449-17.195l169.136,62.686    c15.09,5.592,22.789,22.357,17.197,37.447L302.801,476.69z" fill="#e2e5e7"/><rect x="155px" y="82px" width="208px" height="333px" transform="matrix(0.9377 0.3475 -0.3475 0.9377 102.6048 -74.8705)" fill="#2d404e"/><path d="M355.252,89.192c-0.799,2.158-3.342,3.203-5.678,2.336l-55.012-20.389    c-2.336-0.865-3.582-3.314-2.783-5.471l0,0c0.799-2.156,3.342-3.201,5.678-2.336l55.01,20.389    C354.803,84.588,356.049,87.035,355.252,89.192L355.252,89.192z" fill="#586a73"/><path d="M352.459,91.674c-0.904,0.244-1.912,0.215-2.885-0.146l-55.012-20.389    c-2.336-0.865-3.582-3.314-2.783-5.471l0,0c0.799-2.156,3.342-3.201,5.678-2.336c0,0-2.27,1.195-2.402,3.549    c-0.133,2.357,6.312,4.93,9.238,6.016C307.223,73.983,352.459,91.674,352.459,91.674z" fill="#2d404e"/><path d="M220.365,56.315 119.109,329.522 408.231,148.287     415.512,128.641z" opacity="0.19" fill="#e2e5e7"/><g><circle cx="191" cy="433" r="17" fill="#c6cbcb"/><circle cx="191" cy="433" r="14" fill="#d1d5d5"/><path d="M202.33,437.334c2.219-5.986-0.834-12.639-6.822-14.857c-5.986-2.219-12.639,0.834-14.857,6.822     c-2.221,5.99,0.836,12.641,6.822,14.859S200.111,443.324,202.33,437.334z" fill="#e2e5e7"/></g><path d="M366.311,69.43l32.996,12.23c0,0,2.412-1.262,1.703-4.598l-32.996-12.23    C368.014,64.832,365.086,66.364,366.311,69.43z" fill="#d1d5d5"/><path d="M401.01,77.063l-32.996-12.23c0,0-2.182,1.141-1.99,3.426l34.164,12.656    C400.793,80.213,401.418,78.983,401.01,77.063z" fill="#e2e5e7"/><ellipse cx="268px" cy="30px" rx="8px" ry="2px" transform="matrix(-0.9377 -0.3475 0.3475 -0.9377 509.6411 152.5528)" fill="#e2e5e7"/></g><g><path d="M485.157,319.93c-11.729,31.646-36.818,54.438-66.502,64.395l9.068,18.16    c34.084-12.283,62.736-38.926,76.312-75.557c13.578-36.631,9.209-75.508-8.641-107.037l-18.711,7.861    C492.705,254.651,496.885,288.287,485.157,319.93z" fill="#df584c"/><path d="M444.905,305.014c-7.793,21.027-25.426,35.541-45.748,40.277l10.346,20.711    c25.26-7.566,46.797-26.479,56.666-53.107c9.869-26.633,5.861-55.01-8.369-77.209l-21.342,8.965    C448.784,261.487,452.7,283.985,444.905,305.014z" fill="#df584c"/></g><g><path d="M26.843,156.012c-11.729,31.645-7.551,65.285,8.475,92.182l-18.713,7.861    c-17.848-31.527-22.217-70.408-8.641-107.039s42.227-63.271,76.312-75.555l9.068,18.16    C63.662,101.58,38.572,124.367,26.843,156.012z" fill="#df584c"/><path d="M67.095,170.93c-7.795,21.031-3.879,43.529,8.447,60.363L54.2,240.262    c-14.23-22.203-18.238-50.58-8.369-77.213c9.871-26.629,31.406-45.541,56.668-53.104l10.344,20.709    C92.521,135.389,74.888,149.903,67.095,170.93z" fill="#df584c"/></g></g><g transform="matrix(0.1190473809838295 0 0 0.1190473809838295 270 135.99999949137452)" id="L1_19"><path d="M219.95,308.001c-4.422,0-8-3.578-8-8v-208c0-4.422,3.578-8,8-8s8,3.578,8,8v208     C227.95,304.423,224.372,308.001,219.95,308.001z" fill="#868491"/><path d="M267.95,308.001c-4.422,0-8-3.578-8-8v-208c0-4.422,3.578-8,8-8s8,3.578,8,8v208     C275.95,304.423,272.372,308.001,267.95,308.001z" fill="#868491"/><path d="M315.95,308.001c-4.422,0-8-3.578-8-8v-208c0-4.422,3.578-8,8-8s8,3.578,8,8v208     C323.95,304.423,320.372,308.001,315.95,308.001z" fill="#868491"/><path d="M463.028,247.079c-2.047,0-4.094-0.781-5.656-2.344L310.294,97.657     c-3.125-3.125-3.125-8.188,0-11.313s8.188-3.125,11.313,0l147.078,147.078c3.125,3.125,3.125,8.188,0,11.313     C467.122,246.298,465.075,247.079,463.028,247.079z" fill="#868491"/><path d="M171.95,308.001c-4.422,0-8-3.578-8-8v-208c0-4.422,3.578-8,8-8s8,3.578,8,8v208     C179.95,304.423,176.372,308.001,171.95,308.001z" fill="#868491"/><path d="M123.95,308.001c-4.422,0-8-3.578-8-8v-208c0-4.422,3.578-8,8-8s8,3.578,8,8v208     C131.95,304.423,128.372,308.001,123.95,308.001z" fill="#868491"/><path d="M399.999,372.001c-4.422,0-8-3.578-8-8v-240c0-13.234-10.766-24-24-24H72     c-13.234,0-24,10.766-24,24v240c0,4.422-3.578,8-8,8s-8-3.578-8-8v-240c0-22.055,17.945-40,40-40h295.999     c22.055,0,40,17.945,40,40v240C407.999,368.423,404.421,372.001,399.999,372.001z" fill="#5c546a"/><path d="M56,388.001H24c-4.422,0-8-3.578-8-8c0-13.234,10.766-24,24-24s24,10.766,24,24     C64,384.423,60.421,388.001,56,388.001z" fill="#868491"/><path d="M40,356.001c-0.075,0-0.144,0.021-0.219,0.022v31.978H56c4.422,0,8-3.578,8-8    C64,366.766,53.234,356.001,40,356.001z" fill="#b4b6bc"/><path d="M415.78,388.001h-32c-4.422,0-8-3.578-8-8c0-13.234,10.766-24,24-24s24,10.766,24,24     C423.78,384.423,420.202,388.001,415.78,388.001z" fill="#868491"/><path d="M399.78,356.001c-0.075,0-0.144,0.021-0.219,0.022v31.978h16.219c4.422,0,8-3.578,8-8    C423.78,366.766,413.015,356.001,399.78,356.001z" fill="#b4b6bc"/><circle cx="123" cy="324" r="24" fill="#ffcd00"/><path d="M431.999,420.001H8c-4.418,0-8-3.582-8-8v-16c0-8.837,7.163-16,16-16h407.999    c8.837,0,16,7.163,16,16v16C439.999,416.419,436.418,420.001,431.999,420.001z" fill="#7e5c62"/><path d="M106.98,307.03c-0.053,0.053-0.087,0.117-0.139,0.171l33.91,33.91    c0.053-0.052,0.117-0.086,0.171-0.139c9.373-9.373,9.373-24.569,0-33.941C131.549,297.657,116.353,297.657,106.98,307.03z" fill="#ffe671"/><circle cx="171" cy="324" r="24" fill="#ffcd00"/><path d="M154.761,307.03c-0.053,0.053-0.087,0.117-0.139,0.171l33.91,33.91    c0.053-0.052,0.117-0.086,0.171-0.139c9.373-9.373,9.373-24.569,0-33.941C179.33,297.657,164.134,297.657,154.761,307.03z" fill="#ffe671"/><circle cx="219" cy="324" r="24" fill="#ffcd00"/><path d="M202.761,307.03c-0.053,0.053-0.087,0.117-0.139,0.171l33.91,33.91    c0.053-0.052,0.117-0.086,0.171-0.139c9.373-9.373,9.373-24.569,0-33.941C227.329,297.657,212.134,297.657,202.761,307.03z" fill="#ffe671"/><circle cx="267" cy="324" r="24" fill="#ffcd00"/><path d="M250.761,307.03c-0.053,0.053-0.087,0.117-0.139,0.171l33.91,33.91    c0.053-0.052,0.117-0.086,0.171-0.139c9.373-9.373,9.373-24.569,0-33.941C275.329,297.657,260.134,297.657,250.761,307.03z" fill="#ffe671"/><circle cx="315" cy="324" r="24" fill="#ffcd00"/><path d="M298.761,307.03c-0.053,0.053-0.087,0.117-0.139,0.171l33.91,33.91    c0.053-0.052,0.117-0.086,0.171-0.139c9.373-9.373,9.373-24.569,0-33.941C323.329,297.657,308.134,297.657,298.761,307.03z" fill="#ffe671"/><circle cx="479" cy="256" r="24" fill="#ffcd00"/><path d="M463.029,239.079c-0.053,0.053-0.087,0.117-0.139,0.171l33.91,33.91    c0.053-0.052,0.117-0.086,0.171-0.139c9.373-9.373,9.373-24.568,0-33.941C487.597,229.706,472.401,229.706,463.029,239.079z" fill="#ffe671"/></g><g transform="matrix(0.11718566715717316 0 0 0.11718566715717316 5.000001630757652 236)" id="L1_20"><path d="M280.01,464.008h-48c-4.422,0-8,3.578-8,8v8c0,17.648,14.352,32,32,32s32-14.352,32-32v-8    C288.01,467.586,284.432,464.008,280.01,464.008z" fill="#868491"/><path d="M256.002,464.008H232.01c-4.422,0-8,3.578-8,8v8c0,17.646,14.347,31.995,31.992,31.999    L256.002,464.008L256.002,464.008z" fill="#5c546a"/><path d="M381.983,49.895c-37.391-35.141-86.367-52.742-137.734-49.52    C150.639,6.2,75.014,84.286,72.092,178.149c-2.156,69.547,34.375,133.578,95.344,167.117c15.156,8.344,24.57,24.367,24.57,41.828    v60.914c0,17.648,14.352,32,32,32h64c17.648,0,32-14.352,32-32v-60.914c0-17.445,9.484-33.508,24.766-41.93    c58.742-32.406,95.234-94.156,95.234-161.156C440.006,133.43,418.858,84.547,381.983,49.895z" fill="#ffcd00"/><circle cx="256" cy="184" r="128" fill="#ffe671"/><path d="M283.986,232.008c-10.633,0-16.07-6.203-20.031-10.727c-3.492-3.984-4.883-5.273-8-5.273     c-3.102,0-4.484,1.289-7.961,5.266c-3.734,4.273-9.383,10.734-20.016,10.734c-10.625,0-16.273-6.461-20.008-10.734     c-3.477-3.977-4.859-5.266-7.961-5.266c-4.422,0-8-3.578-8-8s3.578-8,8-8c10.625,0,16.273,6.461,20.008,10.734     c3.477,3.977,4.859,5.266,7.961,5.266s4.492-1.289,7.969-5.266c3.734-4.273,9.383-10.734,20.008-10.734     c10.633,0,16.07,6.203,20.031,10.727c3.492,3.984,4.883,5.273,8,5.273c3.109,0,4.5-1.289,7.992-5.266     c3.742-4.273,9.391-10.734,20.031-10.734c4.422,0,8,3.578,8,8s-3.578,8-8,8c-3.117,0-4.508,1.289-8,5.273     C300.267,225.555,294.619,232.008,283.986,232.008z" fill="#ffffff"/><path d="M232.002,384.008c-3.68,0-6.992-2.555-7.813-6.297l-40-184c-0.938-4.32,1.805-8.578,6.117-9.523     c4.344-0.953,8.578,1.805,9.523,6.117l40,184c0.938,4.32-1.805,8.578-6.117,9.523     C233.135,383.954,232.564,384.008,232.002,384.008z" fill="#5c546a"/><path d="M280.017,384.008c-0.563,0-1.133-0.055-1.711-0.18c-4.313-0.945-7.055-5.203-6.117-9.523l40-184     c0.945-4.313,5.164-7.063,9.523-6.117c4.313,0.945,7.055,5.203,6.117,9.523l-40,184     C287.01,381.454,283.697,384.008,280.017,384.008z" fill="#5c546a"/><path d="M190.633,376.008c0.851,3.593,1.374,7.293,1.374,11.086v60.914c0,17.648,14.352,32,32,32h64    c17.648,0,32-14.352,32-32v-60.914c0-3.79,0.527-7.491,1.384-11.086H190.633z" fill="#b4b6bc"/><path d="M256.002,376.008h-65.369c0.851,3.593,1.374,7.293,1.374,11.086v60.914c0,17.648,14.352,32,32,32    h31.995V376.008z" fill="#868491"/><rect x="256px" y="400px" width="64px" height="16px" fill="#868491"/><rect x="256px" y="432px" width="64px" height="16px" fill="#868491"/><rect x="192px" y="400px" width="64px" height="16px" fill="#5c546a"/><rect x="192px" y="432px" width="64px" height="16px" fill="#5c546a"/></g><g transform="matrix(0.11708733439445496 0 0 0.11708733439445496 -6 90.00000205817571)" id="L1_21"><path d="M424,116.219h-40c-4.418,0-8,3.582-8,8v216h56v-216C432,119.801,428.418,116.219,424,116.219z" fill="#ff4f19"/><path d="M404,116.219h-20c-4.418,0-8,3.582-8,8v216h28V116.219z" fill="#e3001e"/><path d="M168.219,84.219H120c-4.418,0-8,3.582-8,8v248h64.219v-248    C176.219,87.801,172.637,84.219,168.219,84.219z" fill="#e3001e"/><path d="M168.219,84.219H144v256h32.219v-248C176.219,87.801,172.637,84.219,168.219,84.219z" fill="#ff4f19"/><path d="M80,452.219c-2.977,0-5.781-1.668-7.156-4.422l-40-80c-1.977-3.953-0.375-8.758,3.578-10.734     c3.945-1.969,8.758-0.375,10.734,3.578L72,410.332v-46.113c0-4.418,3.578-8,8-8s8,3.582,8,8v80c0,3.711-2.555,6.934-6.164,7.785     C81.227,452.149,80.609,452.219,80,452.219z" fill="#868491"/><path d="M432.219,452.219c-0.609,0-1.227-0.07-1.836-0.215c-3.609-0.852-6.164-4.074-6.164-7.785v-80     c0-4.418,3.578-8,8-8s8,3.582,8,8v46.113l24.844-49.691c1.984-3.953,6.781-5.547,10.734-3.578     c3.953,1.977,5.555,6.781,3.578,10.734l-40,80C438,450.551,435.195,452.219,432.219,452.219z" fill="#868491"/><path d="M248,84.219h-16c-4.418,0-8,3.582-8,8v248h32v-248C256,87.801,252.418,84.219,248,84.219z" fill="#5d647f"/><path d="M368,84.219h-16c-4.418,0-8,3.582-8,8v248h32v-248C376,87.801,372.418,84.219,368,84.219z" fill="#4bb9ec"/><path d="M104,108.219H88c-4.418,0-8,3.582-8,8v223.125c0,0.483,0.392,0.875,0.875,0.875H112v-224    C112,111.801,108.418,108.219,104,108.219z" fill="#ff9100"/><path d="M72,132.219H48c-4.418,0-8,3.582-8,8v200h40v-200C80,135.801,76.418,132.219,72,132.219z" fill="#00c37a"/><path d="M464,100.219h-24c-4.418,0-8,3.582-8,8v232h40v-232C472,103.801,468.418,100.219,464,100.219z" fill="#5d647f"/><path d="M336,60.219h-40c-4.418,0-8,3.582-8,8v272h56v-272C344,63.801,340.418,60.219,336,60.219z" fill="#ff9100"/><path d="M280,116.219h-16c-4.418,0-8,3.582-8,8v216h32v-216C288,119.801,284.418,116.219,280,116.219z" fill="#00c37a"/><path d="M216,100.219h-32c-4.418,0-8,3.582-8,8v232h48v-232C224,103.801,220.418,100.219,216,100.219z" fill="#4bb9ec"/><path d="M504.438,372.219H8c-4.418,0-8-3.582-8-8v-16c0-4.418,3.582-8,8-8h496.438c4.418,0,8,3.582,8,8v16    C512.438,368.637,508.856,372.219,504.438,372.219z" fill="#e6be8a"/><rect x="112px" y="108px" width="32px" height="16px" fill="#5d647f"/><rect x="144px" y="108px" width="32px" height="16px" fill="#868491"/><rect x="112px" y="300px" width="32px" height="16px" fill="#5d647f"/><rect x="144px" y="300px" width="32px" height="16px" fill="#868491"/><rect x="272px" y="140px" width="16px" height="16px" fill="#00a077"/><rect x="272px" y="292px" width="16px" height="16px" fill="#00a077"/><rect x="376px" y="140px" width="28px" height="16px" fill="#ff9100"/><rect x="376px" y="292px" width="28px" height="16px" fill="#ff9100"/><rect x="404px" y="140px" width="28px" height="16px" fill="#ffcd00"/><rect x="404px" y="292px" width="28px" height="16px" fill="#ffcd00"/><path d="M176,108.219v232h24v-240h-16C179.582,100.219,176,103.801,176,108.219z" fill="#009bca"/><path d="M80,340.219h16v-232h-8c-4.418,0-8,3.582-8,8V340.219z" fill="#ff4f19"/><path d="M40,340.219h20v-208H46.998c-3.865,0-6.998,3.133-6.998,6.998V340.219z" fill="#00a077"/><path d="M224,340.219h16v-256h-8c-4.418,0-8,3.582-8,8V340.219z" fill="#5c546a"/><path d="M256,340.219h16v-224h-8c-4.418,0-8,3.582-8,8V340.219z" fill="#00a077"/><rect x="256px" y="140px" width="16px" height="16px" fill="#5d647f"/><rect x="256px" y="292px" width="16px" height="16px" fill="#5d647f"/><path d="M288,340.219h28v-280h-20c-4.418,0-8,3.582-8,8V340.219z" fill="#ff4f19"/><path d="M360,84.219h-8c-4.418,0-8,3.582-8,8v248h16V84.219z" fill="#009bca"/><path d="M452.22,100.219H440c-4.418,0-8,3.582-8,8v232h20.22V100.219z" fill="#5c546a"/><path d="M0,356.219v8c0,4.418,3.582,8,8,8h496.438c4.418,0,8-3.582,8-8v-8H0z" fill="#c9a07c"/></g><g transform="matrix(0.1171875 0 0 0.1171875 93 167)" id="L1_22"><path d="M361.412,481.882V331.294c0-58.217-47.194-105.412-105.412-105.412s-105.412,47.194-105.412,105.412  v150.588H361.412z" fill="#3c5d76"/><path d="M361.412,481.882V331.294c0-58.217-47.194-105.412-105.412-105.412c0,93.365,0,256,0,256H361.412z" fill="#1e2e3b"/><rect x="120px" y="466px" width="271px" height="45px" fill="#91dc5a"/><rect x="256px" y="466px" width="135px" height="45px" fill="#64c37d"/><rect x="195px" y="376px" width="120px" height="45px" fill="#91dc5a"/><rect x="256px" y="376px" width="60px" height="45px" fill="#64c37d"/><path d="M388.841,132.84C388.841,235.025,256,286.118,256,286.118S123.159,235.025,123.159,132.84  C123.159,59.475,182.635,0,256,0S388.841,59.475,388.841,132.84z" fill="#91dc5a"/><path d="M256,0c73.365,0,132.841,59.475,132.841,132.84C388.841,235.025,256,286.118,256,286.118" fill="#64c37d"/><path d="M341.795,168.82c-21.103,21.457-63.712,13.776-63.712,13.776s-8.388-42.476,12.717-63.934  c21.103-21.459,63.712-13.776,63.712-13.776S362.9,147.361,341.795,168.82z" fill="#1e2e3b"/><path d="M170.205,168.82c21.106,21.457,63.712,13.776,63.712,13.776s8.388-42.476-12.717-63.934  c-21.103-21.459-63.712-13.776-63.712-13.776S149.1,147.361,170.205,168.82z" fill="#3c5d76"/><path d="M225.882,225.882C225.882,242.515,239.366,256,256,256l0,0c16.634,0,30.118-13.485,30.118-30.118  H225.882z" fill="#1e2e3b"/></g><g transform="matrix(0.12559764087200165 0 0 0.12559764087200165 260 207)" id="L1_23"><path d="M408.68,239.423c0,12.3-1.3,24.3-3.78,35.86c-7.12,33.32-23.97,63.03-47.44,86.02   c-11.33,11.11-24.22,20.66-38.3,28.27c-14.34,7.77-29.91,13.54-46.35,16.95c-11.23,2.32-22.86,3.54-34.77,3.54   c-2.86,0-5.7-0.07-8.52-0.21c-32.17-1.58-61.99-12.07-87.05-29.06c-7.84-5.3-15.22-11.25-22.05-17.75   c-7.51-7.14-14.36-14.96-20.47-23.36c-20.39-28.04-32.46-62.54-32.55-99.84c0-0.79,0.01-1.57,0.01-2.36   c0.01-0.65,0.03-1.3,0.04-1.94c0.01-0.57,0.02-1.14,0.04-1.71c1.23-38.28,15.08-73.38,37.51-101.27   c4.32-5.37,8.95-10.47,13.88-15.27c21.72-21.2,49.08-36.66,79.62-43.9c8.58-2.04,17.41-3.42,26.43-4.11   c4.33-0.33,8.7-0.5,13.11-0.5c29.46,0,57.17,7.46,81.35,20.62c7.35,3.98,14.37,8.49,21.02,13.48c6.44,4.83,12.52,10.11,18.2,15.79   c2.78,2.78,5.47,5.65,8.04,8.62c12.32,14.1,22.36,30.24,29.52,47.86C404.24,194.993,408.68,216.693,408.68,239.423z" fill="#f9911e"/><path d="M399.05,182.763c-27.53,36.71-61.77,76.17-100.95,115.34c-39.53,39.54-79.36,74.05-116.36,101.71   c-0.22,0.17-0.45,0.33-0.67,0.5c-11.64-4.12-22.69-9.46-33-15.88c0.22-0.11,0.43-0.23,0.65-0.35h0.01   c0.04-0.02,0.09-0.06,0.13-0.08c37.35-20.44,84.63-57.09,131.34-103.8c46.25-46.25,82.63-93.05,103.19-130.22   c4.93,7.97,9.21,16.39,12.78,25.17C397.19,177.663,398.15,180.193,399.05,182.763z" fill="#f9a24b"/><g><path d="M318.026,113.78c-0.907,0-1.824-0.247-2.649-0.764c-5.901-3.697-12.116-6.994-18.471-9.799    c-2.526-1.115-3.671-4.067-2.556-6.593c1.114-2.525,4.066-3.67,6.593-2.555c6.794,2.998,13.436,6.522,19.742,10.473    c2.341,1.466,3.049,4.552,1.583,6.892C321.319,112.949,319.691,113.78,318.026,113.78z" fill="#ffffff"/><path d="M341.125,351.523c-1.336,0-2.668-0.532-3.652-1.584c-1.887-2.017-1.781-5.181,0.235-7.067    c29.375-27.483,46.223-66.24,46.223-106.334c0-40.324-16.17-77.856-45.532-105.684c-2.004-1.9-2.089-5.064-0.189-7.069    c1.898-2.004,5.064-2.089,7.068-0.19c31.375,29.735,48.653,69.845,48.653,112.942c0,42.851-18.002,84.27-49.391,113.636    C343.576,351.076,342.349,351.523,341.125,351.523z" fill="#ffffff"/><path d="M320.094,367.985c-1.637,0-3.241-0.803-4.199-2.278c-1.503-2.316-0.845-5.413,1.472-6.916    c2.547-1.653,5.078-3.412,7.524-5.227c2.219-1.646,5.349-1.182,6.995,1.036c1.646,2.218,1.182,5.349-1.036,6.995    c-2.613,1.939-5.317,3.817-8.038,5.583C321.971,367.724,321.026,367.985,320.094,367.985z" fill="#ffffff"/></g><path d="M358.61,118.673c-5.68-5.68-11.76-10.96-18.2-15.79   c-6.65-4.99-13.67-9.5-21.02-13.48c0.33,0.6,0.73,1.15,1.22,1.64c10.6,10.58,5.06,35.41-12.58,67.69   c-0.02,0.04-0.06,0.09-0.08,0.13c-0.2,0.37-0.41,0.74-0.62,1.12c-20.56,37.17-56.94,83.97-103.19,130.22   c-8.124,8.124-16.264,15.939-24.366,23.418c-8.203,7.572-21.434,4.944-26.09-5.202c-9.923-21.628-15.46-45.684-15.46-71.037   c0-46.04,18.24-87.83,47.88-118.52c16.33-16.91,36.12-30.46,58.23-39.5c9.22-3.765,18.846-6.738,28.788-8.857   c-11.529-2.458-23.483-3.763-35.745-3.763c-22.84,0-44.62,4.49-64.53,12.62c-22.11,9.04-41.9,22.59-58.23,39.5   c-29.64,30.69-47.88,72.48-47.88,118.52c0,49.389,20.994,93.863,54.535,125.024c-0.283,0.21-0.57,0.428-0.853,0.637   c6.83,6.5,14.21,12.45,22.05,17.75c0.354-0.293,0.709-0.592,1.063-0.886c11.436,7.548,23.829,13.764,36.965,18.404   c17.79,6.29,36.94,9.71,56.88,9.71c12.255,0,24.208-1.3,35.734-3.756c-7.222-1.54-14.276-3.531-21.127-5.954   c-19.96-7.05-38.22-17.72-53.98-31.21c-0.849-0.726-1.69-1.46-2.524-2.203c-9.143-8.139-9.154-22.411-0.238-30.799   c8.924-8.395,17.868-17.066,26.798-25.997c39.18-39.17,73.42-78.63,100.95-115.34c0.25-0.34,0.51-0.68,0.76-1.02   c17.04-22.79,31.48-44.52,42.9-64.45C364.08,124.323,361.39,121.453,358.61,118.673z" opacity="0.25"/><path d="M464.98,12.733c-22.37-22.36-89.13,5.46-169,65.17l-0.72,0.72c11.59,4.11,22.6,9.45,32.87,15.86   l0.86-0.86c32.28-17.65,57.11-23.17,67.68-12.58c10.6,10.58,5.06,35.41-12.58,67.69c-0.02,0.04-0.06,0.09-0.08,0.13   c-0.2,0.37-0.41,0.74-0.62,1.12c-20.56,37.17-56.94,83.97-103.19,130.22c-46.71,46.71-93.99,83.36-131.34,103.8   c-0.04,0.02-0.09,0.06-0.13,0.08h-0.01c-0.22,0.12-0.43,0.24-0.65,0.35c-7.89,4.29-15.33,7.86-22.22,10.62   c-21.01,8.45-36.9,9.54-44.81,1.62c-10.51-10.5-5.13-35.02,12.19-66.95c-6.43-10.29-11.8-21.32-15.94-32.93   c-59.29,79.52-86.84,145.9-64.55,168.19c17.32,17.33,61.27,4.54,117.33-29.86h0.01c16.11-9.88,33.22-21.55,50.99-34.81   c0.22-0.17,0.45-0.33,0.67-0.5c37-27.66,76.83-62.17,116.36-101.71c39.18-39.17,73.42-78.63,100.95-115.34   c0.25-0.34,0.51-0.68,0.76-1.02C459.52,101.863,487.35,35.103,464.98,12.733z" fill="#f7db9c"/><path d="M238.854,414.762c-20.228,0-40.061-3.405-58.946-10.121l3.35-9.422   c17.809,6.332,36.514,9.542,55.597,9.542c91.48,0,165.905-74.425,165.905-165.905c0-19.076-3.211-37.778-9.543-55.586l-0.289-0.813   v-0.863l5.015-0.005l4.696-1.67c6.716,18.887,10.121,38.716,10.121,58.937C414.759,335.851,335.848,414.762,238.854,414.762z" fill="#333333"/><path d="M35.111,477.716c-11.116,0-19.776-3.066-25.91-9.201C-3.293,456.022-3.062,433.04,9.888,400.21   c11.799-29.914,33.934-66.992,64.011-107.227l8.01,5.987c-29.553,39.533-51.24,75.81-62.718,104.909   c-11.032,27.971-12.069,48.415-2.919,57.565c9.151,9.15,29.595,8.114,57.565-2.919c29.099-11.478,65.375-33.165,104.908-62.718   c37.798-28.256,77.85-63.264,115.824-101.238c37.972-37.972,72.979-78.023,101.237-115.823   c29.553-39.533,51.24-75.81,62.718-104.909c11.033-27.971,12.069-48.415,2.92-57.565c-9.15-9.15-29.594-8.115-57.566,2.919   c-29.099,11.477-65.375,33.165-104.908,62.718l-5.988-8.009c40.235-30.078,77.314-52.212,107.228-64.011   c32.83-12.949,55.812-13.181,68.306-0.688c12.493,12.493,12.262,35.475-0.688,68.306c-11.799,29.914-33.934,66.992-64.011,107.227   c-28.54,38.177-63.872,78.603-102.177,116.907c-38.307,38.307-78.732,73.638-116.906,102.176   c-40.235,30.077-77.314,52.212-107.228,64.011C60.796,474.419,46.634,477.715,35.111,477.716z M96.65,407.007   c-8.18,0.001-14.609-2.257-19.148-6.797c-12.049-12.049-7.988-37.508,11.743-73.623l8.775,4.794   c-16.638,30.453-21.665,53.54-13.448,61.757c8.237,8.234,31.317,3.208,61.744-13.446l1.13-0.614   c38.08-21.034,85.105-58.296,129.22-102.41c44.444-44.444,81.945-91.857,102.905-130.101l0.111-0.204   c16.658-30.482,21.683-53.568,13.455-61.787c-8.229-8.237-31.31-3.21-61.746,13.435l-4.799-8.774   c36.104-19.743,61.561-23.801,73.616-11.732c12.053,12.041,8.008,37.478-11.702,73.561l-0.107,0.2   c-21.386,39.06-59.534,87.344-104.663,132.472c-45.138,45.138-93.422,83.282-132.473,104.652l-0.089,0.048   c-0.083,0.045-0.161,0.086-0.232,0.121l-0.02,0.01C128.494,400.826,110.182,407.006,96.65,407.007z" fill="#333333"/><path d="M35.17,454.673c-4.631,0-8.169-0.883-9.707-2.421c-0.333-0.333-8-8.563,5.82-43.603   c7.498-19.008,19.611-41.322,35.632-65.757c-12.689,30.56-12.24,52.876,1.394,66.51c4.854,4.854,13.719,10.641,28.381,10.641   c10.637,0,23.364-3.076,38.009-9.171c-42.498,27.844-78.332,43.801-99.524,43.801C35.172,454.673,35.172,454.673,35.17,454.673z    M410.816,134.801c12.681-30.548,12.224-52.863-1.422-66.495c-4.84-4.845-13.703-10.635-28.37-10.635   c-10.625,0-23.343,3.071-37.977,9.154c42.486-27.833,78.31-43.781,99.499-43.781c4.629,0,8.166,0.882,9.704,2.42   c0.334,0.333,8.002,8.563-5.818,43.603C438.937,88.069,426.827,110.376,410.816,134.801z" fill="#ddbe7f"/><path d="M149.146,387.173l-4.312-2.082c-22.685-14.126-42.123-33.569-56.216-56.227   c-6.563-10.552-12-21.841-16.161-33.551c-6.666-18.719-10.047-38.387-10.047-58.456c0-96.188,78.255-174.443,174.443-174.443   c20.077,0,39.75,3.38,58.471,10.048c11.677,4.153,22.96,9.59,33.535,16.158c22.686,14.11,42.13,33.557,56.23,56.241l-5.895,9.935   l-2.597-4.656c-13.296-21.388-31.629-39.724-53.018-53.027c-9.967-6.191-20.602-11.315-31.609-15.23   c-17.643-6.283-36.186-9.469-55.117-9.469c-90.675,0-164.443,73.769-164.443,164.443c0,18.923,3.186,37.462,9.468,55.105   c3.923,11.039,9.048,21.677,15.232,31.621c13.238,21.285,31.48,39.561,52.77,52.87l3.553,1.686L149.146,387.173z" fill="#333333"/></g><g transform="matrix(0.10584138333797455 0 0 0.10584138333797455 177.90460586547852 145.90460586547852)" id="L1_24"><path d="M503.983,4.276H8.017C3.589,4.276,0,7.865,0,12.292v487.415c0,4.427,3.589,8.017,8.017,8.017h495.967  c4.427,0,8.017-3.589,8.017-8.017V12.292C512,7.865,508.411,4.276,503.983,4.276z" fill="#e6eaea"/><path d="M503.983,4.276H8.017C3.589,4.276,0,7.865,0,12.292v110.63h512V12.292  C512,7.865,508.411,4.276,503.983,4.276z" fill="#9baaab"/><path d="M8.017,4.276C3.589,4.276,0,7.865,0,12.292v487.415c0,4.427,3.589,8.017,8.017,8.017H256V4.276H8.017  z" fill="#cdd4d5"/><path d="M8.017,4.276C3.589,4.276,0,7.865,0,12.292v110.63h256V4.276H8.017z" fill="#687f82"/><path d="M264.551,29.929c-18.566,0-33.67,15.105-33.67,33.67s15.105,33.67,33.67,33.67  s33.67-15.105,33.67-33.67S283.117,29.929,264.551,29.929z" fill="#4acfd9"/><path d="M170.489,29.929c-18.566,0-33.67,15.105-33.67,33.67s15.105,33.67,33.67,33.67  s33.67-15.105,33.67-33.67S189.054,29.929,170.489,29.929z" fill="#ff8c29"/><path d="M76.426,29.929c-18.566,0-33.67,15.105-33.67,33.67s15.105,33.67,33.67,33.67  s33.67-15.105,33.67-33.67S94.992,29.929,76.426,29.929z" fill="#f0353d"/><g><path d="M427.023,54.514H332.96c-4.428,0-8.017-3.589-8.017-8.017s3.588-8.017,8.017-8.017h94.063   c4.428,0,8.017,3.589,8.017,8.017S431.451,54.514,427.023,54.514z" fill="#ffffff"/><path d="M469.779,54.514h-17.102c-4.428,0-8.017-3.589-8.017-8.017s3.588-8.017,8.017-8.017h17.102   c4.428,0,8.017,3.589,8.017,8.017S474.207,54.514,469.779,54.514z" fill="#ffffff"/></g><g><path d="M464.942,290.914l-81.236-76.959c-4.664-4.419-10.771-6.767-17.19-6.583   c-6.422,0.174-12.392,2.838-16.809,7.501c-4.419,4.664-6.757,10.768-6.583,17.191c0.174,6.421,2.837,12.391,7.501,16.809   l62.274,58.995l-61.769,55.267c-4.788,4.283-7.62,10.175-7.977,16.589c-0.356,6.414,1.806,12.583,6.091,17.371   c4.557,5.092,11.091,8.012,17.927,8.014c0.001,0,0.002,0,0.003,0c5.918,0,11.611-2.176,16.029-6.127l81.236-72.685   c4.996-4.47,7.915-10.878,8.01-17.581C472.543,302.012,469.807,295.524,464.942,290.914z" fill="#fd6a33"/><path d="M306.48,219.121c-11.495-6.614-26.226-2.647-32.842,8.843l-81.236,141.094   c-6.618,11.492-2.65,26.225,8.843,32.843c3.648,2.099,7.792,3.21,11.983,3.21c8.585,0,16.577-4.619,20.857-12.053l81.236-141.093   c3.205-5.567,4.051-12.05,2.382-18.252C316.033,227.509,312.047,222.327,306.48,219.121z" fill="#fd6a33"/></g><g><path d="M192.402,369.058c-6.618,11.492-2.65,26.225,8.843,32.843c3.648,2.099,7.792,3.21,11.983,3.21   c8.585,0,16.577-4.619,20.857-12.053l21.913-38.06v-96.4L192.402,369.058z" fill="#f0353d"/><path d="M168.877,232.063c0.174-6.422-2.163-12.527-6.582-17.191c-4.419-4.664-10.389-7.327-16.811-7.501   c-6.403-0.175-12.526,2.165-17.19,6.582l-81.236,76.96c-4.866,4.61-7.602,11.098-7.507,17.801   c0.095,6.703,3.015,13.112,8.011,17.581l81.237,72.686c4.417,3.951,10.109,6.126,16.029,6.126c0.001,0,0.002,0,0.003,0   c6.836,0,13.371-2.921,17.927-8.013c8.842-9.883,7.996-25.117-1.887-33.96l-61.769-55.267l62.274-58.995   C166.039,244.454,168.703,238.484,168.877,232.063z" fill="#f0353d"/></g></g><g transform="matrix(0.07339232414960861 0 0 0.07339232414960861 180.58226568251848 28.582265682518482)" id="L1_25"><path d="M296.751,412.735 204.8,412.735 220.473,379.298 234.057,347.951 267.494,347.951   281.078,379.298z" fill="#ff7058"/><path d="M355.265,412.735h-208.98c-11.494,0-20.898,9.404-20.898,20.898v67.918h249.731v-67.918  C376.163,422.139,366.759,412.735,355.265,412.735z" fill="#ffd15c"/><path d="M281.078,379.298c-8.359,4.18-16.718,8.359-25.078,11.494l-5.224,1.045l-5.225-2.09  c-8.359-3.135-16.718-7.314-25.078-11.494l13.584-31.347h32.392L281.078,379.298z" fill="#f1543f"/><g><path d="M0,57.469v42.841C0,204.8,64.784,294.661,155.69,332.278c29.257,12.539,61.649,18.808,95.086,18.808   s65.829-6.269,95.086-18.808c90.906-37.616,155.69-127.478,155.69-231.967V57.469H0z M459.755,100.31   c0,50.155-17.763,96.131-48.065,132.702c-38.661,45.975-96.131,76.278-160.914,76.278s-122.253-29.257-160.914-76.278   c-29.257-35.527-48.065-82.547-48.065-132.702v-1.045H458.71v1.045H459.755z" fill="#f8b64c"/><path d="M413.78,0H87.771c-7.314,0-12.539,6.269-12.539,12.539c0,7.314,5.224,13.584,12.539,13.584H413.78   c7.314,0,12.539-6.269,12.539-12.539C426.318,6.269,421.094,0,413.78,0z" fill="#f8b64c"/></g><path d="M413.78,26.122v112.849c0,104.49-64.784,199.576-163.004,237.192  c-98.22-38.661-163.004-132.702-163.004-238.237V26.122H413.78z" fill="#ffd15c"/><path d="M250.776,73.143 272.718,140.016 342.727,140.016 286.302,181.812 307.2,248.686   250.776,206.89 194.351,248.686 215.249,181.812 158.824,140.016 228.833,140.016z" fill="#ffffff"/><rect x="87px" y="26px" width="324px" height="15px" fill="#ffc952"/></g></defs><g fi:class="KUsePattern"><pattern id="pattern_L1_10" width="350" height="350" patternUnits="userSpaceOnUse"><use xlink:href="#L1_10" x="-350" y="-350"/><use xlink:href="#L1_10" x="0" y="-350"/><use xlink:href="#L1_10" x="350" y="-350"/><use xlink:href="#L1_10" x="-350" y="0"/><use xlink:href="#L1_10" x="0" y="0"/><use xlink:href="#L1_10" x="350" y="0"/><use xlink:href="#L1_10" x="-350" y="350"/><use xlink:href="#L1_10" x="0" y="350"/><use xlink:href="#L1_10" x="350" y="350"/></pattern><rect x="0" y="0" width="100%" height="100%" fill="url(#pattern_L1_10)"/></g><g fi:class="KUsePattern"><pattern id="pattern_L1_11" width="350" height="350" patternUnits="userSpaceOnUse"><use xlink:href="#L1_11" x="-350" y="-350"/><use xlink:href="#L1_11" x="0" y="-350"/><use xlink:href="#L1_11" x="350" y="-350"/><use xlink:href="#L1_11" x="-350" y="0"/><use xlink:href="#L1_11" x="0" y="0"/><use xlink:href="#L1_11" x="350" y="0"/><use xlink:href="#L1_11" x="-350" y="350"/><use xlink:href="#L1_11" x="0" y="350"/><use xlink:href="#L1_11" x="350" y="350"/></pattern><rect x="0" y="0" width="100%" height="100%" fill="url(#pattern_L1_11)"/></g><g fi:class="KUsePattern"><pattern id="pattern_L1_12" width="350" height="350" patternUnits="userSpaceOnUse"><use xlink:href="#L1_12" x="-350" y="-350"/><use xlink:href="#L1_12" x="0" y="-350"/><use xlink:href="#L1_12" x="350" y="-350"/><use xlink:href="#L1_12" x="-350" y="0"/><use xlink:href="#L1_12" x="0" y="0"/><use xlink:href="#L1_12" x="350" y="0"/><use xlink:href="#L1_12" x="-350" y="350"/><use xlink:href="#L1_12" x="0" y="350"/><use xlink:href="#L1_12" x="350" y="350"/></pattern><rect x="0" y="0" width="100%" height="100%" fill="url(#pattern_L1_12)"/></g><g fi:class="KUsePattern"><pattern id="pattern_L1_13" width="350" height="350" patternUnits="userSpaceOnUse"><use xlink:href="#L1_13" x="-350" y="-350"/><use xlink:href="#L1_13" x="0" y="-350"/><use xlink:href="#L1_13" x="350" y="-350"/><use xlink:href="#L1_13" x="-350" y="0"/><use xlink:href="#L1_13" x="0" y="0"/><use xlink:href="#L1_13" x="350" y="0"/><use xlink:href="#L1_13" x="-350" y="350"/><use xlink:href="#L1_13" x="0" y="350"/><use xlink:href="#L1_13" x="350" y="350"/></pattern><rect x="0" y="0" width="100%" height="100%" fill="url(#pattern_L1_13)"/></g><g fi:class="KUsePattern"><pattern id="pattern_L1_14" width="350" height="350" patternUnits="userSpaceOnUse"><use xlink:href="#L1_14" x="-350" y="-350"/><use xlink:href="#L1_14" x="0" y="-350"/><use xlink:href="#L1_14" x="350" y="-350"/><use xlink:href="#L1_14" x="-350" y="0"/><use xlink:href="#L1_14" x="0" y="0"/><use xlink:href="#L1_14" x="350" y="0"/><use xlink:href="#L1_14" x="-350" y="350"/><use xlink:href="#L1_14" x="0" y="350"/><use xlink:href="#L1_14" x="350" y="350"/></pattern><rect x="0" y="0" width="100%" height="100%" fill="url(#pattern_L1_14)"/></g><g fi:class="KUsePattern"><pattern id="pattern_L1_15" width="350" height="350" patternUnits="userSpaceOnUse"><use xlink:href="#L1_15" x="-350" y="-350"/><use xlink:href="#L1_15" x="0" y="-350"/><use xlink:href="#L1_15" x="350" y="-350"/><use xlink:href="#L1_15" x="-350" y="0"/><use xlink:href="#L1_15" x="0" y="0"/><use xlink:href="#L1_15" x="350" y="0"/><use xlink:href="#L1_15" x="-350" y="350"/><use xlink:href="#L1_15" x="0" y="350"/><use xlink:href="#L1_15" x="350" y="350"/></pattern><rect x="0" y="0" width="100%" height="100%" fill="url(#pattern_L1_15)"/></g><g fi:class="KUsePattern"><pattern id="pattern_L1_16" width="350" height="350" patternUnits="userSpaceOnUse"><use xlink:href="#L1_16" x="-350" y="-350"/><use xlink:href="#L1_16" x="0" y="-350"/><use xlink:href="#L1_16" x="350" y="-350"/><use xlink:href="#L1_16" x="-350" y="0"/><use xlink:href="#L1_16" x="0" y="0"/><use xlink:href="#L1_16" x="350" y="0"/><use xlink:href="#L1_16" x="-350" y="350"/><use xlink:href="#L1_16" x="0" y="350"/><use xlink:href="#L1_16" x="350" y="350"/></pattern><rect x="0" y="0" width="100%" height="100%" fill="url(#pattern_L1_16)"/></g><g fi:class="KUsePattern"><pattern id="pattern_L1_18" width="350" height="350" patternUnits="userSpaceOnUse"><use xlink:href="#L1_18" x="-350" y="-350"/><use xlink:href="#L1_18" x="0" y="-350"/><use xlink:href="#L1_18" x="350" y="-350"/><use xlink:href="#L1_18" x="-350" y="0"/><use xlink:href="#L1_18" x="0" y="0"/><use xlink:href="#L1_18" x="350" y="0"/><use xlink:href="#L1_18" x="-350" y="350"/><use xlink:href="#L1_18" x="0" y="350"/><use xlink:href="#L1_18" x="350" y="350"/></pattern><rect x="0" y="0" width="100%" height="100%" fill="url(#pattern_L1_18)"/></g><g fi:class="KUsePattern"><pattern id="pattern_L1_19" width="350" height="350" patternUnits="userSpaceOnUse"><use xlink:href="#L1_19" x="-350" y="-350"/><use xlink:href="#L1_19" x="0" y="-350"/><use xlink:href="#L1_19" x="350" y="-350"/><use xlink:href="#L1_19" x="-350" y="0"/><use xlink:href="#L1_19" x="0" y="0"/><use xlink:href="#L1_19" x="350" y="0"/><use xlink:href="#L1_19" x="-350" y="350"/><use xlink:href="#L1_19" x="0" y="350"/><use xlink:href="#L1_19" x="350" y="350"/></pattern><rect x="0" y="0" width="100%" height="100%" fill="url(#pattern_L1_19)"/></g><g fi:class="KUsePattern"><pattern id="pattern_L1_20" width="350" height="350" patternUnits="userSpaceOnUse"><use xlink:href="#L1_20" x="-350" y="-350"/><use xlink:href="#L1_20" x="0" y="-350"/><use xlink:href="#L1_20" x="350" y="-350"/><use xlink:href="#L1_20" x="-350" y="0"/><use xlink:href="#L1_20" x="0" y="0"/><use xlink:href="#L1_20" x="350" y="0"/><use xlink:href="#L1_20" x="-350" y="350"/><use xlink:href="#L1_20" x="0" y="350"/><use xlink:href="#L1_20" x="350" y="350"/></pattern><rect x="0" y="0" width="100%" height="100%" fill="url(#pattern_L1_20)"/></g><g fi:class="KUsePattern"><pattern id="pattern_L1_21" width="350" height="350" patternUnits="userSpaceOnUse"><use xlink:href="#L1_21" x="-350" y="-350"/><use xlink:href="#L1_21" x="0" y="-350"/><use xlink:href="#L1_21" x="350" y="-350"/><use xlink:href="#L1_21" x="-350" y="0"/><use xlink:href="#L1_21" x="0" y="0"/><use xlink:href="#L1_21" x="350" y="0"/><use xlink:href="#L1_21" x="-350" y="350"/><use xlink:href="#L1_21" x="0" y="350"/><use xlink:href="#L1_21" x="350" y="350"/></pattern><rect x="0" y="0" width="100%" height="100%" fill="url(#pattern_L1_21)"/></g><g fi:class="KUsePattern" opacity="1"><pattern id="pattern_L1_9" width="350" height="350" patternUnits="userSpaceOnUse"><use xlink:href="#L1_9" x="-350" y="-350"/><use xlink:href="#L1_9" x="0" y="-350"/><use xlink:href="#L1_9" x="350" y="-350"/><use xlink:href="#L1_9" x="-350" y="0"/><use xlink:href="#L1_9" x="0" y="0"/><use xlink:href="#L1_9" x="350" y="0"/><use xlink:href="#L1_9" x="-350" y="350"/><use xlink:href="#L1_9" x="0" y="350"/><use xlink:href="#L1_9" x="350" y="350"/></pattern><rect x="0" y="0" width="100%" height="100%" fill="url(#pattern_L1_9)"/></g><g fi:class="KUsePattern"><pattern id="pattern_L1_22" width="350" height="350" patternUnits="userSpaceOnUse"><use xlink:href="#L1_22" x="-350" y="-350"/><use xlink:href="#L1_22" x="0" y="-350"/><use xlink:href="#L1_22" x="350" y="-350"/><use xlink:href="#L1_22" x="-350" y="0"/><use xlink:href="#L1_22" x="0" y="0"/><use xlink:href="#L1_22" x="350" y="0"/><use xlink:href="#L1_22" x="-350" y="350"/><use xlink:href="#L1_22" x="0" y="350"/><use xlink:href="#L1_22" x="350" y="350"/></pattern><rect x="0" y="0" width="100%" height="100%" fill="url(#pattern_L1_22)"/></g><g fi:class="KUsePattern"><pattern id="pattern_L1_23" width="350" height="350" patternUnits="userSpaceOnUse"><use xlink:href="#L1_23" x="-350" y="-350"/><use xlink:href="#L1_23" x="0" y="-350"/><use xlink:href="#L1_23" x="350" y="-350"/><use xlink:href="#L1_23" x="-350" y="0"/><use xlink:href="#L1_23" x="0" y="0"/><use xlink:href="#L1_23" x="350" y="0"/><use xlink:href="#L1_23" x="-350" y="350"/><use xlink:href="#L1_23" x="0" y="350"/><use xlink:href="#L1_23" x="350" y="350"/></pattern><rect x="0" y="0" width="100%" height="100%" fill="url(#pattern_L1_23)"/></g><g fi:class="KUsePattern"><pattern id="pattern_L1_24" width="350" height="350" patternUnits="userSpaceOnUse"><use xlink:href="#L1_24" x="-350" y="-350"/><use xlink:href="#L1_24" x="0" y="-350"/><use xlink:href="#L1_24" x="350" y="-350"/><use xlink:href="#L1_24" x="-350" y="0"/><use xlink:href="#L1_24" x="0" y="0"/><use xlink:href="#L1_24" x="350" y="0"/><use xlink:href="#L1_24" x="-350" y="350"/><use xlink:href="#L1_24" x="0" y="350"/><use xlink:href="#L1_24" x="350" y="350"/></pattern><rect x="0" y="0" width="100%" height="100%" fill="url(#pattern_L1_24)"/></g><g fi:class="KUsePattern"><pattern id="pattern_L1_25" width="350" height="350" patternUnits="userSpaceOnUse"><use xlink:href="#L1_25" x="-350" y="-350"/><use xlink:href="#L1_25" x="0" y="-350"/><use xlink:href="#L1_25" x="350" y="-350"/><use xlink:href="#L1_25" x="-350" y="0"/><use xlink:href="#L1_25" x="0" y="0"/><use xlink:href="#L1_25" x="350" y="0"/><use xlink:href="#L1_25" x="-350" y="350"/><use xlink:href="#L1_25" x="0" y="350"/><use xlink:href="#L1_25" x="350" y="350"/></pattern><rect x="0" y="0" width="100%" height="100%" fill="url(#pattern_L1_25)"/></g></svg>